<?xml version="1.0" encoding="utf-8" standalone="no"?>
<!DOCTYPE svg PUBLIC "-//W3C//DTD SVG 1.1//EN"
  "http://www.w3.org/Graphics/SVG/1.1/DTD/svg11.dtd">
<svg xmlns:xlink="http://www.w3.org/1999/xlink" width="850.74431pt" height="419.3625pt" viewBox="0 0 850.74431 419.3625" xmlns="http://www.w3.org/2000/svg" version="1.1">
 <metadata>
  <rdf:RDF xmlns:dc="http://purl.org/dc/elements/1.1/" xmlns:cc="http://creativecommons.org/ns#" xmlns:rdf="http://www.w3.org/1999/02/22-rdf-syntax-ns#">
   <cc:Work>
    <dc:type rdf:resource="http://purl.org/dc/dcmitype/StillImage"/>
    <dc:date>2025-09-01T09:53:17.186256</dc:date>
    <dc:format>image/svg+xml</dc:format>
    <dc:creator>
     <cc:Agent>
      <dc:title>Matplotlib v3.10.5, https://matplotlib.org/</dc:title>
     </cc:Agent>
    </dc:creator>
   </cc:Work>
  </rdf:RDF>
 </metadata>
 <defs>
  <style type="text/css">*{stroke-linejoin: round; stroke-linecap: butt}</style>
 </defs>
 <g id="figure_1">
  <g id="patch_1">
   <path d="M 0 419.3625 
L 850.74431 419.3625 
L 850.74431 0 
L 0 0 
z
" style="fill: #ffffff"/>
  </g>
  <g id="axes_1">
   <g id="patch_2">
    <path d="M 47.6525 264.0875 
L 643.0305 264.0875 
L 643.0305 25.3575 
L 47.6525 25.3575 
z
" style="fill: #ffffff"/>
   </g>
   <g id="patch_3">
    <path d="M 60.5955 285.26175 
L 60.5955 285.26175 
L 60.5955 285.26175 
L 60.5955 285.26175 
z
" clip-path="url(#p74967418e2)" style="fill: #c789e5; stroke: #434343; stroke-width: 2; stroke-linejoin: miter"/>
   </g>
   <g id="patch_4">
    <path d="M 60.5955 285.26175 
L 60.5955 285.26175 
L 60.5955 285.26175 
L 60.5955 285.26175 
z
" clip-path="url(#p74967418e2)" style="fill: #4a9eb4; stroke: #434343; stroke-width: 2; stroke-linejoin: miter"/>
   </g>
   <g id="patch_5">
    <path d="M 60.5955 285.26175 
L 60.5955 285.26175 
L 60.5955 285.26175 
L 60.5955 285.26175 
z
" clip-path="url(#p74967418e2)" style="fill: #43a178; stroke: #434343; stroke-width: 2; stroke-linejoin: miter"/>
   </g>
   <g id="patch_6">
    <path d="M 60.5955 285.26175 
L 60.5955 285.26175 
L 60.5955 285.26175 
L 60.5955 285.26175 
z
" clip-path="url(#p74967418e2)" style="fill: #e68193; stroke: #434343; stroke-width: 2; stroke-linejoin: miter"/>
   </g>
   <g id="patch_7">
    <path d="M 60.5955 285.26175 
L 60.5955 285.26175 
L 60.5955 285.26175 
L 60.5955 285.26175 
z
" clip-path="url(#p74967418e2)" style="fill: #9e9241; stroke: #434343; stroke-width: 2; stroke-linejoin: miter"/>
   </g>
   <g id="matplotlib.axis_1">
    <g id="xtick_1">
     <g id="line2d_1">
      <defs>
       <path id="m88697cfcd2" d="M 0 0 
L 0 3.5 
" style="stroke: #000000; stroke-width: 0.8"/>
      </defs>
      <g>
       <use xlink:href="#m88697cfcd2" x="60.5955" y="264.0875" style="stroke: #000000; stroke-width: 0.8"/>
      </g>
     </g>
     <g id="text_1">
      <!-- Most Frequent -->
      <g transform="translate(58.099875 356.548125) rotate(-90) scale(0.12 -0.12)">
       <defs>
        <path id="DejaVuSans-4d" d="M 628 4666 
L 1569 4666 
L 2759 1491 
L 3956 4666 
L 4897 4666 
L 4897 0 
L 4281 0 
L 4281 4097 
L 3078 897 
L 2444 897 
L 1241 4097 
L 1241 0 
L 628 0 
L 628 4666 
z
" transform="scale(0.015625)"/>
        <path id="DejaVuSans-6f" d="M 1959 3097 
Q 1497 3097 1228 2736 
Q 959 2375 959 1747 
Q 959 1119 1226 758 
Q 1494 397 1959 397 
Q 2419 397 2687 759 
Q 2956 1122 2956 1747 
Q 2956 2369 2687 2733 
Q 2419 3097 1959 3097 
z
M 1959 3584 
Q 2709 3584 3137 3096 
Q 3566 2609 3566 1747 
Q 3566 888 3137 398 
Q 2709 -91 1959 -91 
Q 1206 -91 779 398 
Q 353 888 353 1747 
Q 353 2609 779 3096 
Q 1206 3584 1959 3584 
z
" transform="scale(0.015625)"/>
        <path id="DejaVuSans-73" d="M 2834 3397 
L 2834 2853 
Q 2591 2978 2328 3040 
Q 2066 3103 1784 3103 
Q 1356 3103 1142 2972 
Q 928 2841 928 2578 
Q 928 2378 1081 2264 
Q 1234 2150 1697 2047 
L 1894 2003 
Q 2506 1872 2764 1633 
Q 3022 1394 3022 966 
Q 3022 478 2636 193 
Q 2250 -91 1575 -91 
Q 1294 -91 989 -36 
Q 684 19 347 128 
L 347 722 
Q 666 556 975 473 
Q 1284 391 1588 391 
Q 1994 391 2212 530 
Q 2431 669 2431 922 
Q 2431 1156 2273 1281 
Q 2116 1406 1581 1522 
L 1381 1569 
Q 847 1681 609 1914 
Q 372 2147 372 2553 
Q 372 3047 722 3315 
Q 1072 3584 1716 3584 
Q 2034 3584 2315 3537 
Q 2597 3491 2834 3397 
z
" transform="scale(0.015625)"/>
        <path id="DejaVuSans-74" d="M 1172 4494 
L 1172 3500 
L 2356 3500 
L 2356 3053 
L 1172 3053 
L 1172 1153 
Q 1172 725 1289 603 
Q 1406 481 1766 481 
L 2356 481 
L 2356 0 
L 1766 0 
Q 1100 0 847 248 
Q 594 497 594 1153 
L 594 3053 
L 172 3053 
L 172 3500 
L 594 3500 
L 594 4494 
L 1172 4494 
z
" transform="scale(0.015625)"/>
        <path id="DejaVuSans-20" transform="scale(0.015625)"/>
        <path id="DejaVuSans-46" d="M 628 4666 
L 3309 4666 
L 3309 4134 
L 1259 4134 
L 1259 2759 
L 3109 2759 
L 3109 2228 
L 1259 2228 
L 1259 0 
L 628 0 
L 628 4666 
z
" transform="scale(0.015625)"/>
        <path id="DejaVuSans-72" d="M 2631 2963 
Q 2534 3019 2420 3045 
Q 2306 3072 2169 3072 
Q 1681 3072 1420 2755 
Q 1159 2438 1159 1844 
L 1159 0 
L 581 0 
L 581 3500 
L 1159 3500 
L 1159 2956 
Q 1341 3275 1631 3429 
Q 1922 3584 2338 3584 
Q 2397 3584 2469 3576 
Q 2541 3569 2628 3553 
L 2631 2963 
z
" transform="scale(0.015625)"/>
        <path id="DejaVuSans-65" d="M 3597 1894 
L 3597 1613 
L 953 1613 
Q 991 1019 1311 708 
Q 1631 397 2203 397 
Q 2534 397 2845 478 
Q 3156 559 3463 722 
L 3463 178 
Q 3153 47 2828 -22 
Q 2503 -91 2169 -91 
Q 1331 -91 842 396 
Q 353 884 353 1716 
Q 353 2575 817 3079 
Q 1281 3584 2069 3584 
Q 2775 3584 3186 3129 
Q 3597 2675 3597 1894 
z
M 3022 2063 
Q 3016 2534 2758 2815 
Q 2500 3097 2075 3097 
Q 1594 3097 1305 2825 
Q 1016 2553 972 2059 
L 3022 2063 
z
" transform="scale(0.015625)"/>
        <path id="DejaVuSans-71" d="M 947 1747 
Q 947 1113 1208 752 
Q 1469 391 1925 391 
Q 2381 391 2643 752 
Q 2906 1113 2906 1747 
Q 2906 2381 2643 2742 
Q 2381 3103 1925 3103 
Q 1469 3103 1208 2742 
Q 947 2381 947 1747 
z
M 2906 525 
Q 2725 213 2448 61 
Q 2172 -91 1784 -91 
Q 1150 -91 751 415 
Q 353 922 353 1747 
Q 353 2572 751 3078 
Q 1150 3584 1784 3584 
Q 2172 3584 2448 3432 
Q 2725 3281 2906 2969 
L 2906 3500 
L 3481 3500 
L 3481 -1331 
L 2906 -1331 
L 2906 525 
z
" transform="scale(0.015625)"/>
        <path id="DejaVuSans-75" d="M 544 1381 
L 544 3500 
L 1119 3500 
L 1119 1403 
Q 1119 906 1312 657 
Q 1506 409 1894 409 
Q 2359 409 2629 706 
Q 2900 1003 2900 1516 
L 2900 3500 
L 3475 3500 
L 3475 0 
L 2900 0 
L 2900 538 
Q 2691 219 2414 64 
Q 2138 -91 1772 -91 
Q 1169 -91 856 284 
Q 544 659 544 1381 
z
M 1991 3584 
L 1991 3584 
z
" transform="scale(0.015625)"/>
        <path id="DejaVuSans-6e" d="M 3513 2113 
L 3513 0 
L 2938 0 
L 2938 2094 
Q 2938 2591 2744 2837 
Q 2550 3084 2163 3084 
Q 1697 3084 1428 2787 
Q 1159 2491 1159 1978 
L 1159 0 
L 581 0 
L 581 3500 
L 1159 3500 
L 1159 2956 
Q 1366 3272 1645 3428 
Q 1925 3584 2291 3584 
Q 2894 3584 3203 3211 
Q 3513 2838 3513 2113 
z
" transform="scale(0.015625)"/>
       </defs>
       <use xlink:href="#DejaVuSans-4d"/>
       <use xlink:href="#DejaVuSans-6f" transform="translate(86.279297 0)"/>
       <use xlink:href="#DejaVuSans-73" transform="translate(147.460938 0)"/>
       <use xlink:href="#DejaVuSans-74" transform="translate(199.560547 0)"/>
       <use xlink:href="#DejaVuSans-20" transform="translate(238.769531 0)"/>
       <use xlink:href="#DejaVuSans-46" transform="translate(270.556641 0)"/>
       <use xlink:href="#DejaVuSans-72" transform="translate(320.826172 0)"/>
       <use xlink:href="#DejaVuSans-65" transform="translate(359.689453 0)"/>
       <use xlink:href="#DejaVuSans-71" transform="translate(421.212891 0)"/>
       <use xlink:href="#DejaVuSans-75" transform="translate(484.689453 0)"/>
       <use xlink:href="#DejaVuSans-65" transform="translate(548.068359 0)"/>
       <use xlink:href="#DejaVuSans-6e" transform="translate(609.591797 0)"/>
       <use xlink:href="#DejaVuSans-74" transform="translate(672.970703 0)"/>
      </g>
     </g>
    </g>
    <g id="xtick_2">
     <g id="line2d_2">
      <g>
       <use xlink:href="#m88697cfcd2" x="86.4815" y="264.0875" style="stroke: #000000; stroke-width: 0.8"/>
      </g>
     </g>
     <g id="text_2">
      <!-- Stratified sampler -->
      <g transform="translate(83.985875 378.67125) rotate(-90) scale(0.12 -0.12)">
       <defs>
        <path id="DejaVuSans-53" d="M 3425 4513 
L 3425 3897 
Q 3066 4069 2747 4153 
Q 2428 4238 2131 4238 
Q 1616 4238 1336 4038 
Q 1056 3838 1056 3469 
Q 1056 3159 1242 3001 
Q 1428 2844 1947 2747 
L 2328 2669 
Q 3034 2534 3370 2195 
Q 3706 1856 3706 1288 
Q 3706 609 3251 259 
Q 2797 -91 1919 -91 
Q 1588 -91 1214 -16 
Q 841 59 441 206 
L 441 856 
Q 825 641 1194 531 
Q 1563 422 1919 422 
Q 2459 422 2753 634 
Q 3047 847 3047 1241 
Q 3047 1584 2836 1778 
Q 2625 1972 2144 2069 
L 1759 2144 
Q 1053 2284 737 2584 
Q 422 2884 422 3419 
Q 422 4038 858 4394 
Q 1294 4750 2059 4750 
Q 2388 4750 2728 4690 
Q 3069 4631 3425 4513 
z
" transform="scale(0.015625)"/>
        <path id="DejaVuSans-61" d="M 2194 1759 
Q 1497 1759 1228 1600 
Q 959 1441 959 1056 
Q 959 750 1161 570 
Q 1363 391 1709 391 
Q 2188 391 2477 730 
Q 2766 1069 2766 1631 
L 2766 1759 
L 2194 1759 
z
M 3341 1997 
L 3341 0 
L 2766 0 
L 2766 531 
Q 2569 213 2275 61 
Q 1981 -91 1556 -91 
Q 1019 -91 701 211 
Q 384 513 384 1019 
Q 384 1609 779 1909 
Q 1175 2209 1959 2209 
L 2766 2209 
L 2766 2266 
Q 2766 2663 2505 2880 
Q 2244 3097 1772 3097 
Q 1472 3097 1187 3025 
Q 903 2953 641 2809 
L 641 3341 
Q 956 3463 1253 3523 
Q 1550 3584 1831 3584 
Q 2591 3584 2966 3190 
Q 3341 2797 3341 1997 
z
" transform="scale(0.015625)"/>
        <path id="DejaVuSans-69" d="M 603 3500 
L 1178 3500 
L 1178 0 
L 603 0 
L 603 3500 
z
M 603 4863 
L 1178 4863 
L 1178 4134 
L 603 4134 
L 603 4863 
z
" transform="scale(0.015625)"/>
        <path id="DejaVuSans-66" d="M 2375 4863 
L 2375 4384 
L 1825 4384 
Q 1516 4384 1395 4259 
Q 1275 4134 1275 3809 
L 1275 3500 
L 2222 3500 
L 2222 3053 
L 1275 3053 
L 1275 0 
L 697 0 
L 697 3053 
L 147 3053 
L 147 3500 
L 697 3500 
L 697 3744 
Q 697 4328 969 4595 
Q 1241 4863 1831 4863 
L 2375 4863 
z
" transform="scale(0.015625)"/>
        <path id="DejaVuSans-64" d="M 2906 2969 
L 2906 4863 
L 3481 4863 
L 3481 0 
L 2906 0 
L 2906 525 
Q 2725 213 2448 61 
Q 2172 -91 1784 -91 
Q 1150 -91 751 415 
Q 353 922 353 1747 
Q 353 2572 751 3078 
Q 1150 3584 1784 3584 
Q 2172 3584 2448 3432 
Q 2725 3281 2906 2969 
z
M 947 1747 
Q 947 1113 1208 752 
Q 1469 391 1925 391 
Q 2381 391 2643 752 
Q 2906 1113 2906 1747 
Q 2906 2381 2643 2742 
Q 2381 3103 1925 3103 
Q 1469 3103 1208 2742 
Q 947 2381 947 1747 
z
" transform="scale(0.015625)"/>
        <path id="DejaVuSans-6d" d="M 3328 2828 
Q 3544 3216 3844 3400 
Q 4144 3584 4550 3584 
Q 5097 3584 5394 3201 
Q 5691 2819 5691 2113 
L 5691 0 
L 5113 0 
L 5113 2094 
Q 5113 2597 4934 2840 
Q 4756 3084 4391 3084 
Q 3944 3084 3684 2787 
Q 3425 2491 3425 1978 
L 3425 0 
L 2847 0 
L 2847 2094 
Q 2847 2600 2669 2842 
Q 2491 3084 2119 3084 
Q 1678 3084 1418 2786 
Q 1159 2488 1159 1978 
L 1159 0 
L 581 0 
L 581 3500 
L 1159 3500 
L 1159 2956 
Q 1356 3278 1631 3431 
Q 1906 3584 2284 3584 
Q 2666 3584 2933 3390 
Q 3200 3197 3328 2828 
z
" transform="scale(0.015625)"/>
        <path id="DejaVuSans-70" d="M 1159 525 
L 1159 -1331 
L 581 -1331 
L 581 3500 
L 1159 3500 
L 1159 2969 
Q 1341 3281 1617 3432 
Q 1894 3584 2278 3584 
Q 2916 3584 3314 3078 
Q 3713 2572 3713 1747 
Q 3713 922 3314 415 
Q 2916 -91 2278 -91 
Q 1894 -91 1617 61 
Q 1341 213 1159 525 
z
M 3116 1747 
Q 3116 2381 2855 2742 
Q 2594 3103 2138 3103 
Q 1681 3103 1420 2742 
Q 1159 2381 1159 1747 
Q 1159 1113 1420 752 
Q 1681 391 2138 391 
Q 2594 391 2855 752 
Q 3116 1113 3116 1747 
z
" transform="scale(0.015625)"/>
        <path id="DejaVuSans-6c" d="M 603 4863 
L 1178 4863 
L 1178 0 
L 603 0 
L 603 4863 
z
" transform="scale(0.015625)"/>
       </defs>
       <use xlink:href="#DejaVuSans-53"/>
       <use xlink:href="#DejaVuSans-74" transform="translate(63.476562 0)"/>
       <use xlink:href="#DejaVuSans-72" transform="translate(102.685547 0)"/>
       <use xlink:href="#DejaVuSans-61" transform="translate(143.798828 0)"/>
       <use xlink:href="#DejaVuSans-74" transform="translate(205.078125 0)"/>
       <use xlink:href="#DejaVuSans-69" transform="translate(244.287109 0)"/>
       <use xlink:href="#DejaVuSans-66" transform="translate(272.070312 0)"/>
       <use xlink:href="#DejaVuSans-69" transform="translate(307.275391 0)"/>
       <use xlink:href="#DejaVuSans-65" transform="translate(335.058594 0)"/>
       <use xlink:href="#DejaVuSans-64" transform="translate(396.582031 0)"/>
       <use xlink:href="#DejaVuSans-20" transform="translate(460.058594 0)"/>
       <use xlink:href="#DejaVuSans-73" transform="translate(491.845703 0)"/>
       <use xlink:href="#DejaVuSans-61" transform="translate(543.945312 0)"/>
       <use xlink:href="#DejaVuSans-6d" transform="translate(605.224609 0)"/>
       <use xlink:href="#DejaVuSans-70" transform="translate(702.636719 0)"/>
       <use xlink:href="#DejaVuSans-6c" transform="translate(766.113281 0)"/>
       <use xlink:href="#DejaVuSans-65" transform="translate(793.896484 0)"/>
       <use xlink:href="#DejaVuSans-72" transform="translate(855.419922 0)"/>
      </g>
     </g>
    </g>
    <g id="xtick_3">
     <g id="line2d_3">
      <g>
       <use xlink:href="#m88697cfcd2" x="112.3675" y="264.0875" style="stroke: #000000; stroke-width: 0.8"/>
      </g>
     </g>
     <g id="text_3">
      <!-- Deepcelltypes -->
      <g transform="translate(109.871875 356.4225) rotate(-90) scale(0.12 -0.12)">
       <defs>
        <path id="DejaVuSans-44" d="M 1259 4147 
L 1259 519 
L 2022 519 
Q 2988 519 3436 956 
Q 3884 1394 3884 2338 
Q 3884 3275 3436 3711 
Q 2988 4147 2022 4147 
L 1259 4147 
z
M 628 4666 
L 1925 4666 
Q 3281 4666 3915 4102 
Q 4550 3538 4550 2338 
Q 4550 1131 3912 565 
Q 3275 0 1925 0 
L 628 0 
L 628 4666 
z
" transform="scale(0.015625)"/>
        <path id="DejaVuSans-63" d="M 3122 3366 
L 3122 2828 
Q 2878 2963 2633 3030 
Q 2388 3097 2138 3097 
Q 1578 3097 1268 2742 
Q 959 2388 959 1747 
Q 959 1106 1268 751 
Q 1578 397 2138 397 
Q 2388 397 2633 464 
Q 2878 531 3122 666 
L 3122 134 
Q 2881 22 2623 -34 
Q 2366 -91 2075 -91 
Q 1284 -91 818 406 
Q 353 903 353 1747 
Q 353 2603 823 3093 
Q 1294 3584 2113 3584 
Q 2378 3584 2631 3529 
Q 2884 3475 3122 3366 
z
" transform="scale(0.015625)"/>
        <path id="DejaVuSans-79" d="M 2059 -325 
Q 1816 -950 1584 -1140 
Q 1353 -1331 966 -1331 
L 506 -1331 
L 506 -850 
L 844 -850 
Q 1081 -850 1212 -737 
Q 1344 -625 1503 -206 
L 1606 56 
L 191 3500 
L 800 3500 
L 1894 763 
L 2988 3500 
L 3597 3500 
L 2059 -325 
z
" transform="scale(0.015625)"/>
       </defs>
       <use xlink:href="#DejaVuSans-44"/>
       <use xlink:href="#DejaVuSans-65" transform="translate(77.001953 0)"/>
       <use xlink:href="#DejaVuSans-65" transform="translate(138.525391 0)"/>
       <use xlink:href="#DejaVuSans-70" transform="translate(200.048828 0)"/>
       <use xlink:href="#DejaVuSans-63" transform="translate(263.525391 0)"/>
       <use xlink:href="#DejaVuSans-65" transform="translate(318.505859 0)"/>
       <use xlink:href="#DejaVuSans-6c" transform="translate(380.029297 0)"/>
       <use xlink:href="#DejaVuSans-6c" transform="translate(407.8125 0)"/>
       <use xlink:href="#DejaVuSans-74" transform="translate(435.595703 0)"/>
       <use xlink:href="#DejaVuSans-79" transform="translate(474.804688 0)"/>
       <use xlink:href="#DejaVuSans-70" transform="translate(533.984375 0)"/>
       <use xlink:href="#DejaVuSans-65" transform="translate(597.460938 0)"/>
       <use xlink:href="#DejaVuSans-73" transform="translate(658.984375 0)"/>
      </g>
     </g>
    </g>
    <g id="xtick_4">
     <g id="line2d_4">
      <g>
       <use xlink:href="#m88697cfcd2" x="138.2535" y="264.0875" style="stroke: #000000; stroke-width: 0.8"/>
      </g>
     </g>
     <g id="text_4">
      <!-- Deepcelltypes_adapted -->
      <g transform="translate(135.424125 412.0725) rotate(-90) scale(0.12 -0.12)">
       <defs>
        <path id="DejaVuSans-5f" d="M 3263 -1063 
L 3263 -1509 
L -63 -1509 
L -63 -1063 
L 3263 -1063 
z
" transform="scale(0.015625)"/>
       </defs>
       <use xlink:href="#DejaVuSans-44"/>
       <use xlink:href="#DejaVuSans-65" transform="translate(77.001953 0)"/>
       <use xlink:href="#DejaVuSans-65" transform="translate(138.525391 0)"/>
       <use xlink:href="#DejaVuSans-70" transform="translate(200.048828 0)"/>
       <use xlink:href="#DejaVuSans-63" transform="translate(263.525391 0)"/>
       <use xlink:href="#DejaVuSans-65" transform="translate(318.505859 0)"/>
       <use xlink:href="#DejaVuSans-6c" transform="translate(380.029297 0)"/>
       <use xlink:href="#DejaVuSans-6c" transform="translate(407.8125 0)"/>
       <use xlink:href="#DejaVuSans-74" transform="translate(435.595703 0)"/>
       <use xlink:href="#DejaVuSans-79" transform="translate(474.804688 0)"/>
       <use xlink:href="#DejaVuSans-70" transform="translate(533.984375 0)"/>
       <use xlink:href="#DejaVuSans-65" transform="translate(597.460938 0)"/>
       <use xlink:href="#DejaVuSans-73" transform="translate(658.984375 0)"/>
       <use xlink:href="#DejaVuSans-5f" transform="translate(711.083984 0)"/>
       <use xlink:href="#DejaVuSans-61" transform="translate(761.083984 0)"/>
       <use xlink:href="#DejaVuSans-64" transform="translate(822.363281 0)"/>
       <use xlink:href="#DejaVuSans-61" transform="translate(885.839844 0)"/>
       <use xlink:href="#DejaVuSans-70" transform="translate(947.119141 0)"/>
       <use xlink:href="#DejaVuSans-74" transform="translate(1010.595703 0)"/>
       <use xlink:href="#DejaVuSans-65" transform="translate(1049.804688 0)"/>
       <use xlink:href="#DejaVuSans-64" transform="translate(1111.328125 0)"/>
      </g>
     </g>
    </g>
    <g id="xtick_5">
     <g id="line2d_5">
      <g>
       <use xlink:href="#m88697cfcd2" x="164.1395" y="264.0875" style="stroke: #000000; stroke-width: 0.8"/>
      </g>
     </g>
     <g id="text_5">
      <!-- RIBCA -->
      <g transform="translate(161.643875 307.576875) rotate(-90) scale(0.12 -0.12)">
       <defs>
        <path id="DejaVuSans-52" d="M 2841 2188 
Q 3044 2119 3236 1894 
Q 3428 1669 3622 1275 
L 4263 0 
L 3584 0 
L 2988 1197 
Q 2756 1666 2539 1819 
Q 2322 1972 1947 1972 
L 1259 1972 
L 1259 0 
L 628 0 
L 628 4666 
L 2053 4666 
Q 2853 4666 3247 4331 
Q 3641 3997 3641 3322 
Q 3641 2881 3436 2590 
Q 3231 2300 2841 2188 
z
M 1259 4147 
L 1259 2491 
L 2053 2491 
Q 2509 2491 2742 2702 
Q 2975 2913 2975 3322 
Q 2975 3731 2742 3939 
Q 2509 4147 2053 4147 
L 1259 4147 
z
" transform="scale(0.015625)"/>
        <path id="DejaVuSans-49" d="M 628 4666 
L 1259 4666 
L 1259 0 
L 628 0 
L 628 4666 
z
" transform="scale(0.015625)"/>
        <path id="DejaVuSans-42" d="M 1259 2228 
L 1259 519 
L 2272 519 
Q 2781 519 3026 730 
Q 3272 941 3272 1375 
Q 3272 1813 3026 2020 
Q 2781 2228 2272 2228 
L 1259 2228 
z
M 1259 4147 
L 1259 2741 
L 2194 2741 
Q 2656 2741 2882 2914 
Q 3109 3088 3109 3444 
Q 3109 3797 2882 3972 
Q 2656 4147 2194 4147 
L 1259 4147 
z
M 628 4666 
L 2241 4666 
Q 2963 4666 3353 4366 
Q 3744 4066 3744 3513 
Q 3744 3084 3544 2831 
Q 3344 2578 2956 2516 
Q 3422 2416 3680 2098 
Q 3938 1781 3938 1306 
Q 3938 681 3513 340 
Q 3088 0 2303 0 
L 628 0 
L 628 4666 
z
" transform="scale(0.015625)"/>
        <path id="DejaVuSans-43" d="M 4122 4306 
L 4122 3641 
Q 3803 3938 3442 4084 
Q 3081 4231 2675 4231 
Q 1875 4231 1450 3742 
Q 1025 3253 1025 2328 
Q 1025 1406 1450 917 
Q 1875 428 2675 428 
Q 3081 428 3442 575 
Q 3803 722 4122 1019 
L 4122 359 
Q 3791 134 3420 21 
Q 3050 -91 2638 -91 
Q 1578 -91 968 557 
Q 359 1206 359 2328 
Q 359 3453 968 4101 
Q 1578 4750 2638 4750 
Q 3056 4750 3426 4639 
Q 3797 4528 4122 4306 
z
" transform="scale(0.015625)"/>
        <path id="DejaVuSans-41" d="M 2188 4044 
L 1331 1722 
L 3047 1722 
L 2188 4044 
z
M 1831 4666 
L 2547 4666 
L 4325 0 
L 3669 0 
L 3244 1197 
L 1141 1197 
L 716 0 
L 50 0 
L 1831 4666 
z
" transform="scale(0.015625)"/>
       </defs>
       <use xlink:href="#DejaVuSans-52"/>
       <use xlink:href="#DejaVuSans-49" transform="translate(69.482422 0)"/>
       <use xlink:href="#DejaVuSans-42" transform="translate(98.974609 0)"/>
       <use xlink:href="#DejaVuSans-43" transform="translate(165.828125 0)"/>
       <use xlink:href="#DejaVuSans-41" transform="translate(235.652344 0)"/>
      </g>
     </g>
    </g>
    <g id="xtick_6">
     <g id="line2d_6">
      <g>
       <use xlink:href="#m88697cfcd2" x="190.0255" y="264.0875" style="stroke: #000000; stroke-width: 0.8"/>
      </g>
     </g>
     <g id="text_6">
      <!-- RIBCA_adapted -->
      <g transform="translate(187.196125 363.226875) rotate(-90) scale(0.12 -0.12)">
       <use xlink:href="#DejaVuSans-52"/>
       <use xlink:href="#DejaVuSans-49" transform="translate(69.482422 0)"/>
       <use xlink:href="#DejaVuSans-42" transform="translate(98.974609 0)"/>
       <use xlink:href="#DejaVuSans-43" transform="translate(165.828125 0)"/>
       <use xlink:href="#DejaVuSans-41" transform="translate(235.652344 0)"/>
       <use xlink:href="#DejaVuSans-5f" transform="translate(304.060547 0)"/>
       <use xlink:href="#DejaVuSans-61" transform="translate(354.060547 0)"/>
       <use xlink:href="#DejaVuSans-64" transform="translate(415.339844 0)"/>
       <use xlink:href="#DejaVuSans-61" transform="translate(478.816406 0)"/>
       <use xlink:href="#DejaVuSans-70" transform="translate(540.095703 0)"/>
       <use xlink:href="#DejaVuSans-74" transform="translate(603.572266 0)"/>
       <use xlink:href="#DejaVuSans-65" transform="translate(642.78125 0)"/>
       <use xlink:href="#DejaVuSans-64" transform="translate(704.304688 0)"/>
      </g>
     </g>
    </g>
    <g id="xtick_7">
     <g id="line2d_7">
      <g>
       <use xlink:href="#m88697cfcd2" x="215.9115" y="264.0875" style="stroke: #000000; stroke-width: 0.8"/>
      </g>
     </g>
     <g id="text_7">
      <!-- Nimbus -->
      <g transform="translate(213.415875 316.561875) rotate(-90) scale(0.12 -0.12)">
       <defs>
        <path id="DejaVuSans-4e" d="M 628 4666 
L 1478 4666 
L 3547 763 
L 3547 4666 
L 4159 4666 
L 4159 0 
L 3309 0 
L 1241 3903 
L 1241 0 
L 628 0 
L 628 4666 
z
" transform="scale(0.015625)"/>
        <path id="DejaVuSans-62" d="M 3116 1747 
Q 3116 2381 2855 2742 
Q 2594 3103 2138 3103 
Q 1681 3103 1420 2742 
Q 1159 2381 1159 1747 
Q 1159 1113 1420 752 
Q 1681 391 2138 391 
Q 2594 391 2855 752 
Q 3116 1113 3116 1747 
z
M 1159 2969 
Q 1341 3281 1617 3432 
Q 1894 3584 2278 3584 
Q 2916 3584 3314 3078 
Q 3713 2572 3713 1747 
Q 3713 922 3314 415 
Q 2916 -91 2278 -91 
Q 1894 -91 1617 61 
Q 1341 213 1159 525 
L 1159 0 
L 581 0 
L 581 4863 
L 1159 4863 
L 1159 2969 
z
" transform="scale(0.015625)"/>
       </defs>
       <use xlink:href="#DejaVuSans-4e"/>
       <use xlink:href="#DejaVuSans-69" transform="translate(74.804688 0)"/>
       <use xlink:href="#DejaVuSans-6d" transform="translate(102.587891 0)"/>
       <use xlink:href="#DejaVuSans-62" transform="translate(200 0)"/>
       <use xlink:href="#DejaVuSans-75" transform="translate(263.476562 0)"/>
       <use xlink:href="#DejaVuSans-73" transform="translate(326.855469 0)"/>
      </g>
     </g>
    </g>
    <g id="xtick_8">
     <g id="line2d_8">
      <g>
       <use xlink:href="#m88697cfcd2" x="241.7975" y="264.0875" style="stroke: #000000; stroke-width: 0.8"/>
      </g>
     </g>
     <g id="text_8">
      <!-- Astir -->
      <g transform="translate(239.301875 298.51875) rotate(-90) scale(0.12 -0.12)">
       <use xlink:href="#DejaVuSans-41"/>
       <use xlink:href="#DejaVuSans-73" transform="translate(68.408203 0)"/>
       <use xlink:href="#DejaVuSans-74" transform="translate(120.507812 0)"/>
       <use xlink:href="#DejaVuSans-69" transform="translate(159.716797 0)"/>
       <use xlink:href="#DejaVuSans-72" transform="translate(187.5 0)"/>
      </g>
     </g>
    </g>
    <g id="xtick_9">
     <g id="line2d_9">
      <g>
       <use xlink:href="#m88697cfcd2" x="267.6835" y="264.0875" style="stroke: #000000; stroke-width: 0.8"/>
      </g>
     </g>
     <g id="text_9">
      <!-- Tribus -->
      <g transform="translate(265.187875 306.388125) rotate(-90) scale(0.12 -0.12)">
       <defs>
        <path id="DejaVuSans-54" d="M -19 4666 
L 3928 4666 
L 3928 4134 
L 2272 4134 
L 2272 0 
L 1638 0 
L 1638 4134 
L -19 4134 
L -19 4666 
z
" transform="scale(0.015625)"/>
       </defs>
       <use xlink:href="#DejaVuSans-54"/>
       <use xlink:href="#DejaVuSans-72" transform="translate(46.333984 0)"/>
       <use xlink:href="#DejaVuSans-69" transform="translate(87.447266 0)"/>
       <use xlink:href="#DejaVuSans-62" transform="translate(115.230469 0)"/>
       <use xlink:href="#DejaVuSans-75" transform="translate(178.707031 0)"/>
       <use xlink:href="#DejaVuSans-73" transform="translate(242.085938 0)"/>
      </g>
     </g>
    </g>
    <g id="xtick_10">
     <g id="line2d_10">
      <g>
       <use xlink:href="#m88697cfcd2" x="293.5695" y="264.0875" style="stroke: #000000; stroke-width: 0.8"/>
      </g>
     </g>
     <g id="text_10">
      <!-- Scyan -->
      <g transform="translate(291.073875 307.365) rotate(-90) scale(0.12 -0.12)">
       <use xlink:href="#DejaVuSans-53"/>
       <use xlink:href="#DejaVuSans-63" transform="translate(63.476562 0)"/>
       <use xlink:href="#DejaVuSans-79" transform="translate(118.457031 0)"/>
       <use xlink:href="#DejaVuSans-61" transform="translate(177.636719 0)"/>
       <use xlink:href="#DejaVuSans-6e" transform="translate(238.916016 0)"/>
      </g>
     </g>
    </g>
    <g id="xtick_11">
     <g id="line2d_11">
      <g>
       <use xlink:href="#m88697cfcd2" x="319.4555" y="264.0875" style="stroke: #000000; stroke-width: 0.8"/>
      </g>
     </g>
     <g id="text_11">
      <!-- Tacit -->
      <g transform="translate(316.959875 298.426875) rotate(-90) scale(0.12 -0.12)">
       <use xlink:href="#DejaVuSans-54"/>
       <use xlink:href="#DejaVuSans-61" transform="translate(44.583984 0)"/>
       <use xlink:href="#DejaVuSans-63" transform="translate(105.863281 0)"/>
       <use xlink:href="#DejaVuSans-69" transform="translate(160.84375 0)"/>
       <use xlink:href="#DejaVuSans-74" transform="translate(188.626953 0)"/>
      </g>
     </g>
    </g>
    <g id="xtick_12">
     <g id="line2d_12">
      <g>
       <use xlink:href="#m88697cfcd2" x="345.3415" y="264.0875" style="stroke: #000000; stroke-width: 0.8"/>
      </g>
     </g>
     <g id="text_12">
      <!-- CellSighter -->
      <g transform="translate(342.845875 336.714375) rotate(-90) scale(0.12 -0.12)">
       <defs>
        <path id="DejaVuSans-67" d="M 2906 1791 
Q 2906 2416 2648 2759 
Q 2391 3103 1925 3103 
Q 1463 3103 1205 2759 
Q 947 2416 947 1791 
Q 947 1169 1205 825 
Q 1463 481 1925 481 
Q 2391 481 2648 825 
Q 2906 1169 2906 1791 
z
M 3481 434 
Q 3481 -459 3084 -895 
Q 2688 -1331 1869 -1331 
Q 1566 -1331 1297 -1286 
Q 1028 -1241 775 -1147 
L 775 -588 
Q 1028 -725 1275 -790 
Q 1522 -856 1778 -856 
Q 2344 -856 2625 -561 
Q 2906 -266 2906 331 
L 2906 616 
Q 2728 306 2450 153 
Q 2172 0 1784 0 
Q 1141 0 747 490 
Q 353 981 353 1791 
Q 353 2603 747 3093 
Q 1141 3584 1784 3584 
Q 2172 3584 2450 3431 
Q 2728 3278 2906 2969 
L 2906 3500 
L 3481 3500 
L 3481 434 
z
" transform="scale(0.015625)"/>
        <path id="DejaVuSans-68" d="M 3513 2113 
L 3513 0 
L 2938 0 
L 2938 2094 
Q 2938 2591 2744 2837 
Q 2550 3084 2163 3084 
Q 1697 3084 1428 2787 
Q 1159 2491 1159 1978 
L 1159 0 
L 581 0 
L 581 4863 
L 1159 4863 
L 1159 2956 
Q 1366 3272 1645 3428 
Q 1925 3584 2291 3584 
Q 2894 3584 3203 3211 
Q 3513 2838 3513 2113 
z
" transform="scale(0.015625)"/>
       </defs>
       <use xlink:href="#DejaVuSans-43"/>
       <use xlink:href="#DejaVuSans-65" transform="translate(69.824219 0)"/>
       <use xlink:href="#DejaVuSans-6c" transform="translate(131.347656 0)"/>
       <use xlink:href="#DejaVuSans-6c" transform="translate(159.130859 0)"/>
       <use xlink:href="#DejaVuSans-53" transform="translate(186.914062 0)"/>
       <use xlink:href="#DejaVuSans-69" transform="translate(250.390625 0)"/>
       <use xlink:href="#DejaVuSans-67" transform="translate(278.173828 0)"/>
       <use xlink:href="#DejaVuSans-68" transform="translate(341.650391 0)"/>
       <use xlink:href="#DejaVuSans-74" transform="translate(405.029297 0)"/>
       <use xlink:href="#DejaVuSans-65" transform="translate(444.238281 0)"/>
       <use xlink:href="#DejaVuSans-72" transform="translate(505.761719 0)"/>
      </g>
     </g>
    </g>
    <g id="xtick_13">
     <g id="line2d_13">
      <g>
       <use xlink:href="#m88697cfcd2" x="371.2275" y="264.0875" style="stroke: #000000; stroke-width: 0.8"/>
      </g>
     </g>
     <g id="text_13">
      <!-- Logistic Regression -->
      <g transform="translate(368.731875 386.19) rotate(-90) scale(0.12 -0.12)">
       <defs>
        <path id="DejaVuSans-4c" d="M 628 4666 
L 1259 4666 
L 1259 531 
L 3531 531 
L 3531 0 
L 628 0 
L 628 4666 
z
" transform="scale(0.015625)"/>
       </defs>
       <use xlink:href="#DejaVuSans-4c"/>
       <use xlink:href="#DejaVuSans-6f" transform="translate(53.962891 0)"/>
       <use xlink:href="#DejaVuSans-67" transform="translate(115.144531 0)"/>
       <use xlink:href="#DejaVuSans-69" transform="translate(178.621094 0)"/>
       <use xlink:href="#DejaVuSans-73" transform="translate(206.404297 0)"/>
       <use xlink:href="#DejaVuSans-74" transform="translate(258.503906 0)"/>
       <use xlink:href="#DejaVuSans-69" transform="translate(297.712891 0)"/>
       <use xlink:href="#DejaVuSans-63" transform="translate(325.496094 0)"/>
       <use xlink:href="#DejaVuSans-20" transform="translate(380.476562 0)"/>
       <use xlink:href="#DejaVuSans-52" transform="translate(412.263672 0)"/>
       <use xlink:href="#DejaVuSans-65" transform="translate(477.246094 0)"/>
       <use xlink:href="#DejaVuSans-67" transform="translate(538.769531 0)"/>
       <use xlink:href="#DejaVuSans-72" transform="translate(602.246094 0)"/>
       <use xlink:href="#DejaVuSans-65" transform="translate(641.109375 0)"/>
       <use xlink:href="#DejaVuSans-73" transform="translate(702.632812 0)"/>
       <use xlink:href="#DejaVuSans-73" transform="translate(754.732422 0)"/>
       <use xlink:href="#DejaVuSans-69" transform="translate(806.832031 0)"/>
       <use xlink:href="#DejaVuSans-6f" transform="translate(834.615234 0)"/>
       <use xlink:href="#DejaVuSans-6e" transform="translate(895.796875 0)"/>
      </g>
     </g>
    </g>
    <g id="xtick_14">
     <g id="line2d_14">
      <g>
       <use xlink:href="#m88697cfcd2" x="397.1135" y="264.0875" style="stroke: #000000; stroke-width: 0.8"/>
      </g>
     </g>
     <g id="text_14">
      <!-- MAPS -->
      <g transform="translate(394.617875 304.50375) rotate(-90) scale(0.12 -0.12)">
       <defs>
        <path id="DejaVuSans-50" d="M 1259 4147 
L 1259 2394 
L 2053 2394 
Q 2494 2394 2734 2622 
Q 2975 2850 2975 3272 
Q 2975 3691 2734 3919 
Q 2494 4147 2053 4147 
L 1259 4147 
z
M 628 4666 
L 2053 4666 
Q 2838 4666 3239 4311 
Q 3641 3956 3641 3272 
Q 3641 2581 3239 2228 
Q 2838 1875 2053 1875 
L 1259 1875 
L 1259 0 
L 628 0 
L 628 4666 
z
" transform="scale(0.015625)"/>
       </defs>
       <use xlink:href="#DejaVuSans-4d"/>
       <use xlink:href="#DejaVuSans-41" transform="translate(86.279297 0)"/>
       <use xlink:href="#DejaVuSans-50" transform="translate(154.6875 0)"/>
       <use xlink:href="#DejaVuSans-53" transform="translate(214.990234 0)"/>
      </g>
     </g>
    </g>
    <g id="xtick_15">
     <g id="line2d_15">
      <g>
       <use xlink:href="#m88697cfcd2" x="422.9995" y="264.0875" style="stroke: #000000; stroke-width: 0.8"/>
      </g>
     </g>
     <g id="text_15">
      <!-- Random Forest -->
      <g transform="translate(420.503875 361.389375) rotate(-90) scale(0.12 -0.12)">
       <use xlink:href="#DejaVuSans-52"/>
       <use xlink:href="#DejaVuSans-61" transform="translate(67.232422 0)"/>
       <use xlink:href="#DejaVuSans-6e" transform="translate(128.511719 0)"/>
       <use xlink:href="#DejaVuSans-64" transform="translate(191.890625 0)"/>
       <use xlink:href="#DejaVuSans-6f" transform="translate(255.367188 0)"/>
       <use xlink:href="#DejaVuSans-6d" transform="translate(316.548828 0)"/>
       <use xlink:href="#DejaVuSans-20" transform="translate(413.960938 0)"/>
       <use xlink:href="#DejaVuSans-46" transform="translate(445.748047 0)"/>
       <use xlink:href="#DejaVuSans-6f" transform="translate(499.642578 0)"/>
       <use xlink:href="#DejaVuSans-72" transform="translate(560.824219 0)"/>
       <use xlink:href="#DejaVuSans-65" transform="translate(599.6875 0)"/>
       <use xlink:href="#DejaVuSans-73" transform="translate(661.210938 0)"/>
       <use xlink:href="#DejaVuSans-74" transform="translate(713.310547 0)"/>
      </g>
     </g>
    </g>
    <g id="xtick_16">
     <g id="line2d_16">
      <g>
       <use xlink:href="#m88697cfcd2" x="448.8855" y="264.0875" style="stroke: #000000; stroke-width: 0.8"/>
      </g>
     </g>
     <g id="text_16">
      <!-- XGBoost -->
      <g transform="translate(446.389875 322.479375) rotate(-90) scale(0.12 -0.12)">
       <defs>
        <path id="DejaVuSans-58" d="M 403 4666 
L 1081 4666 
L 2241 2931 
L 3406 4666 
L 4084 4666 
L 2584 2425 
L 4184 0 
L 3506 0 
L 2194 1984 
L 872 0 
L 191 0 
L 1856 2491 
L 403 4666 
z
" transform="scale(0.015625)"/>
        <path id="DejaVuSans-47" d="M 3809 666 
L 3809 1919 
L 2778 1919 
L 2778 2438 
L 4434 2438 
L 4434 434 
Q 4069 175 3628 42 
Q 3188 -91 2688 -91 
Q 1594 -91 976 548 
Q 359 1188 359 2328 
Q 359 3472 976 4111 
Q 1594 4750 2688 4750 
Q 3144 4750 3555 4637 
Q 3966 4525 4313 4306 
L 4313 3634 
Q 3963 3931 3569 4081 
Q 3175 4231 2741 4231 
Q 1884 4231 1454 3753 
Q 1025 3275 1025 2328 
Q 1025 1384 1454 906 
Q 1884 428 2741 428 
Q 3075 428 3337 486 
Q 3600 544 3809 666 
z
" transform="scale(0.015625)"/>
       </defs>
       <use xlink:href="#DejaVuSans-58"/>
       <use xlink:href="#DejaVuSans-47" transform="translate(68.505859 0)"/>
       <use xlink:href="#DejaVuSans-42" transform="translate(145.996094 0)"/>
       <use xlink:href="#DejaVuSans-6f" transform="translate(214.599609 0)"/>
       <use xlink:href="#DejaVuSans-6f" transform="translate(275.78125 0)"/>
       <use xlink:href="#DejaVuSans-73" transform="translate(336.962891 0)"/>
       <use xlink:href="#DejaVuSans-74" transform="translate(389.0625 0)"/>
      </g>
     </g>
    </g>
    <g id="xtick_17">
     <g id="line2d_17">
      <g>
       <use xlink:href="#m88697cfcd2" x="474.7715" y="264.0875" style="stroke: #000000; stroke-width: 0.8"/>
      </g>
     </g>
     <g id="text_17">
      <!-- FlowSOM Meta Clusters -->
      <g transform="translate(472.275875 412.1625) rotate(-90) scale(0.12 -0.12)">
       <defs>
        <path id="DejaVuSans-77" d="M 269 3500 
L 844 3500 
L 1563 769 
L 2278 3500 
L 2956 3500 
L 3675 769 
L 4391 3500 
L 4966 3500 
L 4050 0 
L 3372 0 
L 2619 2869 
L 1863 0 
L 1184 0 
L 269 3500 
z
" transform="scale(0.015625)"/>
        <path id="DejaVuSans-4f" d="M 2522 4238 
Q 1834 4238 1429 3725 
Q 1025 3213 1025 2328 
Q 1025 1447 1429 934 
Q 1834 422 2522 422 
Q 3209 422 3611 934 
Q 4013 1447 4013 2328 
Q 4013 3213 3611 3725 
Q 3209 4238 2522 4238 
z
M 2522 4750 
Q 3503 4750 4090 4092 
Q 4678 3434 4678 2328 
Q 4678 1225 4090 567 
Q 3503 -91 2522 -91 
Q 1538 -91 948 565 
Q 359 1222 359 2328 
Q 359 3434 948 4092 
Q 1538 4750 2522 4750 
z
" transform="scale(0.015625)"/>
       </defs>
       <use xlink:href="#DejaVuSans-46"/>
       <use xlink:href="#DejaVuSans-6c" transform="translate(57.519531 0)"/>
       <use xlink:href="#DejaVuSans-6f" transform="translate(85.302734 0)"/>
       <use xlink:href="#DejaVuSans-77" transform="translate(146.484375 0)"/>
       <use xlink:href="#DejaVuSans-53" transform="translate(228.271484 0)"/>
       <use xlink:href="#DejaVuSans-4f" transform="translate(291.748047 0)"/>
       <use xlink:href="#DejaVuSans-4d" transform="translate(370.458984 0)"/>
       <use xlink:href="#DejaVuSans-20" transform="translate(456.738281 0)"/>
       <use xlink:href="#DejaVuSans-4d" transform="translate(488.525391 0)"/>
       <use xlink:href="#DejaVuSans-65" transform="translate(574.804688 0)"/>
       <use xlink:href="#DejaVuSans-74" transform="translate(636.328125 0)"/>
       <use xlink:href="#DejaVuSans-61" transform="translate(675.537109 0)"/>
       <use xlink:href="#DejaVuSans-20" transform="translate(736.816406 0)"/>
       <use xlink:href="#DejaVuSans-43" transform="translate(768.603516 0)"/>
       <use xlink:href="#DejaVuSans-6c" transform="translate(838.427734 0)"/>
       <use xlink:href="#DejaVuSans-75" transform="translate(866.210938 0)"/>
       <use xlink:href="#DejaVuSans-73" transform="translate(929.589844 0)"/>
       <use xlink:href="#DejaVuSans-74" transform="translate(981.689453 0)"/>
       <use xlink:href="#DejaVuSans-65" transform="translate(1020.898438 0)"/>
       <use xlink:href="#DejaVuSans-72" transform="translate(1082.421875 0)"/>
       <use xlink:href="#DejaVuSans-73" transform="translate(1123.535156 0)"/>
      </g>
     </g>
    </g>
    <g id="xtick_18">
     <g id="line2d_18">
      <g>
       <use xlink:href="#m88697cfcd2" x="500.6575" y="264.0875" style="stroke: #000000; stroke-width: 0.8"/>
      </g>
     </g>
     <g id="text_18">
      <!-- FuseSOM -->
      <g transform="translate(498.161875 325.9875) rotate(-90) scale(0.12 -0.12)">
       <use xlink:href="#DejaVuSans-46"/>
       <use xlink:href="#DejaVuSans-75" transform="translate(52.019531 0)"/>
       <use xlink:href="#DejaVuSans-73" transform="translate(115.398438 0)"/>
       <use xlink:href="#DejaVuSans-65" transform="translate(167.498047 0)"/>
       <use xlink:href="#DejaVuSans-53" transform="translate(229.021484 0)"/>
       <use xlink:href="#DejaVuSans-4f" transform="translate(292.498047 0)"/>
       <use xlink:href="#DejaVuSans-4d" transform="translate(371.208984 0)"/>
      </g>
     </g>
    </g>
    <g id="xtick_19">
     <g id="line2d_19">
      <g>
       <use xlink:href="#m88697cfcd2" x="526.5435" y="264.0875" style="stroke: #000000; stroke-width: 0.8"/>
      </g>
     </g>
     <g id="text_19">
      <!-- CellLENS_Full -->
      <g transform="translate(523.714125 350.896875) rotate(-90) scale(0.12 -0.12)">
       <defs>
        <path id="DejaVuSans-45" d="M 628 4666 
L 3578 4666 
L 3578 4134 
L 1259 4134 
L 1259 2753 
L 3481 2753 
L 3481 2222 
L 1259 2222 
L 1259 531 
L 3634 531 
L 3634 0 
L 628 0 
L 628 4666 
z
" transform="scale(0.015625)"/>
       </defs>
       <use xlink:href="#DejaVuSans-43"/>
       <use xlink:href="#DejaVuSans-65" transform="translate(69.824219 0)"/>
       <use xlink:href="#DejaVuSans-6c" transform="translate(131.347656 0)"/>
       <use xlink:href="#DejaVuSans-6c" transform="translate(159.130859 0)"/>
       <use xlink:href="#DejaVuSans-4c" transform="translate(186.914062 0)"/>
       <use xlink:href="#DejaVuSans-45" transform="translate(242.626953 0)"/>
       <use xlink:href="#DejaVuSans-4e" transform="translate(305.810547 0)"/>
       <use xlink:href="#DejaVuSans-53" transform="translate(380.615234 0)"/>
       <use xlink:href="#DejaVuSans-5f" transform="translate(444.091797 0)"/>
       <use xlink:href="#DejaVuSans-46" transform="translate(494.091797 0)"/>
       <use xlink:href="#DejaVuSans-75" transform="translate(546.111328 0)"/>
       <use xlink:href="#DejaVuSans-6c" transform="translate(609.490234 0)"/>
       <use xlink:href="#DejaVuSans-6c" transform="translate(637.273438 0)"/>
      </g>
     </g>
    </g>
    <g id="xtick_20">
     <g id="line2d_20">
      <g>
       <use xlink:href="#m88697cfcd2" x="552.4295" y="264.0875" style="stroke: #000000; stroke-width: 0.8"/>
      </g>
     </g>
     <g id="text_20">
      <!-- FlowSOM -->
      <g transform="translate(549.933875 325.8975) rotate(-90) scale(0.12 -0.12)">
       <use xlink:href="#DejaVuSans-46"/>
       <use xlink:href="#DejaVuSans-6c" transform="translate(57.519531 0)"/>
       <use xlink:href="#DejaVuSans-6f" transform="translate(85.302734 0)"/>
       <use xlink:href="#DejaVuSans-77" transform="translate(146.484375 0)"/>
       <use xlink:href="#DejaVuSans-53" transform="translate(228.271484 0)"/>
       <use xlink:href="#DejaVuSans-4f" transform="translate(291.748047 0)"/>
       <use xlink:href="#DejaVuSans-4d" transform="translate(370.458984 0)"/>
      </g>
     </g>
    </g>
    <g id="xtick_21">
     <g id="line2d_21">
      <g>
       <use xlink:href="#m88697cfcd2" x="578.3155" y="264.0875" style="stroke: #000000; stroke-width: 0.8"/>
      </g>
     </g>
     <g id="text_21">
      <!-- CellLENS_Lite -->
      <g transform="translate(575.486125 352.490625) rotate(-90) scale(0.12 -0.12)">
       <use xlink:href="#DejaVuSans-43"/>
       <use xlink:href="#DejaVuSans-65" transform="translate(69.824219 0)"/>
       <use xlink:href="#DejaVuSans-6c" transform="translate(131.347656 0)"/>
       <use xlink:href="#DejaVuSans-6c" transform="translate(159.130859 0)"/>
       <use xlink:href="#DejaVuSans-4c" transform="translate(186.914062 0)"/>
       <use xlink:href="#DejaVuSans-45" transform="translate(242.626953 0)"/>
       <use xlink:href="#DejaVuSans-4e" transform="translate(305.810547 0)"/>
       <use xlink:href="#DejaVuSans-53" transform="translate(380.615234 0)"/>
       <use xlink:href="#DejaVuSans-5f" transform="translate(444.091797 0)"/>
       <use xlink:href="#DejaVuSans-4c" transform="translate(494.091797 0)"/>
       <use xlink:href="#DejaVuSans-69" transform="translate(549.804688 0)"/>
       <use xlink:href="#DejaVuSans-74" transform="translate(577.587891 0)"/>
       <use xlink:href="#DejaVuSans-65" transform="translate(616.796875 0)"/>
      </g>
     </g>
    </g>
    <g id="xtick_22">
     <g id="line2d_22">
      <g>
       <use xlink:href="#m88697cfcd2" x="604.2015" y="264.0875" style="stroke: #000000; stroke-width: 0.8"/>
      </g>
     </g>
     <g id="text_22">
      <!-- Phenograph -->
      <g transform="translate(601.705875 343.3875) rotate(-90) scale(0.12 -0.12)">
       <use xlink:href="#DejaVuSans-50"/>
       <use xlink:href="#DejaVuSans-68" transform="translate(60.302734 0)"/>
       <use xlink:href="#DejaVuSans-65" transform="translate(123.681641 0)"/>
       <use xlink:href="#DejaVuSans-6e" transform="translate(185.205078 0)"/>
       <use xlink:href="#DejaVuSans-6f" transform="translate(248.583984 0)"/>
       <use xlink:href="#DejaVuSans-67" transform="translate(309.765625 0)"/>
       <use xlink:href="#DejaVuSans-72" transform="translate(373.242188 0)"/>
       <use xlink:href="#DejaVuSans-61" transform="translate(414.355469 0)"/>
       <use xlink:href="#DejaVuSans-70" transform="translate(475.634766 0)"/>
       <use xlink:href="#DejaVuSans-68" transform="translate(539.111328 0)"/>
      </g>
     </g>
    </g>
    <g id="xtick_23">
     <g id="line2d_23">
      <g>
       <use xlink:href="#m88697cfcd2" x="630.0875" y="264.0875" style="stroke: #000000; stroke-width: 0.8"/>
      </g>
     </g>
     <g id="text_23">
      <!-- Leiden -->
      <g transform="translate(627.591875 310.888125) rotate(-90) scale(0.12 -0.12)">
       <use xlink:href="#DejaVuSans-4c"/>
       <use xlink:href="#DejaVuSans-65" transform="translate(53.962891 0)"/>
       <use xlink:href="#DejaVuSans-69" transform="translate(115.486328 0)"/>
       <use xlink:href="#DejaVuSans-64" transform="translate(143.269531 0)"/>
       <use xlink:href="#DejaVuSans-65" transform="translate(206.746094 0)"/>
       <use xlink:href="#DejaVuSans-6e" transform="translate(268.269531 0)"/>
      </g>
     </g>
    </g>
   </g>
   <g id="matplotlib.axis_2">
    <g id="ytick_1">
     <g id="line2d_24">
      <defs>
       <path id="m2626ea42c8" d="M 0 0 
L -3.5 0 
" style="stroke: #000000; stroke-width: 0.8"/>
      </defs>
      <g>
       <use xlink:href="#m2626ea42c8" x="47.6525" y="258.064736" style="stroke: #000000; stroke-width: 0.8"/>
      </g>
     </g>
     <g id="text_24">
      <!-- 0.1 -->
      <g transform="translate(24.749375 261.863955) scale(0.1 -0.1)">
       <defs>
        <path id="DejaVuSans-30" d="M 2034 4250 
Q 1547 4250 1301 3770 
Q 1056 3291 1056 2328 
Q 1056 1369 1301 889 
Q 1547 409 2034 409 
Q 2525 409 2770 889 
Q 3016 1369 3016 2328 
Q 3016 3291 2770 3770 
Q 2525 4250 2034 4250 
z
M 2034 4750 
Q 2819 4750 3233 4129 
Q 3647 3509 3647 2328 
Q 3647 1150 3233 529 
Q 2819 -91 2034 -91 
Q 1250 -91 836 529 
Q 422 1150 422 2328 
Q 422 3509 836 4129 
Q 1250 4750 2034 4750 
z
" transform="scale(0.015625)"/>
        <path id="DejaVuSans-2e" d="M 684 794 
L 1344 794 
L 1344 0 
L 684 0 
L 684 794 
z
" transform="scale(0.015625)"/>
        <path id="DejaVuSans-31" d="M 794 531 
L 1825 531 
L 1825 4091 
L 703 3866 
L 703 4441 
L 1819 4666 
L 2450 4666 
L 2450 531 
L 3481 531 
L 3481 0 
L 794 0 
L 794 531 
z
" transform="scale(0.015625)"/>
       </defs>
       <use xlink:href="#DejaVuSans-30"/>
       <use xlink:href="#DejaVuSans-2e" transform="translate(63.623047 0)"/>
       <use xlink:href="#DejaVuSans-31" transform="translate(95.410156 0)"/>
      </g>
     </g>
    </g>
    <g id="ytick_2">
     <g id="line2d_25">
      <g>
       <use xlink:href="#m2626ea42c8" x="47.6525" y="230.867722" style="stroke: #000000; stroke-width: 0.8"/>
      </g>
     </g>
     <g id="text_25">
      <!-- 0.2 -->
      <g transform="translate(24.749375 234.666941) scale(0.1 -0.1)">
       <defs>
        <path id="DejaVuSans-32" d="M 1228 531 
L 3431 531 
L 3431 0 
L 469 0 
L 469 531 
Q 828 903 1448 1529 
Q 2069 2156 2228 2338 
Q 2531 2678 2651 2914 
Q 2772 3150 2772 3378 
Q 2772 3750 2511 3984 
Q 2250 4219 1831 4219 
Q 1534 4219 1204 4116 
Q 875 4013 500 3803 
L 500 4441 
Q 881 4594 1212 4672 
Q 1544 4750 1819 4750 
Q 2544 4750 2975 4387 
Q 3406 4025 3406 3419 
Q 3406 3131 3298 2873 
Q 3191 2616 2906 2266 
Q 2828 2175 2409 1742 
Q 1991 1309 1228 531 
z
" transform="scale(0.015625)"/>
       </defs>
       <use xlink:href="#DejaVuSans-30"/>
       <use xlink:href="#DejaVuSans-2e" transform="translate(63.623047 0)"/>
       <use xlink:href="#DejaVuSans-32" transform="translate(95.410156 0)"/>
      </g>
     </g>
    </g>
    <g id="ytick_3">
     <g id="line2d_26">
      <g>
       <use xlink:href="#m2626ea42c8" x="47.6525" y="203.670709" style="stroke: #000000; stroke-width: 0.8"/>
      </g>
     </g>
     <g id="text_26">
      <!-- 0.3 -->
      <g transform="translate(24.749375 207.469927) scale(0.1 -0.1)">
       <defs>
        <path id="DejaVuSans-33" d="M 2597 2516 
Q 3050 2419 3304 2112 
Q 3559 1806 3559 1356 
Q 3559 666 3084 287 
Q 2609 -91 1734 -91 
Q 1441 -91 1130 -33 
Q 819 25 488 141 
L 488 750 
Q 750 597 1062 519 
Q 1375 441 1716 441 
Q 2309 441 2620 675 
Q 2931 909 2931 1356 
Q 2931 1769 2642 2001 
Q 2353 2234 1838 2234 
L 1294 2234 
L 1294 2753 
L 1863 2753 
Q 2328 2753 2575 2939 
Q 2822 3125 2822 3475 
Q 2822 3834 2567 4026 
Q 2313 4219 1838 4219 
Q 1578 4219 1281 4162 
Q 984 4106 628 3988 
L 628 4550 
Q 988 4650 1302 4700 
Q 1616 4750 1894 4750 
Q 2613 4750 3031 4423 
Q 3450 4097 3450 3541 
Q 3450 3153 3228 2886 
Q 3006 2619 2597 2516 
z
" transform="scale(0.015625)"/>
       </defs>
       <use xlink:href="#DejaVuSans-30"/>
       <use xlink:href="#DejaVuSans-2e" transform="translate(63.623047 0)"/>
       <use xlink:href="#DejaVuSans-33" transform="translate(95.410156 0)"/>
      </g>
     </g>
    </g>
    <g id="ytick_4">
     <g id="line2d_27">
      <g>
       <use xlink:href="#m2626ea42c8" x="47.6525" y="176.473695" style="stroke: #000000; stroke-width: 0.8"/>
      </g>
     </g>
     <g id="text_27">
      <!-- 0.4 -->
      <g transform="translate(24.749375 180.272914) scale(0.1 -0.1)">
       <defs>
        <path id="DejaVuSans-34" d="M 2419 4116 
L 825 1625 
L 2419 1625 
L 2419 4116 
z
M 2253 4666 
L 3047 4666 
L 3047 1625 
L 3713 1625 
L 3713 1100 
L 3047 1100 
L 3047 0 
L 2419 0 
L 2419 1100 
L 313 1100 
L 313 1709 
L 2253 4666 
z
" transform="scale(0.015625)"/>
       </defs>
       <use xlink:href="#DejaVuSans-30"/>
       <use xlink:href="#DejaVuSans-2e" transform="translate(63.623047 0)"/>
       <use xlink:href="#DejaVuSans-34" transform="translate(95.410156 0)"/>
      </g>
     </g>
    </g>
    <g id="ytick_5">
     <g id="line2d_28">
      <g>
       <use xlink:href="#m2626ea42c8" x="47.6525" y="149.276681" style="stroke: #000000; stroke-width: 0.8"/>
      </g>
     </g>
     <g id="text_28">
      <!-- 0.5 -->
      <g transform="translate(24.749375 153.0759) scale(0.1 -0.1)">
       <defs>
        <path id="DejaVuSans-35" d="M 691 4666 
L 3169 4666 
L 3169 4134 
L 1269 4134 
L 1269 2991 
Q 1406 3038 1543 3061 
Q 1681 3084 1819 3084 
Q 2600 3084 3056 2656 
Q 3513 2228 3513 1497 
Q 3513 744 3044 326 
Q 2575 -91 1722 -91 
Q 1428 -91 1123 -41 
Q 819 9 494 109 
L 494 744 
Q 775 591 1075 516 
Q 1375 441 1709 441 
Q 2250 441 2565 725 
Q 2881 1009 2881 1497 
Q 2881 1984 2565 2268 
Q 2250 2553 1709 2553 
Q 1456 2553 1204 2497 
Q 953 2441 691 2322 
L 691 4666 
z
" transform="scale(0.015625)"/>
       </defs>
       <use xlink:href="#DejaVuSans-30"/>
       <use xlink:href="#DejaVuSans-2e" transform="translate(63.623047 0)"/>
       <use xlink:href="#DejaVuSans-35" transform="translate(95.410156 0)"/>
      </g>
     </g>
    </g>
    <g id="ytick_6">
     <g id="line2d_29">
      <g>
       <use xlink:href="#m2626ea42c8" x="47.6525" y="122.079667" style="stroke: #000000; stroke-width: 0.8"/>
      </g>
     </g>
     <g id="text_29">
      <!-- 0.6 -->
      <g transform="translate(24.749375 125.878886) scale(0.1 -0.1)">
       <defs>
        <path id="DejaVuSans-36" d="M 2113 2584 
Q 1688 2584 1439 2293 
Q 1191 2003 1191 1497 
Q 1191 994 1439 701 
Q 1688 409 2113 409 
Q 2538 409 2786 701 
Q 3034 994 3034 1497 
Q 3034 2003 2786 2293 
Q 2538 2584 2113 2584 
z
M 3366 4563 
L 3366 3988 
Q 3128 4100 2886 4159 
Q 2644 4219 2406 4219 
Q 1781 4219 1451 3797 
Q 1122 3375 1075 2522 
Q 1259 2794 1537 2939 
Q 1816 3084 2150 3084 
Q 2853 3084 3261 2657 
Q 3669 2231 3669 1497 
Q 3669 778 3244 343 
Q 2819 -91 2113 -91 
Q 1303 -91 875 529 
Q 447 1150 447 2328 
Q 447 3434 972 4092 
Q 1497 4750 2381 4750 
Q 2619 4750 2861 4703 
Q 3103 4656 3366 4563 
z
" transform="scale(0.015625)"/>
       </defs>
       <use xlink:href="#DejaVuSans-30"/>
       <use xlink:href="#DejaVuSans-2e" transform="translate(63.623047 0)"/>
       <use xlink:href="#DejaVuSans-36" transform="translate(95.410156 0)"/>
      </g>
     </g>
    </g>
    <g id="ytick_7">
     <g id="line2d_30">
      <g>
       <use xlink:href="#m2626ea42c8" x="47.6525" y="94.882654" style="stroke: #000000; stroke-width: 0.8"/>
      </g>
     </g>
     <g id="text_30">
      <!-- 0.7 -->
      <g transform="translate(24.749375 98.681872) scale(0.1 -0.1)">
       <defs>
        <path id="DejaVuSans-37" d="M 525 4666 
L 3525 4666 
L 3525 4397 
L 1831 0 
L 1172 0 
L 2766 4134 
L 525 4134 
L 525 4666 
z
" transform="scale(0.015625)"/>
       </defs>
       <use xlink:href="#DejaVuSans-30"/>
       <use xlink:href="#DejaVuSans-2e" transform="translate(63.623047 0)"/>
       <use xlink:href="#DejaVuSans-37" transform="translate(95.410156 0)"/>
      </g>
     </g>
    </g>
    <g id="ytick_8">
     <g id="line2d_31">
      <g>
       <use xlink:href="#m2626ea42c8" x="47.6525" y="67.68564" style="stroke: #000000; stroke-width: 0.8"/>
      </g>
     </g>
     <g id="text_31">
      <!-- 0.8 -->
      <g transform="translate(24.749375 71.484859) scale(0.1 -0.1)">
       <defs>
        <path id="DejaVuSans-38" d="M 2034 2216 
Q 1584 2216 1326 1975 
Q 1069 1734 1069 1313 
Q 1069 891 1326 650 
Q 1584 409 2034 409 
Q 2484 409 2743 651 
Q 3003 894 3003 1313 
Q 3003 1734 2745 1975 
Q 2488 2216 2034 2216 
z
M 1403 2484 
Q 997 2584 770 2862 
Q 544 3141 544 3541 
Q 544 4100 942 4425 
Q 1341 4750 2034 4750 
Q 2731 4750 3128 4425 
Q 3525 4100 3525 3541 
Q 3525 3141 3298 2862 
Q 3072 2584 2669 2484 
Q 3125 2378 3379 2068 
Q 3634 1759 3634 1313 
Q 3634 634 3220 271 
Q 2806 -91 2034 -91 
Q 1263 -91 848 271 
Q 434 634 434 1313 
Q 434 1759 690 2068 
Q 947 2378 1403 2484 
z
M 1172 3481 
Q 1172 3119 1398 2916 
Q 1625 2713 2034 2713 
Q 2441 2713 2670 2916 
Q 2900 3119 2900 3481 
Q 2900 3844 2670 4047 
Q 2441 4250 2034 4250 
Q 1625 4250 1398 4047 
Q 1172 3844 1172 3481 
z
" transform="scale(0.015625)"/>
       </defs>
       <use xlink:href="#DejaVuSans-30"/>
       <use xlink:href="#DejaVuSans-2e" transform="translate(63.623047 0)"/>
       <use xlink:href="#DejaVuSans-38" transform="translate(95.410156 0)"/>
      </g>
     </g>
    </g>
    <g id="ytick_9">
     <g id="line2d_32">
      <g>
       <use xlink:href="#m2626ea42c8" x="47.6525" y="40.488626" style="stroke: #000000; stroke-width: 0.8"/>
      </g>
     </g>
     <g id="text_32">
      <!-- 0.9 -->
      <g transform="translate(24.749375 44.287845) scale(0.1 -0.1)">
       <defs>
        <path id="DejaVuSans-39" d="M 703 97 
L 703 672 
Q 941 559 1184 500 
Q 1428 441 1663 441 
Q 2288 441 2617 861 
Q 2947 1281 2994 2138 
Q 2813 1869 2534 1725 
Q 2256 1581 1919 1581 
Q 1219 1581 811 2004 
Q 403 2428 403 3163 
Q 403 3881 828 4315 
Q 1253 4750 1959 4750 
Q 2769 4750 3195 4129 
Q 3622 3509 3622 2328 
Q 3622 1225 3098 567 
Q 2575 -91 1691 -91 
Q 1453 -91 1209 -44 
Q 966 3 703 97 
z
M 1959 2075 
Q 2384 2075 2632 2365 
Q 2881 2656 2881 3163 
Q 2881 3666 2632 3958 
Q 2384 4250 1959 4250 
Q 1534 4250 1286 3958 
Q 1038 3666 1038 3163 
Q 1038 2656 1286 2365 
Q 1534 2075 1959 2075 
z
" transform="scale(0.015625)"/>
       </defs>
       <use xlink:href="#DejaVuSans-30"/>
       <use xlink:href="#DejaVuSans-2e" transform="translate(63.623047 0)"/>
       <use xlink:href="#DejaVuSans-39" transform="translate(95.410156 0)"/>
      </g>
     </g>
    </g>
    <g id="text_33">
     <!-- Overall Performance -->
     <g transform="translate(17.837813 216.319375) rotate(-90) scale(0.14 -0.14)">
      <defs>
       <path id="DejaVuSans-76" d="M 191 3500 
L 800 3500 
L 1894 563 
L 2988 3500 
L 3597 3500 
L 2284 0 
L 1503 0 
L 191 3500 
z
" transform="scale(0.015625)"/>
      </defs>
      <use xlink:href="#DejaVuSans-4f"/>
      <use xlink:href="#DejaVuSans-76" transform="translate(78.710938 0)"/>
      <use xlink:href="#DejaVuSans-65" transform="translate(137.890625 0)"/>
      <use xlink:href="#DejaVuSans-72" transform="translate(199.414062 0)"/>
      <use xlink:href="#DejaVuSans-61" transform="translate(240.527344 0)"/>
      <use xlink:href="#DejaVuSans-6c" transform="translate(301.806641 0)"/>
      <use xlink:href="#DejaVuSans-6c" transform="translate(329.589844 0)"/>
      <use xlink:href="#DejaVuSans-20" transform="translate(357.373047 0)"/>
      <use xlink:href="#DejaVuSans-50" transform="translate(389.160156 0)"/>
      <use xlink:href="#DejaVuSans-65" transform="translate(445.837891 0)"/>
      <use xlink:href="#DejaVuSans-72" transform="translate(507.361328 0)"/>
      <use xlink:href="#DejaVuSans-66" transform="translate(548.474609 0)"/>
      <use xlink:href="#DejaVuSans-6f" transform="translate(583.679688 0)"/>
      <use xlink:href="#DejaVuSans-72" transform="translate(644.861328 0)"/>
      <use xlink:href="#DejaVuSans-6d" transform="translate(684.224609 0)"/>
      <use xlink:href="#DejaVuSans-61" transform="translate(781.636719 0)"/>
      <use xlink:href="#DejaVuSans-6e" transform="translate(842.916016 0)"/>
      <use xlink:href="#DejaVuSans-63" transform="translate(906.294922 0)"/>
      <use xlink:href="#DejaVuSans-65" transform="translate(961.275391 0)"/>
     </g>
    </g>
   </g>
   <g id="patch_8">
    <path d="M 50.88825 247.509376 
L 70.30275 247.509376 
L 70.30275 236.055855 
L 50.88825 236.055855 
L 50.88825 247.509376 
z
" clip-path="url(#p74967418e2)" style="fill: #c789e5; stroke: #434343; stroke-width: 2; stroke-linejoin: miter"/>
   </g>
   <g id="line2d_33">
    <path d="M 60.5955 247.509376 
L 60.5955 253.236136 
" clip-path="url(#p74967418e2)" style="fill: none; stroke: #434343; stroke-width: 2"/>
   </g>
   <g id="line2d_34">
    <path d="M 60.5955 236.055855 
L 60.5955 230.329094 
" clip-path="url(#p74967418e2)" style="fill: none; stroke: #434343; stroke-width: 2"/>
   </g>
   <g id="line2d_35"/>
   <g id="patch_9">
    <path d="M 76.77425 228.770601 
L 96.18875 228.770601 
L 96.18875 220.612874 
L 76.77425 220.612874 
L 76.77425 228.770601 
z
" clip-path="url(#p74967418e2)" style="fill: #c789e5; stroke: #434343; stroke-width: 2; stroke-linejoin: miter"/>
   </g>
   <g id="line2d_36">
    <path d="M 86.4815 228.770601 
L 86.4815 232.849465 
" clip-path="url(#p74967418e2)" style="fill: none; stroke: #434343; stroke-width: 2"/>
   </g>
   <g id="line2d_37">
    <path d="M 86.4815 220.612874 
L 86.4815 216.53401 
" clip-path="url(#p74967418e2)" style="fill: none; stroke: #434343; stroke-width: 2"/>
   </g>
   <g id="line2d_38"/>
   <g id="patch_10">
    <path d="M 102.66025 242.25356 
L 122.07475 242.25356 
L 122.07475 228.261955 
L 102.66025 228.261955 
L 102.66025 242.25356 
z
" clip-path="url(#p74967418e2)" style="fill: #4a9eb4; stroke: #434343; stroke-width: 2; stroke-linejoin: miter"/>
   </g>
   <g id="line2d_39">
    <path d="M 112.3675 242.25356 
L 112.3675 249.249363 
" clip-path="url(#p74967418e2)" style="fill: none; stroke: #434343; stroke-width: 2"/>
   </g>
   <g id="line2d_40">
    <path d="M 112.3675 228.261955 
L 112.3675 221.266152 
" clip-path="url(#p74967418e2)" style="fill: none; stroke: #434343; stroke-width: 2"/>
   </g>
   <g id="line2d_41"/>
   <g id="patch_11">
    <path d="M 128.54625 231.855275 
L 147.96075 231.855275 
L 147.96075 212.670943 
L 128.54625 212.670943 
L 128.54625 231.855275 
z
" clip-path="url(#p74967418e2)" style="fill: #4a9eb4; stroke: #434343; stroke-width: 2; stroke-linejoin: miter"/>
   </g>
   <g id="line2d_42">
    <path d="M 138.2535 231.855275 
L 138.2535 241.447441 
" clip-path="url(#p74967418e2)" style="fill: none; stroke: #434343; stroke-width: 2"/>
   </g>
   <g id="line2d_43">
    <path d="M 138.2535 212.670943 
L 138.2535 203.078777 
" clip-path="url(#p74967418e2)" style="fill: none; stroke: #434343; stroke-width: 2"/>
   </g>
   <g id="line2d_44"/>
   <g id="patch_12">
    <path d="M 154.43225 213.693228 
L 173.84675 213.693228 
L 173.84675 183.372582 
L 154.43225 183.372582 
L 154.43225 213.693228 
z
" clip-path="url(#p74967418e2)" style="fill: #4a9eb4; stroke: #434343; stroke-width: 2; stroke-linejoin: miter"/>
   </g>
   <g id="line2d_45">
    <path d="M 164.1395 213.693228 
L 164.1395 228.853552 
" clip-path="url(#p74967418e2)" style="fill: none; stroke: #434343; stroke-width: 2"/>
   </g>
   <g id="line2d_46">
    <path d="M 164.1395 183.372582 
L 164.1395 168.212258 
" clip-path="url(#p74967418e2)" style="fill: none; stroke: #434343; stroke-width: 2"/>
   </g>
   <g id="line2d_47"/>
   <g id="patch_13">
    <path d="M 180.31825 201.832862 
L 199.73275 201.832862 
L 199.73275 171.561149 
L 180.31825 171.561149 
L 180.31825 201.832862 
z
" clip-path="url(#p74967418e2)" style="fill: #4a9eb4; stroke: #434343; stroke-width: 2; stroke-linejoin: miter"/>
   </g>
   <g id="line2d_48">
    <path d="M 190.0255 201.832862 
L 190.0255 216.968719 
" clip-path="url(#p74967418e2)" style="fill: none; stroke: #434343; stroke-width: 2"/>
   </g>
   <g id="line2d_49">
    <path d="M 190.0255 171.561149 
L 190.0255 156.425292 
" clip-path="url(#p74967418e2)" style="fill: none; stroke: #434343; stroke-width: 2"/>
   </g>
   <g id="line2d_50"/>
   <g id="patch_14">
    <path d="M 206.20425 156.461658 
L 225.61875 156.461658 
L 225.61875 154.42512 
L 206.20425 154.42512 
L 206.20425 156.461658 
z
" clip-path="url(#p74967418e2)" style="fill: #4a9eb4; stroke: #434343; stroke-width: 2; stroke-linejoin: miter"/>
   </g>
   <g id="line2d_51">
    <path d="M 215.9115 156.461658 
L 215.9115 157.479928 
" clip-path="url(#p74967418e2)" style="fill: none; stroke: #434343; stroke-width: 2"/>
   </g>
   <g id="line2d_52">
    <path d="M 215.9115 154.42512 
L 215.9115 153.406851 
" clip-path="url(#p74967418e2)" style="fill: none; stroke: #434343; stroke-width: 2"/>
   </g>
   <g id="line2d_53"/>
   <g id="patch_15">
    <path d="M 232.09025 168.709134 
L 251.50475 168.709134 
L 251.50475 153.602028 
L 232.09025 153.602028 
L 232.09025 168.709134 
z
" clip-path="url(#p74967418e2)" style="fill: #43a178; stroke: #434343; stroke-width: 2; stroke-linejoin: miter"/>
   </g>
   <g id="line2d_54">
    <path d="M 241.7975 168.709134 
L 241.7975 176.262687 
" clip-path="url(#p74967418e2)" style="fill: none; stroke: #434343; stroke-width: 2"/>
   </g>
   <g id="line2d_55">
    <path d="M 241.7975 153.602028 
L 241.7975 146.048475 
" clip-path="url(#p74967418e2)" style="fill: none; stroke: #434343; stroke-width: 2"/>
   </g>
   <g id="line2d_56"/>
   <g id="patch_16">
    <path d="M 257.97625 159.218388 
L 277.39075 159.218388 
L 277.39075 142.539543 
L 257.97625 142.539543 
L 257.97625 159.218388 
z
" clip-path="url(#p74967418e2)" style="fill: #43a178; stroke: #434343; stroke-width: 2; stroke-linejoin: miter"/>
   </g>
   <g id="line2d_57">
    <path d="M 267.6835 159.218388 
L 267.6835 167.557811 
" clip-path="url(#p74967418e2)" style="fill: none; stroke: #434343; stroke-width: 2"/>
   </g>
   <g id="line2d_58">
    <path d="M 267.6835 142.539543 
L 267.6835 134.20012 
" clip-path="url(#p74967418e2)" style="fill: none; stroke: #434343; stroke-width: 2"/>
   </g>
   <g id="line2d_59"/>
   <g id="patch_17">
    <path d="M 283.86225 133.89121 
L 303.27675 133.89121 
L 303.27675 103.661691 
L 283.86225 103.661691 
L 283.86225 133.89121 
z
" clip-path="url(#p74967418e2)" style="fill: #43a178; stroke: #434343; stroke-width: 2; stroke-linejoin: miter"/>
   </g>
   <g id="line2d_60">
    <path d="M 293.5695 133.89121 
L 293.5695 149.00597 
" clip-path="url(#p74967418e2)" style="fill: none; stroke: #434343; stroke-width: 2"/>
   </g>
   <g id="line2d_61">
    <path d="M 293.5695 103.661691 
L 293.5695 88.546932 
" clip-path="url(#p74967418e2)" style="fill: none; stroke: #434343; stroke-width: 2"/>
   </g>
   <g id="line2d_62"/>
   <g id="patch_18">
    <path d="M 309.74825 140.465422 
L 329.16275 140.465422 
L 329.16275 128.661133 
L 309.74825 128.661133 
L 309.74825 140.465422 
z
" clip-path="url(#p74967418e2)" style="fill: #43a178; stroke: #434343; stroke-width: 2; stroke-linejoin: miter"/>
   </g>
   <g id="line2d_63">
    <path d="M 319.4555 140.465422 
L 319.4555 146.367566 
" clip-path="url(#p74967418e2)" style="fill: none; stroke: #434343; stroke-width: 2"/>
   </g>
   <g id="line2d_64">
    <path d="M 319.4555 128.661133 
L 319.4555 122.758988 
" clip-path="url(#p74967418e2)" style="fill: none; stroke: #434343; stroke-width: 2"/>
   </g>
   <g id="line2d_65"/>
   <g id="patch_19">
    <path d="M 335.63425 118.303692 
L 355.04875 118.303692 
L 355.04875 81.168593 
L 335.63425 81.168593 
L 335.63425 118.303692 
z
" clip-path="url(#p74967418e2)" style="fill: #e68193; stroke: #434343; stroke-width: 2; stroke-linejoin: miter"/>
   </g>
   <g id="line2d_66">
    <path d="M 345.3415 118.303692 
L 345.3415 136.871241 
" clip-path="url(#p74967418e2)" style="fill: none; stroke: #434343; stroke-width: 2"/>
   </g>
   <g id="line2d_67">
    <path d="M 345.3415 81.168593 
L 345.3415 62.601043 
" clip-path="url(#p74967418e2)" style="fill: none; stroke: #434343; stroke-width: 2"/>
   </g>
   <g id="line2d_68"/>
   <g id="patch_20">
    <path d="M 361.52025 99.860338 
L 380.93475 99.860338 
L 380.93475 76.433048 
L 361.52025 76.433048 
L 361.52025 99.860338 
z
" clip-path="url(#p74967418e2)" style="fill: #e68193; stroke: #434343; stroke-width: 2; stroke-linejoin: miter"/>
   </g>
   <g id="line2d_69">
    <path d="M 371.2275 99.860338 
L 371.2275 111.573982 
" clip-path="url(#p74967418e2)" style="fill: none; stroke: #434343; stroke-width: 2"/>
   </g>
   <g id="line2d_70">
    <path d="M 371.2275 76.433048 
L 371.2275 64.719404 
" clip-path="url(#p74967418e2)" style="fill: none; stroke: #434343; stroke-width: 2"/>
   </g>
   <g id="line2d_71"/>
   <g id="patch_21">
    <path d="M 387.40625 78.856652 
L 406.82075 78.856652 
L 406.82075 55.164347 
L 387.40625 55.164347 
L 387.40625 78.856652 
z
" clip-path="url(#p74967418e2)" style="fill: #e68193; stroke: #434343; stroke-width: 2; stroke-linejoin: miter"/>
   </g>
   <g id="line2d_72">
    <path d="M 397.1135 78.856652 
L 397.1135 90.702804 
" clip-path="url(#p74967418e2)" style="fill: none; stroke: #434343; stroke-width: 2"/>
   </g>
   <g id="line2d_73">
    <path d="M 397.1135 55.164347 
L 397.1135 43.318194 
" clip-path="url(#p74967418e2)" style="fill: none; stroke: #434343; stroke-width: 2"/>
   </g>
   <g id="line2d_74"/>
   <g id="patch_22">
    <path d="M 413.29225 76.554949 
L 432.70675 76.554949 
L 432.70675 52.079367 
L 413.29225 52.079367 
L 413.29225 76.554949 
z
" clip-path="url(#p74967418e2)" style="fill: #e68193; stroke: #434343; stroke-width: 2; stroke-linejoin: miter"/>
   </g>
   <g id="line2d_75">
    <path d="M 422.9995 76.554949 
L 422.9995 88.79274 
" clip-path="url(#p74967418e2)" style="fill: none; stroke: #434343; stroke-width: 2"/>
   </g>
   <g id="line2d_76">
    <path d="M 422.9995 52.079367 
L 422.9995 39.841576 
" clip-path="url(#p74967418e2)" style="fill: none; stroke: #434343; stroke-width: 2"/>
   </g>
   <g id="line2d_77"/>
   <g id="patch_23">
    <path d="M 439.17825 62.851981 
L 458.59275 62.851981 
L 458.59275 45.089903 
L 439.17825 45.089903 
L 439.17825 62.851981 
z
" clip-path="url(#p74967418e2)" style="fill: #e68193; stroke: #434343; stroke-width: 2; stroke-linejoin: miter"/>
   </g>
   <g id="line2d_78">
    <path d="M 448.8855 62.851981 
L 448.8855 71.73302 
" clip-path="url(#p74967418e2)" style="fill: none; stroke: #434343; stroke-width: 2"/>
   </g>
   <g id="line2d_79">
    <path d="M 448.8855 45.089903 
L 448.8855 36.208864 
" clip-path="url(#p74967418e2)" style="fill: none; stroke: #434343; stroke-width: 2"/>
   </g>
   <g id="line2d_80"/>
   <g id="patch_24">
    <path d="M 465.06425 215.852646 
L 484.47875 215.852646 
L 484.47875 177.166186 
L 465.06425 177.166186 
L 465.06425 215.852646 
z
" clip-path="url(#p74967418e2)" style="fill: #9e9241; stroke: #434343; stroke-width: 2; stroke-linejoin: miter"/>
   </g>
   <g id="line2d_81">
    <path d="M 474.7715 215.852646 
L 474.7715 235.195876 
" clip-path="url(#p74967418e2)" style="fill: none; stroke: #434343; stroke-width: 2"/>
   </g>
   <g id="line2d_82">
    <path d="M 474.7715 177.166186 
L 474.7715 157.822957 
" clip-path="url(#p74967418e2)" style="fill: none; stroke: #434343; stroke-width: 2"/>
   </g>
   <g id="line2d_83"/>
   <g id="patch_25">
    <path d="M 490.95025 154.259811 
L 510.36475 154.259811 
L 510.36475 131.895973 
L 490.95025 131.895973 
L 490.95025 154.259811 
z
" clip-path="url(#p74967418e2)" style="fill: #9e9241; stroke: #434343; stroke-width: 2; stroke-linejoin: miter"/>
   </g>
   <g id="line2d_84">
    <path d="M 500.6575 154.259811 
L 500.6575 165.441731 
" clip-path="url(#p74967418e2)" style="fill: none; stroke: #434343; stroke-width: 2"/>
   </g>
   <g id="line2d_85">
    <path d="M 500.6575 131.895973 
L 500.6575 120.714053 
" clip-path="url(#p74967418e2)" style="fill: none; stroke: #434343; stroke-width: 2"/>
   </g>
   <g id="line2d_86"/>
   <g id="patch_26">
    <path d="M 516.83625 144.202574 
L 536.25075 144.202574 
L 536.25075 137.733773 
L 516.83625 137.733773 
L 516.83625 144.202574 
z
" clip-path="url(#p74967418e2)" style="fill: #9e9241; stroke: #434343; stroke-width: 2; stroke-linejoin: miter"/>
   </g>
   <g id="line2d_87">
    <path d="M 526.5435 144.202574 
L 526.5435 147.436974 
" clip-path="url(#p74967418e2)" style="fill: none; stroke: #434343; stroke-width: 2"/>
   </g>
   <g id="line2d_88">
    <path d="M 526.5435 137.733773 
L 526.5435 134.499373 
" clip-path="url(#p74967418e2)" style="fill: none; stroke: #434343; stroke-width: 2"/>
   </g>
   <g id="line2d_89"/>
   <g id="patch_27">
    <path d="M 542.72225 132.058821 
L 562.13675 132.058821 
L 562.13675 103.659373 
L 542.72225 103.659373 
L 542.72225 132.058821 
z
" clip-path="url(#p74967418e2)" style="fill: #9e9241; stroke: #434343; stroke-width: 2; stroke-linejoin: miter"/>
   </g>
   <g id="line2d_90">
    <path d="M 552.4295 132.058821 
L 552.4295 146.258545 
" clip-path="url(#p74967418e2)" style="fill: none; stroke: #434343; stroke-width: 2"/>
   </g>
   <g id="line2d_91">
    <path d="M 552.4295 103.659373 
L 552.4295 89.459649 
" clip-path="url(#p74967418e2)" style="fill: none; stroke: #434343; stroke-width: 2"/>
   </g>
   <g id="line2d_92"/>
   <g id="patch_28">
    <path d="M 568.60825 128.635161 
L 588.02275 128.635161 
L 588.02275 114.638638 
L 568.60825 114.638638 
L 568.60825 128.635161 
z
" clip-path="url(#p74967418e2)" style="fill: #9e9241; stroke: #434343; stroke-width: 2; stroke-linejoin: miter"/>
   </g>
   <g id="line2d_93">
    <path d="M 578.3155 128.635161 
L 578.3155 135.633422 
" clip-path="url(#p74967418e2)" style="fill: none; stroke: #434343; stroke-width: 2"/>
   </g>
   <g id="line2d_94">
    <path d="M 578.3155 114.638638 
L 578.3155 107.640376 
" clip-path="url(#p74967418e2)" style="fill: none; stroke: #434343; stroke-width: 2"/>
   </g>
   <g id="line2d_95"/>
   <g id="patch_29">
    <path d="M 594.49425 131.559126 
L 613.90875 131.559126 
L 613.90875 129.789548 
L 594.49425 129.789548 
L 594.49425 131.559126 
z
" clip-path="url(#p74967418e2)" style="fill: #9e9241; stroke: #434343; stroke-width: 2; stroke-linejoin: miter"/>
   </g>
   <g id="line2d_96">
    <path d="M 604.2015 131.559126 
L 604.2015 132.443915 
" clip-path="url(#p74967418e2)" style="fill: none; stroke: #434343; stroke-width: 2"/>
   </g>
   <g id="line2d_97">
    <path d="M 604.2015 129.789548 
L 604.2015 128.904759 
" clip-path="url(#p74967418e2)" style="fill: none; stroke: #434343; stroke-width: 2"/>
   </g>
   <g id="line2d_98"/>
   <g id="patch_30">
    <path d="M 620.38025 126.516704 
L 639.79475 126.516704 
L 639.79475 116.399033 
L 620.38025 116.399033 
L 620.38025 126.516704 
z
" clip-path="url(#p74967418e2)" style="fill: #9e9241; stroke: #434343; stroke-width: 2; stroke-linejoin: miter"/>
   </g>
   <g id="line2d_99">
    <path d="M 630.0875 126.516704 
L 630.0875 131.575539 
" clip-path="url(#p74967418e2)" style="fill: none; stroke: #434343; stroke-width: 2"/>
   </g>
   <g id="line2d_100">
    <path d="M 630.0875 116.399033 
L 630.0875 111.340197 
" clip-path="url(#p74967418e2)" style="fill: none; stroke: #434343; stroke-width: 2"/>
   </g>
   <g id="line2d_101"/>
   <g id="line2d_102">
    <path d="M 50.88825 241.782615 
L 70.30275 241.782615 
" clip-path="url(#p74967418e2)" style="fill: none; stroke: #434343; stroke-width: 2"/>
   </g>
   <g id="line2d_103">
    <path d="M 76.77425 224.691737 
L 96.18875 224.691737 
" clip-path="url(#p74967418e2)" style="fill: none; stroke: #434343; stroke-width: 2"/>
   </g>
   <g id="line2d_104">
    <path d="M 102.66025 235.257757 
L 122.07475 235.257757 
" clip-path="url(#p74967418e2)" style="fill: none; stroke: #434343; stroke-width: 2"/>
   </g>
   <g id="line2d_105">
    <path d="M 128.54625 222.263109 
L 147.96075 222.263109 
" clip-path="url(#p74967418e2)" style="fill: none; stroke: #434343; stroke-width: 2"/>
   </g>
   <g id="line2d_106">
    <path d="M 154.43225 198.532905 
L 173.84675 198.532905 
" clip-path="url(#p74967418e2)" style="fill: none; stroke: #434343; stroke-width: 2"/>
   </g>
   <g id="line2d_107">
    <path d="M 180.31825 186.697005 
L 199.73275 186.697005 
" clip-path="url(#p74967418e2)" style="fill: none; stroke: #434343; stroke-width: 2"/>
   </g>
   <g id="line2d_108">
    <path d="M 206.20425 155.443389 
L 225.61875 155.443389 
" clip-path="url(#p74967418e2)" style="fill: none; stroke: #434343; stroke-width: 2"/>
   </g>
   <g id="line2d_109">
    <path d="M 232.09025 161.155581 
L 251.50475 161.155581 
" clip-path="url(#p74967418e2)" style="fill: none; stroke: #434343; stroke-width: 2"/>
   </g>
   <g id="line2d_110">
    <path d="M 257.97625 150.878966 
L 277.39075 150.878966 
" clip-path="url(#p74967418e2)" style="fill: none; stroke: #434343; stroke-width: 2"/>
   </g>
   <g id="line2d_111">
    <path d="M 283.86225 118.776451 
L 303.27675 118.776451 
" clip-path="url(#p74967418e2)" style="fill: none; stroke: #434343; stroke-width: 2"/>
   </g>
   <g id="line2d_112">
    <path d="M 309.74825 134.563277 
L 329.16275 134.563277 
" clip-path="url(#p74967418e2)" style="fill: none; stroke: #434343; stroke-width: 2"/>
   </g>
   <g id="line2d_113">
    <path d="M 335.63425 99.736142 
L 355.04875 99.736142 
" clip-path="url(#p74967418e2)" style="fill: none; stroke: #434343; stroke-width: 2"/>
   </g>
   <g id="line2d_114">
    <path d="M 361.52025 88.146693 
L 380.93475 88.146693 
" clip-path="url(#p74967418e2)" style="fill: none; stroke: #434343; stroke-width: 2"/>
   </g>
   <g id="line2d_115">
    <path d="M 387.40625 67.010499 
L 406.82075 67.010499 
" clip-path="url(#p74967418e2)" style="fill: none; stroke: #434343; stroke-width: 2"/>
   </g>
   <g id="line2d_116">
    <path d="M 413.29225 64.317158 
L 432.70675 64.317158 
" clip-path="url(#p74967418e2)" style="fill: none; stroke: #434343; stroke-width: 2"/>
   </g>
   <g id="line2d_117">
    <path d="M 439.17825 53.970942 
L 458.59275 53.970942 
" clip-path="url(#p74967418e2)" style="fill: none; stroke: #434343; stroke-width: 2"/>
   </g>
   <g id="line2d_118">
    <path d="M 465.06425 196.509416 
L 484.47875 196.509416 
" clip-path="url(#p74967418e2)" style="fill: none; stroke: #434343; stroke-width: 2"/>
   </g>
   <g id="line2d_119">
    <path d="M 490.95025 143.077892 
L 510.36475 143.077892 
" clip-path="url(#p74967418e2)" style="fill: none; stroke: #434343; stroke-width: 2"/>
   </g>
   <g id="line2d_120">
    <path d="M 516.83625 140.968174 
L 536.25075 140.968174 
" clip-path="url(#p74967418e2)" style="fill: none; stroke: #434343; stroke-width: 2"/>
   </g>
   <g id="line2d_121">
    <path d="M 542.72225 117.859097 
L 562.13675 117.859097 
" clip-path="url(#p74967418e2)" style="fill: none; stroke: #434343; stroke-width: 2"/>
   </g>
   <g id="line2d_122">
    <path d="M 568.60825 121.636899 
L 588.02275 121.636899 
" clip-path="url(#p74967418e2)" style="fill: none; stroke: #434343; stroke-width: 2"/>
   </g>
   <g id="line2d_123">
    <path d="M 594.49425 130.674337 
L 613.90875 130.674337 
" clip-path="url(#p74967418e2)" style="fill: none; stroke: #434343; stroke-width: 2"/>
   </g>
   <g id="line2d_124">
    <path d="M 620.38025 121.457868 
L 639.79475 121.457868 
" clip-path="url(#p74967418e2)" style="fill: none; stroke: #434343; stroke-width: 2"/>
   </g>
   <g id="patch_31">
    <path d="M 47.6525 264.0875 
L 47.6525 25.3575 
" style="fill: none; stroke: #000000; stroke-width: 0.8; stroke-linejoin: miter; stroke-linecap: square"/>
   </g>
   <g id="patch_32">
    <path d="M 643.0305 264.0875 
L 643.0305 25.3575 
" style="fill: none; stroke: #000000; stroke-width: 0.8; stroke-linejoin: miter; stroke-linecap: square"/>
   </g>
   <g id="patch_33">
    <path d="M 47.6525 264.0875 
L 643.0305 264.0875 
" style="fill: none; stroke: #000000; stroke-width: 0.8; stroke-linejoin: miter; stroke-linecap: square"/>
   </g>
   <g id="patch_34">
    <path d="M 47.6525 25.3575 
L 643.0305 25.3575 
" style="fill: none; stroke: #000000; stroke-width: 0.8; stroke-linejoin: miter; stroke-linecap: square"/>
   </g>
   <g id="text_34">
    <!-- Overall Performance averaged -->
    <g transform="translate(223.14275 19.3575) scale(0.16 -0.16)">
     <use xlink:href="#DejaVuSans-4f"/>
     <use xlink:href="#DejaVuSans-76" transform="translate(78.710938 0)"/>
     <use xlink:href="#DejaVuSans-65" transform="translate(137.890625 0)"/>
     <use xlink:href="#DejaVuSans-72" transform="translate(199.414062 0)"/>
     <use xlink:href="#DejaVuSans-61" transform="translate(240.527344 0)"/>
     <use xlink:href="#DejaVuSans-6c" transform="translate(301.806641 0)"/>
     <use xlink:href="#DejaVuSans-6c" transform="translate(329.589844 0)"/>
     <use xlink:href="#DejaVuSans-20" transform="translate(357.373047 0)"/>
     <use xlink:href="#DejaVuSans-50" transform="translate(389.160156 0)"/>
     <use xlink:href="#DejaVuSans-65" transform="translate(445.837891 0)"/>
     <use xlink:href="#DejaVuSans-72" transform="translate(507.361328 0)"/>
     <use xlink:href="#DejaVuSans-66" transform="translate(548.474609 0)"/>
     <use xlink:href="#DejaVuSans-6f" transform="translate(583.679688 0)"/>
     <use xlink:href="#DejaVuSans-72" transform="translate(644.861328 0)"/>
     <use xlink:href="#DejaVuSans-6d" transform="translate(684.224609 0)"/>
     <use xlink:href="#DejaVuSans-61" transform="translate(781.636719 0)"/>
     <use xlink:href="#DejaVuSans-6e" transform="translate(842.916016 0)"/>
     <use xlink:href="#DejaVuSans-63" transform="translate(906.294922 0)"/>
     <use xlink:href="#DejaVuSans-65" transform="translate(961.275391 0)"/>
     <use xlink:href="#DejaVuSans-20" transform="translate(1022.798828 0)"/>
     <use xlink:href="#DejaVuSans-61" transform="translate(1054.585938 0)"/>
     <use xlink:href="#DejaVuSans-76" transform="translate(1115.865234 0)"/>
     <use xlink:href="#DejaVuSans-65" transform="translate(1175.044922 0)"/>
     <use xlink:href="#DejaVuSans-72" transform="translate(1236.568359 0)"/>
     <use xlink:href="#DejaVuSans-61" transform="translate(1277.681641 0)"/>
     <use xlink:href="#DejaVuSans-67" transform="translate(1338.960938 0)"/>
     <use xlink:href="#DejaVuSans-65" transform="translate(1402.4375 0)"/>
     <use xlink:href="#DejaVuSans-64" transform="translate(1463.960938 0)"/>
    </g>
   </g>
   <g id="legend_1">
    <g id="patch_35">
     <path d="M 663.33806 123.02625 
L 841.14431 123.02625 
Q 843.54431 123.02625 843.54431 120.62625 
L 843.54431 33.7575 
Q 843.54431 31.3575 841.14431 31.3575 
L 663.33806 31.3575 
Q 660.93806 31.3575 660.93806 33.7575 
L 660.93806 120.62625 
Q 660.93806 123.02625 663.33806 123.02625 
z
" style="fill: #ffffff; opacity: 0.8; stroke: #cccccc; stroke-linejoin: miter"/>
    </g>
    <g id="patch_36">
     <path d="M 665.73806 45.275625 
L 689.73806 45.275625 
L 689.73806 36.875625 
L 665.73806 36.875625 
z
" style="fill: #c789e5; stroke: #434343; stroke-width: 2; stroke-linejoin: miter"/>
    </g>
    <g id="text_35">
     <!-- Baselines -->
     <g transform="translate(699.33806 45.275625) scale(0.12 -0.12)">
      <use xlink:href="#DejaVuSans-42"/>
      <use xlink:href="#DejaVuSans-61" transform="translate(68.603516 0)"/>
      <use xlink:href="#DejaVuSans-73" transform="translate(129.882812 0)"/>
      <use xlink:href="#DejaVuSans-65" transform="translate(181.982422 0)"/>
      <use xlink:href="#DejaVuSans-6c" transform="translate(243.505859 0)"/>
      <use xlink:href="#DejaVuSans-69" transform="translate(271.289062 0)"/>
      <use xlink:href="#DejaVuSans-6e" transform="translate(299.072266 0)"/>
      <use xlink:href="#DejaVuSans-65" transform="translate(362.451172 0)"/>
      <use xlink:href="#DejaVuSans-73" transform="translate(423.974609 0)"/>
     </g>
    </g>
    <g id="patch_37">
     <path d="M 665.73806 62.889375 
L 689.73806 62.889375 
L 689.73806 54.489375 
L 665.73806 54.489375 
z
" style="fill: #4a9eb4; stroke: #434343; stroke-width: 2; stroke-linejoin: miter"/>
    </g>
    <g id="text_36">
     <!-- Pre-trained Models -->
     <g transform="translate(699.33806 62.889375) scale(0.12 -0.12)">
      <defs>
       <path id="DejaVuSans-2d" d="M 313 2009 
L 1997 2009 
L 1997 1497 
L 313 1497 
L 313 2009 
z
" transform="scale(0.015625)"/>
      </defs>
      <use xlink:href="#DejaVuSans-50"/>
      <use xlink:href="#DejaVuSans-72" transform="translate(58.552734 0)"/>
      <use xlink:href="#DejaVuSans-65" transform="translate(97.416016 0)"/>
      <use xlink:href="#DejaVuSans-2d" transform="translate(158.939453 0)"/>
      <use xlink:href="#DejaVuSans-74" transform="translate(195.023438 0)"/>
      <use xlink:href="#DejaVuSans-72" transform="translate(234.232422 0)"/>
      <use xlink:href="#DejaVuSans-61" transform="translate(275.345703 0)"/>
      <use xlink:href="#DejaVuSans-69" transform="translate(336.625 0)"/>
      <use xlink:href="#DejaVuSans-6e" transform="translate(364.408203 0)"/>
      <use xlink:href="#DejaVuSans-65" transform="translate(427.787109 0)"/>
      <use xlink:href="#DejaVuSans-64" transform="translate(489.310547 0)"/>
      <use xlink:href="#DejaVuSans-20" transform="translate(552.787109 0)"/>
      <use xlink:href="#DejaVuSans-4d" transform="translate(584.574219 0)"/>
      <use xlink:href="#DejaVuSans-6f" transform="translate(670.853516 0)"/>
      <use xlink:href="#DejaVuSans-64" transform="translate(732.035156 0)"/>
      <use xlink:href="#DejaVuSans-65" transform="translate(795.511719 0)"/>
      <use xlink:href="#DejaVuSans-6c" transform="translate(857.035156 0)"/>
      <use xlink:href="#DejaVuSans-73" transform="translate(884.818359 0)"/>
     </g>
    </g>
    <g id="patch_38">
     <path d="M 665.73806 80.503125 
L 689.73806 80.503125 
L 689.73806 72.103125 
L 665.73806 72.103125 
z
" style="fill: #43a178; stroke: #434343; stroke-width: 2; stroke-linejoin: miter"/>
    </g>
    <g id="text_37">
     <!-- Prior-Knowledge-driven -->
     <g transform="translate(699.33806 80.503125) scale(0.12 -0.12)">
      <defs>
       <path id="DejaVuSans-4b" d="M 628 4666 
L 1259 4666 
L 1259 2694 
L 3353 4666 
L 4166 4666 
L 1850 2491 
L 4331 0 
L 3500 0 
L 1259 2247 
L 1259 0 
L 628 0 
L 628 4666 
z
" transform="scale(0.015625)"/>
      </defs>
      <use xlink:href="#DejaVuSans-50"/>
      <use xlink:href="#DejaVuSans-72" transform="translate(58.552734 0)"/>
      <use xlink:href="#DejaVuSans-69" transform="translate(99.666016 0)"/>
      <use xlink:href="#DejaVuSans-6f" transform="translate(127.449219 0)"/>
      <use xlink:href="#DejaVuSans-72" transform="translate(188.630859 0)"/>
      <use xlink:href="#DejaVuSans-2d" transform="translate(223.369141 0)"/>
      <use xlink:href="#DejaVuSans-4b" transform="translate(259.453125 0)"/>
      <use xlink:href="#DejaVuSans-6e" transform="translate(325.029297 0)"/>
      <use xlink:href="#DejaVuSans-6f" transform="translate(388.408203 0)"/>
      <use xlink:href="#DejaVuSans-77" transform="translate(449.589844 0)"/>
      <use xlink:href="#DejaVuSans-6c" transform="translate(531.376953 0)"/>
      <use xlink:href="#DejaVuSans-65" transform="translate(559.160156 0)"/>
      <use xlink:href="#DejaVuSans-64" transform="translate(620.683594 0)"/>
      <use xlink:href="#DejaVuSans-67" transform="translate(684.160156 0)"/>
      <use xlink:href="#DejaVuSans-65" transform="translate(747.636719 0)"/>
      <use xlink:href="#DejaVuSans-2d" transform="translate(809.160156 0)"/>
      <use xlink:href="#DejaVuSans-64" transform="translate(845.244141 0)"/>
      <use xlink:href="#DejaVuSans-72" transform="translate(908.720703 0)"/>
      <use xlink:href="#DejaVuSans-69" transform="translate(949.833984 0)"/>
      <use xlink:href="#DejaVuSans-76" transform="translate(977.617188 0)"/>
      <use xlink:href="#DejaVuSans-65" transform="translate(1036.796875 0)"/>
      <use xlink:href="#DejaVuSans-6e" transform="translate(1098.320312 0)"/>
     </g>
    </g>
    <g id="patch_39">
     <path d="M 665.73806 98.116875 
L 689.73806 98.116875 
L 689.73806 89.716875 
L 665.73806 89.716875 
z
" style="fill: #e68193; stroke: #434343; stroke-width: 2; stroke-linejoin: miter"/>
    </g>
    <g id="text_38">
     <!-- Supervised -->
     <g transform="translate(699.33806 98.116875) scale(0.12 -0.12)">
      <use xlink:href="#DejaVuSans-53"/>
      <use xlink:href="#DejaVuSans-75" transform="translate(63.476562 0)"/>
      <use xlink:href="#DejaVuSans-70" transform="translate(126.855469 0)"/>
      <use xlink:href="#DejaVuSans-65" transform="translate(190.332031 0)"/>
      <use xlink:href="#DejaVuSans-72" transform="translate(251.855469 0)"/>
      <use xlink:href="#DejaVuSans-76" transform="translate(292.96875 0)"/>
      <use xlink:href="#DejaVuSans-69" transform="translate(352.148438 0)"/>
      <use xlink:href="#DejaVuSans-73" transform="translate(379.931641 0)"/>
      <use xlink:href="#DejaVuSans-65" transform="translate(432.03125 0)"/>
      <use xlink:href="#DejaVuSans-64" transform="translate(493.554688 0)"/>
     </g>
    </g>
    <g id="patch_40">
     <path d="M 665.73806 115.730625 
L 689.73806 115.730625 
L 689.73806 107.330625 
L 665.73806 107.330625 
z
" style="fill: #9e9241; stroke: #434343; stroke-width: 2; stroke-linejoin: miter"/>
    </g>
    <g id="text_39">
     <!-- Unsupervised -->
     <g transform="translate(699.33806 115.730625) scale(0.12 -0.12)">
      <defs>
       <path id="DejaVuSans-55" d="M 556 4666 
L 1191 4666 
L 1191 1831 
Q 1191 1081 1462 751 
Q 1734 422 2344 422 
Q 2950 422 3222 751 
Q 3494 1081 3494 1831 
L 3494 4666 
L 4128 4666 
L 4128 1753 
Q 4128 841 3676 375 
Q 3225 -91 2344 -91 
Q 1459 -91 1007 375 
Q 556 841 556 1753 
L 556 4666 
z
" transform="scale(0.015625)"/>
      </defs>
      <use xlink:href="#DejaVuSans-55"/>
      <use xlink:href="#DejaVuSans-6e" transform="translate(73.193359 0)"/>
      <use xlink:href="#DejaVuSans-73" transform="translate(136.572266 0)"/>
      <use xlink:href="#DejaVuSans-75" transform="translate(188.671875 0)"/>
      <use xlink:href="#DejaVuSans-70" transform="translate(252.050781 0)"/>
      <use xlink:href="#DejaVuSans-65" transform="translate(315.527344 0)"/>
      <use xlink:href="#DejaVuSans-72" transform="translate(377.050781 0)"/>
      <use xlink:href="#DejaVuSans-76" transform="translate(418.164062 0)"/>
      <use xlink:href="#DejaVuSans-69" transform="translate(477.34375 0)"/>
      <use xlink:href="#DejaVuSans-73" transform="translate(505.126953 0)"/>
      <use xlink:href="#DejaVuSans-65" transform="translate(557.226562 0)"/>
      <use xlink:href="#DejaVuSans-64" transform="translate(618.75 0)"/>
     </g>
    </g>
   </g>
  </g>
 </g>
 <defs>
  <clipPath id="p74967418e2">
   <rect x="47.6525" y="25.3575" width="595.378" height="238.73"/>
  </clipPath>
 </defs>
</svg>
