<?xml version="1.0" encoding="utf-8" standalone="no"?>
<!DOCTYPE svg PUBLIC "-//W3C//DTD SVG 1.1//EN"
  "http://www.w3.org/Graphics/SVG/1.1/DTD/svg11.dtd">
<svg xmlns:xlink="http://www.w3.org/1999/xlink" width="495.950372pt" height="353.2225pt" viewBox="0 0 495.950372 353.2225" xmlns="http://www.w3.org/2000/svg" version="1.1">
 <metadata>
  <rdf:RDF xmlns:dc="http://purl.org/dc/elements/1.1/" xmlns:cc="http://creativecommons.org/ns#" xmlns:rdf="http://www.w3.org/1999/02/22-rdf-syntax-ns#">
   <cc:Work>
    <dc:type rdf:resource="http://purl.org/dc/dcmitype/StillImage"/>
    <dc:date>2025-08-29T15:20:50.702479</dc:date>
    <dc:format>image/svg+xml</dc:format>
    <dc:creator>
     <cc:Agent>
      <dc:title>Matplotlib v3.7.3, https://matplotlib.org/</dc:title>
     </cc:Agent>
    </dc:creator>
   </cc:Work>
  </rdf:RDF>
 </metadata>
 <defs>
  <style type="text/css">*{stroke-linejoin: round; stroke-linecap: butt}</style>
 </defs>
 <g id="figure_1">
  <g id="patch_1">
   <path d="M 0 353.2225 
L 495.950372 353.2225 
L 495.950372 0 
L 0 0 
z
" style="fill: #ffffff"/>
  </g>
  <g id="axes_1">
   <g id="patch_2">
    <path d="M 44.183438 314.41 
L 412.661438 314.41 
L 412.661438 24.8575 
L 44.183438 24.8575 
z
" style="fill: #ffffff"/>
   </g>
   <g id="matplotlib.axis_1">
    <g id="xtick_1">
     <g id="line2d_1"/>
     <g id="text_1">
      <!-- 0.5 -->
      <g style="fill: #262626" transform="translate(69.341438 326.499375) scale(0.12 -0.12)">
       <defs>
        <path id="ArialMT-30" d="M 266 2259 
Q 266 3072 433 3567 
Q 600 4063 929 4331 
Q 1259 4600 1759 4600 
Q 2128 4600 2406 4451 
Q 2684 4303 2865 4023 
Q 3047 3744 3150 3342 
Q 3253 2941 3253 2259 
Q 3253 1453 3087 958 
Q 2922 463 2592 192 
Q 2263 -78 1759 -78 
Q 1097 -78 719 397 
Q 266 969 266 2259 
z
M 844 2259 
Q 844 1131 1108 757 
Q 1372 384 1759 384 
Q 2147 384 2411 759 
Q 2675 1134 2675 2259 
Q 2675 3391 2411 3762 
Q 2147 4134 1753 4134 
Q 1366 4134 1134 3806 
Q 844 3388 844 2259 
z
" transform="scale(0.015625)"/>
        <path id="ArialMT-2e" d="M 581 0 
L 581 641 
L 1222 641 
L 1222 0 
L 581 0 
z
" transform="scale(0.015625)"/>
        <path id="ArialMT-35" d="M 266 1200 
L 856 1250 
Q 922 819 1161 601 
Q 1400 384 1738 384 
Q 2144 384 2425 690 
Q 2706 997 2706 1503 
Q 2706 1984 2436 2262 
Q 2166 2541 1728 2541 
Q 1456 2541 1237 2417 
Q 1019 2294 894 2097 
L 366 2166 
L 809 4519 
L 3088 4519 
L 3088 3981 
L 1259 3981 
L 1013 2750 
Q 1425 3038 1878 3038 
Q 2478 3038 2890 2622 
Q 3303 2206 3303 1553 
Q 3303 931 2941 478 
Q 2500 -78 1738 -78 
Q 1113 -78 717 272 
Q 322 622 266 1200 
z
" transform="scale(0.015625)"/>
       </defs>
       <use xlink:href="#ArialMT-30"/>
       <use xlink:href="#ArialMT-2e" x="55.615234"/>
       <use xlink:href="#ArialMT-35" x="83.398438"/>
      </g>
     </g>
    </g>
    <g id="xtick_2">
     <g id="line2d_2"/>
     <g id="text_2">
      <!-- 0.6 -->
      <g style="fill: #262626" transform="translate(136.337438 326.499375) scale(0.12 -0.12)">
       <defs>
        <path id="ArialMT-36" d="M 3184 3459 
L 2625 3416 
Q 2550 3747 2413 3897 
Q 2184 4138 1850 4138 
Q 1581 4138 1378 3988 
Q 1113 3794 959 3422 
Q 806 3050 800 2363 
Q 1003 2672 1297 2822 
Q 1591 2972 1913 2972 
Q 2475 2972 2870 2558 
Q 3266 2144 3266 1488 
Q 3266 1056 3080 686 
Q 2894 316 2569 119 
Q 2244 -78 1831 -78 
Q 1128 -78 684 439 
Q 241 956 241 2144 
Q 241 3472 731 4075 
Q 1159 4600 1884 4600 
Q 2425 4600 2770 4297 
Q 3116 3994 3184 3459 
z
M 888 1484 
Q 888 1194 1011 928 
Q 1134 663 1356 523 
Q 1578 384 1822 384 
Q 2178 384 2434 671 
Q 2691 959 2691 1453 
Q 2691 1928 2437 2201 
Q 2184 2475 1800 2475 
Q 1419 2475 1153 2201 
Q 888 1928 888 1484 
z
" transform="scale(0.015625)"/>
       </defs>
       <use xlink:href="#ArialMT-30"/>
       <use xlink:href="#ArialMT-2e" x="55.615234"/>
       <use xlink:href="#ArialMT-36" x="83.398438"/>
      </g>
     </g>
    </g>
    <g id="xtick_3">
     <g id="line2d_3"/>
     <g id="text_3">
      <!-- 0.7 -->
      <g style="fill: #262626" transform="translate(203.333438 326.499375) scale(0.12 -0.12)">
       <defs>
        <path id="ArialMT-37" d="M 303 3981 
L 303 4522 
L 3269 4522 
L 3269 4084 
Q 2831 3619 2401 2847 
Q 1972 2075 1738 1259 
Q 1569 684 1522 0 
L 944 0 
Q 953 541 1156 1306 
Q 1359 2072 1739 2783 
Q 2119 3494 2547 3981 
L 303 3981 
z
" transform="scale(0.015625)"/>
       </defs>
       <use xlink:href="#ArialMT-30"/>
       <use xlink:href="#ArialMT-2e" x="55.615234"/>
       <use xlink:href="#ArialMT-37" x="83.398438"/>
      </g>
     </g>
    </g>
    <g id="xtick_4">
     <g id="line2d_4"/>
     <g id="text_4">
      <!-- 0.8 -->
      <g style="fill: #262626" transform="translate(270.329438 326.499375) scale(0.12 -0.12)">
       <defs>
        <path id="ArialMT-38" d="M 1131 2484 
Q 781 2613 612 2850 
Q 444 3088 444 3419 
Q 444 3919 803 4259 
Q 1163 4600 1759 4600 
Q 2359 4600 2725 4251 
Q 3091 3903 3091 3403 
Q 3091 3084 2923 2848 
Q 2756 2613 2416 2484 
Q 2838 2347 3058 2040 
Q 3278 1734 3278 1309 
Q 3278 722 2862 322 
Q 2447 -78 1769 -78 
Q 1091 -78 675 323 
Q 259 725 259 1325 
Q 259 1772 486 2073 
Q 713 2375 1131 2484 
z
M 1019 3438 
Q 1019 3113 1228 2906 
Q 1438 2700 1772 2700 
Q 2097 2700 2305 2904 
Q 2513 3109 2513 3406 
Q 2513 3716 2298 3927 
Q 2084 4138 1766 4138 
Q 1444 4138 1231 3931 
Q 1019 3725 1019 3438 
z
M 838 1322 
Q 838 1081 952 856 
Q 1066 631 1291 507 
Q 1516 384 1775 384 
Q 2178 384 2440 643 
Q 2703 903 2703 1303 
Q 2703 1709 2433 1975 
Q 2163 2241 1756 2241 
Q 1359 2241 1098 1978 
Q 838 1716 838 1322 
z
" transform="scale(0.015625)"/>
       </defs>
       <use xlink:href="#ArialMT-30"/>
       <use xlink:href="#ArialMT-2e" x="55.615234"/>
       <use xlink:href="#ArialMT-38" x="83.398438"/>
      </g>
     </g>
    </g>
    <g id="xtick_5">
     <g id="line2d_5"/>
     <g id="text_5">
      <!-- 0.9 -->
      <g style="fill: #262626" transform="translate(337.325438 326.499375) scale(0.12 -0.12)">
       <defs>
        <path id="ArialMT-39" d="M 350 1059 
L 891 1109 
Q 959 728 1153 556 
Q 1347 384 1650 384 
Q 1909 384 2104 503 
Q 2300 622 2425 820 
Q 2550 1019 2634 1356 
Q 2719 1694 2719 2044 
Q 2719 2081 2716 2156 
Q 2547 1888 2255 1720 
Q 1963 1553 1622 1553 
Q 1053 1553 659 1965 
Q 266 2378 266 3053 
Q 266 3750 677 4175 
Q 1088 4600 1706 4600 
Q 2153 4600 2523 4359 
Q 2894 4119 3086 3673 
Q 3278 3228 3278 2384 
Q 3278 1506 3087 986 
Q 2897 466 2520 194 
Q 2144 -78 1638 -78 
Q 1100 -78 759 220 
Q 419 519 350 1059 
z
M 2653 3081 
Q 2653 3566 2395 3850 
Q 2138 4134 1775 4134 
Q 1400 4134 1122 3828 
Q 844 3522 844 3034 
Q 844 2597 1108 2323 
Q 1372 2050 1759 2050 
Q 2150 2050 2401 2323 
Q 2653 2597 2653 3081 
z
" transform="scale(0.015625)"/>
       </defs>
       <use xlink:href="#ArialMT-30"/>
       <use xlink:href="#ArialMT-2e" x="55.615234"/>
       <use xlink:href="#ArialMT-39" x="83.398438"/>
      </g>
     </g>
    </g>
    <g id="xtick_6">
     <g id="line2d_6"/>
     <g id="text_6">
      <!-- 1.0 -->
      <g style="fill: #262626" transform="translate(404.321438 326.499375) scale(0.12 -0.12)">
       <defs>
        <path id="ArialMT-31" d="M 2384 0 
L 1822 0 
L 1822 3584 
Q 1619 3391 1289 3197 
Q 959 3003 697 2906 
L 697 3450 
Q 1169 3672 1522 3987 
Q 1875 4303 2022 4600 
L 2384 4600 
L 2384 0 
z
" transform="scale(0.015625)"/>
       </defs>
       <use xlink:href="#ArialMT-31"/>
       <use xlink:href="#ArialMT-2e" x="55.615234"/>
       <use xlink:href="#ArialMT-30" x="83.398438"/>
      </g>
     </g>
    </g>
    <g id="text_7">
     <!-- Scalability/Stability -->
     <g style="fill: #262626" transform="translate(170.454781 343.075938) scale(0.14 -0.14)">
      <defs>
       <path id="ArialMT-53" d="M 288 1472 
L 859 1522 
Q 900 1178 1048 958 
Q 1197 738 1509 602 
Q 1822 466 2213 466 
Q 2559 466 2825 569 
Q 3091 672 3220 851 
Q 3350 1031 3350 1244 
Q 3350 1459 3225 1620 
Q 3100 1781 2813 1891 
Q 2628 1963 1997 2114 
Q 1366 2266 1113 2400 
Q 784 2572 623 2826 
Q 463 3081 463 3397 
Q 463 3744 659 4045 
Q 856 4347 1234 4503 
Q 1613 4659 2075 4659 
Q 2584 4659 2973 4495 
Q 3363 4331 3572 4012 
Q 3781 3694 3797 3291 
L 3216 3247 
Q 3169 3681 2898 3903 
Q 2628 4125 2100 4125 
Q 1550 4125 1298 3923 
Q 1047 3722 1047 3438 
Q 1047 3191 1225 3031 
Q 1400 2872 2139 2705 
Q 2878 2538 3153 2413 
Q 3553 2228 3743 1945 
Q 3934 1663 3934 1294 
Q 3934 928 3725 604 
Q 3516 281 3123 101 
Q 2731 -78 2241 -78 
Q 1619 -78 1198 103 
Q 778 284 539 648 
Q 300 1013 288 1472 
z
" transform="scale(0.015625)"/>
       <path id="ArialMT-63" d="M 2588 1216 
L 3141 1144 
Q 3050 572 2676 248 
Q 2303 -75 1759 -75 
Q 1078 -75 664 370 
Q 250 816 250 1647 
Q 250 2184 428 2587 
Q 606 2991 970 3192 
Q 1334 3394 1763 3394 
Q 2303 3394 2647 3120 
Q 2991 2847 3088 2344 
L 2541 2259 
Q 2463 2594 2264 2762 
Q 2066 2931 1784 2931 
Q 1359 2931 1093 2626 
Q 828 2322 828 1663 
Q 828 994 1084 691 
Q 1341 388 1753 388 
Q 2084 388 2306 591 
Q 2528 794 2588 1216 
z
" transform="scale(0.015625)"/>
       <path id="ArialMT-61" d="M 2588 409 
Q 2275 144 1986 34 
Q 1697 -75 1366 -75 
Q 819 -75 525 192 
Q 231 459 231 875 
Q 231 1119 342 1320 
Q 453 1522 633 1644 
Q 813 1766 1038 1828 
Q 1203 1872 1538 1913 
Q 2219 1994 2541 2106 
Q 2544 2222 2544 2253 
Q 2544 2597 2384 2738 
Q 2169 2928 1744 2928 
Q 1347 2928 1158 2789 
Q 969 2650 878 2297 
L 328 2372 
Q 403 2725 575 2942 
Q 747 3159 1072 3276 
Q 1397 3394 1825 3394 
Q 2250 3394 2515 3294 
Q 2781 3194 2906 3042 
Q 3031 2891 3081 2659 
Q 3109 2516 3109 2141 
L 3109 1391 
Q 3109 606 3145 398 
Q 3181 191 3288 0 
L 2700 0 
Q 2613 175 2588 409 
z
M 2541 1666 
Q 2234 1541 1622 1453 
Q 1275 1403 1131 1340 
Q 988 1278 909 1158 
Q 831 1038 831 891 
Q 831 666 1001 516 
Q 1172 366 1500 366 
Q 1825 366 2078 508 
Q 2331 650 2450 897 
Q 2541 1088 2541 1459 
L 2541 1666 
z
" transform="scale(0.015625)"/>
       <path id="ArialMT-6c" d="M 409 0 
L 409 4581 
L 972 4581 
L 972 0 
L 409 0 
z
" transform="scale(0.015625)"/>
       <path id="ArialMT-62" d="M 941 0 
L 419 0 
L 419 4581 
L 981 4581 
L 981 2947 
Q 1338 3394 1891 3394 
Q 2197 3394 2470 3270 
Q 2744 3147 2920 2923 
Q 3097 2700 3197 2384 
Q 3297 2069 3297 1709 
Q 3297 856 2875 390 
Q 2453 -75 1863 -75 
Q 1275 -75 941 416 
L 941 0 
z
M 934 1684 
Q 934 1088 1097 822 
Q 1363 388 1816 388 
Q 2184 388 2453 708 
Q 2722 1028 2722 1663 
Q 2722 2313 2464 2622 
Q 2206 2931 1841 2931 
Q 1472 2931 1203 2611 
Q 934 2291 934 1684 
z
" transform="scale(0.015625)"/>
       <path id="ArialMT-69" d="M 425 3934 
L 425 4581 
L 988 4581 
L 988 3934 
L 425 3934 
z
M 425 0 
L 425 3319 
L 988 3319 
L 988 0 
L 425 0 
z
" transform="scale(0.015625)"/>
       <path id="ArialMT-74" d="M 1650 503 
L 1731 6 
Q 1494 -44 1306 -44 
Q 1000 -44 831 53 
Q 663 150 594 308 
Q 525 466 525 972 
L 525 2881 
L 113 2881 
L 113 3319 
L 525 3319 
L 525 4141 
L 1084 4478 
L 1084 3319 
L 1650 3319 
L 1650 2881 
L 1084 2881 
L 1084 941 
Q 1084 700 1114 631 
Q 1144 563 1211 522 
Q 1278 481 1403 481 
Q 1497 481 1650 503 
z
" transform="scale(0.015625)"/>
       <path id="ArialMT-79" d="M 397 -1278 
L 334 -750 
Q 519 -800 656 -800 
Q 844 -800 956 -737 
Q 1069 -675 1141 -563 
Q 1194 -478 1313 -144 
Q 1328 -97 1363 -6 
L 103 3319 
L 709 3319 
L 1400 1397 
Q 1534 1031 1641 628 
Q 1738 1016 1872 1384 
L 2581 3319 
L 3144 3319 
L 1881 -56 
Q 1678 -603 1566 -809 
Q 1416 -1088 1222 -1217 
Q 1028 -1347 759 -1347 
Q 597 -1347 397 -1278 
z
" transform="scale(0.015625)"/>
       <path id="ArialMT-2f" d="M 0 -78 
L 1328 4659 
L 1778 4659 
L 453 -78 
L 0 -78 
z
" transform="scale(0.015625)"/>
      </defs>
      <use xlink:href="#ArialMT-53"/>
      <use xlink:href="#ArialMT-63" x="66.699219"/>
      <use xlink:href="#ArialMT-61" x="116.699219"/>
      <use xlink:href="#ArialMT-6c" x="172.314453"/>
      <use xlink:href="#ArialMT-61" x="194.53125"/>
      <use xlink:href="#ArialMT-62" x="250.146484"/>
      <use xlink:href="#ArialMT-69" x="305.761719"/>
      <use xlink:href="#ArialMT-6c" x="327.978516"/>
      <use xlink:href="#ArialMT-69" x="350.195312"/>
      <use xlink:href="#ArialMT-74" x="372.412109"/>
      <use xlink:href="#ArialMT-79" x="400.195312"/>
      <use xlink:href="#ArialMT-2f" x="450.195312"/>
      <use xlink:href="#ArialMT-53" x="477.978516"/>
      <use xlink:href="#ArialMT-74" x="544.677734"/>
      <use xlink:href="#ArialMT-61" x="572.460938"/>
      <use xlink:href="#ArialMT-62" x="628.076172"/>
      <use xlink:href="#ArialMT-69" x="683.691406"/>
      <use xlink:href="#ArialMT-6c" x="705.908203"/>
      <use xlink:href="#ArialMT-69" x="728.125"/>
      <use xlink:href="#ArialMT-74" x="750.341797"/>
      <use xlink:href="#ArialMT-79" x="778.125"/>
     </g>
    </g>
   </g>
   <g id="matplotlib.axis_2">
    <g id="ytick_1">
     <g id="line2d_7"/>
     <g id="text_8">
      <!-- 0.2 -->
      <g style="fill: #262626" transform="translate(24.003438 290.24532) scale(0.12 -0.12)">
       <defs>
        <path id="ArialMT-32" d="M 3222 541 
L 3222 0 
L 194 0 
Q 188 203 259 391 
Q 375 700 629 1000 
Q 884 1300 1366 1694 
Q 2113 2306 2375 2664 
Q 2638 3022 2638 3341 
Q 2638 3675 2398 3904 
Q 2159 4134 1775 4134 
Q 1369 4134 1125 3890 
Q 881 3647 878 3216 
L 300 3275 
Q 359 3922 746 4261 
Q 1134 4600 1788 4600 
Q 2447 4600 2831 4234 
Q 3216 3869 3216 3328 
Q 3216 3053 3103 2787 
Q 2991 2522 2730 2228 
Q 2469 1934 1863 1422 
Q 1356 997 1212 845 
Q 1069 694 975 541 
L 3222 541 
z
" transform="scale(0.015625)"/>
       </defs>
       <use xlink:href="#ArialMT-30"/>
       <use xlink:href="#ArialMT-2e" x="55.615234"/>
       <use xlink:href="#ArialMT-32" x="83.398438"/>
      </g>
     </g>
    </g>
    <g id="ytick_2">
     <g id="line2d_8"/>
     <g id="text_9">
      <!-- 0.3 -->
      <g style="fill: #262626" transform="translate(24.003438 252.127042) scale(0.12 -0.12)">
       <defs>
        <path id="ArialMT-33" d="M 269 1209 
L 831 1284 
Q 928 806 1161 595 
Q 1394 384 1728 384 
Q 2125 384 2398 659 
Q 2672 934 2672 1341 
Q 2672 1728 2419 1979 
Q 2166 2231 1775 2231 
Q 1616 2231 1378 2169 
L 1441 2663 
Q 1497 2656 1531 2656 
Q 1891 2656 2178 2843 
Q 2466 3031 2466 3422 
Q 2466 3731 2256 3934 
Q 2047 4138 1716 4138 
Q 1388 4138 1169 3931 
Q 950 3725 888 3313 
L 325 3413 
Q 428 3978 793 4289 
Q 1159 4600 1703 4600 
Q 2078 4600 2393 4439 
Q 2709 4278 2876 4000 
Q 3044 3722 3044 3409 
Q 3044 3113 2884 2869 
Q 2725 2625 2413 2481 
Q 2819 2388 3044 2092 
Q 3269 1797 3269 1353 
Q 3269 753 2831 336 
Q 2394 -81 1725 -81 
Q 1122 -81 723 278 
Q 325 638 269 1209 
z
" transform="scale(0.015625)"/>
       </defs>
       <use xlink:href="#ArialMT-30"/>
       <use xlink:href="#ArialMT-2e" x="55.615234"/>
       <use xlink:href="#ArialMT-33" x="83.398438"/>
      </g>
     </g>
    </g>
    <g id="ytick_3">
     <g id="line2d_9"/>
     <g id="text_10">
      <!-- 0.4 -->
      <g style="fill: #262626" transform="translate(24.003438 214.008765) scale(0.12 -0.12)">
       <defs>
        <path id="ArialMT-34" d="M 2069 0 
L 2069 1097 
L 81 1097 
L 81 1613 
L 2172 4581 
L 2631 4581 
L 2631 1613 
L 3250 1613 
L 3250 1097 
L 2631 1097 
L 2631 0 
L 2069 0 
z
M 2069 1613 
L 2069 3678 
L 634 1613 
L 2069 1613 
z
" transform="scale(0.015625)"/>
       </defs>
       <use xlink:href="#ArialMT-30"/>
       <use xlink:href="#ArialMT-2e" x="55.615234"/>
       <use xlink:href="#ArialMT-34" x="83.398438"/>
      </g>
     </g>
    </g>
    <g id="ytick_4">
     <g id="line2d_10"/>
     <g id="text_11">
      <!-- 0.5 -->
      <g style="fill: #262626" transform="translate(24.003438 175.890487) scale(0.12 -0.12)">
       <use xlink:href="#ArialMT-30"/>
       <use xlink:href="#ArialMT-2e" x="55.615234"/>
       <use xlink:href="#ArialMT-35" x="83.398438"/>
      </g>
     </g>
    </g>
    <g id="ytick_5">
     <g id="line2d_11"/>
     <g id="text_12">
      <!-- 0.6 -->
      <g style="fill: #262626" transform="translate(24.003438 137.772209) scale(0.12 -0.12)">
       <use xlink:href="#ArialMT-30"/>
       <use xlink:href="#ArialMT-2e" x="55.615234"/>
       <use xlink:href="#ArialMT-36" x="83.398438"/>
      </g>
     </g>
    </g>
    <g id="ytick_6">
     <g id="line2d_12"/>
     <g id="text_13">
      <!-- 0.7 -->
      <g style="fill: #262626" transform="translate(24.003438 99.653931) scale(0.12 -0.12)">
       <use xlink:href="#ArialMT-30"/>
       <use xlink:href="#ArialMT-2e" x="55.615234"/>
       <use xlink:href="#ArialMT-37" x="83.398438"/>
      </g>
     </g>
    </g>
    <g id="ytick_7">
     <g id="line2d_13"/>
     <g id="text_14">
      <!-- 0.8 -->
      <g style="fill: #262626" transform="translate(24.003438 61.535653) scale(0.12 -0.12)">
       <use xlink:href="#ArialMT-30"/>
       <use xlink:href="#ArialMT-2e" x="55.615234"/>
       <use xlink:href="#ArialMT-38" x="83.398438"/>
      </g>
     </g>
    </g>
    <g id="text_15">
     <!-- Overall Performance -->
     <g style="fill: #262626" transform="translate(17.220937 233.819375) rotate(-90) scale(0.14 -0.14)">
      <defs>
       <path id="ArialMT-4f" d="M 309 2231 
Q 309 3372 921 4017 
Q 1534 4663 2503 4663 
Q 3138 4663 3647 4359 
Q 4156 4056 4423 3514 
Q 4691 2972 4691 2284 
Q 4691 1588 4409 1038 
Q 4128 488 3612 205 
Q 3097 -78 2500 -78 
Q 1853 -78 1343 234 
Q 834 547 571 1087 
Q 309 1628 309 2231 
z
M 934 2222 
Q 934 1394 1379 917 
Q 1825 441 2497 441 
Q 3181 441 3623 922 
Q 4066 1403 4066 2288 
Q 4066 2847 3877 3264 
Q 3688 3681 3323 3911 
Q 2959 4141 2506 4141 
Q 1863 4141 1398 3698 
Q 934 3256 934 2222 
z
" transform="scale(0.015625)"/>
       <path id="ArialMT-76" d="M 1344 0 
L 81 3319 
L 675 3319 
L 1388 1331 
Q 1503 1009 1600 663 
Q 1675 925 1809 1294 
L 2547 3319 
L 3125 3319 
L 1869 0 
L 1344 0 
z
" transform="scale(0.015625)"/>
       <path id="ArialMT-65" d="M 2694 1069 
L 3275 997 
Q 3138 488 2766 206 
Q 2394 -75 1816 -75 
Q 1088 -75 661 373 
Q 234 822 234 1631 
Q 234 2469 665 2931 
Q 1097 3394 1784 3394 
Q 2450 3394 2872 2941 
Q 3294 2488 3294 1666 
Q 3294 1616 3291 1516 
L 816 1516 
Q 847 969 1125 678 
Q 1403 388 1819 388 
Q 2128 388 2347 550 
Q 2566 713 2694 1069 
z
M 847 1978 
L 2700 1978 
Q 2663 2397 2488 2606 
Q 2219 2931 1791 2931 
Q 1403 2931 1139 2672 
Q 875 2413 847 1978 
z
" transform="scale(0.015625)"/>
       <path id="ArialMT-72" d="M 416 0 
L 416 3319 
L 922 3319 
L 922 2816 
Q 1116 3169 1280 3281 
Q 1444 3394 1641 3394 
Q 1925 3394 2219 3213 
L 2025 2691 
Q 1819 2813 1613 2813 
Q 1428 2813 1281 2702 
Q 1134 2591 1072 2394 
Q 978 2094 978 1738 
L 978 0 
L 416 0 
z
" transform="scale(0.015625)"/>
       <path id="ArialMT-20" transform="scale(0.015625)"/>
       <path id="ArialMT-50" d="M 494 0 
L 494 4581 
L 2222 4581 
Q 2678 4581 2919 4538 
Q 3256 4481 3484 4323 
Q 3713 4166 3852 3881 
Q 3991 3597 3991 3256 
Q 3991 2672 3619 2267 
Q 3247 1863 2275 1863 
L 1100 1863 
L 1100 0 
L 494 0 
z
M 1100 2403 
L 2284 2403 
Q 2872 2403 3119 2622 
Q 3366 2841 3366 3238 
Q 3366 3525 3220 3729 
Q 3075 3934 2838 4000 
Q 2684 4041 2272 4041 
L 1100 4041 
L 1100 2403 
z
" transform="scale(0.015625)"/>
       <path id="ArialMT-66" d="M 556 0 
L 556 2881 
L 59 2881 
L 59 3319 
L 556 3319 
L 556 3672 
Q 556 4006 616 4169 
Q 697 4388 901 4523 
Q 1106 4659 1475 4659 
Q 1713 4659 2000 4603 
L 1916 4113 
Q 1741 4144 1584 4144 
Q 1328 4144 1222 4034 
Q 1116 3925 1116 3625 
L 1116 3319 
L 1763 3319 
L 1763 2881 
L 1116 2881 
L 1116 0 
L 556 0 
z
" transform="scale(0.015625)"/>
       <path id="ArialMT-6f" d="M 213 1659 
Q 213 2581 725 3025 
Q 1153 3394 1769 3394 
Q 2453 3394 2887 2945 
Q 3322 2497 3322 1706 
Q 3322 1066 3130 698 
Q 2938 331 2570 128 
Q 2203 -75 1769 -75 
Q 1072 -75 642 372 
Q 213 819 213 1659 
z
M 791 1659 
Q 791 1022 1069 705 
Q 1347 388 1769 388 
Q 2188 388 2466 706 
Q 2744 1025 2744 1678 
Q 2744 2294 2464 2611 
Q 2184 2928 1769 2928 
Q 1347 2928 1069 2612 
Q 791 2297 791 1659 
z
" transform="scale(0.015625)"/>
       <path id="ArialMT-6d" d="M 422 0 
L 422 3319 
L 925 3319 
L 925 2853 
Q 1081 3097 1340 3245 
Q 1600 3394 1931 3394 
Q 2300 3394 2536 3241 
Q 2772 3088 2869 2813 
Q 3263 3394 3894 3394 
Q 4388 3394 4653 3120 
Q 4919 2847 4919 2278 
L 4919 0 
L 4359 0 
L 4359 2091 
Q 4359 2428 4304 2576 
Q 4250 2725 4106 2815 
Q 3963 2906 3769 2906 
Q 3419 2906 3187 2673 
Q 2956 2441 2956 1928 
L 2956 0 
L 2394 0 
L 2394 2156 
Q 2394 2531 2256 2718 
Q 2119 2906 1806 2906 
Q 1569 2906 1367 2781 
Q 1166 2656 1075 2415 
Q 984 2175 984 1722 
L 984 0 
L 422 0 
z
" transform="scale(0.015625)"/>
       <path id="ArialMT-6e" d="M 422 0 
L 422 3319 
L 928 3319 
L 928 2847 
Q 1294 3394 1984 3394 
Q 2284 3394 2536 3286 
Q 2788 3178 2913 3003 
Q 3038 2828 3088 2588 
Q 3119 2431 3119 2041 
L 3119 0 
L 2556 0 
L 2556 2019 
Q 2556 2363 2490 2533 
Q 2425 2703 2258 2804 
Q 2091 2906 1866 2906 
Q 1506 2906 1245 2678 
Q 984 2450 984 1813 
L 984 0 
L 422 0 
z
" transform="scale(0.015625)"/>
      </defs>
      <use xlink:href="#ArialMT-4f"/>
      <use xlink:href="#ArialMT-76" x="77.783203"/>
      <use xlink:href="#ArialMT-65" x="127.783203"/>
      <use xlink:href="#ArialMT-72" x="183.398438"/>
      <use xlink:href="#ArialMT-61" x="216.699219"/>
      <use xlink:href="#ArialMT-6c" x="272.314453"/>
      <use xlink:href="#ArialMT-6c" x="294.53125"/>
      <use xlink:href="#ArialMT-20" x="316.748047"/>
      <use xlink:href="#ArialMT-50" x="344.53125"/>
      <use xlink:href="#ArialMT-65" x="411.230469"/>
      <use xlink:href="#ArialMT-72" x="466.845703"/>
      <use xlink:href="#ArialMT-66" x="500.146484"/>
      <use xlink:href="#ArialMT-6f" x="527.929688"/>
      <use xlink:href="#ArialMT-72" x="583.544922"/>
      <use xlink:href="#ArialMT-6d" x="616.845703"/>
      <use xlink:href="#ArialMT-61" x="700.146484"/>
      <use xlink:href="#ArialMT-6e" x="755.761719"/>
      <use xlink:href="#ArialMT-63" x="811.376953"/>
      <use xlink:href="#ArialMT-65" x="861.376953"/>
     </g>
    </g>
   </g>
   <g id="PathCollection_1">
    <path d="M 233.9607 45.909635 
C 236.053327 45.909635 238.060527 45.078226 239.540238 43.598515 
C 241.019948 42.118804 241.851358 40.111604 241.851358 38.018977 
C 241.851358 35.92635 241.019948 33.91915 239.540238 32.439439 
C 238.060527 30.959729 236.053327 30.128319 233.9607 30.128319 
C 231.868073 30.128319 229.860873 30.959729 228.381162 32.439439 
C 226.901451 33.91915 226.070042 35.92635 226.070042 38.018977 
C 226.070042 40.111604 226.901451 42.118804 228.381162 43.598515 
C 229.860873 45.078226 231.868073 45.909635 233.9607 45.909635 
z
" clip-path="url(#p8d109d1e73)" style="fill: #f77189; fill-opacity: 0.8; stroke: #2f4f4f; stroke-opacity: 0.8"/>
    <path d="M 200.290424 60.176982 
C 202.321124 60.176982 204.268925 59.370176 205.704847 57.934254 
C 207.140769 56.498333 207.947574 54.550532 207.947574 52.519832 
C 207.947574 50.489132 207.140769 48.541331 205.704847 47.105409 
C 204.268925 45.669487 202.321124 44.862682 200.290424 44.862682 
C 198.259724 44.862682 196.311923 45.669487 194.876002 47.105409 
C 193.44008 48.541331 192.633274 50.489132 192.633274 52.519832 
C 192.633274 54.550532 193.44008 56.498333 194.876002 57.934254 
C 196.311923 59.370176 198.259724 60.176982 200.290424 60.176982 
z
" clip-path="url(#p8d109d1e73)" style="fill: #f77189; fill-opacity: 0.8; stroke: #2f4f4f; stroke-opacity: 0.8"/>
    <path d="M 200.257701 63.903159 
C 202.275484 63.903159 204.210895 63.101485 205.637683 61.674697 
C 207.064472 60.247909 207.866145 58.312497 207.866145 56.294714 
C 207.866145 54.276931 207.064472 52.34152 205.637683 50.914732 
C 204.210895 49.487943 202.275484 48.68627 200.257701 48.68627 
C 198.239918 48.68627 196.304506 49.487943 194.877718 50.914732 
C 193.45093 52.34152 192.649256 54.276931 192.649256 56.294714 
C 192.649256 58.312497 193.45093 60.247909 194.877718 61.674697 
C 196.304506 63.101485 198.239918 63.903159 200.257701 63.903159 
z
" clip-path="url(#p8d109d1e73)" style="fill: #f77189; fill-opacity: 0.8; stroke: #2f4f4f; stroke-opacity: 0.8"/>
    <path d="M 203.873527 93.042732 
C 205.762927 93.042732 207.575196 92.292066 208.911203 90.956059 
C 210.247211 89.620051 210.997877 87.807782 210.997877 85.918382 
C 210.997877 84.028983 210.247211 82.216714 208.911203 80.880706 
C 207.575196 79.544699 205.762927 78.794032 203.873527 78.794032 
C 201.984127 78.794032 200.171858 79.544699 198.835851 80.880706 
C 197.499843 82.216714 196.749177 84.028983 196.749177 85.918382 
C 196.749177 87.807782 197.499843 89.620051 198.835851 90.956059 
C 200.171858 92.292066 201.984127 93.042732 203.873527 93.042732 
z
" clip-path="url(#p8d109d1e73)" style="fill: #f77189; fill-opacity: 0.8; stroke: #2f4f4f; stroke-opacity: 0.8"/>
    <path d="M 83.252316 108.922753 
C 85.045367 108.922753 86.76522 108.210366 88.033099 106.942488 
C 89.300977 105.674609 90.013364 103.954755 90.013364 102.161704 
C 90.013364 100.368653 89.300977 98.6488 88.033099 97.380921 
C 86.76522 96.113043 85.045367 95.400656 83.252316 95.400656 
C 81.459265 95.400656 79.739411 96.113043 78.471532 97.380921 
C 77.203654 98.6488 76.491267 100.368653 76.491267 102.161704 
C 76.491267 103.954755 77.203654 105.674609 78.471532 106.942488 
C 79.739411 108.210366 81.459265 108.922753 83.252316 108.922753 
z
" clip-path="url(#p8d109d1e73)" style="fill: #f77189; fill-opacity: 0.8; stroke: #2f4f4f; stroke-opacity: 0.8"/>
   </g>
   <g id="PathCollection_2">
    <path d="M 275.642246 133.49588 
C 277.215894 133.49588 278.725301 132.870663 279.838038 131.757926 
C 280.950775 130.645189 281.575992 129.135782 281.575992 127.562134 
C 281.575992 125.988486 280.950775 124.479078 279.838038 123.366341 
C 278.725301 122.253604 277.215894 121.628387 275.642246 121.628387 
C 274.068598 121.628387 272.55919 122.253604 271.446453 123.366341 
C 270.333716 124.479078 269.708499 125.988486 269.708499 127.562134 
C 269.708499 129.135782 270.333716 130.645189 271.446453 131.757926 
C 272.55919 132.870663 274.068598 133.49588 275.642246 133.49588 
z
" clip-path="url(#p8d109d1e73)" style="fill: #ae9d31; fill-opacity: 0.8; stroke: #2f4f4f; stroke-opacity: 0.8"/>
    <path d="M 271.602919 138.576854 
C 273.186399 138.576854 274.705238 137.94773 275.824927 136.82804 
C 276.944617 135.708351 277.573741 134.189512 277.573741 132.606032 
C 277.573741 131.022551 276.944617 129.503713 275.824927 128.384023 
C 274.705238 127.264333 273.186399 126.63521 271.602919 126.63521 
C 270.019438 126.63521 268.5006 127.264333 267.38091 128.384023 
C 266.26122 129.503713 265.632097 131.022551 265.632097 132.606032 
C 265.632097 134.189512 266.26122 135.708351 267.38091 136.82804 
C 268.5006 137.94773 270.019438 138.576854 271.602919 138.576854 
z
" clip-path="url(#p8d109d1e73)" style="fill: #ae9d31; fill-opacity: 0.8; stroke: #2f4f4f; stroke-opacity: 0.8"/>
    <path d="M 254.321949 138.965529 
C 255.941962 138.965529 257.495842 138.321891 258.641364 137.176369 
C 259.786886 136.030847 260.430524 134.476967 260.430524 132.856954 
C 260.430524 131.236941 259.786886 129.683062 258.641364 128.53754 
C 257.495842 127.392018 255.941962 126.74838 254.321949 126.74838 
C 252.701936 126.74838 251.148057 127.392018 250.002535 128.53754 
C 248.857013 129.683062 248.213375 131.236941 248.213375 132.856954 
C 248.213375 134.476967 248.857013 136.030847 250.002535 137.176369 
C 251.148057 138.321891 252.701936 138.965529 254.321949 138.965529 
z
" clip-path="url(#p8d109d1e73)" style="fill: #ae9d31; fill-opacity: 0.8; stroke: #2f4f4f; stroke-opacity: 0.8"/>
    <path d="M 265.689129 151.164633 
C 267.185181 151.164633 268.620161 150.570245 269.67803 149.512377 
C 270.735899 148.454508 271.330287 147.019528 271.330287 145.523476 
C 271.330287 144.027423 270.735899 142.592444 269.67803 141.534575 
C 268.620161 140.476706 267.185181 139.882318 265.689129 139.882318 
C 264.193076 139.882318 262.758097 140.476706 261.700228 141.534575 
C 260.642359 142.592444 260.047971 144.027423 260.047971 145.523476 
C 260.047971 147.019528 260.642359 148.454508 261.700228 149.512377 
C 262.758097 150.570245 264.193076 151.164633 265.689129 151.164633 
z
" clip-path="url(#p8d109d1e73)" style="fill: #ae9d31; fill-opacity: 0.8; stroke: #2f4f4f; stroke-opacity: 0.8"/>
    <path d="M 116.797003 165.293693 
C 118.213924 165.293693 119.573002 164.730745 120.574916 163.728831 
C 121.576831 162.726916 122.139779 161.367838 122.139779 159.950918 
C 122.139779 158.533997 121.576831 157.174919 120.574916 156.173005 
C 119.573002 155.171091 118.213924 154.608142 116.797003 154.608142 
C 115.380083 154.608142 114.021005 155.171091 113.01909 156.173005 
C 112.017176 157.174919 111.454228 158.533997 111.454228 159.950918 
C 111.454228 161.367838 112.017176 162.726916 113.01909 163.728831 
C 114.021005 164.730745 115.380083 165.293693 116.797003 165.293693 
z
" clip-path="url(#p8d109d1e73)" style="fill: #ae9d31; fill-opacity: 0.8; stroke: #2f4f4f; stroke-opacity: 0.8"/>
    <path d="M 286.484724 167.917892 
C 287.813412 167.917892 289.087858 167.389999 290.027382 166.450475 
C 290.966906 165.510951 291.494799 164.236504 291.494799 162.907817 
C 291.494799 161.57913 290.966906 160.304683 290.027382 159.365159 
C 289.087858 158.425635 287.813412 157.897742 286.484724 157.897742 
C 285.156037 157.897742 283.881591 158.425635 282.942067 159.365159 
C 282.002543 160.304683 281.47465 161.57913 281.47465 162.907817 
C 281.47465 164.236504 282.002543 165.510951 282.942067 166.450475 
C 283.881591 167.389999 285.156037 167.917892 286.484724 167.917892 
z
" clip-path="url(#p8d109d1e73)" style="fill: #ae9d31; fill-opacity: 0.8; stroke: #2f4f4f; stroke-opacity: 0.8"/>
    <path d="M 269.91463 240.911741 
C 270.741102 240.911741 271.533836 240.58338 272.11824 239.998976 
C 272.702645 239.414572 273.031006 238.621838 273.031006 237.795366 
C 273.031006 236.968893 272.702645 236.17616 272.11824 235.591755 
C 271.533836 235.007351 270.741102 234.67899 269.91463 234.67899 
C 269.088158 234.67899 268.295424 235.007351 267.71102 235.591755 
C 267.126615 236.17616 266.798254 236.968893 266.798254 237.795366 
C 266.798254 238.621838 267.126615 239.414572 267.71102 239.998976 
C 268.295424 240.58338 269.088158 240.911741 269.91463 240.911741 
z
" clip-path="url(#p8d109d1e73)" style="fill: #ae9d31; fill-opacity: 0.8; stroke: #2f4f4f; stroke-opacity: 0.8"/>
   </g>
   <g id="PathCollection_3">
    <path d="M 332.454406 135.086524 
C 334.108919 135.086524 335.69589 134.429179 336.865807 133.259262 
C 338.035724 132.089344 338.693069 130.502374 338.693069 128.847861 
C 338.693069 127.193348 338.035724 125.606377 336.865807 124.43646 
C 335.69589 123.266543 334.108919 122.609198 332.454406 122.609198 
C 330.799894 122.609198 329.212923 123.266543 328.043006 124.43646 
C 326.873089 125.606377 326.215744 127.193348 326.215744 128.847861 
C 326.215744 130.502374 326.873089 132.089344 328.043006 133.259262 
C 329.212923 134.429179 330.799894 135.086524 332.454406 135.086524 
z
" clip-path="url(#p8d109d1e73)" style="fill: #33b07a; fill-opacity: 0.8; stroke: #2f4f4f; stroke-opacity: 0.8"/>
    <path d="M 367.840485 156.930705 
C 369.420205 156.930705 370.935436 156.303076 372.052467 155.186045 
C 373.169498 154.069015 373.797127 152.553784 373.797127 150.974064 
C 373.797127 149.394344 373.169498 147.879113 372.052467 146.762082 
C 370.935436 145.645052 369.420205 145.017422 367.840485 145.017422 
C 366.260766 145.017422 364.745534 145.645052 363.628504 146.762082 
C 362.511473 147.879113 361.883844 149.394344 361.883844 150.974064 
C 361.883844 152.553784 362.511473 154.069015 363.628504 155.186045 
C 364.745534 156.303076 366.260766 156.930705 367.840485 156.930705 
z
" clip-path="url(#p8d109d1e73)" style="fill: #33b07a; fill-opacity: 0.8; stroke: #2f4f4f; stroke-opacity: 0.8"/>
    <path d="M 258.667986 179.371754 
C 260.134627 179.371754 261.541395 178.789051 262.578467 177.75198 
C 263.615539 176.714908 264.198241 175.308139 264.198241 173.841499 
C 264.198241 172.374858 263.615539 170.968089 262.578467 169.931018 
C 261.541395 168.893946 260.134627 168.311243 258.667986 168.311243 
C 257.201345 168.311243 255.794577 168.893946 254.757505 169.931018 
C 253.720433 170.968089 253.137731 172.374858 253.137731 173.841499 
C 253.137731 175.308139 253.720433 176.714908 254.757505 177.75198 
C 255.794577 178.789051 257.201345 179.371754 258.667986 179.371754 
z
" clip-path="url(#p8d109d1e73)" style="fill: #33b07a; fill-opacity: 0.8; stroke: #2f4f4f; stroke-opacity: 0.8"/>
    <path d="M 335.624575 193.921288 
C 337.129996 193.921288 338.573962 193.323178 339.638456 192.258684 
C 340.702949 191.194191 341.301059 189.750225 341.301059 188.244804 
C 341.301059 186.739382 340.702949 185.295417 339.638456 184.230923 
C 338.573962 183.16643 337.129996 182.568319 335.624575 182.568319 
C 334.119154 182.568319 332.675188 183.16643 331.610695 184.230923 
C 330.546201 185.295417 329.948091 186.739382 329.948091 188.244804 
C 329.948091 189.750225 330.546201 191.194191 331.610695 192.258684 
C 332.675188 193.323178 334.119154 193.921288 335.624575 193.921288 
z
" clip-path="url(#p8d109d1e73)" style="fill: #33b07a; fill-opacity: 0.8; stroke: #2f4f4f; stroke-opacity: 0.8"/>
   </g>
   <g id="PathCollection_4">
    <path d="M 271.491547 185.042102 
C 272.765393 185.042102 273.987237 184.535997 274.887982 183.635252 
C 275.788727 182.734507 276.294832 181.512663 276.294832 180.238817 
C 276.294832 178.964971 275.788727 177.743128 274.887982 176.842382 
C 273.987237 175.941637 272.765393 175.435533 271.491547 175.435533 
C 270.217701 175.435533 268.995857 175.941637 268.095112 176.842382 
C 267.194367 177.743128 266.688263 178.964971 266.688263 180.238817 
C 266.688263 181.512663 267.194367 182.734507 268.095112 183.635252 
C 268.995857 184.535997 270.217701 185.042102 271.491547 185.042102 
z
" clip-path="url(#p8d109d1e73)" style="fill: #38a9c5; fill-opacity: 0.8; stroke: #2f4f4f; stroke-opacity: 0.8"/>
    <path d="M 382.380383 228.891789 
C 383.666384 228.891789 384.899887 228.380855 385.809227 227.471515 
C 386.718567 226.562175 387.229501 225.328673 387.229501 224.042672 
C 387.229501 222.756671 386.718567 221.523168 385.809227 220.613828 
C 384.899887 219.704488 383.666384 219.193555 382.380383 219.193555 
C 381.094383 219.193555 379.86088 219.704488 378.95154 220.613828 
C 378.0422 221.523168 377.531266 222.756671 377.531266 224.042672 
C 377.531266 225.328673 378.0422 226.562175 378.95154 227.471515 
C 379.86088 228.380855 381.094383 228.891789 382.380383 228.891789 
z
" clip-path="url(#p8d109d1e73)" style="fill: #38a9c5; fill-opacity: 0.8; stroke: #2f4f4f; stroke-opacity: 0.8"/>
    <path d="M 382.380383 244.656303 
C 383.447798 244.656303 384.471637 244.232215 385.226413 243.477439 
C 385.981189 242.722663 386.405278 241.698823 386.405278 240.631409 
C 386.405278 239.563994 385.981189 238.540155 385.226413 237.785379 
C 384.471637 237.030603 383.447798 236.606515 382.380383 236.606515 
C 381.312969 236.606515 380.289129 237.030603 379.534353 237.785379 
C 378.779578 238.540155 378.355489 239.563994 378.355489 240.631409 
C 378.355489 241.698823 378.779578 242.722663 379.534353 243.477439 
C 380.289129 244.232215 381.312969 244.656303 382.380383 244.656303 
z
" clip-path="url(#p8d109d1e73)" style="fill: #38a9c5; fill-opacity: 0.8; stroke: #2f4f4f; stroke-opacity: 0.8"/>
    <path d="M 394.973877 276.513451 
C 395.669428 276.513451 396.336584 276.237106 396.828413 275.745277 
C 397.320242 275.253448 397.596587 274.586292 397.596587 273.890741 
C 397.596587 273.19519 397.320242 272.528034 396.828413 272.036205 
C 396.336584 271.544376 395.669428 271.268031 394.973877 271.268031 
C 394.278326 271.268031 393.61117 271.544376 393.119341 272.036205 
C 392.627512 272.528034 392.351167 273.19519 392.351167 273.890741 
C 392.351167 274.586292 392.627512 275.253448 393.119341 275.745277 
C 393.61117 276.237106 394.278326 276.513451 394.973877 276.513451 
z
" clip-path="url(#p8d109d1e73)" style="fill: #38a9c5; fill-opacity: 0.8; stroke: #2f4f4f; stroke-opacity: 0.8"/>
    <path d="M 385.152688 293.487982 
C 385.519847 293.487982 385.872018 293.342108 386.131639 293.082487 
C 386.39126 292.822866 386.537134 292.470695 386.537134 292.103535 
C 386.537134 291.736376 386.39126 291.384205 386.131639 291.124584 
C 385.872018 290.864963 385.519847 290.719089 385.152688 290.719089 
C 384.785529 290.719089 384.433358 290.864963 384.173737 291.124584 
C 383.914116 291.384205 383.768242 291.736376 383.768242 292.103535 
C 383.768242 292.470695 383.914116 292.822866 384.173737 293.082487 
C 384.433358 293.342108 384.785529 293.487982 385.152688 293.487982 
z
" clip-path="url(#p8d109d1e73)" style="fill: #38a9c5; fill-opacity: 0.8; stroke: #2f4f4f; stroke-opacity: 0.8"/>
   </g>
   <g id="PathCollection_5">
    <path d="M 235.481515 279.563592 
C 236.083255 279.563592 236.660431 279.324518 237.085926 278.899023 
C 237.511421 278.473528 237.750495 277.896353 237.750495 277.294612 
C 237.750495 276.692872 237.511421 276.115696 237.085926 275.690201 
C 236.660431 275.264706 236.083255 275.025632 235.481515 275.025632 
C 234.879775 275.025632 234.302599 275.264706 233.877104 275.690201 
C 233.451609 276.115696 233.212535 276.692872 233.212535 277.294612 
C 233.212535 277.896353 233.451609 278.473528 233.877104 278.899023 
C 234.302599 279.324518 234.879775 279.563592 235.481515 279.563592 
z
" clip-path="url(#p8d109d1e73)" style="fill: #cc7af4; fill-opacity: 0.8; stroke: #2f4f4f; stroke-opacity: 0.8"/>
    <path d="M 205.875719 302.843503 
C 206.298713 302.843503 206.704439 302.675446 207.003541 302.376344 
C 207.302643 302.077242 207.4707 301.671516 207.4707 301.248523 
C 207.4707 300.825529 207.302643 300.419803 207.003541 300.120701 
C 206.704439 299.8216 206.298713 299.653542 205.875719 299.653542 
C 205.452726 299.653542 205.047 299.8216 204.747898 300.120701 
C 204.448796 300.419803 204.280739 300.825529 204.280739 301.248523 
C 204.280739 301.671516 204.448796 302.077242 204.747898 302.376344 
C 205.047 302.675446 205.452726 302.843503 205.875719 302.843503 
z
" clip-path="url(#p8d109d1e73)" style="fill: #cc7af4; fill-opacity: 0.8; stroke: #2f4f4f; stroke-opacity: 0.8"/>
   </g>
   <g id="patch_3">
    <path d="M 44.183438 314.41 
L 44.183438 24.8575 
" style="fill: none; stroke: #cccccc; stroke-linejoin: miter; stroke-linecap: square"/>
   </g>
   <g id="patch_4">
    <path d="M 412.661438 314.41 
L 412.661438 24.8575 
" style="fill: none; stroke: #cccccc; stroke-linejoin: miter; stroke-linecap: square"/>
   </g>
   <g id="patch_5">
    <path d="M 44.183438 314.41 
L 412.661438 314.41 
" style="fill: none; stroke: #cccccc; stroke-linejoin: miter; stroke-linecap: square"/>
   </g>
   <g id="patch_6">
    <path d="M 44.183438 24.8575 
L 412.661438 24.8575 
" style="fill: none; stroke: #cccccc; stroke-linejoin: miter; stroke-linecap: square"/>
   </g>
   <g id="text_16">
    <!-- Overall Performance vs Scalability/Stability -->
    <g style="fill: #262626" transform="translate(76.373687 18.8575) scale(0.16 -0.16)">
     <defs>
      <path id="ArialMT-73" d="M 197 991 
L 753 1078 
Q 800 744 1014 566 
Q 1228 388 1613 388 
Q 2000 388 2187 545 
Q 2375 703 2375 916 
Q 2375 1106 2209 1216 
Q 2094 1291 1634 1406 
Q 1016 1563 777 1677 
Q 538 1791 414 1992 
Q 291 2194 291 2438 
Q 291 2659 392 2848 
Q 494 3038 669 3163 
Q 800 3259 1026 3326 
Q 1253 3394 1513 3394 
Q 1903 3394 2198 3281 
Q 2494 3169 2634 2976 
Q 2775 2784 2828 2463 
L 2278 2388 
Q 2241 2644 2061 2787 
Q 1881 2931 1553 2931 
Q 1166 2931 1000 2803 
Q 834 2675 834 2503 
Q 834 2394 903 2306 
Q 972 2216 1119 2156 
Q 1203 2125 1616 2013 
Q 2213 1853 2448 1751 
Q 2684 1650 2818 1456 
Q 2953 1263 2953 975 
Q 2953 694 2789 445 
Q 2625 197 2315 61 
Q 2006 -75 1616 -75 
Q 969 -75 630 194 
Q 291 463 197 991 
z
" transform="scale(0.015625)"/>
     </defs>
     <use xlink:href="#ArialMT-4f"/>
     <use xlink:href="#ArialMT-76" x="77.783203"/>
     <use xlink:href="#ArialMT-65" x="127.783203"/>
     <use xlink:href="#ArialMT-72" x="183.398438"/>
     <use xlink:href="#ArialMT-61" x="216.699219"/>
     <use xlink:href="#ArialMT-6c" x="272.314453"/>
     <use xlink:href="#ArialMT-6c" x="294.53125"/>
     <use xlink:href="#ArialMT-20" x="316.748047"/>
     <use xlink:href="#ArialMT-50" x="344.53125"/>
     <use xlink:href="#ArialMT-65" x="411.230469"/>
     <use xlink:href="#ArialMT-72" x="466.845703"/>
     <use xlink:href="#ArialMT-66" x="500.146484"/>
     <use xlink:href="#ArialMT-6f" x="527.929688"/>
     <use xlink:href="#ArialMT-72" x="583.544922"/>
     <use xlink:href="#ArialMT-6d" x="616.845703"/>
     <use xlink:href="#ArialMT-61" x="700.146484"/>
     <use xlink:href="#ArialMT-6e" x="755.761719"/>
     <use xlink:href="#ArialMT-63" x="811.376953"/>
     <use xlink:href="#ArialMT-65" x="861.376953"/>
     <use xlink:href="#ArialMT-20" x="916.992188"/>
     <use xlink:href="#ArialMT-76" x="944.775391"/>
     <use xlink:href="#ArialMT-73" x="994.775391"/>
     <use xlink:href="#ArialMT-20" x="1044.775391"/>
     <use xlink:href="#ArialMT-53" x="1072.558594"/>
     <use xlink:href="#ArialMT-63" x="1139.257812"/>
     <use xlink:href="#ArialMT-61" x="1189.257812"/>
     <use xlink:href="#ArialMT-6c" x="1244.873047"/>
     <use xlink:href="#ArialMT-61" x="1267.089844"/>
     <use xlink:href="#ArialMT-62" x="1322.705078"/>
     <use xlink:href="#ArialMT-69" x="1378.320312"/>
     <use xlink:href="#ArialMT-6c" x="1400.537109"/>
     <use xlink:href="#ArialMT-69" x="1422.753906"/>
     <use xlink:href="#ArialMT-74" x="1444.970703"/>
     <use xlink:href="#ArialMT-79" x="1472.753906"/>
     <use xlink:href="#ArialMT-2f" x="1522.753906"/>
     <use xlink:href="#ArialMT-53" x="1550.537109"/>
     <use xlink:href="#ArialMT-74" x="1617.236328"/>
     <use xlink:href="#ArialMT-61" x="1645.019531"/>
     <use xlink:href="#ArialMT-62" x="1700.634766"/>
     <use xlink:href="#ArialMT-69" x="1756.25"/>
     <use xlink:href="#ArialMT-6c" x="1778.466797"/>
     <use xlink:href="#ArialMT-69" x="1800.683594"/>
     <use xlink:href="#ArialMT-74" x="1822.900391"/>
     <use xlink:href="#ArialMT-79" x="1850.683594"/>
    </g>
   </g>
   <g id="legend_1">
    <g id="line2d_14">
     <path d="M 424.830998 33.246625 
L 436.830998 33.246625 
L 448.830998 33.246625 
" style="fill: none; stroke: #ffffff; stroke-width: 1.5; stroke-linecap: round"/>
     <defs>
      <path id="m5beb6a5eaa" d="M 0 4 
C 1.060812 4 2.078319 3.578535 2.828427 2.828427 
C 3.578535 2.078319 4 1.060812 4 0 
C 4 -1.060812 3.578535 -2.078319 2.828427 -2.828427 
C 2.078319 -3.578535 1.060812 -4 0 -4 
C -1.060812 -4 -2.078319 -3.578535 -2.828427 -2.828427 
C -3.578535 -2.078319 -4 -1.060812 -4 0 
C -4 1.060812 -3.578535 2.078319 -2.828427 2.828427 
C -2.078319 3.578535 -1.060812 4 0 4 
z
" style="stroke: #2f4f4f"/>
     </defs>
     <g>
      <use xlink:href="#m5beb6a5eaa" x="436.830998" y="33.246625" style="fill: #f77189; stroke: #2f4f4f"/>
     </g>
    </g>
    <g id="text_17">
     <!-- Supervised -->
     <g style="fill: #262626" transform="translate(458.430998 37.446625) scale(0.12 -0.12)">
      <defs>
       <path id="ArialMT-75" d="M 2597 0 
L 2597 488 
Q 2209 -75 1544 -75 
Q 1250 -75 995 37 
Q 741 150 617 320 
Q 494 491 444 738 
Q 409 903 409 1263 
L 409 3319 
L 972 3319 
L 972 1478 
Q 972 1038 1006 884 
Q 1059 663 1231 536 
Q 1403 409 1656 409 
Q 1909 409 2131 539 
Q 2353 669 2445 892 
Q 2538 1116 2538 1541 
L 2538 3319 
L 3100 3319 
L 3100 0 
L 2597 0 
z
" transform="scale(0.015625)"/>
       <path id="ArialMT-70" d="M 422 -1272 
L 422 3319 
L 934 3319 
L 934 2888 
Q 1116 3141 1344 3267 
Q 1572 3394 1897 3394 
Q 2322 3394 2647 3175 
Q 2972 2956 3137 2557 
Q 3303 2159 3303 1684 
Q 3303 1175 3120 767 
Q 2938 359 2589 142 
Q 2241 -75 1856 -75 
Q 1575 -75 1351 44 
Q 1128 163 984 344 
L 984 -1272 
L 422 -1272 
z
M 931 1641 
Q 931 1000 1190 694 
Q 1450 388 1819 388 
Q 2194 388 2461 705 
Q 2728 1022 2728 1688 
Q 2728 2322 2467 2637 
Q 2206 2953 1844 2953 
Q 1484 2953 1207 2617 
Q 931 2281 931 1641 
z
" transform="scale(0.015625)"/>
       <path id="ArialMT-64" d="M 2575 0 
L 2575 419 
Q 2259 -75 1647 -75 
Q 1250 -75 917 144 
Q 584 363 401 755 
Q 219 1147 219 1656 
Q 219 2153 384 2558 
Q 550 2963 881 3178 
Q 1213 3394 1622 3394 
Q 1922 3394 2156 3267 
Q 2391 3141 2538 2938 
L 2538 4581 
L 3097 4581 
L 3097 0 
L 2575 0 
z
M 797 1656 
Q 797 1019 1065 703 
Q 1334 388 1700 388 
Q 2069 388 2326 689 
Q 2584 991 2584 1609 
Q 2584 2291 2321 2609 
Q 2059 2928 1675 2928 
Q 1300 2928 1048 2622 
Q 797 2316 797 1656 
z
" transform="scale(0.015625)"/>
      </defs>
      <use xlink:href="#ArialMT-53"/>
      <use xlink:href="#ArialMT-75" x="66.699219"/>
      <use xlink:href="#ArialMT-70" x="122.314453"/>
      <use xlink:href="#ArialMT-65" x="177.929688"/>
      <use xlink:href="#ArialMT-72" x="233.544922"/>
      <use xlink:href="#ArialMT-76" x="266.845703"/>
      <use xlink:href="#ArialMT-69" x="316.845703"/>
      <use xlink:href="#ArialMT-73" x="339.0625"/>
      <use xlink:href="#ArialMT-65" x="389.0625"/>
      <use xlink:href="#ArialMT-64" x="444.677734"/>
     </g>
    </g>
    <g id="line2d_15">
     <path d="M 424.830998 50.221 
L 436.830998 50.221 
L 448.830998 50.221 
" style="fill: none; stroke: #ffffff; stroke-width: 1.5; stroke-linecap: round"/>
     <defs>
      <path id="m2269b7de35" d="M 0 4 
C 1.060812 4 2.078319 3.578535 2.828427 2.828427 
C 3.578535 2.078319 4 1.060812 4 0 
C 4 -1.060812 3.578535 -2.078319 2.828427 -2.828427 
C 2.078319 -3.578535 1.060812 -4 0 -4 
C -1.060812 -4 -2.078319 -3.578535 -2.828427 -2.828427 
C -3.578535 -2.078319 -4 -1.060812 -4 0 
C -4 1.060812 -3.578535 2.078319 -2.828427 2.828427 
C -2.078319 3.578535 -1.060812 4 0 4 
z
" style="stroke: #2f4f4f"/>
     </defs>
     <g>
      <use xlink:href="#m2269b7de35" x="436.830998" y="50.221" style="fill: #ae9d31; stroke: #2f4f4f"/>
     </g>
    </g>
    <g id="text_18">
     <!-- Unsupervised -->
     <g style="fill: #262626" transform="translate(458.430998 54.421) scale(0.12 -0.12)">
      <defs>
       <path id="ArialMT-55" d="M 3500 4581 
L 4106 4581 
L 4106 1934 
Q 4106 1244 3950 837 
Q 3794 431 3386 176 
Q 2978 -78 2316 -78 
Q 1672 -78 1262 144 
Q 853 366 678 786 
Q 503 1206 503 1934 
L 503 4581 
L 1109 4581 
L 1109 1938 
Q 1109 1341 1220 1058 
Q 1331 775 1601 622 
Q 1872 469 2263 469 
Q 2931 469 3215 772 
Q 3500 1075 3500 1938 
L 3500 4581 
z
" transform="scale(0.015625)"/>
      </defs>
      <use xlink:href="#ArialMT-55"/>
      <use xlink:href="#ArialMT-6e" x="72.216797"/>
      <use xlink:href="#ArialMT-73" x="127.832031"/>
      <use xlink:href="#ArialMT-75" x="177.832031"/>
      <use xlink:href="#ArialMT-70" x="233.447266"/>
      <use xlink:href="#ArialMT-65" x="289.0625"/>
      <use xlink:href="#ArialMT-72" x="344.677734"/>
      <use xlink:href="#ArialMT-76" x="377.978516"/>
      <use xlink:href="#ArialMT-69" x="427.978516"/>
      <use xlink:href="#ArialMT-73" x="450.195312"/>
      <use xlink:href="#ArialMT-65" x="500.195312"/>
      <use xlink:href="#ArialMT-64" x="555.810547"/>
     </g>
    </g>
    <g id="line2d_16">
     <path d="M 424.830998 67.195375 
L 436.830998 67.195375 
L 448.830998 67.195375 
" style="fill: none; stroke: #ffffff; stroke-width: 1.5; stroke-linecap: round"/>
     <defs>
      <path id="m0e07ce27b3" d="M 0 4 
C 1.060812 4 2.078319 3.578535 2.828427 2.828427 
C 3.578535 2.078319 4 1.060812 4 0 
C 4 -1.060812 3.578535 -2.078319 2.828427 -2.828427 
C 2.078319 -3.578535 1.060812 -4 0 -4 
C -1.060812 -4 -2.078319 -3.578535 -2.828427 -2.828427 
C -3.578535 -2.078319 -4 -1.060812 -4 0 
C -4 1.060812 -3.578535 2.078319 -2.828427 2.828427 
C -2.078319 3.578535 -1.060812 4 0 4 
z
" style="stroke: #2f4f4f"/>
     </defs>
     <g>
      <use xlink:href="#m0e07ce27b3" x="436.830998" y="67.195375" style="fill: #33b07a; stroke: #2f4f4f"/>
     </g>
    </g>
    <g id="text_19">
     <!-- Prior-Knowledge-driven -->
     <g style="fill: #262626" transform="translate(458.430998 71.395375) scale(0.12 -0.12)">
      <defs>
       <path id="ArialMT-2d" d="M 203 1375 
L 203 1941 
L 1931 1941 
L 1931 1375 
L 203 1375 
z
" transform="scale(0.015625)"/>
       <path id="ArialMT-4b" d="M 469 0 
L 469 4581 
L 1075 4581 
L 1075 2309 
L 3350 4581 
L 4172 4581 
L 2250 2725 
L 4256 0 
L 3456 0 
L 1825 2319 
L 1075 1588 
L 1075 0 
L 469 0 
z
" transform="scale(0.015625)"/>
       <path id="ArialMT-77" d="M 1034 0 
L 19 3319 
L 600 3319 
L 1128 1403 
L 1325 691 
Q 1338 744 1497 1375 
L 2025 3319 
L 2603 3319 
L 3100 1394 
L 3266 759 
L 3456 1400 
L 4025 3319 
L 4572 3319 
L 3534 0 
L 2950 0 
L 2422 1988 
L 2294 2553 
L 1622 0 
L 1034 0 
z
" transform="scale(0.015625)"/>
       <path id="ArialMT-67" d="M 319 -275 
L 866 -356 
Q 900 -609 1056 -725 
Q 1266 -881 1628 -881 
Q 2019 -881 2231 -725 
Q 2444 -569 2519 -288 
Q 2563 -116 2559 434 
Q 2191 0 1641 0 
Q 956 0 581 494 
Q 206 988 206 1678 
Q 206 2153 378 2554 
Q 550 2956 876 3175 
Q 1203 3394 1644 3394 
Q 2231 3394 2613 2919 
L 2613 3319 
L 3131 3319 
L 3131 450 
Q 3131 -325 2973 -648 
Q 2816 -972 2473 -1159 
Q 2131 -1347 1631 -1347 
Q 1038 -1347 672 -1080 
Q 306 -813 319 -275 
z
M 784 1719 
Q 784 1066 1043 766 
Q 1303 466 1694 466 
Q 2081 466 2343 764 
Q 2606 1063 2606 1700 
Q 2606 2309 2336 2618 
Q 2066 2928 1684 2928 
Q 1309 2928 1046 2623 
Q 784 2319 784 1719 
z
" transform="scale(0.015625)"/>
      </defs>
      <use xlink:href="#ArialMT-50"/>
      <use xlink:href="#ArialMT-72" x="66.699219"/>
      <use xlink:href="#ArialMT-69" x="100"/>
      <use xlink:href="#ArialMT-6f" x="122.216797"/>
      <use xlink:href="#ArialMT-72" x="177.832031"/>
      <use xlink:href="#ArialMT-2d" x="211.132812"/>
      <use xlink:href="#ArialMT-4b" x="244.433594"/>
      <use xlink:href="#ArialMT-6e" x="311.132812"/>
      <use xlink:href="#ArialMT-6f" x="366.748047"/>
      <use xlink:href="#ArialMT-77" x="422.363281"/>
      <use xlink:href="#ArialMT-6c" x="494.580078"/>
      <use xlink:href="#ArialMT-65" x="516.796875"/>
      <use xlink:href="#ArialMT-64" x="572.412109"/>
      <use xlink:href="#ArialMT-67" x="628.027344"/>
      <use xlink:href="#ArialMT-65" x="683.642578"/>
      <use xlink:href="#ArialMT-2d" x="739.257812"/>
      <use xlink:href="#ArialMT-64" x="772.558594"/>
      <use xlink:href="#ArialMT-72" x="828.173828"/>
      <use xlink:href="#ArialMT-69" x="861.474609"/>
      <use xlink:href="#ArialMT-76" x="883.691406"/>
      <use xlink:href="#ArialMT-65" x="933.691406"/>
      <use xlink:href="#ArialMT-6e" x="989.306641"/>
     </g>
    </g>
    <g id="line2d_17">
     <path d="M 424.830998 84.310375 
L 436.830998 84.310375 
L 448.830998 84.310375 
" style="fill: none; stroke: #ffffff; stroke-width: 1.5; stroke-linecap: round"/>
     <defs>
      <path id="m44e5113343" d="M 0 4 
C 1.060812 4 2.078319 3.578535 2.828427 2.828427 
C 3.578535 2.078319 4 1.060812 4 0 
C 4 -1.060812 3.578535 -2.078319 2.828427 -2.828427 
C 2.078319 -3.578535 1.060812 -4 0 -4 
C -1.060812 -4 -2.078319 -3.578535 -2.828427 -2.828427 
C -3.578535 -2.078319 -4 -1.060812 -4 0 
C -4 1.060812 -3.578535 2.078319 -2.828427 2.828427 
C -2.078319 3.578535 -1.060812 4 0 4 
z
" style="stroke: #2f4f4f"/>
     </defs>
     <g>
      <use xlink:href="#m44e5113343" x="436.830998" y="84.310375" style="fill: #38a9c5; stroke: #2f4f4f"/>
     </g>
    </g>
    <g id="text_20">
     <!-- Pre-trained Models -->
     <g style="fill: #262626" transform="translate(458.430998 88.510375) scale(0.12 -0.12)">
      <defs>
       <path id="ArialMT-4d" d="M 475 0 
L 475 4581 
L 1388 4581 
L 2472 1338 
Q 2622 884 2691 659 
Q 2769 909 2934 1394 
L 4031 4581 
L 4847 4581 
L 4847 0 
L 4263 0 
L 4263 3834 
L 2931 0 
L 2384 0 
L 1059 3900 
L 1059 0 
L 475 0 
z
" transform="scale(0.015625)"/>
      </defs>
      <use xlink:href="#ArialMT-50"/>
      <use xlink:href="#ArialMT-72" x="66.699219"/>
      <use xlink:href="#ArialMT-65" x="100"/>
      <use xlink:href="#ArialMT-2d" x="155.615234"/>
      <use xlink:href="#ArialMT-74" x="188.916016"/>
      <use xlink:href="#ArialMT-72" x="216.699219"/>
      <use xlink:href="#ArialMT-61" x="250"/>
      <use xlink:href="#ArialMT-69" x="305.615234"/>
      <use xlink:href="#ArialMT-6e" x="327.832031"/>
      <use xlink:href="#ArialMT-65" x="383.447266"/>
      <use xlink:href="#ArialMT-64" x="439.0625"/>
      <use xlink:href="#ArialMT-20" x="494.677734"/>
      <use xlink:href="#ArialMT-4d" x="522.460938"/>
      <use xlink:href="#ArialMT-6f" x="605.761719"/>
      <use xlink:href="#ArialMT-64" x="661.376953"/>
      <use xlink:href="#ArialMT-65" x="716.992188"/>
      <use xlink:href="#ArialMT-6c" x="772.607422"/>
      <use xlink:href="#ArialMT-73" x="794.824219"/>
     </g>
    </g>
    <g id="line2d_18">
     <path d="M 424.830998 101.28475 
L 436.830998 101.28475 
L 448.830998 101.28475 
" style="fill: none; stroke: #ffffff; stroke-width: 1.5; stroke-linecap: round"/>
     <defs>
      <path id="mb7f71badba" d="M 0 4 
C 1.060812 4 2.078319 3.578535 2.828427 2.828427 
C 3.578535 2.078319 4 1.060812 4 0 
C 4 -1.060812 3.578535 -2.078319 2.828427 -2.828427 
C 2.078319 -3.578535 1.060812 -4 0 -4 
C -1.060812 -4 -2.078319 -3.578535 -2.828427 -2.828427 
C -3.578535 -2.078319 -4 -1.060812 -4 0 
C -4 1.060812 -3.578535 2.078319 -2.828427 2.828427 
C -2.078319 3.578535 -1.060812 4 0 4 
z
" style="stroke: #2f4f4f"/>
     </defs>
     <g>
      <use xlink:href="#mb7f71badba" x="436.830998" y="101.28475" style="fill: #cc7af4; stroke: #2f4f4f"/>
     </g>
    </g>
    <g id="text_21">
     <!-- Baselines -->
     <g style="fill: #262626" transform="translate(458.430998 105.48475) scale(0.12 -0.12)">
      <defs>
       <path id="ArialMT-42" d="M 469 0 
L 469 4581 
L 2188 4581 
Q 2713 4581 3030 4442 
Q 3347 4303 3526 4014 
Q 3706 3725 3706 3409 
Q 3706 3116 3547 2856 
Q 3388 2597 3066 2438 
Q 3481 2316 3704 2022 
Q 3928 1728 3928 1328 
Q 3928 1006 3792 729 
Q 3656 453 3456 303 
Q 3256 153 2954 76 
Q 2653 0 2216 0 
L 469 0 
z
M 1075 2656 
L 2066 2656 
Q 2469 2656 2644 2709 
Q 2875 2778 2992 2937 
Q 3109 3097 3109 3338 
Q 3109 3566 3000 3739 
Q 2891 3913 2687 3977 
Q 2484 4041 1991 4041 
L 1075 4041 
L 1075 2656 
z
M 1075 541 
L 2216 541 
Q 2509 541 2628 563 
Q 2838 600 2978 687 
Q 3119 775 3209 942 
Q 3300 1109 3300 1328 
Q 3300 1584 3169 1773 
Q 3038 1963 2805 2039 
Q 2572 2116 2134 2116 
L 1075 2116 
L 1075 541 
z
" transform="scale(0.015625)"/>
      </defs>
      <use xlink:href="#ArialMT-42"/>
      <use xlink:href="#ArialMT-61" x="66.699219"/>
      <use xlink:href="#ArialMT-73" x="122.314453"/>
      <use xlink:href="#ArialMT-65" x="172.314453"/>
      <use xlink:href="#ArialMT-6c" x="227.929688"/>
      <use xlink:href="#ArialMT-69" x="250.146484"/>
      <use xlink:href="#ArialMT-6e" x="272.363281"/>
      <use xlink:href="#ArialMT-65" x="327.978516"/>
      <use xlink:href="#ArialMT-73" x="383.59375"/>
     </g>
    </g>
   </g>
   <g id="legend_2">
    <g id="text_22">
     <!-- Macro F1 -->
     <g style="fill: #262626" transform="translate(424.830998 147.791406) scale(0.14 -0.14)">
      <defs>
       <path id="ArialMT-46" d="M 525 0 
L 525 4581 
L 3616 4581 
L 3616 4041 
L 1131 4041 
L 1131 2622 
L 3281 2622 
L 3281 2081 
L 1131 2081 
L 1131 0 
L 525 0 
z
" transform="scale(0.015625)"/>
      </defs>
      <use xlink:href="#ArialMT-4d"/>
      <use xlink:href="#ArialMT-61" x="83.300781"/>
      <use xlink:href="#ArialMT-63" x="138.916016"/>
      <use xlink:href="#ArialMT-72" x="188.916016"/>
      <use xlink:href="#ArialMT-6f" x="222.216797"/>
      <use xlink:href="#ArialMT-20" x="277.832031"/>
      <use xlink:href="#ArialMT-46" x="305.615234"/>
      <use xlink:href="#ArialMT-31" x="366.699219"/>
     </g>
    </g>
    <g id="line2d_19">
     <path d="M 429.250685 160.963281 
L 441.250685 160.963281 
L 453.250685 160.963281 
" style="fill: none; stroke: #ffffff; stroke-width: 1.5; stroke-linecap: round"/>
     <defs>
      <path id="m22dff0db22" d="M 0 2 
C 0.530406 2 1.03916 1.789267 1.414214 1.414214 
C 1.789267 1.03916 2 0.530406 2 0 
C 2 -0.530406 1.789267 -1.03916 1.414214 -1.414214 
C 1.03916 -1.789267 0.530406 -2 0 -2 
C -0.530406 -2 -1.03916 -1.789267 -1.414214 -1.414214 
C -1.789267 -1.03916 -2 -0.530406 -2 0 
C -2 0.530406 -1.789267 1.03916 -1.414214 1.414214 
C -1.03916 1.789267 -0.530406 2 0 2 
z
" style="stroke: #2f4f4f"/>
     </defs>
     <g>
      <use xlink:href="#m22dff0db22" x="441.250685" y="160.963281" style="fill: #d3d3d3; stroke: #2f4f4f"/>
     </g>
    </g>
    <g id="text_23">
     <!-- 0.0 -->
     <g style="fill: #262626" transform="translate(462.850685 165.163281) scale(0.12 -0.12)">
      <use xlink:href="#ArialMT-30"/>
      <use xlink:href="#ArialMT-2e" x="55.615234"/>
      <use xlink:href="#ArialMT-30" x="83.398438"/>
     </g>
    </g>
    <g id="line2d_20">
     <path d="M 429.250685 177.937656 
L 441.250685 177.937656 
L 453.250685 177.937656 
" style="fill: none; stroke: #ffffff; stroke-width: 1.5; stroke-linecap: round"/>
     <defs>
      <path id="m34d1ab384c" d="M 0 6.123724 
C 1.624031 6.123724 3.181764 5.47849 4.330127 4.330127 
C 5.47849 3.181764 6.123724 1.624031 6.123724 0 
C 6.123724 -1.624031 5.47849 -3.181764 4.330127 -4.330127 
C 3.181764 -5.47849 1.624031 -6.123724 0 -6.123724 
C -1.624031 -6.123724 -3.181764 -5.47849 -4.330127 -4.330127 
C -5.47849 -3.181764 -6.123724 -1.624031 -6.123724 0 
C -6.123724 1.624031 -5.47849 3.181764 -4.330127 4.330127 
C -3.181764 5.47849 -1.624031 6.123724 0 6.123724 
z
" style="stroke: #2f4f4f"/>
     </defs>
     <g>
      <use xlink:href="#m34d1ab384c" x="441.250685" y="177.937656" style="fill: #d3d3d3; stroke: #2f4f4f"/>
     </g>
    </g>
    <g id="text_24">
     <!-- 0.5 -->
     <g style="fill: #262626" transform="translate(462.850685 182.137656) scale(0.12 -0.12)">
      <use xlink:href="#ArialMT-30"/>
      <use xlink:href="#ArialMT-2e" x="55.615234"/>
      <use xlink:href="#ArialMT-35" x="83.398438"/>
     </g>
    </g>
    <g id="line2d_21">
     <path d="M 429.250685 194.912031 
L 441.250685 194.912031 
L 453.250685 194.912031 
" style="fill: none; stroke: #ffffff; stroke-width: 1.5; stroke-linecap: round"/>
     <defs>
      <path id="ma2d1e87f97" d="M 0 8.660254 
C 2.296726 8.660254 4.499694 7.747755 6.123724 6.123724 
C 7.747755 4.499694 8.660254 2.296726 8.660254 0 
C 8.660254 -2.296726 7.747755 -4.499694 6.123724 -6.123724 
C 4.499694 -7.747755 2.296726 -8.660254 0 -8.660254 
C -2.296726 -8.660254 -4.499694 -7.747755 -6.123724 -6.123724 
C -7.747755 -4.499694 -8.660254 -2.296726 -8.660254 0 
C -8.660254 2.296726 -7.747755 4.499694 -6.123724 6.123724 
C -4.499694 7.747755 -2.296726 8.660254 0 8.660254 
z
" style="stroke: #2f4f4f"/>
     </defs>
     <g>
      <use xlink:href="#ma2d1e87f97" x="441.250685" y="194.912031" style="fill: #d3d3d3; stroke: #2f4f4f"/>
     </g>
    </g>
    <g id="text_25">
     <!-- 1.0 -->
     <g style="fill: #262626" transform="translate(462.850685 199.112031) scale(0.12 -0.12)">
      <use xlink:href="#ArialMT-31"/>
      <use xlink:href="#ArialMT-2e" x="55.615234"/>
      <use xlink:href="#ArialMT-30" x="83.398438"/>
     </g>
    </g>
   </g>
  </g>
 </g>
 <defs>
  <clipPath id="p8d109d1e73">
   <rect x="44.183438" y="24.8575" width="368.478" height="289.5525"/>
  </clipPath>
 </defs>
</svg>
