<?xml version="1.0" encoding="utf-8" standalone="no"?>
<!DOCTYPE svg PUBLIC "-//W3C//DTD SVG 1.1//EN"
  "http://www.w3.org/Graphics/SVG/1.1/DTD/svg11.dtd">
<svg xmlns:xlink="http://www.w3.org/1999/xlink" width="496.042172pt" height="353.2225pt" viewBox="0 0 496.042172 353.2225" xmlns="http://www.w3.org/2000/svg" version="1.1">
 <metadata>
  <rdf:RDF xmlns:dc="http://purl.org/dc/elements/1.1/" xmlns:cc="http://creativecommons.org/ns#" xmlns:rdf="http://www.w3.org/1999/02/22-rdf-syntax-ns#">
   <cc:Work>
    <dc:type rdf:resource="http://purl.org/dc/dcmitype/StillImage"/>
    <dc:date>2025-09-01T09:40:15.072715</dc:date>
    <dc:format>image/svg+xml</dc:format>
    <dc:creator>
     <cc:Agent>
      <dc:title>Matplotlib v3.10.5, https://matplotlib.org/</dc:title>
     </cc:Agent>
    </dc:creator>
   </cc:Work>
  </rdf:RDF>
 </metadata>
 <defs>
  <style type="text/css">*{stroke-linejoin: round; stroke-linecap: butt}</style>
 </defs>
 <g id="figure_1">
  <g id="patch_1">
   <path d="M 0 353.2225 
L 496.042172 353.2225 
L 496.042172 0 
L 0 0 
z
" style="fill: #ffffff"/>
  </g>
  <g id="axes_1">
   <g id="patch_2">
    <path d="M 44.183438 314.41 
L 412.751438 314.41 
L 412.751438 24.8575 
L 44.183438 24.8575 
z
" style="fill: #ffffff"/>
   </g>
   <g id="matplotlib.axis_1">
    <g id="xtick_1">
     <g id="line2d_1"/>
     <g id="text_1">
      <!-- 0.5 -->
      <g style="fill: #262626" transform="translate(69.349619 326.499375) scale(0.12 -0.12)">
       <defs>
        <path id="ArialMT-30" d="M 266 2259 
Q 266 3072 433 3567 
Q 600 4063 929 4331 
Q 1259 4600 1759 4600 
Q 2128 4600 2406 4451 
Q 2684 4303 2865 4023 
Q 3047 3744 3150 3342 
Q 3253 2941 3253 2259 
Q 3253 1453 3087 958 
Q 2922 463 2592 192 
Q 2263 -78 1759 -78 
Q 1097 -78 719 397 
Q 266 969 266 2259 
z
M 844 2259 
Q 844 1131 1108 757 
Q 1372 384 1759 384 
Q 2147 384 2411 759 
Q 2675 1134 2675 2259 
Q 2675 3391 2411 3762 
Q 2147 4134 1753 4134 
Q 1366 4134 1134 3806 
Q 844 3388 844 2259 
z
" transform="scale(0.015625)"/>
        <path id="ArialMT-2e" d="M 581 0 
L 581 641 
L 1222 641 
L 1222 0 
L 581 0 
z
" transform="scale(0.015625)"/>
        <path id="ArialMT-35" d="M 266 1200 
L 856 1250 
Q 922 819 1161 601 
Q 1400 384 1738 384 
Q 2144 384 2425 690 
Q 2706 997 2706 1503 
Q 2706 1984 2436 2262 
Q 2166 2541 1728 2541 
Q 1456 2541 1237 2417 
Q 1019 2294 894 2097 
L 366 2166 
L 809 4519 
L 3088 4519 
L 3088 3981 
L 1259 3981 
L 1013 2750 
Q 1425 3038 1878 3038 
Q 2478 3038 2890 2622 
Q 3303 2206 3303 1553 
Q 3303 931 2941 478 
Q 2500 -78 1738 -78 
Q 1113 -78 717 272 
Q 322 622 266 1200 
z
" transform="scale(0.015625)"/>
       </defs>
       <use xlink:href="#ArialMT-30"/>
       <use xlink:href="#ArialMT-2e" transform="translate(55.615234 0)"/>
       <use xlink:href="#ArialMT-35" transform="translate(83.398438 0)"/>
      </g>
     </g>
    </g>
    <g id="xtick_2">
     <g id="line2d_2"/>
     <g id="text_2">
      <!-- 0.6 -->
      <g style="fill: #262626" transform="translate(136.361983 326.499375) scale(0.12 -0.12)">
       <defs>
        <path id="ArialMT-36" d="M 3184 3459 
L 2625 3416 
Q 2550 3747 2413 3897 
Q 2184 4138 1850 4138 
Q 1581 4138 1378 3988 
Q 1113 3794 959 3422 
Q 806 3050 800 2363 
Q 1003 2672 1297 2822 
Q 1591 2972 1913 2972 
Q 2475 2972 2870 2558 
Q 3266 2144 3266 1488 
Q 3266 1056 3080 686 
Q 2894 316 2569 119 
Q 2244 -78 1831 -78 
Q 1128 -78 684 439 
Q 241 956 241 2144 
Q 241 3472 731 4075 
Q 1159 4600 1884 4600 
Q 2425 4600 2770 4297 
Q 3116 3994 3184 3459 
z
M 888 1484 
Q 888 1194 1011 928 
Q 1134 663 1356 523 
Q 1578 384 1822 384 
Q 2178 384 2434 671 
Q 2691 959 2691 1453 
Q 2691 1928 2437 2201 
Q 2184 2475 1800 2475 
Q 1419 2475 1153 2201 
Q 888 1928 888 1484 
z
" transform="scale(0.015625)"/>
       </defs>
       <use xlink:href="#ArialMT-30"/>
       <use xlink:href="#ArialMT-2e" transform="translate(55.615234 0)"/>
       <use xlink:href="#ArialMT-36" transform="translate(83.398438 0)"/>
      </g>
     </g>
    </g>
    <g id="xtick_3">
     <g id="line2d_3"/>
     <g id="text_3">
      <!-- 0.7 -->
      <g style="fill: #262626" transform="translate(203.374347 326.499375) scale(0.12 -0.12)">
       <defs>
        <path id="ArialMT-37" d="M 303 3981 
L 303 4522 
L 3269 4522 
L 3269 4084 
Q 2831 3619 2401 2847 
Q 1972 2075 1738 1259 
Q 1569 684 1522 0 
L 944 0 
Q 953 541 1156 1306 
Q 1359 2072 1739 2783 
Q 2119 3494 2547 3981 
L 303 3981 
z
" transform="scale(0.015625)"/>
       </defs>
       <use xlink:href="#ArialMT-30"/>
       <use xlink:href="#ArialMT-2e" transform="translate(55.615234 0)"/>
       <use xlink:href="#ArialMT-37" transform="translate(83.398438 0)"/>
      </g>
     </g>
    </g>
    <g id="xtick_4">
     <g id="line2d_4"/>
     <g id="text_4">
      <!-- 0.8 -->
      <g style="fill: #262626" transform="translate(270.38671 326.499375) scale(0.12 -0.12)">
       <defs>
        <path id="ArialMT-38" d="M 1131 2484 
Q 781 2613 612 2850 
Q 444 3088 444 3419 
Q 444 3919 803 4259 
Q 1163 4600 1759 4600 
Q 2359 4600 2725 4251 
Q 3091 3903 3091 3403 
Q 3091 3084 2923 2848 
Q 2756 2613 2416 2484 
Q 2838 2347 3058 2040 
Q 3278 1734 3278 1309 
Q 3278 722 2862 322 
Q 2447 -78 1769 -78 
Q 1091 -78 675 323 
Q 259 725 259 1325 
Q 259 1772 486 2073 
Q 713 2375 1131 2484 
z
M 1019 3438 
Q 1019 3113 1228 2906 
Q 1438 2700 1772 2700 
Q 2097 2700 2305 2904 
Q 2513 3109 2513 3406 
Q 2513 3716 2298 3927 
Q 2084 4138 1766 4138 
Q 1444 4138 1231 3931 
Q 1019 3725 1019 3438 
z
M 838 1322 
Q 838 1081 952 856 
Q 1066 631 1291 507 
Q 1516 384 1775 384 
Q 2178 384 2440 643 
Q 2703 903 2703 1303 
Q 2703 1709 2433 1975 
Q 2163 2241 1756 2241 
Q 1359 2241 1098 1978 
Q 838 1716 838 1322 
z
" transform="scale(0.015625)"/>
       </defs>
       <use xlink:href="#ArialMT-30"/>
       <use xlink:href="#ArialMT-2e" transform="translate(55.615234 0)"/>
       <use xlink:href="#ArialMT-38" transform="translate(83.398438 0)"/>
      </g>
     </g>
    </g>
    <g id="xtick_5">
     <g id="line2d_5"/>
     <g id="text_5">
      <!-- 0.9 -->
      <g style="fill: #262626" transform="translate(337.399074 326.499375) scale(0.12 -0.12)">
       <defs>
        <path id="ArialMT-39" d="M 350 1059 
L 891 1109 
Q 959 728 1153 556 
Q 1347 384 1650 384 
Q 1909 384 2104 503 
Q 2300 622 2425 820 
Q 2550 1019 2634 1356 
Q 2719 1694 2719 2044 
Q 2719 2081 2716 2156 
Q 2547 1888 2255 1720 
Q 1963 1553 1622 1553 
Q 1053 1553 659 1965 
Q 266 2378 266 3053 
Q 266 3750 677 4175 
Q 1088 4600 1706 4600 
Q 2153 4600 2523 4359 
Q 2894 4119 3086 3673 
Q 3278 3228 3278 2384 
Q 3278 1506 3087 986 
Q 2897 466 2520 194 
Q 2144 -78 1638 -78 
Q 1100 -78 759 220 
Q 419 519 350 1059 
z
M 2653 3081 
Q 2653 3566 2395 3850 
Q 2138 4134 1775 4134 
Q 1400 4134 1122 3828 
Q 844 3522 844 3034 
Q 844 2597 1108 2323 
Q 1372 2050 1759 2050 
Q 2150 2050 2401 2323 
Q 2653 2597 2653 3081 
z
" transform="scale(0.015625)"/>
       </defs>
       <use xlink:href="#ArialMT-30"/>
       <use xlink:href="#ArialMT-2e" transform="translate(55.615234 0)"/>
       <use xlink:href="#ArialMT-39" transform="translate(83.398438 0)"/>
      </g>
     </g>
    </g>
    <g id="xtick_6">
     <g id="line2d_6"/>
     <g id="text_6">
      <!-- 1.0 -->
      <g style="fill: #262626" transform="translate(404.411438 326.499375) scale(0.12 -0.12)">
       <defs>
        <path id="ArialMT-31" d="M 2384 0 
L 1822 0 
L 1822 3584 
Q 1619 3391 1289 3197 
Q 959 3003 697 2906 
L 697 3450 
Q 1169 3672 1522 3987 
Q 1875 4303 2022 4600 
L 2384 4600 
L 2384 0 
z
" transform="scale(0.015625)"/>
       </defs>
       <use xlink:href="#ArialMT-31"/>
       <use xlink:href="#ArialMT-2e" transform="translate(55.615234 0)"/>
       <use xlink:href="#ArialMT-30" transform="translate(83.398438 0)"/>
      </g>
     </g>
    </g>
    <g id="text_7">
     <!-- Scalability/Stability -->
     <g style="fill: #262626" transform="translate(170.499781 343.075938) scale(0.14 -0.14)">
      <defs>
       <path id="ArialMT-53" d="M 288 1472 
L 859 1522 
Q 900 1178 1048 958 
Q 1197 738 1509 602 
Q 1822 466 2213 466 
Q 2559 466 2825 569 
Q 3091 672 3220 851 
Q 3350 1031 3350 1244 
Q 3350 1459 3225 1620 
Q 3100 1781 2813 1891 
Q 2628 1963 1997 2114 
Q 1366 2266 1113 2400 
Q 784 2572 623 2826 
Q 463 3081 463 3397 
Q 463 3744 659 4045 
Q 856 4347 1234 4503 
Q 1613 4659 2075 4659 
Q 2584 4659 2973 4495 
Q 3363 4331 3572 4012 
Q 3781 3694 3797 3291 
L 3216 3247 
Q 3169 3681 2898 3903 
Q 2628 4125 2100 4125 
Q 1550 4125 1298 3923 
Q 1047 3722 1047 3438 
Q 1047 3191 1225 3031 
Q 1400 2872 2139 2705 
Q 2878 2538 3153 2413 
Q 3553 2228 3743 1945 
Q 3934 1663 3934 1294 
Q 3934 928 3725 604 
Q 3516 281 3123 101 
Q 2731 -78 2241 -78 
Q 1619 -78 1198 103 
Q 778 284 539 648 
Q 300 1013 288 1472 
z
" transform="scale(0.015625)"/>
       <path id="ArialMT-63" d="M 2588 1216 
L 3141 1144 
Q 3050 572 2676 248 
Q 2303 -75 1759 -75 
Q 1078 -75 664 370 
Q 250 816 250 1647 
Q 250 2184 428 2587 
Q 606 2991 970 3192 
Q 1334 3394 1763 3394 
Q 2303 3394 2647 3120 
Q 2991 2847 3088 2344 
L 2541 2259 
Q 2463 2594 2264 2762 
Q 2066 2931 1784 2931 
Q 1359 2931 1093 2626 
Q 828 2322 828 1663 
Q 828 994 1084 691 
Q 1341 388 1753 388 
Q 2084 388 2306 591 
Q 2528 794 2588 1216 
z
" transform="scale(0.015625)"/>
       <path id="ArialMT-61" d="M 2588 409 
Q 2275 144 1986 34 
Q 1697 -75 1366 -75 
Q 819 -75 525 192 
Q 231 459 231 875 
Q 231 1119 342 1320 
Q 453 1522 633 1644 
Q 813 1766 1038 1828 
Q 1203 1872 1538 1913 
Q 2219 1994 2541 2106 
Q 2544 2222 2544 2253 
Q 2544 2597 2384 2738 
Q 2169 2928 1744 2928 
Q 1347 2928 1158 2789 
Q 969 2650 878 2297 
L 328 2372 
Q 403 2725 575 2942 
Q 747 3159 1072 3276 
Q 1397 3394 1825 3394 
Q 2250 3394 2515 3294 
Q 2781 3194 2906 3042 
Q 3031 2891 3081 2659 
Q 3109 2516 3109 2141 
L 3109 1391 
Q 3109 606 3145 398 
Q 3181 191 3288 0 
L 2700 0 
Q 2613 175 2588 409 
z
M 2541 1666 
Q 2234 1541 1622 1453 
Q 1275 1403 1131 1340 
Q 988 1278 909 1158 
Q 831 1038 831 891 
Q 831 666 1001 516 
Q 1172 366 1500 366 
Q 1825 366 2078 508 
Q 2331 650 2450 897 
Q 2541 1088 2541 1459 
L 2541 1666 
z
" transform="scale(0.015625)"/>
       <path id="ArialMT-6c" d="M 409 0 
L 409 4581 
L 972 4581 
L 972 0 
L 409 0 
z
" transform="scale(0.015625)"/>
       <path id="ArialMT-62" d="M 941 0 
L 419 0 
L 419 4581 
L 981 4581 
L 981 2947 
Q 1338 3394 1891 3394 
Q 2197 3394 2470 3270 
Q 2744 3147 2920 2923 
Q 3097 2700 3197 2384 
Q 3297 2069 3297 1709 
Q 3297 856 2875 390 
Q 2453 -75 1863 -75 
Q 1275 -75 941 416 
L 941 0 
z
M 934 1684 
Q 934 1088 1097 822 
Q 1363 388 1816 388 
Q 2184 388 2453 708 
Q 2722 1028 2722 1663 
Q 2722 2313 2464 2622 
Q 2206 2931 1841 2931 
Q 1472 2931 1203 2611 
Q 934 2291 934 1684 
z
" transform="scale(0.015625)"/>
       <path id="ArialMT-69" d="M 425 3934 
L 425 4581 
L 988 4581 
L 988 3934 
L 425 3934 
z
M 425 0 
L 425 3319 
L 988 3319 
L 988 0 
L 425 0 
z
" transform="scale(0.015625)"/>
       <path id="ArialMT-74" d="M 1650 503 
L 1731 6 
Q 1494 -44 1306 -44 
Q 1000 -44 831 53 
Q 663 150 594 308 
Q 525 466 525 972 
L 525 2881 
L 113 2881 
L 113 3319 
L 525 3319 
L 525 4141 
L 1084 4478 
L 1084 3319 
L 1650 3319 
L 1650 2881 
L 1084 2881 
L 1084 941 
Q 1084 700 1114 631 
Q 1144 563 1211 522 
Q 1278 481 1403 481 
Q 1497 481 1650 503 
z
" transform="scale(0.015625)"/>
       <path id="ArialMT-79" d="M 397 -1278 
L 334 -750 
Q 519 -800 656 -800 
Q 844 -800 956 -737 
Q 1069 -675 1141 -563 
Q 1194 -478 1313 -144 
Q 1328 -97 1363 -6 
L 103 3319 
L 709 3319 
L 1400 1397 
Q 1534 1031 1641 628 
Q 1738 1016 1872 1384 
L 2581 3319 
L 3144 3319 
L 1881 -56 
Q 1678 -603 1566 -809 
Q 1416 -1088 1222 -1217 
Q 1028 -1347 759 -1347 
Q 597 -1347 397 -1278 
z
" transform="scale(0.015625)"/>
       <path id="ArialMT-2f" d="M 0 -78 
L 1328 4659 
L 1778 4659 
L 453 -78 
L 0 -78 
z
" transform="scale(0.015625)"/>
      </defs>
      <use xlink:href="#ArialMT-53"/>
      <use xlink:href="#ArialMT-63" transform="translate(66.699219 0)"/>
      <use xlink:href="#ArialMT-61" transform="translate(116.699219 0)"/>
      <use xlink:href="#ArialMT-6c" transform="translate(172.314453 0)"/>
      <use xlink:href="#ArialMT-61" transform="translate(194.53125 0)"/>
      <use xlink:href="#ArialMT-62" transform="translate(250.146484 0)"/>
      <use xlink:href="#ArialMT-69" transform="translate(305.761719 0)"/>
      <use xlink:href="#ArialMT-6c" transform="translate(327.978516 0)"/>
      <use xlink:href="#ArialMT-69" transform="translate(350.195312 0)"/>
      <use xlink:href="#ArialMT-74" transform="translate(372.412109 0)"/>
      <use xlink:href="#ArialMT-79" transform="translate(400.195312 0)"/>
      <use xlink:href="#ArialMT-2f" transform="translate(450.195312 0)"/>
      <use xlink:href="#ArialMT-53" transform="translate(477.978516 0)"/>
      <use xlink:href="#ArialMT-74" transform="translate(544.677734 0)"/>
      <use xlink:href="#ArialMT-61" transform="translate(572.460938 0)"/>
      <use xlink:href="#ArialMT-62" transform="translate(628.076172 0)"/>
      <use xlink:href="#ArialMT-69" transform="translate(683.691406 0)"/>
      <use xlink:href="#ArialMT-6c" transform="translate(705.908203 0)"/>
      <use xlink:href="#ArialMT-69" transform="translate(728.125 0)"/>
      <use xlink:href="#ArialMT-74" transform="translate(750.341797 0)"/>
      <use xlink:href="#ArialMT-79" transform="translate(778.125 0)"/>
     </g>
    </g>
   </g>
   <g id="matplotlib.axis_2">
    <g id="ytick_1">
     <g id="line2d_7"/>
     <g id="text_8">
      <!-- 0.2 -->
      <g style="fill: #262626" transform="translate(24.003438 290.24532) scale(0.12 -0.12)">
       <defs>
        <path id="ArialMT-32" d="M 3222 541 
L 3222 0 
L 194 0 
Q 188 203 259 391 
Q 375 700 629 1000 
Q 884 1300 1366 1694 
Q 2113 2306 2375 2664 
Q 2638 3022 2638 3341 
Q 2638 3675 2398 3904 
Q 2159 4134 1775 4134 
Q 1369 4134 1125 3890 
Q 881 3647 878 3216 
L 300 3275 
Q 359 3922 746 4261 
Q 1134 4600 1788 4600 
Q 2447 4600 2831 4234 
Q 3216 3869 3216 3328 
Q 3216 3053 3103 2787 
Q 2991 2522 2730 2228 
Q 2469 1934 1863 1422 
Q 1356 997 1212 845 
Q 1069 694 975 541 
L 3222 541 
z
" transform="scale(0.015625)"/>
       </defs>
       <use xlink:href="#ArialMT-30"/>
       <use xlink:href="#ArialMT-2e" transform="translate(55.615234 0)"/>
       <use xlink:href="#ArialMT-32" transform="translate(83.398438 0)"/>
      </g>
     </g>
    </g>
    <g id="ytick_2">
     <g id="line2d_8"/>
     <g id="text_9">
      <!-- 0.3 -->
      <g style="fill: #262626" transform="translate(24.003438 252.127042) scale(0.12 -0.12)">
       <defs>
        <path id="ArialMT-33" d="M 269 1209 
L 831 1284 
Q 928 806 1161 595 
Q 1394 384 1728 384 
Q 2125 384 2398 659 
Q 2672 934 2672 1341 
Q 2672 1728 2419 1979 
Q 2166 2231 1775 2231 
Q 1616 2231 1378 2169 
L 1441 2663 
Q 1497 2656 1531 2656 
Q 1891 2656 2178 2843 
Q 2466 3031 2466 3422 
Q 2466 3731 2256 3934 
Q 2047 4138 1716 4138 
Q 1388 4138 1169 3931 
Q 950 3725 888 3313 
L 325 3413 
Q 428 3978 793 4289 
Q 1159 4600 1703 4600 
Q 2078 4600 2393 4439 
Q 2709 4278 2876 4000 
Q 3044 3722 3044 3409 
Q 3044 3113 2884 2869 
Q 2725 2625 2413 2481 
Q 2819 2388 3044 2092 
Q 3269 1797 3269 1353 
Q 3269 753 2831 336 
Q 2394 -81 1725 -81 
Q 1122 -81 723 278 
Q 325 638 269 1209 
z
" transform="scale(0.015625)"/>
       </defs>
       <use xlink:href="#ArialMT-30"/>
       <use xlink:href="#ArialMT-2e" transform="translate(55.615234 0)"/>
       <use xlink:href="#ArialMT-33" transform="translate(83.398438 0)"/>
      </g>
     </g>
    </g>
    <g id="ytick_3">
     <g id="line2d_9"/>
     <g id="text_10">
      <!-- 0.4 -->
      <g style="fill: #262626" transform="translate(24.003438 214.008765) scale(0.12 -0.12)">
       <defs>
        <path id="ArialMT-34" d="M 2069 0 
L 2069 1097 
L 81 1097 
L 81 1613 
L 2172 4581 
L 2631 4581 
L 2631 1613 
L 3250 1613 
L 3250 1097 
L 2631 1097 
L 2631 0 
L 2069 0 
z
M 2069 1613 
L 2069 3678 
L 634 1613 
L 2069 1613 
z
" transform="scale(0.015625)"/>
       </defs>
       <use xlink:href="#ArialMT-30"/>
       <use xlink:href="#ArialMT-2e" transform="translate(55.615234 0)"/>
       <use xlink:href="#ArialMT-34" transform="translate(83.398438 0)"/>
      </g>
     </g>
    </g>
    <g id="ytick_4">
     <g id="line2d_10"/>
     <g id="text_11">
      <!-- 0.5 -->
      <g style="fill: #262626" transform="translate(24.003438 175.890487) scale(0.12 -0.12)">
       <use xlink:href="#ArialMT-30"/>
       <use xlink:href="#ArialMT-2e" transform="translate(55.615234 0)"/>
       <use xlink:href="#ArialMT-35" transform="translate(83.398438 0)"/>
      </g>
     </g>
    </g>
    <g id="ytick_5">
     <g id="line2d_11"/>
     <g id="text_12">
      <!-- 0.6 -->
      <g style="fill: #262626" transform="translate(24.003438 137.772209) scale(0.12 -0.12)">
       <use xlink:href="#ArialMT-30"/>
       <use xlink:href="#ArialMT-2e" transform="translate(55.615234 0)"/>
       <use xlink:href="#ArialMT-36" transform="translate(83.398438 0)"/>
      </g>
     </g>
    </g>
    <g id="ytick_6">
     <g id="line2d_12"/>
     <g id="text_13">
      <!-- 0.7 -->
      <g style="fill: #262626" transform="translate(24.003438 99.653931) scale(0.12 -0.12)">
       <use xlink:href="#ArialMT-30"/>
       <use xlink:href="#ArialMT-2e" transform="translate(55.615234 0)"/>
       <use xlink:href="#ArialMT-37" transform="translate(83.398438 0)"/>
      </g>
     </g>
    </g>
    <g id="ytick_7">
     <g id="line2d_13"/>
     <g id="text_14">
      <!-- 0.8 -->
      <g style="fill: #262626" transform="translate(24.003438 61.535653) scale(0.12 -0.12)">
       <use xlink:href="#ArialMT-30"/>
       <use xlink:href="#ArialMT-2e" transform="translate(55.615234 0)"/>
       <use xlink:href="#ArialMT-38" transform="translate(83.398438 0)"/>
      </g>
     </g>
    </g>
    <g id="text_15">
     <!-- Overall Performance -->
     <g style="fill: #262626" transform="translate(17.220937 233.819375) rotate(-90) scale(0.14 -0.14)">
      <defs>
       <path id="ArialMT-4f" d="M 309 2231 
Q 309 3372 921 4017 
Q 1534 4663 2503 4663 
Q 3138 4663 3647 4359 
Q 4156 4056 4423 3514 
Q 4691 2972 4691 2284 
Q 4691 1588 4409 1038 
Q 4128 488 3612 205 
Q 3097 -78 2500 -78 
Q 1853 -78 1343 234 
Q 834 547 571 1087 
Q 309 1628 309 2231 
z
M 934 2222 
Q 934 1394 1379 917 
Q 1825 441 2497 441 
Q 3181 441 3623 922 
Q 4066 1403 4066 2288 
Q 4066 2847 3877 3264 
Q 3688 3681 3323 3911 
Q 2959 4141 2506 4141 
Q 1863 4141 1398 3698 
Q 934 3256 934 2222 
z
" transform="scale(0.015625)"/>
       <path id="ArialMT-76" d="M 1344 0 
L 81 3319 
L 675 3319 
L 1388 1331 
Q 1503 1009 1600 663 
Q 1675 925 1809 1294 
L 2547 3319 
L 3125 3319 
L 1869 0 
L 1344 0 
z
" transform="scale(0.015625)"/>
       <path id="ArialMT-65" d="M 2694 1069 
L 3275 997 
Q 3138 488 2766 206 
Q 2394 -75 1816 -75 
Q 1088 -75 661 373 
Q 234 822 234 1631 
Q 234 2469 665 2931 
Q 1097 3394 1784 3394 
Q 2450 3394 2872 2941 
Q 3294 2488 3294 1666 
Q 3294 1616 3291 1516 
L 816 1516 
Q 847 969 1125 678 
Q 1403 388 1819 388 
Q 2128 388 2347 550 
Q 2566 713 2694 1069 
z
M 847 1978 
L 2700 1978 
Q 2663 2397 2488 2606 
Q 2219 2931 1791 2931 
Q 1403 2931 1139 2672 
Q 875 2413 847 1978 
z
" transform="scale(0.015625)"/>
       <path id="ArialMT-72" d="M 416 0 
L 416 3319 
L 922 3319 
L 922 2816 
Q 1116 3169 1280 3281 
Q 1444 3394 1641 3394 
Q 1925 3394 2219 3213 
L 2025 2691 
Q 1819 2813 1613 2813 
Q 1428 2813 1281 2702 
Q 1134 2591 1072 2394 
Q 978 2094 978 1738 
L 978 0 
L 416 0 
z
" transform="scale(0.015625)"/>
       <path id="ArialMT-20" transform="scale(0.015625)"/>
       <path id="ArialMT-50" d="M 494 0 
L 494 4581 
L 2222 4581 
Q 2678 4581 2919 4538 
Q 3256 4481 3484 4323 
Q 3713 4166 3852 3881 
Q 3991 3597 3991 3256 
Q 3991 2672 3619 2267 
Q 3247 1863 2275 1863 
L 1100 1863 
L 1100 0 
L 494 0 
z
M 1100 2403 
L 2284 2403 
Q 2872 2403 3119 2622 
Q 3366 2841 3366 3238 
Q 3366 3525 3220 3729 
Q 3075 3934 2838 4000 
Q 2684 4041 2272 4041 
L 1100 4041 
L 1100 2403 
z
" transform="scale(0.015625)"/>
       <path id="ArialMT-66" d="M 556 0 
L 556 2881 
L 59 2881 
L 59 3319 
L 556 3319 
L 556 3672 
Q 556 4006 616 4169 
Q 697 4388 901 4523 
Q 1106 4659 1475 4659 
Q 1713 4659 2000 4603 
L 1916 4113 
Q 1741 4144 1584 4144 
Q 1328 4144 1222 4034 
Q 1116 3925 1116 3625 
L 1116 3319 
L 1763 3319 
L 1763 2881 
L 1116 2881 
L 1116 0 
L 556 0 
z
" transform="scale(0.015625)"/>
       <path id="ArialMT-6f" d="M 213 1659 
Q 213 2581 725 3025 
Q 1153 3394 1769 3394 
Q 2453 3394 2887 2945 
Q 3322 2497 3322 1706 
Q 3322 1066 3130 698 
Q 2938 331 2570 128 
Q 2203 -75 1769 -75 
Q 1072 -75 642 372 
Q 213 819 213 1659 
z
M 791 1659 
Q 791 1022 1069 705 
Q 1347 388 1769 388 
Q 2188 388 2466 706 
Q 2744 1025 2744 1678 
Q 2744 2294 2464 2611 
Q 2184 2928 1769 2928 
Q 1347 2928 1069 2612 
Q 791 2297 791 1659 
z
" transform="scale(0.015625)"/>
       <path id="ArialMT-6d" d="M 422 0 
L 422 3319 
L 925 3319 
L 925 2853 
Q 1081 3097 1340 3245 
Q 1600 3394 1931 3394 
Q 2300 3394 2536 3241 
Q 2772 3088 2869 2813 
Q 3263 3394 3894 3394 
Q 4388 3394 4653 3120 
Q 4919 2847 4919 2278 
L 4919 0 
L 4359 0 
L 4359 2091 
Q 4359 2428 4304 2576 
Q 4250 2725 4106 2815 
Q 3963 2906 3769 2906 
Q 3419 2906 3187 2673 
Q 2956 2441 2956 1928 
L 2956 0 
L 2394 0 
L 2394 2156 
Q 2394 2531 2256 2718 
Q 2119 2906 1806 2906 
Q 1569 2906 1367 2781 
Q 1166 2656 1075 2415 
Q 984 2175 984 1722 
L 984 0 
L 422 0 
z
" transform="scale(0.015625)"/>
       <path id="ArialMT-6e" d="M 422 0 
L 422 3319 
L 928 3319 
L 928 2847 
Q 1294 3394 1984 3394 
Q 2284 3394 2536 3286 
Q 2788 3178 2913 3003 
Q 3038 2828 3088 2588 
Q 3119 2431 3119 2041 
L 3119 0 
L 2556 0 
L 2556 2019 
Q 2556 2363 2490 2533 
Q 2425 2703 2258 2804 
Q 2091 2906 1866 2906 
Q 1506 2906 1245 2678 
Q 984 2450 984 1813 
L 984 0 
L 422 0 
z
" transform="scale(0.015625)"/>
      </defs>
      <use xlink:href="#ArialMT-4f"/>
      <use xlink:href="#ArialMT-76" transform="translate(77.783203 0)"/>
      <use xlink:href="#ArialMT-65" transform="translate(127.783203 0)"/>
      <use xlink:href="#ArialMT-72" transform="translate(183.398438 0)"/>
      <use xlink:href="#ArialMT-61" transform="translate(216.699219 0)"/>
      <use xlink:href="#ArialMT-6c" transform="translate(272.314453 0)"/>
      <use xlink:href="#ArialMT-6c" transform="translate(294.53125 0)"/>
      <use xlink:href="#ArialMT-20" transform="translate(316.748047 0)"/>
      <use xlink:href="#ArialMT-50" transform="translate(344.53125 0)"/>
      <use xlink:href="#ArialMT-65" transform="translate(411.230469 0)"/>
      <use xlink:href="#ArialMT-72" transform="translate(466.845703 0)"/>
      <use xlink:href="#ArialMT-66" transform="translate(500.146484 0)"/>
      <use xlink:href="#ArialMT-6f" transform="translate(527.929688 0)"/>
      <use xlink:href="#ArialMT-72" transform="translate(583.544922 0)"/>
      <use xlink:href="#ArialMT-6d" transform="translate(616.845703 0)"/>
      <use xlink:href="#ArialMT-61" transform="translate(700.146484 0)"/>
      <use xlink:href="#ArialMT-6e" transform="translate(755.761719 0)"/>
      <use xlink:href="#ArialMT-63" transform="translate(811.376953 0)"/>
      <use xlink:href="#ArialMT-65" transform="translate(861.376953 0)"/>
     </g>
    </g>
   </g>
   <g id="PathCollection_1">
    <path d="M 234.007053 45.909635 
C 236.099679 45.909635 238.10688 45.078226 239.58659 43.598515 
C 241.066301 42.118804 241.897711 40.111604 241.897711 38.018977 
C 241.897711 35.92635 241.066301 33.91915 239.58659 32.439439 
C 238.10688 30.959729 236.099679 30.128319 234.007053 30.128319 
C 231.914426 30.128319 229.907225 30.959729 228.427515 32.439439 
C 226.947804 33.91915 226.116394 35.92635 226.116394 38.018977 
C 226.116394 40.111604 226.947804 42.118804 228.427515 43.598515 
C 229.907225 45.078226 231.914426 45.909635 234.007053 45.909635 
z
" clip-path="url(#pc5665dcc91)" style="fill: #f77189; fill-opacity: 0.8; stroke: #2f4f4f; stroke-opacity: 0.8"/>
    <path d="M 200.328553 60.176982 
C 202.359253 60.176982 204.307054 59.370176 205.742976 57.934254 
C 207.178898 56.498333 207.985703 54.550532 207.985703 52.519832 
C 207.985703 50.489132 207.178898 48.541331 205.742976 47.105409 
C 204.307054 45.669487 202.359253 44.862682 200.328553 44.862682 
C 198.297853 44.862682 196.350052 45.669487 194.91413 47.105409 
C 193.478209 48.541331 192.671403 50.489132 192.671403 52.519832 
C 192.671403 54.550532 193.478209 56.498333 194.91413 57.934254 
C 196.350052 59.370176 198.297853 60.176982 200.328553 60.176982 
z
" clip-path="url(#pc5665dcc91)" style="fill: #f77189; fill-opacity: 0.8; stroke: #2f4f4f; stroke-opacity: 0.8"/>
    <path d="M 200.295822 63.903159 
C 202.313605 63.903159 204.249016 63.101485 205.675804 61.674697 
C 207.102592 60.247909 207.904266 58.312497 207.904266 56.294714 
C 207.904266 54.276931 207.102592 52.34152 205.675804 50.914732 
C 204.249016 49.487943 202.313605 48.68627 200.295822 48.68627 
C 198.278038 48.68627 196.342627 49.487943 194.915839 50.914732 
C 193.489051 52.34152 192.687377 54.276931 192.687377 56.294714 
C 192.687377 58.312497 193.489051 60.247909 194.915839 61.674697 
C 196.342627 63.101485 198.278038 63.903159 200.295822 63.903159 
z
" clip-path="url(#pc5665dcc91)" style="fill: #f77189; fill-opacity: 0.8; stroke: #2f4f4f; stroke-opacity: 0.8"/>
    <path d="M 203.912531 93.042732 
C 205.801931 93.042732 207.6142 92.292066 208.950207 90.956059 
C 210.286215 89.620051 211.036881 87.807782 211.036881 85.918382 
C 211.036881 84.028983 210.286215 82.216714 208.950207 80.880706 
C 207.6142 79.544699 205.801931 78.794032 203.912531 78.794032 
C 202.023131 78.794032 200.210862 79.544699 198.874855 80.880706 
C 197.538847 82.216714 196.788181 84.028983 196.788181 85.918382 
C 196.788181 87.807782 197.538847 89.620051 198.874855 90.956059 
C 200.210862 92.292066 202.023131 93.042732 203.912531 93.042732 
z
" clip-path="url(#pc5665dcc91)" style="fill: #f77189; fill-opacity: 0.8; stroke: #2f4f4f; stroke-opacity: 0.8"/>
    <path d="M 113.979459 108.922753 
C 115.77251 108.922753 117.492364 108.210366 118.760242 106.942488 
C 120.028121 105.674609 120.740507 103.954755 120.740507 102.161704 
C 120.740507 100.368653 120.028121 98.6488 118.760242 97.380921 
C 117.492364 96.113043 115.77251 95.400656 113.979459 95.400656 
C 112.186408 95.400656 110.466554 96.113043 109.198676 97.380921 
C 107.930797 98.6488 107.21841 100.368653 107.21841 102.161704 
C 107.21841 103.954755 107.930797 105.674609 109.198676 106.942488 
C 110.466554 108.210366 112.186408 108.922753 113.979459 108.922753 
z
" clip-path="url(#pc5665dcc91)" style="fill: #f77189; fill-opacity: 0.8; stroke: #2f4f4f; stroke-opacity: 0.8"/>
   </g>
   <g id="PathCollection_2">
    <path d="M 275.698779 133.49588 
C 277.272427 133.49588 278.781834 132.870663 279.894571 131.757926 
C 281.007308 130.645189 281.632525 129.135782 281.632525 127.562134 
C 281.632525 125.988486 281.007308 124.479078 279.894571 123.366341 
C 278.781834 122.253604 277.272427 121.628387 275.698779 121.628387 
C 274.125131 121.628387 272.615724 122.253604 271.502986 123.366341 
C 270.390249 124.479078 269.765032 125.988486 269.765032 127.562134 
C 269.765032 129.135782 270.390249 130.645189 271.502986 131.757926 
C 272.615724 132.870663 274.125131 133.49588 275.698779 133.49588 
z
" clip-path="url(#pc5665dcc91)" style="fill: #ae9d31; fill-opacity: 0.8; stroke: #2f4f4f; stroke-opacity: 0.8"/>
    <path d="M 271.658466 138.576854 
C 273.241946 138.576854 274.760784 137.94773 275.880474 136.82804 
C 277.000164 135.708351 277.629287 134.189512 277.629287 132.606032 
C 277.629287 131.022551 277.000164 129.503713 275.880474 128.384023 
C 274.760784 127.264333 273.241946 126.63521 271.658466 126.63521 
C 270.074985 126.63521 268.556147 127.264333 267.436457 128.384023 
C 266.316767 129.503713 265.687644 131.022551 265.687644 132.606032 
C 265.687644 134.189512 266.316767 135.708351 267.436457 136.82804 
C 268.556147 137.94773 270.074985 138.576854 271.658466 138.576854 
z
" clip-path="url(#pc5665dcc91)" style="fill: #ae9d31; fill-opacity: 0.8; stroke: #2f4f4f; stroke-opacity: 0.8"/>
    <path d="M 254.373275 138.965529 
C 255.993288 138.965529 257.547168 138.321891 258.69269 137.176369 
C 259.838212 136.030847 260.48185 134.476967 260.48185 132.856954 
C 260.48185 131.236941 259.838212 129.683062 258.69269 128.53754 
C 257.547168 127.392018 255.993288 126.74838 254.373275 126.74838 
C 252.753262 126.74838 251.199383 127.392018 250.053861 128.53754 
C 248.908339 129.683062 248.264701 131.236941 248.264701 132.856954 
C 248.264701 134.476967 248.908339 136.030847 250.053861 137.176369 
C 251.199383 138.321891 252.753262 138.965529 254.373275 138.965529 
z
" clip-path="url(#pc5665dcc91)" style="fill: #ae9d31; fill-opacity: 0.8; stroke: #2f4f4f; stroke-opacity: 0.8"/>
    <path d="M 265.743231 151.164633 
C 267.239284 151.164633 268.674263 150.570245 269.732132 149.512377 
C 270.790001 148.454508 271.384389 147.019528 271.384389 145.523476 
C 271.384389 144.027423 270.790001 142.592444 269.732132 141.534575 
C 268.674263 140.476706 267.239284 139.882318 265.743231 139.882318 
C 264.247179 139.882318 262.812199 140.476706 261.75433 141.534575 
C 260.696461 142.592444 260.102073 144.027423 260.102073 145.523476 
C 260.102073 147.019528 260.696461 148.454508 261.75433 149.512377 
C 262.812199 150.570245 264.247179 151.164633 265.743231 151.164633 
z
" clip-path="url(#pc5665dcc91)" style="fill: #ae9d31; fill-opacity: 0.8; stroke: #2f4f4f; stroke-opacity: 0.8"/>
    <path d="M 286.543906 167.917892 
C 287.872593 167.917892 289.14704 167.389999 290.086564 166.450475 
C 291.026088 165.510951 291.553981 164.236504 291.553981 162.907817 
C 291.553981 161.57913 291.026088 160.304683 290.086564 159.365159 
C 289.14704 158.425635 287.872593 157.897742 286.543906 157.897742 
C 285.215219 157.897742 283.940772 158.425635 283.001248 159.365159 
C 282.061724 160.304683 281.533831 161.57913 281.533831 162.907817 
C 281.533831 164.236504 282.061724 165.510951 283.001248 166.450475 
C 283.940772 167.389999 285.215219 167.917892 286.543906 167.917892 
z
" clip-path="url(#pc5665dcc91)" style="fill: #ae9d31; fill-opacity: 0.8; stroke: #2f4f4f; stroke-opacity: 0.8"/>
    <path d="M 269.969764 240.911741 
C 270.796237 240.911741 271.58897 240.58338 272.173375 239.998976 
C 272.757779 239.414572 273.08614 238.621838 273.08614 237.795366 
C 273.08614 236.968893 272.757779 236.17616 272.173375 235.591755 
C 271.58897 235.007351 270.796237 234.67899 269.969764 234.67899 
C 269.143292 234.67899 268.350558 235.007351 267.766154 235.591755 
C 267.18175 236.17616 266.853389 236.968893 266.853389 237.795366 
C 266.853389 238.621838 267.18175 239.414572 267.766154 239.998976 
C 268.350558 240.58338 269.143292 240.911741 269.969764 240.911741 
z
" clip-path="url(#pc5665dcc91)" style="fill: #ae9d31; fill-opacity: 0.8; stroke: #2f4f4f; stroke-opacity: 0.8"/>
   </g>
   <g id="PathCollection_3">
    <path d="M 332.524816 135.086524 
C 334.179329 135.086524 335.766299 134.429179 336.936217 133.259262 
C 338.106134 132.089344 338.763479 130.502374 338.763479 128.847861 
C 338.763479 127.193348 338.106134 125.606377 336.936217 124.43646 
C 335.766299 123.266543 334.179329 122.609198 332.524816 122.609198 
C 330.870303 122.609198 329.283332 123.266543 328.113415 124.43646 
C 326.943498 125.606377 326.286153 127.193348 326.286153 128.847861 
C 326.286153 130.502374 326.943498 132.089344 328.113415 133.259262 
C 329.283332 134.429179 330.870303 135.086524 332.524816 135.086524 
z
" clip-path="url(#pc5665dcc91)" style="fill: #33b07a; fill-opacity: 0.8; stroke: #2f4f4f; stroke-opacity: 0.8"/>
    <path d="M 367.919538 156.930705 
C 369.499258 156.930705 371.014489 156.303076 372.13152 155.186045 
C 373.24855 154.069015 373.876179 152.553784 373.876179 150.974064 
C 373.876179 149.394344 373.24855 147.879113 372.13152 146.762082 
C 371.014489 145.645052 369.499258 145.017422 367.919538 145.017422 
C 366.339818 145.017422 364.824587 145.645052 363.707556 146.762082 
C 362.590526 147.879113 361.962897 149.394344 361.962897 150.974064 
C 361.962897 152.553784 362.590526 154.069015 363.707556 155.186045 
C 364.824587 156.303076 366.339818 156.930705 367.919538 156.930705 
z
" clip-path="url(#pc5665dcc91)" style="fill: #33b07a; fill-opacity: 0.8; stroke: #2f4f4f; stroke-opacity: 0.8"/>
    <path d="M 258.720373 179.371754 
C 260.187014 179.371754 261.593783 178.789051 262.630854 177.75198 
C 263.667926 176.714908 264.250629 175.308139 264.250629 173.841499 
C 264.250629 172.374858 263.667926 170.968089 262.630854 169.931018 
C 261.593783 168.893946 260.187014 168.311243 258.720373 168.311243 
C 257.253733 168.311243 255.846964 168.893946 254.809892 169.931018 
C 253.772821 170.968089 253.190118 172.374858 253.190118 173.841499 
C 253.190118 175.308139 253.772821 176.714908 254.809892 177.75198 
C 255.846964 178.789051 257.253733 179.371754 258.720373 179.371754 
z
" clip-path="url(#pc5665dcc91)" style="fill: #33b07a; fill-opacity: 0.8; stroke: #2f4f4f; stroke-opacity: 0.8"/>
    <path d="M 335.695759 193.921288 
C 337.20118 193.921288 338.645146 193.323178 339.70964 192.258684 
C 340.774133 191.194191 341.372243 189.750225 341.372243 188.244804 
C 341.372243 186.739382 340.774133 185.295417 339.70964 184.230923 
C 338.645146 183.16643 337.20118 182.568319 335.695759 182.568319 
C 334.190338 182.568319 332.746372 183.16643 331.681878 184.230923 
C 330.617385 185.295417 330.019275 186.739382 330.019275 188.244804 
C 330.019275 189.750225 330.617385 191.194191 331.681878 192.258684 
C 332.746372 193.323178 334.190338 193.921288 335.695759 193.921288 
z
" clip-path="url(#pc5665dcc91)" style="fill: #33b07a; fill-opacity: 0.8; stroke: #2f4f4f; stroke-opacity: 0.8"/>
   </g>
   <g id="PathCollection_4">
    <path d="M 271.547067 185.042102 
C 272.820913 185.042102 274.042757 184.535997 274.943502 183.635252 
C 275.844247 182.734507 276.350351 181.512663 276.350351 180.238817 
C 276.350351 178.964971 275.844247 177.743128 274.943502 176.842382 
C 274.042757 175.941637 272.820913 175.435533 271.547067 175.435533 
C 270.273221 175.435533 269.051377 175.941637 268.150632 176.842382 
C 267.249887 177.743128 266.743782 178.964971 266.743782 180.238817 
C 266.743782 181.512663 267.249887 182.734507 268.150632 183.635252 
C 269.051377 184.535997 270.273221 185.042102 271.547067 185.042102 
z
" clip-path="url(#pc5665dcc91)" style="fill: #38a9c5; fill-opacity: 0.8; stroke: #2f4f4f; stroke-opacity: 0.8"/>
    <path d="M 382.462987 244.656303 
C 383.530402 244.656303 384.554241 244.232215 385.309017 243.477439 
C 386.063793 242.722663 386.487881 241.698823 386.487881 240.631409 
C 386.487881 239.563994 386.063793 238.540155 385.309017 237.785379 
C 384.554241 237.030603 383.530402 236.606515 382.462987 236.606515 
C 381.395573 236.606515 380.371733 237.030603 379.616957 237.785379 
C 378.862181 238.540155 378.438093 239.563994 378.438093 240.631409 
C 378.438093 241.698823 378.862181 242.722663 379.616957 243.477439 
C 380.371733 244.232215 381.395573 244.656303 382.462987 244.656303 
z
" clip-path="url(#pc5665dcc91)" style="fill: #38a9c5; fill-opacity: 0.8; stroke: #2f4f4f; stroke-opacity: 0.8"/>
    <path d="M 385.235969 293.487982 
C 385.603128 293.487982 385.955299 293.342108 386.21492 293.082487 
C 386.474541 292.822866 386.620415 292.470695 386.620415 292.103535 
C 386.620415 291.736376 386.474541 291.384205 386.21492 291.124584 
C 385.955299 290.864963 385.603128 290.719089 385.235969 290.719089 
C 384.86881 290.719089 384.516639 290.864963 384.257018 291.124584 
C 383.997397 291.384205 383.851523 291.736376 383.851523 292.103535 
C 383.851523 292.470695 383.997397 292.822866 384.257018 293.082487 
C 384.516639 293.342108 384.86881 293.487982 385.235969 293.487982 
z
" clip-path="url(#pc5665dcc91)" style="fill: #38a9c5; fill-opacity: 0.8; stroke: #2f4f4f; stroke-opacity: 0.8"/>
   </g>
   <g id="PathCollection_5">
    <path d="M 235.528239 279.563592 
C 236.12998 279.563592 236.707155 279.324518 237.13265 278.899023 
C 237.558145 278.473528 237.797219 277.896353 237.797219 277.294612 
C 237.797219 276.692872 237.558145 276.115696 237.13265 275.690201 
C 236.707155 275.264706 236.12998 275.025632 235.528239 275.025632 
C 234.926499 275.025632 234.349323 275.264706 233.923828 275.690201 
C 233.498333 276.115696 233.259259 276.692872 233.259259 277.294612 
C 233.259259 277.896353 233.498333 278.473528 233.923828 278.899023 
C 234.349323 279.324518 234.926499 279.563592 235.528239 279.563592 
z
" clip-path="url(#pc5665dcc91)" style="fill: #cc7af4; fill-opacity: 0.8; stroke: #2f4f4f; stroke-opacity: 0.8"/>
    <path d="M 205.915212 302.843503 
C 206.338206 302.843503 206.743932 302.675446 207.043034 302.376344 
C 207.342136 302.077242 207.510193 301.671516 207.510193 301.248523 
C 207.510193 300.825529 207.342136 300.419803 207.043034 300.120701 
C 206.743932 299.8216 206.338206 299.653542 205.915212 299.653542 
C 205.492219 299.653542 205.086493 299.8216 204.787391 300.120701 
C 204.488289 300.419803 204.320232 300.825529 204.320232 301.248523 
C 204.320232 301.671516 204.488289 302.077242 204.787391 302.376344 
C 205.086493 302.675446 205.492219 302.843503 205.915212 302.843503 
z
" clip-path="url(#pc5665dcc91)" style="fill: #cc7af4; fill-opacity: 0.8; stroke: #2f4f4f; stroke-opacity: 0.8"/>
   </g>
   <g id="patch_3">
    <path d="M 44.183438 314.41 
L 44.183438 24.8575 
" style="fill: none; stroke: #cccccc; stroke-linejoin: miter; stroke-linecap: square"/>
   </g>
   <g id="patch_4">
    <path d="M 412.751438 314.41 
L 412.751438 24.8575 
" style="fill: none; stroke: #cccccc; stroke-linejoin: miter; stroke-linecap: square"/>
   </g>
   <g id="patch_5">
    <path d="M 44.183438 314.41 
L 412.751438 314.41 
" style="fill: none; stroke: #cccccc; stroke-linejoin: miter; stroke-linecap: square"/>
   </g>
   <g id="patch_6">
    <path d="M 44.183438 24.8575 
L 412.751438 24.8575 
" style="fill: none; stroke: #cccccc; stroke-linejoin: miter; stroke-linecap: square"/>
   </g>
   <g id="text_16">
    <!-- Overall Performance vs Scalability/Stability -->
    <g style="fill: #262626" transform="translate(76.418687 18.8575) scale(0.16 -0.16)">
     <defs>
      <path id="ArialMT-73" d="M 197 991 
L 753 1078 
Q 800 744 1014 566 
Q 1228 388 1613 388 
Q 2000 388 2187 545 
Q 2375 703 2375 916 
Q 2375 1106 2209 1216 
Q 2094 1291 1634 1406 
Q 1016 1563 777 1677 
Q 538 1791 414 1992 
Q 291 2194 291 2438 
Q 291 2659 392 2848 
Q 494 3038 669 3163 
Q 800 3259 1026 3326 
Q 1253 3394 1513 3394 
Q 1903 3394 2198 3281 
Q 2494 3169 2634 2976 
Q 2775 2784 2828 2463 
L 2278 2388 
Q 2241 2644 2061 2787 
Q 1881 2931 1553 2931 
Q 1166 2931 1000 2803 
Q 834 2675 834 2503 
Q 834 2394 903 2306 
Q 972 2216 1119 2156 
Q 1203 2125 1616 2013 
Q 2213 1853 2448 1751 
Q 2684 1650 2818 1456 
Q 2953 1263 2953 975 
Q 2953 694 2789 445 
Q 2625 197 2315 61 
Q 2006 -75 1616 -75 
Q 969 -75 630 194 
Q 291 463 197 991 
z
" transform="scale(0.015625)"/>
     </defs>
     <use xlink:href="#ArialMT-4f"/>
     <use xlink:href="#ArialMT-76" transform="translate(77.783203 0)"/>
     <use xlink:href="#ArialMT-65" transform="translate(127.783203 0)"/>
     <use xlink:href="#ArialMT-72" transform="translate(183.398438 0)"/>
     <use xlink:href="#ArialMT-61" transform="translate(216.699219 0)"/>
     <use xlink:href="#ArialMT-6c" transform="translate(272.314453 0)"/>
     <use xlink:href="#ArialMT-6c" transform="translate(294.53125 0)"/>
     <use xlink:href="#ArialMT-20" transform="translate(316.748047 0)"/>
     <use xlink:href="#ArialMT-50" transform="translate(344.53125 0)"/>
     <use xlink:href="#ArialMT-65" transform="translate(411.230469 0)"/>
     <use xlink:href="#ArialMT-72" transform="translate(466.845703 0)"/>
     <use xlink:href="#ArialMT-66" transform="translate(500.146484 0)"/>
     <use xlink:href="#ArialMT-6f" transform="translate(527.929688 0)"/>
     <use xlink:href="#ArialMT-72" transform="translate(583.544922 0)"/>
     <use xlink:href="#ArialMT-6d" transform="translate(616.845703 0)"/>
     <use xlink:href="#ArialMT-61" transform="translate(700.146484 0)"/>
     <use xlink:href="#ArialMT-6e" transform="translate(755.761719 0)"/>
     <use xlink:href="#ArialMT-63" transform="translate(811.376953 0)"/>
     <use xlink:href="#ArialMT-65" transform="translate(861.376953 0)"/>
     <use xlink:href="#ArialMT-20" transform="translate(916.992188 0)"/>
     <use xlink:href="#ArialMT-76" transform="translate(944.775391 0)"/>
     <use xlink:href="#ArialMT-73" transform="translate(994.775391 0)"/>
     <use xlink:href="#ArialMT-20" transform="translate(1044.775391 0)"/>
     <use xlink:href="#ArialMT-53" transform="translate(1072.558594 0)"/>
     <use xlink:href="#ArialMT-63" transform="translate(1139.257812 0)"/>
     <use xlink:href="#ArialMT-61" transform="translate(1189.257812 0)"/>
     <use xlink:href="#ArialMT-6c" transform="translate(1244.873047 0)"/>
     <use xlink:href="#ArialMT-61" transform="translate(1267.089844 0)"/>
     <use xlink:href="#ArialMT-62" transform="translate(1322.705078 0)"/>
     <use xlink:href="#ArialMT-69" transform="translate(1378.320312 0)"/>
     <use xlink:href="#ArialMT-6c" transform="translate(1400.537109 0)"/>
     <use xlink:href="#ArialMT-69" transform="translate(1422.753906 0)"/>
     <use xlink:href="#ArialMT-74" transform="translate(1444.970703 0)"/>
     <use xlink:href="#ArialMT-79" transform="translate(1472.753906 0)"/>
     <use xlink:href="#ArialMT-2f" transform="translate(1522.753906 0)"/>
     <use xlink:href="#ArialMT-53" transform="translate(1550.537109 0)"/>
     <use xlink:href="#ArialMT-74" transform="translate(1617.236328 0)"/>
     <use xlink:href="#ArialMT-61" transform="translate(1645.019531 0)"/>
     <use xlink:href="#ArialMT-62" transform="translate(1700.634766 0)"/>
     <use xlink:href="#ArialMT-69" transform="translate(1756.25 0)"/>
     <use xlink:href="#ArialMT-6c" transform="translate(1778.466797 0)"/>
     <use xlink:href="#ArialMT-69" transform="translate(1800.683594 0)"/>
     <use xlink:href="#ArialMT-74" transform="translate(1822.900391 0)"/>
     <use xlink:href="#ArialMT-79" transform="translate(1850.683594 0)"/>
    </g>
   </g>
   <g id="legend_1">
    <g id="line2d_14">
     <path d="M 424.922798 33.246625 
L 436.922798 33.246625 
L 448.922798 33.246625 
" style="fill: none; stroke: #ffffff; stroke-width: 1.5; stroke-linecap: round"/>
     <defs>
      <path id="m6bda647c00" d="M 0 4 
C 1.060812 4 2.078319 3.578535 2.828427 2.828427 
C 3.578535 2.078319 4 1.060812 4 0 
C 4 -1.060812 3.578535 -2.078319 2.828427 -2.828427 
C 2.078319 -3.578535 1.060812 -4 0 -4 
C -1.060812 -4 -2.078319 -3.578535 -2.828427 -2.828427 
C -3.578535 -2.078319 -4 -1.060812 -4 0 
C -4 1.060812 -3.578535 2.078319 -2.828427 2.828427 
C -2.078319 3.578535 -1.060812 4 0 4 
z
" style="stroke: #2f4f4f"/>
     </defs>
     <g>
      <use xlink:href="#m6bda647c00" x="436.922798" y="33.246625" style="fill: #f77189; stroke: #2f4f4f"/>
     </g>
    </g>
    <g id="text_17">
     <!-- Supervised -->
     <g style="fill: #262626" transform="translate(458.522798 37.446625) scale(0.12 -0.12)">
      <defs>
       <path id="ArialMT-75" d="M 2597 0 
L 2597 488 
Q 2209 -75 1544 -75 
Q 1250 -75 995 37 
Q 741 150 617 320 
Q 494 491 444 738 
Q 409 903 409 1263 
L 409 3319 
L 972 3319 
L 972 1478 
Q 972 1038 1006 884 
Q 1059 663 1231 536 
Q 1403 409 1656 409 
Q 1909 409 2131 539 
Q 2353 669 2445 892 
Q 2538 1116 2538 1541 
L 2538 3319 
L 3100 3319 
L 3100 0 
L 2597 0 
z
" transform="scale(0.015625)"/>
       <path id="ArialMT-70" d="M 422 -1272 
L 422 3319 
L 934 3319 
L 934 2888 
Q 1116 3141 1344 3267 
Q 1572 3394 1897 3394 
Q 2322 3394 2647 3175 
Q 2972 2956 3137 2557 
Q 3303 2159 3303 1684 
Q 3303 1175 3120 767 
Q 2938 359 2589 142 
Q 2241 -75 1856 -75 
Q 1575 -75 1351 44 
Q 1128 163 984 344 
L 984 -1272 
L 422 -1272 
z
M 931 1641 
Q 931 1000 1190 694 
Q 1450 388 1819 388 
Q 2194 388 2461 705 
Q 2728 1022 2728 1688 
Q 2728 2322 2467 2637 
Q 2206 2953 1844 2953 
Q 1484 2953 1207 2617 
Q 931 2281 931 1641 
z
" transform="scale(0.015625)"/>
       <path id="ArialMT-64" d="M 2575 0 
L 2575 419 
Q 2259 -75 1647 -75 
Q 1250 -75 917 144 
Q 584 363 401 755 
Q 219 1147 219 1656 
Q 219 2153 384 2558 
Q 550 2963 881 3178 
Q 1213 3394 1622 3394 
Q 1922 3394 2156 3267 
Q 2391 3141 2538 2938 
L 2538 4581 
L 3097 4581 
L 3097 0 
L 2575 0 
z
M 797 1656 
Q 797 1019 1065 703 
Q 1334 388 1700 388 
Q 2069 388 2326 689 
Q 2584 991 2584 1609 
Q 2584 2291 2321 2609 
Q 2059 2928 1675 2928 
Q 1300 2928 1048 2622 
Q 797 2316 797 1656 
z
" transform="scale(0.015625)"/>
      </defs>
      <use xlink:href="#ArialMT-53"/>
      <use xlink:href="#ArialMT-75" transform="translate(66.699219 0)"/>
      <use xlink:href="#ArialMT-70" transform="translate(122.314453 0)"/>
      <use xlink:href="#ArialMT-65" transform="translate(177.929688 0)"/>
      <use xlink:href="#ArialMT-72" transform="translate(233.544922 0)"/>
      <use xlink:href="#ArialMT-76" transform="translate(266.845703 0)"/>
      <use xlink:href="#ArialMT-69" transform="translate(316.845703 0)"/>
      <use xlink:href="#ArialMT-73" transform="translate(339.0625 0)"/>
      <use xlink:href="#ArialMT-65" transform="translate(389.0625 0)"/>
      <use xlink:href="#ArialMT-64" transform="translate(444.677734 0)"/>
     </g>
    </g>
    <g id="line2d_15">
     <path d="M 424.922798 50.221 
L 436.922798 50.221 
L 448.922798 50.221 
" style="fill: none; stroke: #ffffff; stroke-width: 1.5; stroke-linecap: round"/>
     <defs>
      <path id="m08ae969d4d" d="M 0 4 
C 1.060812 4 2.078319 3.578535 2.828427 2.828427 
C 3.578535 2.078319 4 1.060812 4 0 
C 4 -1.060812 3.578535 -2.078319 2.828427 -2.828427 
C 2.078319 -3.578535 1.060812 -4 0 -4 
C -1.060812 -4 -2.078319 -3.578535 -2.828427 -2.828427 
C -3.578535 -2.078319 -4 -1.060812 -4 0 
C -4 1.060812 -3.578535 2.078319 -2.828427 2.828427 
C -2.078319 3.578535 -1.060812 4 0 4 
z
" style="stroke: #2f4f4f"/>
     </defs>
     <g>
      <use xlink:href="#m08ae969d4d" x="436.922798" y="50.221" style="fill: #ae9d31; stroke: #2f4f4f"/>
     </g>
    </g>
    <g id="text_18">
     <!-- Unsupervised -->
     <g style="fill: #262626" transform="translate(458.522798 54.421) scale(0.12 -0.12)">
      <defs>
       <path id="ArialMT-55" d="M 3500 4581 
L 4106 4581 
L 4106 1934 
Q 4106 1244 3950 837 
Q 3794 431 3386 176 
Q 2978 -78 2316 -78 
Q 1672 -78 1262 144 
Q 853 366 678 786 
Q 503 1206 503 1934 
L 503 4581 
L 1109 4581 
L 1109 1938 
Q 1109 1341 1220 1058 
Q 1331 775 1601 622 
Q 1872 469 2263 469 
Q 2931 469 3215 772 
Q 3500 1075 3500 1938 
L 3500 4581 
z
" transform="scale(0.015625)"/>
      </defs>
      <use xlink:href="#ArialMT-55"/>
      <use xlink:href="#ArialMT-6e" transform="translate(72.216797 0)"/>
      <use xlink:href="#ArialMT-73" transform="translate(127.832031 0)"/>
      <use xlink:href="#ArialMT-75" transform="translate(177.832031 0)"/>
      <use xlink:href="#ArialMT-70" transform="translate(233.447266 0)"/>
      <use xlink:href="#ArialMT-65" transform="translate(289.0625 0)"/>
      <use xlink:href="#ArialMT-72" transform="translate(344.677734 0)"/>
      <use xlink:href="#ArialMT-76" transform="translate(377.978516 0)"/>
      <use xlink:href="#ArialMT-69" transform="translate(427.978516 0)"/>
      <use xlink:href="#ArialMT-73" transform="translate(450.195312 0)"/>
      <use xlink:href="#ArialMT-65" transform="translate(500.195312 0)"/>
      <use xlink:href="#ArialMT-64" transform="translate(555.810547 0)"/>
     </g>
    </g>
    <g id="line2d_16">
     <path d="M 424.922798 67.195375 
L 436.922798 67.195375 
L 448.922798 67.195375 
" style="fill: none; stroke: #ffffff; stroke-width: 1.5; stroke-linecap: round"/>
     <defs>
      <path id="m76722c5b32" d="M 0 4 
C 1.060812 4 2.078319 3.578535 2.828427 2.828427 
C 3.578535 2.078319 4 1.060812 4 0 
C 4 -1.060812 3.578535 -2.078319 2.828427 -2.828427 
C 2.078319 -3.578535 1.060812 -4 0 -4 
C -1.060812 -4 -2.078319 -3.578535 -2.828427 -2.828427 
C -3.578535 -2.078319 -4 -1.060812 -4 0 
C -4 1.060812 -3.578535 2.078319 -2.828427 2.828427 
C -2.078319 3.578535 -1.060812 4 0 4 
z
" style="stroke: #2f4f4f"/>
     </defs>
     <g>
      <use xlink:href="#m76722c5b32" x="436.922798" y="67.195375" style="fill: #33b07a; stroke: #2f4f4f"/>
     </g>
    </g>
    <g id="text_19">
     <!-- Prior-Knowledge-driven -->
     <g style="fill: #262626" transform="translate(458.522798 71.395375) scale(0.12 -0.12)">
      <defs>
       <path id="ArialMT-2d" d="M 203 1375 
L 203 1941 
L 1931 1941 
L 1931 1375 
L 203 1375 
z
" transform="scale(0.015625)"/>
       <path id="ArialMT-4b" d="M 469 0 
L 469 4581 
L 1075 4581 
L 1075 2309 
L 3350 4581 
L 4172 4581 
L 2250 2725 
L 4256 0 
L 3456 0 
L 1825 2319 
L 1075 1588 
L 1075 0 
L 469 0 
z
" transform="scale(0.015625)"/>
       <path id="ArialMT-77" d="M 1034 0 
L 19 3319 
L 600 3319 
L 1128 1403 
L 1325 691 
Q 1338 744 1497 1375 
L 2025 3319 
L 2603 3319 
L 3100 1394 
L 3266 759 
L 3456 1400 
L 4025 3319 
L 4572 3319 
L 3534 0 
L 2950 0 
L 2422 1988 
L 2294 2553 
L 1622 0 
L 1034 0 
z
" transform="scale(0.015625)"/>
       <path id="ArialMT-67" d="M 319 -275 
L 866 -356 
Q 900 -609 1056 -725 
Q 1266 -881 1628 -881 
Q 2019 -881 2231 -725 
Q 2444 -569 2519 -288 
Q 2563 -116 2559 434 
Q 2191 0 1641 0 
Q 956 0 581 494 
Q 206 988 206 1678 
Q 206 2153 378 2554 
Q 550 2956 876 3175 
Q 1203 3394 1644 3394 
Q 2231 3394 2613 2919 
L 2613 3319 
L 3131 3319 
L 3131 450 
Q 3131 -325 2973 -648 
Q 2816 -972 2473 -1159 
Q 2131 -1347 1631 -1347 
Q 1038 -1347 672 -1080 
Q 306 -813 319 -275 
z
M 784 1719 
Q 784 1066 1043 766 
Q 1303 466 1694 466 
Q 2081 466 2343 764 
Q 2606 1063 2606 1700 
Q 2606 2309 2336 2618 
Q 2066 2928 1684 2928 
Q 1309 2928 1046 2623 
Q 784 2319 784 1719 
z
" transform="scale(0.015625)"/>
      </defs>
      <use xlink:href="#ArialMT-50"/>
      <use xlink:href="#ArialMT-72" transform="translate(66.699219 0)"/>
      <use xlink:href="#ArialMT-69" transform="translate(100 0)"/>
      <use xlink:href="#ArialMT-6f" transform="translate(122.216797 0)"/>
      <use xlink:href="#ArialMT-72" transform="translate(177.832031 0)"/>
      <use xlink:href="#ArialMT-2d" transform="translate(211.132812 0)"/>
      <use xlink:href="#ArialMT-4b" transform="translate(244.433594 0)"/>
      <use xlink:href="#ArialMT-6e" transform="translate(311.132812 0)"/>
      <use xlink:href="#ArialMT-6f" transform="translate(366.748047 0)"/>
      <use xlink:href="#ArialMT-77" transform="translate(422.363281 0)"/>
      <use xlink:href="#ArialMT-6c" transform="translate(494.580078 0)"/>
      <use xlink:href="#ArialMT-65" transform="translate(516.796875 0)"/>
      <use xlink:href="#ArialMT-64" transform="translate(572.412109 0)"/>
      <use xlink:href="#ArialMT-67" transform="translate(628.027344 0)"/>
      <use xlink:href="#ArialMT-65" transform="translate(683.642578 0)"/>
      <use xlink:href="#ArialMT-2d" transform="translate(739.257812 0)"/>
      <use xlink:href="#ArialMT-64" transform="translate(772.558594 0)"/>
      <use xlink:href="#ArialMT-72" transform="translate(828.173828 0)"/>
      <use xlink:href="#ArialMT-69" transform="translate(861.474609 0)"/>
      <use xlink:href="#ArialMT-76" transform="translate(883.691406 0)"/>
      <use xlink:href="#ArialMT-65" transform="translate(933.691406 0)"/>
      <use xlink:href="#ArialMT-6e" transform="translate(989.306641 0)"/>
     </g>
    </g>
    <g id="line2d_17">
     <path d="M 424.922798 84.310375 
L 436.922798 84.310375 
L 448.922798 84.310375 
" style="fill: none; stroke: #ffffff; stroke-width: 1.5; stroke-linecap: round"/>
     <defs>
      <path id="mc45dce56e2" d="M 0 4 
C 1.060812 4 2.078319 3.578535 2.828427 2.828427 
C 3.578535 2.078319 4 1.060812 4 0 
C 4 -1.060812 3.578535 -2.078319 2.828427 -2.828427 
C 2.078319 -3.578535 1.060812 -4 0 -4 
C -1.060812 -4 -2.078319 -3.578535 -2.828427 -2.828427 
C -3.578535 -2.078319 -4 -1.060812 -4 0 
C -4 1.060812 -3.578535 2.078319 -2.828427 2.828427 
C -2.078319 3.578535 -1.060812 4 0 4 
z
" style="stroke: #2f4f4f"/>
     </defs>
     <g>
      <use xlink:href="#mc45dce56e2" x="436.922798" y="84.310375" style="fill: #38a9c5; stroke: #2f4f4f"/>
     </g>
    </g>
    <g id="text_20">
     <!-- Pre-trained Models -->
     <g style="fill: #262626" transform="translate(458.522798 88.510375) scale(0.12 -0.12)">
      <defs>
       <path id="ArialMT-4d" d="M 475 0 
L 475 4581 
L 1388 4581 
L 2472 1338 
Q 2622 884 2691 659 
Q 2769 909 2934 1394 
L 4031 4581 
L 4847 4581 
L 4847 0 
L 4263 0 
L 4263 3834 
L 2931 0 
L 2384 0 
L 1059 3900 
L 1059 0 
L 475 0 
z
" transform="scale(0.015625)"/>
      </defs>
      <use xlink:href="#ArialMT-50"/>
      <use xlink:href="#ArialMT-72" transform="translate(66.699219 0)"/>
      <use xlink:href="#ArialMT-65" transform="translate(100 0)"/>
      <use xlink:href="#ArialMT-2d" transform="translate(155.615234 0)"/>
      <use xlink:href="#ArialMT-74" transform="translate(188.916016 0)"/>
      <use xlink:href="#ArialMT-72" transform="translate(216.699219 0)"/>
      <use xlink:href="#ArialMT-61" transform="translate(250 0)"/>
      <use xlink:href="#ArialMT-69" transform="translate(305.615234 0)"/>
      <use xlink:href="#ArialMT-6e" transform="translate(327.832031 0)"/>
      <use xlink:href="#ArialMT-65" transform="translate(383.447266 0)"/>
      <use xlink:href="#ArialMT-64" transform="translate(439.0625 0)"/>
      <use xlink:href="#ArialMT-20" transform="translate(494.677734 0)"/>
      <use xlink:href="#ArialMT-4d" transform="translate(522.460938 0)"/>
      <use xlink:href="#ArialMT-6f" transform="translate(605.761719 0)"/>
      <use xlink:href="#ArialMT-64" transform="translate(661.376953 0)"/>
      <use xlink:href="#ArialMT-65" transform="translate(716.992188 0)"/>
      <use xlink:href="#ArialMT-6c" transform="translate(772.607422 0)"/>
      <use xlink:href="#ArialMT-73" transform="translate(794.824219 0)"/>
     </g>
    </g>
    <g id="line2d_18">
     <path d="M 424.922798 101.28475 
L 436.922798 101.28475 
L 448.922798 101.28475 
" style="fill: none; stroke: #ffffff; stroke-width: 1.5; stroke-linecap: round"/>
     <defs>
      <path id="m6c00924519" d="M 0 4 
C 1.060812 4 2.078319 3.578535 2.828427 2.828427 
C 3.578535 2.078319 4 1.060812 4 0 
C 4 -1.060812 3.578535 -2.078319 2.828427 -2.828427 
C 2.078319 -3.578535 1.060812 -4 0 -4 
C -1.060812 -4 -2.078319 -3.578535 -2.828427 -2.828427 
C -3.578535 -2.078319 -4 -1.060812 -4 0 
C -4 1.060812 -3.578535 2.078319 -2.828427 2.828427 
C -2.078319 3.578535 -1.060812 4 0 4 
z
" style="stroke: #2f4f4f"/>
     </defs>
     <g>
      <use xlink:href="#m6c00924519" x="436.922798" y="101.28475" style="fill: #cc7af4; stroke: #2f4f4f"/>
     </g>
    </g>
    <g id="text_21">
     <!-- Baselines -->
     <g style="fill: #262626" transform="translate(458.522798 105.48475) scale(0.12 -0.12)">
      <defs>
       <path id="ArialMT-42" d="M 469 0 
L 469 4581 
L 2188 4581 
Q 2713 4581 3030 4442 
Q 3347 4303 3526 4014 
Q 3706 3725 3706 3409 
Q 3706 3116 3547 2856 
Q 3388 2597 3066 2438 
Q 3481 2316 3704 2022 
Q 3928 1728 3928 1328 
Q 3928 1006 3792 729 
Q 3656 453 3456 303 
Q 3256 153 2954 76 
Q 2653 0 2216 0 
L 469 0 
z
M 1075 2656 
L 2066 2656 
Q 2469 2656 2644 2709 
Q 2875 2778 2992 2937 
Q 3109 3097 3109 3338 
Q 3109 3566 3000 3739 
Q 2891 3913 2687 3977 
Q 2484 4041 1991 4041 
L 1075 4041 
L 1075 2656 
z
M 1075 541 
L 2216 541 
Q 2509 541 2628 563 
Q 2838 600 2978 687 
Q 3119 775 3209 942 
Q 3300 1109 3300 1328 
Q 3300 1584 3169 1773 
Q 3038 1963 2805 2039 
Q 2572 2116 2134 2116 
L 1075 2116 
L 1075 541 
z
" transform="scale(0.015625)"/>
      </defs>
      <use xlink:href="#ArialMT-42"/>
      <use xlink:href="#ArialMT-61" transform="translate(66.699219 0)"/>
      <use xlink:href="#ArialMT-73" transform="translate(122.314453 0)"/>
      <use xlink:href="#ArialMT-65" transform="translate(172.314453 0)"/>
      <use xlink:href="#ArialMT-6c" transform="translate(227.929688 0)"/>
      <use xlink:href="#ArialMT-69" transform="translate(250.146484 0)"/>
      <use xlink:href="#ArialMT-6e" transform="translate(272.363281 0)"/>
      <use xlink:href="#ArialMT-65" transform="translate(327.978516 0)"/>
      <use xlink:href="#ArialMT-73" transform="translate(383.59375 0)"/>
     </g>
    </g>
   </g>
   <g id="legend_2">
    <g id="text_22">
     <!-- Macro F1 -->
     <g style="fill: #262626" transform="translate(424.922798 147.791406) scale(0.14 -0.14)">
      <defs>
       <path id="ArialMT-46" d="M 525 0 
L 525 4581 
L 3616 4581 
L 3616 4041 
L 1131 4041 
L 1131 2622 
L 3281 2622 
L 3281 2081 
L 1131 2081 
L 1131 0 
L 525 0 
z
" transform="scale(0.015625)"/>
      </defs>
      <use xlink:href="#ArialMT-4d"/>
      <use xlink:href="#ArialMT-61" transform="translate(83.300781 0)"/>
      <use xlink:href="#ArialMT-63" transform="translate(138.916016 0)"/>
      <use xlink:href="#ArialMT-72" transform="translate(188.916016 0)"/>
      <use xlink:href="#ArialMT-6f" transform="translate(222.216797 0)"/>
      <use xlink:href="#ArialMT-20" transform="translate(277.832031 0)"/>
      <use xlink:href="#ArialMT-46" transform="translate(305.615234 0)"/>
      <use xlink:href="#ArialMT-31" transform="translate(366.699219 0)"/>
     </g>
    </g>
    <g id="line2d_19">
     <path d="M 429.342485 160.963281 
L 441.342485 160.963281 
L 453.342485 160.963281 
" style="fill: none; stroke: #ffffff; stroke-width: 1.5; stroke-linecap: round"/>
     <defs>
      <path id="me2a3202c20" d="M 0 2 
C 0.530406 2 1.03916 1.789267 1.414214 1.414214 
C 1.789267 1.03916 2 0.530406 2 0 
C 2 -0.530406 1.789267 -1.03916 1.414214 -1.414214 
C 1.03916 -1.789267 0.530406 -2 0 -2 
C -0.530406 -2 -1.03916 -1.789267 -1.414214 -1.414214 
C -1.789267 -1.03916 -2 -0.530406 -2 0 
C -2 0.530406 -1.789267 1.03916 -1.414214 1.414214 
C -1.03916 1.789267 -0.530406 2 0 2 
z
" style="stroke: #2f4f4f"/>
     </defs>
     <g>
      <use xlink:href="#me2a3202c20" x="441.342485" y="160.963281" style="fill: #d3d3d3; stroke: #2f4f4f"/>
     </g>
    </g>
    <g id="text_23">
     <!-- 0.0 -->
     <g style="fill: #262626" transform="translate(462.942485 165.163281) scale(0.12 -0.12)">
      <use xlink:href="#ArialMT-30"/>
      <use xlink:href="#ArialMT-2e" transform="translate(55.615234 0)"/>
      <use xlink:href="#ArialMT-30" transform="translate(83.398438 0)"/>
     </g>
    </g>
    <g id="line2d_20">
     <path d="M 429.342485 177.937656 
L 441.342485 177.937656 
L 453.342485 177.937656 
" style="fill: none; stroke: #ffffff; stroke-width: 1.5; stroke-linecap: round"/>
     <defs>
      <path id="m24341f1c73" d="M 0 6.123724 
C 1.624031 6.123724 3.181764 5.47849 4.330127 4.330127 
C 5.47849 3.181764 6.123724 1.624031 6.123724 0 
C 6.123724 -1.624031 5.47849 -3.181764 4.330127 -4.330127 
C 3.181764 -5.47849 1.624031 -6.123724 0 -6.123724 
C -1.624031 -6.123724 -3.181764 -5.47849 -4.330127 -4.330127 
C -5.47849 -3.181764 -6.123724 -1.624031 -6.123724 0 
C -6.123724 1.624031 -5.47849 3.181764 -4.330127 4.330127 
C -3.181764 5.47849 -1.624031 6.123724 0 6.123724 
z
" style="stroke: #2f4f4f"/>
     </defs>
     <g>
      <use xlink:href="#m24341f1c73" x="441.342485" y="177.937656" style="fill: #d3d3d3; stroke: #2f4f4f"/>
     </g>
    </g>
    <g id="text_24">
     <!-- 0.5 -->
     <g style="fill: #262626" transform="translate(462.942485 182.137656) scale(0.12 -0.12)">
      <use xlink:href="#ArialMT-30"/>
      <use xlink:href="#ArialMT-2e" transform="translate(55.615234 0)"/>
      <use xlink:href="#ArialMT-35" transform="translate(83.398438 0)"/>
     </g>
    </g>
    <g id="line2d_21">
     <path d="M 429.342485 194.912031 
L 441.342485 194.912031 
L 453.342485 194.912031 
" style="fill: none; stroke: #ffffff; stroke-width: 1.5; stroke-linecap: round"/>
     <defs>
      <path id="m7ee15a45da" d="M 0 8.660254 
C 2.296726 8.660254 4.499694 7.747755 6.123724 6.123724 
C 7.747755 4.499694 8.660254 2.296726 8.660254 0 
C 8.660254 -2.296726 7.747755 -4.499694 6.123724 -6.123724 
C 4.499694 -7.747755 2.296726 -8.660254 0 -8.660254 
C -2.296726 -8.660254 -4.499694 -7.747755 -6.123724 -6.123724 
C -7.747755 -4.499694 -8.660254 -2.296726 -8.660254 0 
C -8.660254 2.296726 -7.747755 4.499694 -6.123724 6.123724 
C -4.499694 7.747755 -2.296726 8.660254 0 8.660254 
z
" style="stroke: #2f4f4f"/>
     </defs>
     <g>
      <use xlink:href="#m7ee15a45da" x="441.342485" y="194.912031" style="fill: #d3d3d3; stroke: #2f4f4f"/>
     </g>
    </g>
    <g id="text_25">
     <!-- 1.0 -->
     <g style="fill: #262626" transform="translate(462.942485 199.112031) scale(0.12 -0.12)">
      <use xlink:href="#ArialMT-31"/>
      <use xlink:href="#ArialMT-2e" transform="translate(55.615234 0)"/>
      <use xlink:href="#ArialMT-30" transform="translate(83.398438 0)"/>
     </g>
    </g>
   </g>
  </g>
 </g>
 <defs>
  <clipPath id="pc5665dcc91">
   <rect x="44.183438" y="24.8575" width="368.568" height="289.5525"/>
  </clipPath>
 </defs>
</svg>
