<?xml version="1.0" encoding="utf-8" standalone="no"?>
<!DOCTYPE svg PUBLIC "-//W3C//DTD SVG 1.1//EN"
  "http://www.w3.org/Graphics/SVG/1.1/DTD/svg11.dtd">
<svg xmlns:xlink="http://www.w3.org/1999/xlink" width="491.635773pt" height="348.9025pt" viewBox="0 0 491.635773 348.9025" xmlns="http://www.w3.org/2000/svg" version="1.1">
 <metadata>
  <rdf:RDF xmlns:dc="http://purl.org/dc/elements/1.1/" xmlns:cc="http://creativecommons.org/ns#" xmlns:rdf="http://www.w3.org/1999/02/22-rdf-syntax-ns#">
   <cc:Work>
    <dc:type rdf:resource="http://purl.org/dc/dcmitype/StillImage"/>
    <dc:date>2025-08-22T10:15:24.030947</dc:date>
    <dc:format>image/svg+xml</dc:format>
    <dc:creator>
     <cc:Agent>
      <dc:title>Matplotlib v3.10.5, https://matplotlib.org/</dc:title>
     </cc:Agent>
    </dc:creator>
   </cc:Work>
  </rdf:RDF>
 </metadata>
 <defs>
  <style type="text/css">*{stroke-linejoin: round; stroke-linecap: butt}</style>
 </defs>
 <g id="figure_1">
  <g id="patch_1">
   <path d="M 0 348.9025 
L 491.635773 348.9025 
L 491.635773 0 
L 0 0 
z
" style="fill: #ffffff"/>
  </g>
  <g id="axes_1">
   <g id="patch_2">
    <path d="M 44.183438 310.09 
L 408.431438 310.09 
L 408.431438 24.8575 
L 44.183438 24.8575 
z
" style="fill: #ffffff"/>
   </g>
   <g id="matplotlib.axis_1">
    <g id="xtick_1">
     <g id="line2d_1"/>
     <g id="text_1">
      <!-- 0.4 -->
      <g style="fill: #262626" transform="translate(35.843437 322.179375) scale(0.12 -0.12)">
       <defs>
        <path id="ArialMT-30" d="M 266 2259 
Q 266 3072 433 3567 
Q 600 4063 929 4331 
Q 1259 4600 1759 4600 
Q 2128 4600 2406 4451 
Q 2684 4303 2865 4023 
Q 3047 3744 3150 3342 
Q 3253 2941 3253 2259 
Q 3253 1453 3087 958 
Q 2922 463 2592 192 
Q 2263 -78 1759 -78 
Q 1097 -78 719 397 
Q 266 969 266 2259 
z
M 844 2259 
Q 844 1131 1108 757 
Q 1372 384 1759 384 
Q 2147 384 2411 759 
Q 2675 1134 2675 2259 
Q 2675 3391 2411 3762 
Q 2147 4134 1753 4134 
Q 1366 4134 1134 3806 
Q 844 3388 844 2259 
z
" transform="scale(0.015625)"/>
        <path id="ArialMT-2e" d="M 581 0 
L 581 641 
L 1222 641 
L 1222 0 
L 581 0 
z
" transform="scale(0.015625)"/>
        <path id="ArialMT-34" d="M 2069 0 
L 2069 1097 
L 81 1097 
L 81 1613 
L 2172 4581 
L 2631 4581 
L 2631 1613 
L 3250 1613 
L 3250 1097 
L 2631 1097 
L 2631 0 
L 2069 0 
z
M 2069 1613 
L 2069 3678 
L 634 1613 
L 2069 1613 
z
" transform="scale(0.015625)"/>
       </defs>
       <use xlink:href="#ArialMT-30"/>
       <use xlink:href="#ArialMT-2e" transform="translate(55.615234 0)"/>
       <use xlink:href="#ArialMT-34" transform="translate(83.398438 0)"/>
      </g>
     </g>
    </g>
    <g id="xtick_2">
     <g id="line2d_2"/>
     <g id="text_2">
      <!-- 0.5 -->
      <g style="fill: #262626" transform="translate(96.551437 322.179375) scale(0.12 -0.12)">
       <defs>
        <path id="ArialMT-35" d="M 266 1200 
L 856 1250 
Q 922 819 1161 601 
Q 1400 384 1738 384 
Q 2144 384 2425 690 
Q 2706 997 2706 1503 
Q 2706 1984 2436 2262 
Q 2166 2541 1728 2541 
Q 1456 2541 1237 2417 
Q 1019 2294 894 2097 
L 366 2166 
L 809 4519 
L 3088 4519 
L 3088 3981 
L 1259 3981 
L 1013 2750 
Q 1425 3038 1878 3038 
Q 2478 3038 2890 2622 
Q 3303 2206 3303 1553 
Q 3303 931 2941 478 
Q 2500 -78 1738 -78 
Q 1113 -78 717 272 
Q 322 622 266 1200 
z
" transform="scale(0.015625)"/>
       </defs>
       <use xlink:href="#ArialMT-30"/>
       <use xlink:href="#ArialMT-2e" transform="translate(55.615234 0)"/>
       <use xlink:href="#ArialMT-35" transform="translate(83.398438 0)"/>
      </g>
     </g>
    </g>
    <g id="xtick_3">
     <g id="line2d_3"/>
     <g id="text_3">
      <!-- 0.6 -->
      <g style="fill: #262626" transform="translate(157.259438 322.179375) scale(0.12 -0.12)">
       <defs>
        <path id="ArialMT-36" d="M 3184 3459 
L 2625 3416 
Q 2550 3747 2413 3897 
Q 2184 4138 1850 4138 
Q 1581 4138 1378 3988 
Q 1113 3794 959 3422 
Q 806 3050 800 2363 
Q 1003 2672 1297 2822 
Q 1591 2972 1913 2972 
Q 2475 2972 2870 2558 
Q 3266 2144 3266 1488 
Q 3266 1056 3080 686 
Q 2894 316 2569 119 
Q 2244 -78 1831 -78 
Q 1128 -78 684 439 
Q 241 956 241 2144 
Q 241 3472 731 4075 
Q 1159 4600 1884 4600 
Q 2425 4600 2770 4297 
Q 3116 3994 3184 3459 
z
M 888 1484 
Q 888 1194 1011 928 
Q 1134 663 1356 523 
Q 1578 384 1822 384 
Q 2178 384 2434 671 
Q 2691 959 2691 1453 
Q 2691 1928 2437 2201 
Q 2184 2475 1800 2475 
Q 1419 2475 1153 2201 
Q 888 1928 888 1484 
z
" transform="scale(0.015625)"/>
       </defs>
       <use xlink:href="#ArialMT-30"/>
       <use xlink:href="#ArialMT-2e" transform="translate(55.615234 0)"/>
       <use xlink:href="#ArialMT-36" transform="translate(83.398438 0)"/>
      </g>
     </g>
    </g>
    <g id="xtick_4">
     <g id="line2d_4"/>
     <g id="text_4">
      <!-- 0.7 -->
      <g style="fill: #262626" transform="translate(217.967438 322.179375) scale(0.12 -0.12)">
       <defs>
        <path id="ArialMT-37" d="M 303 3981 
L 303 4522 
L 3269 4522 
L 3269 4084 
Q 2831 3619 2401 2847 
Q 1972 2075 1738 1259 
Q 1569 684 1522 0 
L 944 0 
Q 953 541 1156 1306 
Q 1359 2072 1739 2783 
Q 2119 3494 2547 3981 
L 303 3981 
z
" transform="scale(0.015625)"/>
       </defs>
       <use xlink:href="#ArialMT-30"/>
       <use xlink:href="#ArialMT-2e" transform="translate(55.615234 0)"/>
       <use xlink:href="#ArialMT-37" transform="translate(83.398438 0)"/>
      </g>
     </g>
    </g>
    <g id="xtick_5">
     <g id="line2d_5"/>
     <g id="text_5">
      <!-- 0.8 -->
      <g style="fill: #262626" transform="translate(278.675438 322.179375) scale(0.12 -0.12)">
       <defs>
        <path id="ArialMT-38" d="M 1131 2484 
Q 781 2613 612 2850 
Q 444 3088 444 3419 
Q 444 3919 803 4259 
Q 1163 4600 1759 4600 
Q 2359 4600 2725 4251 
Q 3091 3903 3091 3403 
Q 3091 3084 2923 2848 
Q 2756 2613 2416 2484 
Q 2838 2347 3058 2040 
Q 3278 1734 3278 1309 
Q 3278 722 2862 322 
Q 2447 -78 1769 -78 
Q 1091 -78 675 323 
Q 259 725 259 1325 
Q 259 1772 486 2073 
Q 713 2375 1131 2484 
z
M 1019 3438 
Q 1019 3113 1228 2906 
Q 1438 2700 1772 2700 
Q 2097 2700 2305 2904 
Q 2513 3109 2513 3406 
Q 2513 3716 2298 3927 
Q 2084 4138 1766 4138 
Q 1444 4138 1231 3931 
Q 1019 3725 1019 3438 
z
M 838 1322 
Q 838 1081 952 856 
Q 1066 631 1291 507 
Q 1516 384 1775 384 
Q 2178 384 2440 643 
Q 2703 903 2703 1303 
Q 2703 1709 2433 1975 
Q 2163 2241 1756 2241 
Q 1359 2241 1098 1978 
Q 838 1716 838 1322 
z
" transform="scale(0.015625)"/>
       </defs>
       <use xlink:href="#ArialMT-30"/>
       <use xlink:href="#ArialMT-2e" transform="translate(55.615234 0)"/>
       <use xlink:href="#ArialMT-38" transform="translate(83.398438 0)"/>
      </g>
     </g>
    </g>
    <g id="xtick_6">
     <g id="line2d_6"/>
     <g id="text_6">
      <!-- 0.9 -->
      <g style="fill: #262626" transform="translate(339.383438 322.179375) scale(0.12 -0.12)">
       <defs>
        <path id="ArialMT-39" d="M 350 1059 
L 891 1109 
Q 959 728 1153 556 
Q 1347 384 1650 384 
Q 1909 384 2104 503 
Q 2300 622 2425 820 
Q 2550 1019 2634 1356 
Q 2719 1694 2719 2044 
Q 2719 2081 2716 2156 
Q 2547 1888 2255 1720 
Q 1963 1553 1622 1553 
Q 1053 1553 659 1965 
Q 266 2378 266 3053 
Q 266 3750 677 4175 
Q 1088 4600 1706 4600 
Q 2153 4600 2523 4359 
Q 2894 4119 3086 3673 
Q 3278 3228 3278 2384 
Q 3278 1506 3087 986 
Q 2897 466 2520 194 
Q 2144 -78 1638 -78 
Q 1100 -78 759 220 
Q 419 519 350 1059 
z
M 2653 3081 
Q 2653 3566 2395 3850 
Q 2138 4134 1775 4134 
Q 1400 4134 1122 3828 
Q 844 3522 844 3034 
Q 844 2597 1108 2323 
Q 1372 2050 1759 2050 
Q 2150 2050 2401 2323 
Q 2653 2597 2653 3081 
z
" transform="scale(0.015625)"/>
       </defs>
       <use xlink:href="#ArialMT-30"/>
       <use xlink:href="#ArialMT-2e" transform="translate(55.615234 0)"/>
       <use xlink:href="#ArialMT-39" transform="translate(83.398438 0)"/>
      </g>
     </g>
    </g>
    <g id="xtick_7">
     <g id="line2d_7"/>
     <g id="text_7">
      <!-- 1.0 -->
      <g style="fill: #262626" transform="translate(400.091438 322.179375) scale(0.12 -0.12)">
       <defs>
        <path id="ArialMT-31" d="M 2384 0 
L 1822 0 
L 1822 3584 
Q 1619 3391 1289 3197 
Q 959 3003 697 2906 
L 697 3450 
Q 1169 3672 1522 3987 
Q 1875 4303 2022 4600 
L 2384 4600 
L 2384 0 
z
" transform="scale(0.015625)"/>
       </defs>
       <use xlink:href="#ArialMT-31"/>
       <use xlink:href="#ArialMT-2e" transform="translate(55.615234 0)"/>
       <use xlink:href="#ArialMT-30" transform="translate(83.398438 0)"/>
      </g>
     </g>
    </g>
    <g id="text_8">
     <!-- Scalability/Stability -->
     <g style="fill: #262626" transform="translate(168.339781 338.755937) scale(0.14 -0.14)">
      <defs>
       <path id="ArialMT-53" d="M 288 1472 
L 859 1522 
Q 900 1178 1048 958 
Q 1197 738 1509 602 
Q 1822 466 2213 466 
Q 2559 466 2825 569 
Q 3091 672 3220 851 
Q 3350 1031 3350 1244 
Q 3350 1459 3225 1620 
Q 3100 1781 2813 1891 
Q 2628 1963 1997 2114 
Q 1366 2266 1113 2400 
Q 784 2572 623 2826 
Q 463 3081 463 3397 
Q 463 3744 659 4045 
Q 856 4347 1234 4503 
Q 1613 4659 2075 4659 
Q 2584 4659 2973 4495 
Q 3363 4331 3572 4012 
Q 3781 3694 3797 3291 
L 3216 3247 
Q 3169 3681 2898 3903 
Q 2628 4125 2100 4125 
Q 1550 4125 1298 3923 
Q 1047 3722 1047 3438 
Q 1047 3191 1225 3031 
Q 1400 2872 2139 2705 
Q 2878 2538 3153 2413 
Q 3553 2228 3743 1945 
Q 3934 1663 3934 1294 
Q 3934 928 3725 604 
Q 3516 281 3123 101 
Q 2731 -78 2241 -78 
Q 1619 -78 1198 103 
Q 778 284 539 648 
Q 300 1013 288 1472 
z
" transform="scale(0.015625)"/>
       <path id="ArialMT-63" d="M 2588 1216 
L 3141 1144 
Q 3050 572 2676 248 
Q 2303 -75 1759 -75 
Q 1078 -75 664 370 
Q 250 816 250 1647 
Q 250 2184 428 2587 
Q 606 2991 970 3192 
Q 1334 3394 1763 3394 
Q 2303 3394 2647 3120 
Q 2991 2847 3088 2344 
L 2541 2259 
Q 2463 2594 2264 2762 
Q 2066 2931 1784 2931 
Q 1359 2931 1093 2626 
Q 828 2322 828 1663 
Q 828 994 1084 691 
Q 1341 388 1753 388 
Q 2084 388 2306 591 
Q 2528 794 2588 1216 
z
" transform="scale(0.015625)"/>
       <path id="ArialMT-61" d="M 2588 409 
Q 2275 144 1986 34 
Q 1697 -75 1366 -75 
Q 819 -75 525 192 
Q 231 459 231 875 
Q 231 1119 342 1320 
Q 453 1522 633 1644 
Q 813 1766 1038 1828 
Q 1203 1872 1538 1913 
Q 2219 1994 2541 2106 
Q 2544 2222 2544 2253 
Q 2544 2597 2384 2738 
Q 2169 2928 1744 2928 
Q 1347 2928 1158 2789 
Q 969 2650 878 2297 
L 328 2372 
Q 403 2725 575 2942 
Q 747 3159 1072 3276 
Q 1397 3394 1825 3394 
Q 2250 3394 2515 3294 
Q 2781 3194 2906 3042 
Q 3031 2891 3081 2659 
Q 3109 2516 3109 2141 
L 3109 1391 
Q 3109 606 3145 398 
Q 3181 191 3288 0 
L 2700 0 
Q 2613 175 2588 409 
z
M 2541 1666 
Q 2234 1541 1622 1453 
Q 1275 1403 1131 1340 
Q 988 1278 909 1158 
Q 831 1038 831 891 
Q 831 666 1001 516 
Q 1172 366 1500 366 
Q 1825 366 2078 508 
Q 2331 650 2450 897 
Q 2541 1088 2541 1459 
L 2541 1666 
z
" transform="scale(0.015625)"/>
       <path id="ArialMT-6c" d="M 409 0 
L 409 4581 
L 972 4581 
L 972 0 
L 409 0 
z
" transform="scale(0.015625)"/>
       <path id="ArialMT-62" d="M 941 0 
L 419 0 
L 419 4581 
L 981 4581 
L 981 2947 
Q 1338 3394 1891 3394 
Q 2197 3394 2470 3270 
Q 2744 3147 2920 2923 
Q 3097 2700 3197 2384 
Q 3297 2069 3297 1709 
Q 3297 856 2875 390 
Q 2453 -75 1863 -75 
Q 1275 -75 941 416 
L 941 0 
z
M 934 1684 
Q 934 1088 1097 822 
Q 1363 388 1816 388 
Q 2184 388 2453 708 
Q 2722 1028 2722 1663 
Q 2722 2313 2464 2622 
Q 2206 2931 1841 2931 
Q 1472 2931 1203 2611 
Q 934 2291 934 1684 
z
" transform="scale(0.015625)"/>
       <path id="ArialMT-69" d="M 425 3934 
L 425 4581 
L 988 4581 
L 988 3934 
L 425 3934 
z
M 425 0 
L 425 3319 
L 988 3319 
L 988 0 
L 425 0 
z
" transform="scale(0.015625)"/>
       <path id="ArialMT-74" d="M 1650 503 
L 1731 6 
Q 1494 -44 1306 -44 
Q 1000 -44 831 53 
Q 663 150 594 308 
Q 525 466 525 972 
L 525 2881 
L 113 2881 
L 113 3319 
L 525 3319 
L 525 4141 
L 1084 4478 
L 1084 3319 
L 1650 3319 
L 1650 2881 
L 1084 2881 
L 1084 941 
Q 1084 700 1114 631 
Q 1144 563 1211 522 
Q 1278 481 1403 481 
Q 1497 481 1650 503 
z
" transform="scale(0.015625)"/>
       <path id="ArialMT-79" d="M 397 -1278 
L 334 -750 
Q 519 -800 656 -800 
Q 844 -800 956 -737 
Q 1069 -675 1141 -563 
Q 1194 -478 1313 -144 
Q 1328 -97 1363 -6 
L 103 3319 
L 709 3319 
L 1400 1397 
Q 1534 1031 1641 628 
Q 1738 1016 1872 1384 
L 2581 3319 
L 3144 3319 
L 1881 -56 
Q 1678 -603 1566 -809 
Q 1416 -1088 1222 -1217 
Q 1028 -1347 759 -1347 
Q 597 -1347 397 -1278 
z
" transform="scale(0.015625)"/>
       <path id="ArialMT-2f" d="M 0 -78 
L 1328 4659 
L 1778 4659 
L 453 -78 
L 0 -78 
z
" transform="scale(0.015625)"/>
      </defs>
      <use xlink:href="#ArialMT-53"/>
      <use xlink:href="#ArialMT-63" transform="translate(66.699219 0)"/>
      <use xlink:href="#ArialMT-61" transform="translate(116.699219 0)"/>
      <use xlink:href="#ArialMT-6c" transform="translate(172.314453 0)"/>
      <use xlink:href="#ArialMT-61" transform="translate(194.53125 0)"/>
      <use xlink:href="#ArialMT-62" transform="translate(250.146484 0)"/>
      <use xlink:href="#ArialMT-69" transform="translate(305.761719 0)"/>
      <use xlink:href="#ArialMT-6c" transform="translate(327.978516 0)"/>
      <use xlink:href="#ArialMT-69" transform="translate(350.195312 0)"/>
      <use xlink:href="#ArialMT-74" transform="translate(372.412109 0)"/>
      <use xlink:href="#ArialMT-79" transform="translate(400.195312 0)"/>
      <use xlink:href="#ArialMT-2f" transform="translate(450.195312 0)"/>
      <use xlink:href="#ArialMT-53" transform="translate(477.978516 0)"/>
      <use xlink:href="#ArialMT-74" transform="translate(544.677734 0)"/>
      <use xlink:href="#ArialMT-61" transform="translate(572.460938 0)"/>
      <use xlink:href="#ArialMT-62" transform="translate(628.076172 0)"/>
      <use xlink:href="#ArialMT-69" transform="translate(683.691406 0)"/>
      <use xlink:href="#ArialMT-6c" transform="translate(705.908203 0)"/>
      <use xlink:href="#ArialMT-69" transform="translate(728.125 0)"/>
      <use xlink:href="#ArialMT-74" transform="translate(750.341797 0)"/>
      <use xlink:href="#ArialMT-79" transform="translate(778.125 0)"/>
     </g>
    </g>
   </g>
   <g id="matplotlib.axis_2">
    <g id="ytick_1">
     <g id="line2d_8"/>
     <g id="text_9">
      <!-- 0.2 -->
      <g style="fill: #262626" transform="translate(24.003438 286.349922) scale(0.12 -0.12)">
       <defs>
        <path id="ArialMT-32" d="M 3222 541 
L 3222 0 
L 194 0 
Q 188 203 259 391 
Q 375 700 629 1000 
Q 884 1300 1366 1694 
Q 2113 2306 2375 2664 
Q 2638 3022 2638 3341 
Q 2638 3675 2398 3904 
Q 2159 4134 1775 4134 
Q 1369 4134 1125 3890 
Q 881 3647 878 3216 
L 300 3275 
Q 359 3922 746 4261 
Q 1134 4600 1788 4600 
Q 2447 4600 2831 4234 
Q 3216 3869 3216 3328 
Q 3216 3053 3103 2787 
Q 2991 2522 2730 2228 
Q 2469 1934 1863 1422 
Q 1356 997 1212 845 
Q 1069 694 975 541 
L 3222 541 
z
" transform="scale(0.015625)"/>
       </defs>
       <use xlink:href="#ArialMT-30"/>
       <use xlink:href="#ArialMT-2e" transform="translate(55.615234 0)"/>
       <use xlink:href="#ArialMT-32" transform="translate(83.398438 0)"/>
      </g>
     </g>
    </g>
    <g id="ytick_2">
     <g id="line2d_9"/>
     <g id="text_10">
      <!-- 0.3 -->
      <g style="fill: #262626" transform="translate(24.003438 248.800353) scale(0.12 -0.12)">
       <defs>
        <path id="ArialMT-33" d="M 269 1209 
L 831 1284 
Q 928 806 1161 595 
Q 1394 384 1728 384 
Q 2125 384 2398 659 
Q 2672 934 2672 1341 
Q 2672 1728 2419 1979 
Q 2166 2231 1775 2231 
Q 1616 2231 1378 2169 
L 1441 2663 
Q 1497 2656 1531 2656 
Q 1891 2656 2178 2843 
Q 2466 3031 2466 3422 
Q 2466 3731 2256 3934 
Q 2047 4138 1716 4138 
Q 1388 4138 1169 3931 
Q 950 3725 888 3313 
L 325 3413 
Q 428 3978 793 4289 
Q 1159 4600 1703 4600 
Q 2078 4600 2393 4439 
Q 2709 4278 2876 4000 
Q 3044 3722 3044 3409 
Q 3044 3113 2884 2869 
Q 2725 2625 2413 2481 
Q 2819 2388 3044 2092 
Q 3269 1797 3269 1353 
Q 3269 753 2831 336 
Q 2394 -81 1725 -81 
Q 1122 -81 723 278 
Q 325 638 269 1209 
z
" transform="scale(0.015625)"/>
       </defs>
       <use xlink:href="#ArialMT-30"/>
       <use xlink:href="#ArialMT-2e" transform="translate(55.615234 0)"/>
       <use xlink:href="#ArialMT-33" transform="translate(83.398438 0)"/>
      </g>
     </g>
    </g>
    <g id="ytick_3">
     <g id="line2d_10"/>
     <g id="text_11">
      <!-- 0.4 -->
      <g style="fill: #262626" transform="translate(24.003438 211.250783) scale(0.12 -0.12)">
       <use xlink:href="#ArialMT-30"/>
       <use xlink:href="#ArialMT-2e" transform="translate(55.615234 0)"/>
       <use xlink:href="#ArialMT-34" transform="translate(83.398438 0)"/>
      </g>
     </g>
    </g>
    <g id="ytick_4">
     <g id="line2d_11"/>
     <g id="text_12">
      <!-- 0.5 -->
      <g style="fill: #262626" transform="translate(24.003438 173.701214) scale(0.12 -0.12)">
       <use xlink:href="#ArialMT-30"/>
       <use xlink:href="#ArialMT-2e" transform="translate(55.615234 0)"/>
       <use xlink:href="#ArialMT-35" transform="translate(83.398438 0)"/>
      </g>
     </g>
    </g>
    <g id="ytick_5">
     <g id="line2d_12"/>
     <g id="text_13">
      <!-- 0.6 -->
      <g style="fill: #262626" transform="translate(24.003438 136.151644) scale(0.12 -0.12)">
       <use xlink:href="#ArialMT-30"/>
       <use xlink:href="#ArialMT-2e" transform="translate(55.615234 0)"/>
       <use xlink:href="#ArialMT-36" transform="translate(83.398438 0)"/>
      </g>
     </g>
    </g>
    <g id="ytick_6">
     <g id="line2d_13"/>
     <g id="text_14">
      <!-- 0.7 -->
      <g style="fill: #262626" transform="translate(24.003438 98.602075) scale(0.12 -0.12)">
       <use xlink:href="#ArialMT-30"/>
       <use xlink:href="#ArialMT-2e" transform="translate(55.615234 0)"/>
       <use xlink:href="#ArialMT-37" transform="translate(83.398438 0)"/>
      </g>
     </g>
    </g>
    <g id="ytick_7">
     <g id="line2d_14"/>
     <g id="text_15">
      <!-- 0.8 -->
      <g style="fill: #262626" transform="translate(24.003438 61.052505) scale(0.12 -0.12)">
       <use xlink:href="#ArialMT-30"/>
       <use xlink:href="#ArialMT-2e" transform="translate(55.615234 0)"/>
       <use xlink:href="#ArialMT-38" transform="translate(83.398438 0)"/>
      </g>
     </g>
    </g>
    <g id="text_16">
     <!-- Overall Performance -->
     <g style="fill: #262626" transform="translate(17.220937 231.659375) rotate(-90) scale(0.14 -0.14)">
      <defs>
       <path id="ArialMT-4f" d="M 309 2231 
Q 309 3372 921 4017 
Q 1534 4663 2503 4663 
Q 3138 4663 3647 4359 
Q 4156 4056 4423 3514 
Q 4691 2972 4691 2284 
Q 4691 1588 4409 1038 
Q 4128 488 3612 205 
Q 3097 -78 2500 -78 
Q 1853 -78 1343 234 
Q 834 547 571 1087 
Q 309 1628 309 2231 
z
M 934 2222 
Q 934 1394 1379 917 
Q 1825 441 2497 441 
Q 3181 441 3623 922 
Q 4066 1403 4066 2288 
Q 4066 2847 3877 3264 
Q 3688 3681 3323 3911 
Q 2959 4141 2506 4141 
Q 1863 4141 1398 3698 
Q 934 3256 934 2222 
z
" transform="scale(0.015625)"/>
       <path id="ArialMT-76" d="M 1344 0 
L 81 3319 
L 675 3319 
L 1388 1331 
Q 1503 1009 1600 663 
Q 1675 925 1809 1294 
L 2547 3319 
L 3125 3319 
L 1869 0 
L 1344 0 
z
" transform="scale(0.015625)"/>
       <path id="ArialMT-65" d="M 2694 1069 
L 3275 997 
Q 3138 488 2766 206 
Q 2394 -75 1816 -75 
Q 1088 -75 661 373 
Q 234 822 234 1631 
Q 234 2469 665 2931 
Q 1097 3394 1784 3394 
Q 2450 3394 2872 2941 
Q 3294 2488 3294 1666 
Q 3294 1616 3291 1516 
L 816 1516 
Q 847 969 1125 678 
Q 1403 388 1819 388 
Q 2128 388 2347 550 
Q 2566 713 2694 1069 
z
M 847 1978 
L 2700 1978 
Q 2663 2397 2488 2606 
Q 2219 2931 1791 2931 
Q 1403 2931 1139 2672 
Q 875 2413 847 1978 
z
" transform="scale(0.015625)"/>
       <path id="ArialMT-72" d="M 416 0 
L 416 3319 
L 922 3319 
L 922 2816 
Q 1116 3169 1280 3281 
Q 1444 3394 1641 3394 
Q 1925 3394 2219 3213 
L 2025 2691 
Q 1819 2813 1613 2813 
Q 1428 2813 1281 2702 
Q 1134 2591 1072 2394 
Q 978 2094 978 1738 
L 978 0 
L 416 0 
z
" transform="scale(0.015625)"/>
       <path id="ArialMT-20" transform="scale(0.015625)"/>
       <path id="ArialMT-50" d="M 494 0 
L 494 4581 
L 2222 4581 
Q 2678 4581 2919 4538 
Q 3256 4481 3484 4323 
Q 3713 4166 3852 3881 
Q 3991 3597 3991 3256 
Q 3991 2672 3619 2267 
Q 3247 1863 2275 1863 
L 1100 1863 
L 1100 0 
L 494 0 
z
M 1100 2403 
L 2284 2403 
Q 2872 2403 3119 2622 
Q 3366 2841 3366 3238 
Q 3366 3525 3220 3729 
Q 3075 3934 2838 4000 
Q 2684 4041 2272 4041 
L 1100 4041 
L 1100 2403 
z
" transform="scale(0.015625)"/>
       <path id="ArialMT-66" d="M 556 0 
L 556 2881 
L 59 2881 
L 59 3319 
L 556 3319 
L 556 3672 
Q 556 4006 616 4169 
Q 697 4388 901 4523 
Q 1106 4659 1475 4659 
Q 1713 4659 2000 4603 
L 1916 4113 
Q 1741 4144 1584 4144 
Q 1328 4144 1222 4034 
Q 1116 3925 1116 3625 
L 1116 3319 
L 1763 3319 
L 1763 2881 
L 1116 2881 
L 1116 0 
L 556 0 
z
" transform="scale(0.015625)"/>
       <path id="ArialMT-6f" d="M 213 1659 
Q 213 2581 725 3025 
Q 1153 3394 1769 3394 
Q 2453 3394 2887 2945 
Q 3322 2497 3322 1706 
Q 3322 1066 3130 698 
Q 2938 331 2570 128 
Q 2203 -75 1769 -75 
Q 1072 -75 642 372 
Q 213 819 213 1659 
z
M 791 1659 
Q 791 1022 1069 705 
Q 1347 388 1769 388 
Q 2188 388 2466 706 
Q 2744 1025 2744 1678 
Q 2744 2294 2464 2611 
Q 2184 2928 1769 2928 
Q 1347 2928 1069 2612 
Q 791 2297 791 1659 
z
" transform="scale(0.015625)"/>
       <path id="ArialMT-6d" d="M 422 0 
L 422 3319 
L 925 3319 
L 925 2853 
Q 1081 3097 1340 3245 
Q 1600 3394 1931 3394 
Q 2300 3394 2536 3241 
Q 2772 3088 2869 2813 
Q 3263 3394 3894 3394 
Q 4388 3394 4653 3120 
Q 4919 2847 4919 2278 
L 4919 0 
L 4359 0 
L 4359 2091 
Q 4359 2428 4304 2576 
Q 4250 2725 4106 2815 
Q 3963 2906 3769 2906 
Q 3419 2906 3187 2673 
Q 2956 2441 2956 1928 
L 2956 0 
L 2394 0 
L 2394 2156 
Q 2394 2531 2256 2718 
Q 2119 2906 1806 2906 
Q 1569 2906 1367 2781 
Q 1166 2656 1075 2415 
Q 984 2175 984 1722 
L 984 0 
L 422 0 
z
" transform="scale(0.015625)"/>
       <path id="ArialMT-6e" d="M 422 0 
L 422 3319 
L 928 3319 
L 928 2847 
Q 1294 3394 1984 3394 
Q 2284 3394 2536 3286 
Q 2788 3178 2913 3003 
Q 3038 2828 3088 2588 
Q 3119 2431 3119 2041 
L 3119 0 
L 2556 0 
L 2556 2019 
Q 2556 2363 2490 2533 
Q 2425 2703 2258 2804 
Q 2091 2906 1866 2906 
Q 1506 2906 1245 2678 
Q 984 2450 984 1813 
L 984 0 
L 422 0 
z
" transform="scale(0.015625)"/>
      </defs>
      <use xlink:href="#ArialMT-4f"/>
      <use xlink:href="#ArialMT-76" transform="translate(77.783203 0)"/>
      <use xlink:href="#ArialMT-65" transform="translate(127.783203 0)"/>
      <use xlink:href="#ArialMT-72" transform="translate(183.398438 0)"/>
      <use xlink:href="#ArialMT-61" transform="translate(216.699219 0)"/>
      <use xlink:href="#ArialMT-6c" transform="translate(272.314453 0)"/>
      <use xlink:href="#ArialMT-6c" transform="translate(294.53125 0)"/>
      <use xlink:href="#ArialMT-20" transform="translate(316.748047 0)"/>
      <use xlink:href="#ArialMT-50" transform="translate(344.53125 0)"/>
      <use xlink:href="#ArialMT-65" transform="translate(411.230469 0)"/>
      <use xlink:href="#ArialMT-72" transform="translate(466.845703 0)"/>
      <use xlink:href="#ArialMT-66" transform="translate(500.146484 0)"/>
      <use xlink:href="#ArialMT-6f" transform="translate(527.929688 0)"/>
      <use xlink:href="#ArialMT-72" transform="translate(583.544922 0)"/>
      <use xlink:href="#ArialMT-6d" transform="translate(616.845703 0)"/>
      <use xlink:href="#ArialMT-61" transform="translate(700.146484 0)"/>
      <use xlink:href="#ArialMT-6e" transform="translate(755.761719 0)"/>
      <use xlink:href="#ArialMT-63" transform="translate(811.376953 0)"/>
      <use xlink:href="#ArialMT-65" transform="translate(861.376953 0)"/>
     </g>
    </g>
   </g>
   <g id="PathCollection_1">
    <path d="M 246.44768 45.713272 
C 248.540307 45.713272 250.547507 44.881862 252.027218 43.402151 
C 253.506929 41.922441 254.338338 39.915241 254.338338 37.822614 
C 254.338338 35.729987 253.506929 33.722787 252.027218 32.243076 
C 250.547507 30.763365 248.540307 29.931956 246.44768 29.931956 
C 244.355053 29.931956 242.347853 30.763365 240.868142 32.243076 
C 239.388432 33.722787 238.557022 35.729987 238.557022 37.822614 
C 238.557022 39.915241 239.388432 41.922441 240.868142 43.402151 
C 242.347853 44.881862 244.355053 45.713272 246.44768 45.713272 
z
" clip-path="url(#p5e3ca57a40)" style="fill: #f77189; fill-opacity: 0.8; stroke: #2f4f4f; stroke-opacity: 0.8"/>
    <path d="M 215.753904 59.764271 
C 217.784604 59.764271 219.732405 58.957466 221.168327 57.521544 
C 222.604248 56.085622 223.411054 54.137821 223.411054 52.107121 
C 223.411054 50.076421 222.604248 48.12862 221.168327 46.692699 
C 219.732405 45.256777 217.784604 44.449971 215.753904 44.449971 
C 213.723204 44.449971 211.775403 45.256777 210.339481 46.692699 
C 208.90356 48.12862 208.096754 50.076421 208.096754 52.107121 
C 208.096754 54.137821 208.90356 56.085622 210.339481 57.521544 
C 211.775403 58.957466 213.723204 59.764271 215.753904 59.764271 
z
" clip-path="url(#p5e3ca57a40)" style="fill: #f77189; fill-opacity: 0.8; stroke: #2f4f4f; stroke-opacity: 0.8"/>
    <path d="M 208.826845 63.434129 
C 210.844628 63.434129 212.78004 62.632455 214.206828 61.205667 
C 215.633616 59.778879 216.43529 57.843467 216.43529 55.825684 
C 216.43529 53.807901 215.633616 51.87249 214.206828 50.445702 
C 212.78004 49.018914 210.844628 48.21724 208.826845 48.21724 
C 206.809062 48.21724 204.873651 49.018914 203.446863 50.445702 
C 202.020074 51.87249 201.218401 53.807901 201.218401 55.825684 
C 201.218401 57.843467 202.020074 59.778879 203.446863 61.205667 
C 204.873651 62.632455 206.809062 63.434129 208.826845 63.434129 
z
" clip-path="url(#p5e3ca57a40)" style="fill: #f77189; fill-opacity: 0.8; stroke: #2f4f4f; stroke-opacity: 0.8"/>
    <path d="M 219.194476 92.13173 
C 221.083875 92.13173 222.896144 91.381064 224.232152 90.045056 
C 225.568159 88.709049 226.318826 86.89678 226.318826 85.00738 
C 226.318826 83.11798 225.568159 81.305711 224.232152 79.969704 
C 222.896144 78.633697 221.083875 77.88303 219.194476 77.88303 
C 217.305076 77.88303 215.492807 78.633697 214.156799 79.969704 
C 212.820792 81.305711 212.070126 83.11798 212.070126 85.00738 
C 212.070126 86.89678 212.820792 88.709049 214.156799 90.045056 
C 215.492807 91.381064 217.305076 92.13173 219.194476 92.13173 
z
" clip-path="url(#p5e3ca57a40)" style="fill: #f77189; fill-opacity: 0.8; stroke: #2f4f4f; stroke-opacity: 0.8"/>
    <path d="M 82.111265 107.769407 
C 83.904316 107.769407 85.624169 107.05702 86.892048 105.789142 
C 88.159926 104.521263 88.872313 102.80141 88.872313 101.008359 
C 88.872313 99.215308 88.159926 97.495454 86.892048 96.227575 
C 85.624169 94.959697 83.904316 94.24731 82.111265 94.24731 
C 80.318213 94.24731 78.59836 94.959697 77.330481 96.227575 
C 76.062603 97.495454 75.350216 99.215308 75.350216 101.008359 
C 75.350216 102.80141 76.062603 104.521263 77.330481 105.789142 
C 78.59836 107.05702 80.318213 107.769407 82.111265 107.769407 
z
" clip-path="url(#p5e3ca57a40)" style="fill: #f77189; fill-opacity: 0.8; stroke: #2f4f4f; stroke-opacity: 0.8"/>
   </g>
   <g id="PathCollection_2">
    <path d="M 284.072844 131.963571 
C 285.646492 131.963571 287.155899 131.338354 288.268636 130.225617 
C 289.381373 129.112879 290.00659 127.603472 290.00659 126.029824 
C 290.00659 124.456176 289.381373 122.946769 288.268636 121.834032 
C 287.155899 120.721295 285.646492 120.096078 284.072844 120.096078 
C 282.499196 120.096078 280.989788 120.721295 279.877051 121.834032 
C 278.764314 122.946769 278.139097 124.456176 278.139097 126.029824 
C 278.139097 127.603472 278.764314 129.112879 279.877051 130.225617 
C 280.989788 131.338354 282.499196 131.963571 284.072844 131.963571 
z
" clip-path="url(#p5e3ca57a40)" style="fill: #ae9d31; fill-opacity: 0.8; stroke: #2f4f4f; stroke-opacity: 0.8"/>
    <path d="M 275.592135 136.969291 
C 277.175616 136.969291 278.694454 136.340168 279.814144 135.220478 
C 280.933834 134.100788 281.562957 132.58195 281.562957 130.998469 
C 281.562957 129.414989 280.933834 127.89615 279.814144 126.776461 
C 278.694454 125.656771 277.175616 125.027647 275.592135 125.027647 
C 274.008655 125.027647 272.489816 125.656771 271.370127 126.776461 
C 270.250437 127.89615 269.621313 129.414989 269.621313 130.998469 
C 269.621313 132.58195 270.250437 134.100788 271.370127 135.220478 
C 272.489816 136.340168 274.008655 136.969291 275.592135 136.969291 
z
" clip-path="url(#p5e3ca57a40)" style="fill: #ae9d31; fill-opacity: 0.8; stroke: #2f4f4f; stroke-opacity: 0.8"/>
    <path d="M 253.972785 137.354223 
C 255.592797 137.354223 257.146677 136.710585 258.292199 135.565063 
C 259.437721 134.419541 260.081359 132.865661 260.081359 131.245649 
C 260.081359 129.625636 259.437721 128.071756 258.292199 126.926234 
C 257.146677 125.780712 255.592797 125.137074 253.972785 125.137074 
C 252.352772 125.137074 250.798892 125.780712 249.65337 126.926234 
C 248.507848 128.071756 247.86421 129.625636 247.86421 131.245649 
C 247.86421 132.865661 248.507848 134.419541 249.65337 135.565063 
C 250.798892 136.710585 252.352772 137.354223 253.972785 137.354223 
z
" clip-path="url(#p5e3ca57a40)" style="fill: #ae9d31; fill-opacity: 0.8; stroke: #2f4f4f; stroke-opacity: 0.8"/>
    <path d="M 262.775565 149.364348 
C 264.271618 149.364348 265.706597 148.769961 266.764466 147.712092 
C 267.822335 146.654223 268.416723 145.219243 268.416723 143.723191 
C 268.416723 142.227138 267.822335 140.792159 266.764466 139.73429 
C 265.706597 138.676421 264.271618 138.082033 262.775565 138.082033 
C 261.279513 138.082033 259.844533 138.676421 258.786664 139.73429 
C 257.728796 140.792159 257.134408 142.227138 257.134408 143.723191 
C 257.134408 145.219243 257.728796 146.654223 258.786664 147.712092 
C 259.844533 148.769961 261.279513 149.364348 262.775565 149.364348 
z
" clip-path="url(#p5e3ca57a40)" style="fill: #ae9d31; fill-opacity: 0.8; stroke: #2f4f4f; stroke-opacity: 0.8"/>
    <path d="M 293.252665 165.85824 
C 294.581352 165.85824 295.855798 165.330347 296.795322 164.390823 
C 297.734846 163.451299 298.262739 162.176852 298.262739 160.848165 
C 298.262739 159.519478 297.734846 158.245031 296.795322 157.305507 
C 295.855798 156.365984 294.581352 155.83809 293.252665 155.83809 
C 291.923977 155.83809 290.649531 156.365984 289.710007 157.305507 
C 288.770483 158.245031 288.24259 159.519478 288.24259 160.848165 
C 288.24259 162.176852 288.770483 163.451299 289.710007 164.390823 
C 290.649531 165.330347 291.923977 165.85824 293.252665 165.85824 
z
" clip-path="url(#p5e3ca57a40)" style="fill: #ae9d31; fill-opacity: 0.8; stroke: #2f4f4f; stroke-opacity: 0.8"/>
    <path d="M 278.882801 237.734799 
C 279.709274 237.734799 280.502007 237.406438 281.086412 236.822034 
C 281.670816 236.237629 281.999177 235.444896 281.999177 234.618423 
C 281.999177 233.791951 281.670816 232.999217 281.086412 232.414813 
C 280.502007 231.830409 279.709274 231.502048 278.882801 231.502048 
C 278.056329 231.502048 277.263595 231.830409 276.679191 232.414813 
C 276.094787 232.999217 275.766426 233.791951 275.766426 234.618423 
C 275.766426 235.444896 276.094787 236.237629 276.679191 236.822034 
C 277.263595 237.406438 278.056329 237.734799 278.882801 237.734799 
z
" clip-path="url(#p5e3ca57a40)" style="fill: #ae9d31; fill-opacity: 0.8; stroke: #2f4f4f; stroke-opacity: 0.8"/>
   </g>
   <g id="PathCollection_3">
    <path d="M 334.372626 133.535032 
C 336.027139 133.535032 337.61411 132.877687 338.784027 131.70777 
C 339.953944 130.537852 340.611289 128.950882 340.611289 127.296369 
C 340.611289 125.641856 339.953944 124.054885 338.784027 122.884968 
C 337.61411 121.715051 336.027139 121.057706 334.372626 121.057706 
C 332.718114 121.057706 331.131143 121.715051 329.961226 122.884968 
C 328.791308 124.054885 328.133964 125.641856 328.133964 127.296369 
C 328.133964 128.950882 328.791308 130.537852 329.961226 131.70777 
C 331.131143 132.877687 332.718114 133.535032 334.372626 133.535032 
z
" clip-path="url(#p5e3ca57a40)" style="fill: #33b07a; fill-opacity: 0.8; stroke: #2f4f4f; stroke-opacity: 0.8"/>
    <path d="M 363.364348 155.0491 
C 364.944068 155.0491 366.459299 154.42147 367.576329 153.30444 
C 368.69336 152.187409 369.320989 150.672178 369.320989 149.092458 
C 369.320989 147.512739 368.69336 145.997507 367.576329 144.880477 
C 366.459299 143.763446 364.944068 143.135817 363.364348 143.135817 
C 361.784628 143.135817 360.269397 143.763446 359.152366 144.880477 
C 358.035336 145.997507 357.407706 147.512739 357.407706 149.092458 
C 357.407706 150.672178 358.035336 152.187409 359.152366 153.30444 
C 360.269397 154.42147 361.784628 155.0491 363.364348 155.0491 
z
" clip-path="url(#p5e3ca57a40)" style="fill: #33b07a; fill-opacity: 0.8; stroke: #2f4f4f; stroke-opacity: 0.8"/>
    <path d="M 267.969229 177.148976 
C 269.43587 177.148976 270.842638 176.566273 271.87971 175.529202 
C 272.916782 174.49213 273.499484 173.085362 273.499484 171.618721 
C 273.499484 170.15208 272.916782 168.745311 271.87971 167.70824 
C 270.842638 166.671168 269.43587 166.088465 267.969229 166.088465 
C 266.502588 166.088465 265.09582 166.671168 264.058748 167.70824 
C 263.021676 168.745311 262.438974 170.15208 262.438974 171.618721 
C 262.438974 173.085362 263.021676 174.49213 264.058748 175.529202 
C 265.09582 176.566273 266.502588 177.148976 267.969229 177.148976 
z
" clip-path="url(#p5e3ca57a40)" style="fill: #33b07a; fill-opacity: 0.8; stroke: #2f4f4f; stroke-opacity: 0.8"/>
    <path d="M 329.29154 191.483619 
C 330.796962 191.483619 332.240927 190.885509 333.305421 189.821015 
C 334.369915 188.756522 334.968025 187.312556 334.968025 185.807135 
C 334.968025 184.301713 334.369915 182.857748 333.305421 181.793254 
C 332.240927 180.728761 330.796962 180.13065 329.29154 180.13065 
C 327.786119 180.13065 326.342153 180.728761 325.27766 181.793254 
C 324.213166 182.857748 323.615056 184.301713 323.615056 185.807135 
C 323.615056 187.312556 324.213166 188.756522 325.27766 189.821015 
C 326.342153 190.885509 327.786119 191.483619 329.29154 191.483619 
z
" clip-path="url(#p5e3ca57a40)" style="fill: #33b07a; fill-opacity: 0.8; stroke: #2f4f4f; stroke-opacity: 0.8"/>
   </g>
   <g id="PathCollection_4">
    <path d="M 274.734624 182.723879 
C 276.00847 182.723879 277.230314 182.217774 278.131059 181.317029 
C 279.031804 180.416284 279.537908 179.19444 279.537908 177.920594 
C 279.537908 176.646748 279.031804 175.424904 278.131059 174.524159 
C 277.230314 173.623414 276.00847 173.11731 274.734624 173.11731 
C 273.460778 173.11731 272.238934 173.623414 271.338189 174.524159 
C 270.437444 175.424904 269.93134 176.646748 269.93134 177.920594 
C 269.93134 179.19444 270.437444 180.416284 271.338189 181.317029 
C 272.238934 182.217774 273.460778 182.723879 274.734624 182.723879 
z
" clip-path="url(#p5e3ca57a40)" style="fill: #38a9c5; fill-opacity: 0.8; stroke: #2f4f4f; stroke-opacity: 0.8"/>
    <path d="M 335.260811 241.437048 
C 336.328226 241.437048 337.352065 241.01296 338.106841 240.258184 
C 338.861617 239.503408 339.285705 238.479568 339.285705 237.412154 
C 339.285705 236.34474 338.861617 235.3209 338.106841 234.566124 
C 337.352065 233.811348 336.328226 233.38726 335.260811 233.38726 
C 334.193397 233.38726 333.169557 233.811348 332.414781 234.566124 
C 331.660005 235.3209 331.235917 236.34474 331.235917 237.412154 
C 331.235917 238.479568 331.660005 239.503408 332.414781 240.258184 
C 333.169557 241.01296 334.193397 241.437048 335.260811 241.437048 
z
" clip-path="url(#p5e3ca57a40)" style="fill: #38a9c5; fill-opacity: 0.8; stroke: #2f4f4f; stroke-opacity: 0.8"/>
    <path d="M 341.959761 289.500785 
C 342.32692 289.500785 342.679091 289.354911 342.938712 289.09529 
C 343.198333 288.835669 343.344207 288.483498 343.344207 288.116338 
C 343.344207 287.749179 343.198333 287.397008 342.938712 287.137387 
C 342.679091 286.877766 342.32692 286.731892 341.959761 286.731892 
C 341.592602 286.731892 341.240431 286.877766 340.98081 287.137387 
C 340.721189 287.397008 340.575315 287.749179 340.575315 288.116338 
C 340.575315 288.483498 340.721189 288.835669 340.98081 289.09529 
C 341.240431 289.354911 341.592602 289.500785 341.959761 289.500785 
z
" clip-path="url(#p5e3ca57a40)" style="fill: #38a9c5; fill-opacity: 0.8; stroke: #2f4f4f; stroke-opacity: 0.8"/>
   </g>
   <g id="PathCollection_5">
    <path d="M 247.880668 275.797338 
C 248.482409 275.797338 249.059585 275.558264 249.485079 275.132769 
C 249.910574 274.707274 250.149648 274.130098 250.149648 273.528358 
C 250.149648 272.926617 249.910574 272.349442 249.485079 271.923947 
C 249.059585 271.498452 248.482409 271.259378 247.880668 271.259378 
C 247.278928 271.259378 246.701752 271.498452 246.276257 271.923947 
C 245.850763 272.349442 245.611689 272.926617 245.611689 273.528358 
C 245.611689 274.130098 245.850763 274.707274 246.276257 275.132769 
C 246.701752 275.558264 247.278928 275.797338 247.880668 275.797338 
z
" clip-path="url(#p5e3ca57a40)" style="fill: #cc7af4; fill-opacity: 0.8; stroke: #2f4f4f; stroke-opacity: 0.8"/>
    <path d="M 221.053859 298.719867 
C 221.476853 298.719867 221.882579 298.55181 222.18168 298.252708 
C 222.480782 297.953606 222.648839 297.54788 222.648839 297.124886 
C 222.648839 296.701893 222.480782 296.296167 222.18168 295.997065 
C 221.882579 295.697963 221.476853 295.529906 221.053859 295.529906 
C 220.630865 295.529906 220.225139 295.697963 219.926037 295.997065 
C 219.626936 296.296167 219.458878 296.701893 219.458878 297.124886 
C 219.458878 297.54788 219.626936 297.953606 219.926037 298.252708 
C 220.225139 298.55181 220.630865 298.719867 221.053859 298.719867 
z
" clip-path="url(#p5e3ca57a40)" style="fill: #cc7af4; fill-opacity: 0.8; stroke: #2f4f4f; stroke-opacity: 0.8"/>
   </g>
   <g id="patch_3">
    <path d="M 44.183438 310.09 
L 44.183438 24.8575 
" style="fill: none; stroke: #cccccc; stroke-linejoin: miter; stroke-linecap: square"/>
   </g>
   <g id="patch_4">
    <path d="M 408.431438 310.09 
L 408.431438 24.8575 
" style="fill: none; stroke: #cccccc; stroke-linejoin: miter; stroke-linecap: square"/>
   </g>
   <g id="patch_5">
    <path d="M 44.183437 310.09 
L 408.431438 310.09 
" style="fill: none; stroke: #cccccc; stroke-linejoin: miter; stroke-linecap: square"/>
   </g>
   <g id="patch_6">
    <path d="M 44.183437 24.8575 
L 408.431438 24.8575 
" style="fill: none; stroke: #cccccc; stroke-linejoin: miter; stroke-linecap: square"/>
   </g>
   <g id="text_17">
    <!-- Overall Performance vs Scalability/Stability -->
    <g style="fill: #262626" transform="translate(74.258687 18.8575) scale(0.16 -0.16)">
     <defs>
      <path id="ArialMT-73" d="M 197 991 
L 753 1078 
Q 800 744 1014 566 
Q 1228 388 1613 388 
Q 2000 388 2187 545 
Q 2375 703 2375 916 
Q 2375 1106 2209 1216 
Q 2094 1291 1634 1406 
Q 1016 1563 777 1677 
Q 538 1791 414 1992 
Q 291 2194 291 2438 
Q 291 2659 392 2848 
Q 494 3038 669 3163 
Q 800 3259 1026 3326 
Q 1253 3394 1513 3394 
Q 1903 3394 2198 3281 
Q 2494 3169 2634 2976 
Q 2775 2784 2828 2463 
L 2278 2388 
Q 2241 2644 2061 2787 
Q 1881 2931 1553 2931 
Q 1166 2931 1000 2803 
Q 834 2675 834 2503 
Q 834 2394 903 2306 
Q 972 2216 1119 2156 
Q 1203 2125 1616 2013 
Q 2213 1853 2448 1751 
Q 2684 1650 2818 1456 
Q 2953 1263 2953 975 
Q 2953 694 2789 445 
Q 2625 197 2315 61 
Q 2006 -75 1616 -75 
Q 969 -75 630 194 
Q 291 463 197 991 
z
" transform="scale(0.015625)"/>
     </defs>
     <use xlink:href="#ArialMT-4f"/>
     <use xlink:href="#ArialMT-76" transform="translate(77.783203 0)"/>
     <use xlink:href="#ArialMT-65" transform="translate(127.783203 0)"/>
     <use xlink:href="#ArialMT-72" transform="translate(183.398438 0)"/>
     <use xlink:href="#ArialMT-61" transform="translate(216.699219 0)"/>
     <use xlink:href="#ArialMT-6c" transform="translate(272.314453 0)"/>
     <use xlink:href="#ArialMT-6c" transform="translate(294.53125 0)"/>
     <use xlink:href="#ArialMT-20" transform="translate(316.748047 0)"/>
     <use xlink:href="#ArialMT-50" transform="translate(344.53125 0)"/>
     <use xlink:href="#ArialMT-65" transform="translate(411.230469 0)"/>
     <use xlink:href="#ArialMT-72" transform="translate(466.845703 0)"/>
     <use xlink:href="#ArialMT-66" transform="translate(500.146484 0)"/>
     <use xlink:href="#ArialMT-6f" transform="translate(527.929688 0)"/>
     <use xlink:href="#ArialMT-72" transform="translate(583.544922 0)"/>
     <use xlink:href="#ArialMT-6d" transform="translate(616.845703 0)"/>
     <use xlink:href="#ArialMT-61" transform="translate(700.146484 0)"/>
     <use xlink:href="#ArialMT-6e" transform="translate(755.761719 0)"/>
     <use xlink:href="#ArialMT-63" transform="translate(811.376953 0)"/>
     <use xlink:href="#ArialMT-65" transform="translate(861.376953 0)"/>
     <use xlink:href="#ArialMT-20" transform="translate(916.992188 0)"/>
     <use xlink:href="#ArialMT-76" transform="translate(944.775391 0)"/>
     <use xlink:href="#ArialMT-73" transform="translate(994.775391 0)"/>
     <use xlink:href="#ArialMT-20" transform="translate(1044.775391 0)"/>
     <use xlink:href="#ArialMT-53" transform="translate(1072.558594 0)"/>
     <use xlink:href="#ArialMT-63" transform="translate(1139.257812 0)"/>
     <use xlink:href="#ArialMT-61" transform="translate(1189.257812 0)"/>
     <use xlink:href="#ArialMT-6c" transform="translate(1244.873047 0)"/>
     <use xlink:href="#ArialMT-61" transform="translate(1267.089844 0)"/>
     <use xlink:href="#ArialMT-62" transform="translate(1322.705078 0)"/>
     <use xlink:href="#ArialMT-69" transform="translate(1378.320312 0)"/>
     <use xlink:href="#ArialMT-6c" transform="translate(1400.537109 0)"/>
     <use xlink:href="#ArialMT-69" transform="translate(1422.753906 0)"/>
     <use xlink:href="#ArialMT-74" transform="translate(1444.970703 0)"/>
     <use xlink:href="#ArialMT-79" transform="translate(1472.753906 0)"/>
     <use xlink:href="#ArialMT-2f" transform="translate(1522.753906 0)"/>
     <use xlink:href="#ArialMT-53" transform="translate(1550.537109 0)"/>
     <use xlink:href="#ArialMT-74" transform="translate(1617.236328 0)"/>
     <use xlink:href="#ArialMT-61" transform="translate(1645.019531 0)"/>
     <use xlink:href="#ArialMT-62" transform="translate(1700.634766 0)"/>
     <use xlink:href="#ArialMT-69" transform="translate(1756.25 0)"/>
     <use xlink:href="#ArialMT-6c" transform="translate(1778.466797 0)"/>
     <use xlink:href="#ArialMT-69" transform="translate(1800.683594 0)"/>
     <use xlink:href="#ArialMT-74" transform="translate(1822.900391 0)"/>
     <use xlink:href="#ArialMT-79" transform="translate(1850.683594 0)"/>
    </g>
   </g>
   <g id="legend_1">
    <g id="line2d_15">
     <path d="M 420.516398 32.598625 
L 432.516398 32.598625 
L 444.516398 32.598625 
" style="fill: none; stroke: #ffffff; stroke-width: 1.5; stroke-linecap: round"/>
     <defs>
      <path id="m94087a739a" d="M 0 4 
C 1.060812 4 2.078319 3.578535 2.828427 2.828427 
C 3.578535 2.078319 4 1.060812 4 0 
C 4 -1.060812 3.578535 -2.078319 2.828427 -2.828427 
C 2.078319 -3.578535 1.060812 -4 0 -4 
C -1.060812 -4 -2.078319 -3.578535 -2.828427 -2.828427 
C -3.578535 -2.078319 -4 -1.060812 -4 0 
C -4 1.060812 -3.578535 2.078319 -2.828427 2.828427 
C -2.078319 3.578535 -1.060812 4 0 4 
z
" style="stroke: #2f4f4f"/>
     </defs>
     <g>
      <use xlink:href="#m94087a739a" x="432.516398" y="32.598625" style="fill: #f77189; stroke: #2f4f4f"/>
     </g>
    </g>
    <g id="text_18">
     <!-- Supervised -->
     <g style="fill: #262626" transform="translate(454.116398 36.798625) scale(0.12 -0.12)">
      <defs>
       <path id="ArialMT-75" d="M 2597 0 
L 2597 488 
Q 2209 -75 1544 -75 
Q 1250 -75 995 37 
Q 741 150 617 320 
Q 494 491 444 738 
Q 409 903 409 1263 
L 409 3319 
L 972 3319 
L 972 1478 
Q 972 1038 1006 884 
Q 1059 663 1231 536 
Q 1403 409 1656 409 
Q 1909 409 2131 539 
Q 2353 669 2445 892 
Q 2538 1116 2538 1541 
L 2538 3319 
L 3100 3319 
L 3100 0 
L 2597 0 
z
" transform="scale(0.015625)"/>
       <path id="ArialMT-70" d="M 422 -1272 
L 422 3319 
L 934 3319 
L 934 2888 
Q 1116 3141 1344 3267 
Q 1572 3394 1897 3394 
Q 2322 3394 2647 3175 
Q 2972 2956 3137 2557 
Q 3303 2159 3303 1684 
Q 3303 1175 3120 767 
Q 2938 359 2589 142 
Q 2241 -75 1856 -75 
Q 1575 -75 1351 44 
Q 1128 163 984 344 
L 984 -1272 
L 422 -1272 
z
M 931 1641 
Q 931 1000 1190 694 
Q 1450 388 1819 388 
Q 2194 388 2461 705 
Q 2728 1022 2728 1688 
Q 2728 2322 2467 2637 
Q 2206 2953 1844 2953 
Q 1484 2953 1207 2617 
Q 931 2281 931 1641 
z
" transform="scale(0.015625)"/>
       <path id="ArialMT-64" d="M 2575 0 
L 2575 419 
Q 2259 -75 1647 -75 
Q 1250 -75 917 144 
Q 584 363 401 755 
Q 219 1147 219 1656 
Q 219 2153 384 2558 
Q 550 2963 881 3178 
Q 1213 3394 1622 3394 
Q 1922 3394 2156 3267 
Q 2391 3141 2538 2938 
L 2538 4581 
L 3097 4581 
L 3097 0 
L 2575 0 
z
M 797 1656 
Q 797 1019 1065 703 
Q 1334 388 1700 388 
Q 2069 388 2326 689 
Q 2584 991 2584 1609 
Q 2584 2291 2321 2609 
Q 2059 2928 1675 2928 
Q 1300 2928 1048 2622 
Q 797 2316 797 1656 
z
" transform="scale(0.015625)"/>
      </defs>
      <use xlink:href="#ArialMT-53"/>
      <use xlink:href="#ArialMT-75" transform="translate(66.699219 0)"/>
      <use xlink:href="#ArialMT-70" transform="translate(122.314453 0)"/>
      <use xlink:href="#ArialMT-65" transform="translate(177.929688 0)"/>
      <use xlink:href="#ArialMT-72" transform="translate(233.544922 0)"/>
      <use xlink:href="#ArialMT-76" transform="translate(266.845703 0)"/>
      <use xlink:href="#ArialMT-69" transform="translate(316.845703 0)"/>
      <use xlink:href="#ArialMT-73" transform="translate(339.0625 0)"/>
      <use xlink:href="#ArialMT-65" transform="translate(389.0625 0)"/>
      <use xlink:href="#ArialMT-64" transform="translate(444.677734 0)"/>
     </g>
    </g>
    <g id="line2d_16">
     <path d="M 420.516398 49.573 
L 432.516398 49.573 
L 444.516398 49.573 
" style="fill: none; stroke: #ffffff; stroke-width: 1.5; stroke-linecap: round"/>
     <defs>
      <path id="mf5956e7ef0" d="M 0 4 
C 1.060812 4 2.078319 3.578535 2.828427 2.828427 
C 3.578535 2.078319 4 1.060812 4 0 
C 4 -1.060812 3.578535 -2.078319 2.828427 -2.828427 
C 2.078319 -3.578535 1.060812 -4 0 -4 
C -1.060812 -4 -2.078319 -3.578535 -2.828427 -2.828427 
C -3.578535 -2.078319 -4 -1.060812 -4 0 
C -4 1.060812 -3.578535 2.078319 -2.828427 2.828427 
C -2.078319 3.578535 -1.060812 4 0 4 
z
" style="stroke: #2f4f4f"/>
     </defs>
     <g>
      <use xlink:href="#mf5956e7ef0" x="432.516398" y="49.573" style="fill: #ae9d31; stroke: #2f4f4f"/>
     </g>
    </g>
    <g id="text_19">
     <!-- Unsupervised -->
     <g style="fill: #262626" transform="translate(454.116398 53.773) scale(0.12 -0.12)">
      <defs>
       <path id="ArialMT-55" d="M 3500 4581 
L 4106 4581 
L 4106 1934 
Q 4106 1244 3950 837 
Q 3794 431 3386 176 
Q 2978 -78 2316 -78 
Q 1672 -78 1262 144 
Q 853 366 678 786 
Q 503 1206 503 1934 
L 503 4581 
L 1109 4581 
L 1109 1938 
Q 1109 1341 1220 1058 
Q 1331 775 1601 622 
Q 1872 469 2263 469 
Q 2931 469 3215 772 
Q 3500 1075 3500 1938 
L 3500 4581 
z
" transform="scale(0.015625)"/>
      </defs>
      <use xlink:href="#ArialMT-55"/>
      <use xlink:href="#ArialMT-6e" transform="translate(72.216797 0)"/>
      <use xlink:href="#ArialMT-73" transform="translate(127.832031 0)"/>
      <use xlink:href="#ArialMT-75" transform="translate(177.832031 0)"/>
      <use xlink:href="#ArialMT-70" transform="translate(233.447266 0)"/>
      <use xlink:href="#ArialMT-65" transform="translate(289.0625 0)"/>
      <use xlink:href="#ArialMT-72" transform="translate(344.677734 0)"/>
      <use xlink:href="#ArialMT-76" transform="translate(377.978516 0)"/>
      <use xlink:href="#ArialMT-69" transform="translate(427.978516 0)"/>
      <use xlink:href="#ArialMT-73" transform="translate(450.195312 0)"/>
      <use xlink:href="#ArialMT-65" transform="translate(500.195312 0)"/>
      <use xlink:href="#ArialMT-64" transform="translate(555.810547 0)"/>
     </g>
    </g>
    <g id="line2d_17">
     <path d="M 420.516398 66.547375 
L 432.516398 66.547375 
L 444.516398 66.547375 
" style="fill: none; stroke: #ffffff; stroke-width: 1.5; stroke-linecap: round"/>
     <defs>
      <path id="mea012d2e1e" d="M 0 4 
C 1.060812 4 2.078319 3.578535 2.828427 2.828427 
C 3.578535 2.078319 4 1.060812 4 0 
C 4 -1.060812 3.578535 -2.078319 2.828427 -2.828427 
C 2.078319 -3.578535 1.060812 -4 0 -4 
C -1.060812 -4 -2.078319 -3.578535 -2.828427 -2.828427 
C -3.578535 -2.078319 -4 -1.060812 -4 0 
C -4 1.060812 -3.578535 2.078319 -2.828427 2.828427 
C -2.078319 3.578535 -1.060812 4 0 4 
z
" style="stroke: #2f4f4f"/>
     </defs>
     <g>
      <use xlink:href="#mea012d2e1e" x="432.516398" y="66.547375" style="fill: #33b07a; stroke: #2f4f4f"/>
     </g>
    </g>
    <g id="text_20">
     <!-- Prior-Knowledge-driven -->
     <g style="fill: #262626" transform="translate(454.116398 70.747375) scale(0.12 -0.12)">
      <defs>
       <path id="ArialMT-2d" d="M 203 1375 
L 203 1941 
L 1931 1941 
L 1931 1375 
L 203 1375 
z
" transform="scale(0.015625)"/>
       <path id="ArialMT-4b" d="M 469 0 
L 469 4581 
L 1075 4581 
L 1075 2309 
L 3350 4581 
L 4172 4581 
L 2250 2725 
L 4256 0 
L 3456 0 
L 1825 2319 
L 1075 1588 
L 1075 0 
L 469 0 
z
" transform="scale(0.015625)"/>
       <path id="ArialMT-77" d="M 1034 0 
L 19 3319 
L 600 3319 
L 1128 1403 
L 1325 691 
Q 1338 744 1497 1375 
L 2025 3319 
L 2603 3319 
L 3100 1394 
L 3266 759 
L 3456 1400 
L 4025 3319 
L 4572 3319 
L 3534 0 
L 2950 0 
L 2422 1988 
L 2294 2553 
L 1622 0 
L 1034 0 
z
" transform="scale(0.015625)"/>
       <path id="ArialMT-67" d="M 319 -275 
L 866 -356 
Q 900 -609 1056 -725 
Q 1266 -881 1628 -881 
Q 2019 -881 2231 -725 
Q 2444 -569 2519 -288 
Q 2563 -116 2559 434 
Q 2191 0 1641 0 
Q 956 0 581 494 
Q 206 988 206 1678 
Q 206 2153 378 2554 
Q 550 2956 876 3175 
Q 1203 3394 1644 3394 
Q 2231 3394 2613 2919 
L 2613 3319 
L 3131 3319 
L 3131 450 
Q 3131 -325 2973 -648 
Q 2816 -972 2473 -1159 
Q 2131 -1347 1631 -1347 
Q 1038 -1347 672 -1080 
Q 306 -813 319 -275 
z
M 784 1719 
Q 784 1066 1043 766 
Q 1303 466 1694 466 
Q 2081 466 2343 764 
Q 2606 1063 2606 1700 
Q 2606 2309 2336 2618 
Q 2066 2928 1684 2928 
Q 1309 2928 1046 2623 
Q 784 2319 784 1719 
z
" transform="scale(0.015625)"/>
      </defs>
      <use xlink:href="#ArialMT-50"/>
      <use xlink:href="#ArialMT-72" transform="translate(66.699219 0)"/>
      <use xlink:href="#ArialMT-69" transform="translate(100 0)"/>
      <use xlink:href="#ArialMT-6f" transform="translate(122.216797 0)"/>
      <use xlink:href="#ArialMT-72" transform="translate(177.832031 0)"/>
      <use xlink:href="#ArialMT-2d" transform="translate(211.132812 0)"/>
      <use xlink:href="#ArialMT-4b" transform="translate(244.433594 0)"/>
      <use xlink:href="#ArialMT-6e" transform="translate(311.132812 0)"/>
      <use xlink:href="#ArialMT-6f" transform="translate(366.748047 0)"/>
      <use xlink:href="#ArialMT-77" transform="translate(422.363281 0)"/>
      <use xlink:href="#ArialMT-6c" transform="translate(494.580078 0)"/>
      <use xlink:href="#ArialMT-65" transform="translate(516.796875 0)"/>
      <use xlink:href="#ArialMT-64" transform="translate(572.412109 0)"/>
      <use xlink:href="#ArialMT-67" transform="translate(628.027344 0)"/>
      <use xlink:href="#ArialMT-65" transform="translate(683.642578 0)"/>
      <use xlink:href="#ArialMT-2d" transform="translate(739.257812 0)"/>
      <use xlink:href="#ArialMT-64" transform="translate(772.558594 0)"/>
      <use xlink:href="#ArialMT-72" transform="translate(828.173828 0)"/>
      <use xlink:href="#ArialMT-69" transform="translate(861.474609 0)"/>
      <use xlink:href="#ArialMT-76" transform="translate(883.691406 0)"/>
      <use xlink:href="#ArialMT-65" transform="translate(933.691406 0)"/>
      <use xlink:href="#ArialMT-6e" transform="translate(989.306641 0)"/>
     </g>
    </g>
    <g id="line2d_18">
     <path d="M 420.516398 83.662375 
L 432.516398 83.662375 
L 444.516398 83.662375 
" style="fill: none; stroke: #ffffff; stroke-width: 1.5; stroke-linecap: round"/>
     <defs>
      <path id="m628dac710a" d="M 0 4 
C 1.060812 4 2.078319 3.578535 2.828427 2.828427 
C 3.578535 2.078319 4 1.060812 4 0 
C 4 -1.060812 3.578535 -2.078319 2.828427 -2.828427 
C 2.078319 -3.578535 1.060812 -4 0 -4 
C -1.060812 -4 -2.078319 -3.578535 -2.828427 -2.828427 
C -3.578535 -2.078319 -4 -1.060812 -4 0 
C -4 1.060812 -3.578535 2.078319 -2.828427 2.828427 
C -2.078319 3.578535 -1.060812 4 0 4 
z
" style="stroke: #2f4f4f"/>
     </defs>
     <g>
      <use xlink:href="#m628dac710a" x="432.516398" y="83.662375" style="fill: #38a9c5; stroke: #2f4f4f"/>
     </g>
    </g>
    <g id="text_21">
     <!-- Pre-trained Models -->
     <g style="fill: #262626" transform="translate(454.116398 87.862375) scale(0.12 -0.12)">
      <defs>
       <path id="ArialMT-4d" d="M 475 0 
L 475 4581 
L 1388 4581 
L 2472 1338 
Q 2622 884 2691 659 
Q 2769 909 2934 1394 
L 4031 4581 
L 4847 4581 
L 4847 0 
L 4263 0 
L 4263 3834 
L 2931 0 
L 2384 0 
L 1059 3900 
L 1059 0 
L 475 0 
z
" transform="scale(0.015625)"/>
      </defs>
      <use xlink:href="#ArialMT-50"/>
      <use xlink:href="#ArialMT-72" transform="translate(66.699219 0)"/>
      <use xlink:href="#ArialMT-65" transform="translate(100 0)"/>
      <use xlink:href="#ArialMT-2d" transform="translate(155.615234 0)"/>
      <use xlink:href="#ArialMT-74" transform="translate(188.916016 0)"/>
      <use xlink:href="#ArialMT-72" transform="translate(216.699219 0)"/>
      <use xlink:href="#ArialMT-61" transform="translate(250 0)"/>
      <use xlink:href="#ArialMT-69" transform="translate(305.615234 0)"/>
      <use xlink:href="#ArialMT-6e" transform="translate(327.832031 0)"/>
      <use xlink:href="#ArialMT-65" transform="translate(383.447266 0)"/>
      <use xlink:href="#ArialMT-64" transform="translate(439.0625 0)"/>
      <use xlink:href="#ArialMT-20" transform="translate(494.677734 0)"/>
      <use xlink:href="#ArialMT-4d" transform="translate(522.460938 0)"/>
      <use xlink:href="#ArialMT-6f" transform="translate(605.761719 0)"/>
      <use xlink:href="#ArialMT-64" transform="translate(661.376953 0)"/>
      <use xlink:href="#ArialMT-65" transform="translate(716.992188 0)"/>
      <use xlink:href="#ArialMT-6c" transform="translate(772.607422 0)"/>
      <use xlink:href="#ArialMT-73" transform="translate(794.824219 0)"/>
     </g>
    </g>
    <g id="line2d_19">
     <path d="M 420.516398 100.63675 
L 432.516398 100.63675 
L 444.516398 100.63675 
" style="fill: none; stroke: #ffffff; stroke-width: 1.5; stroke-linecap: round"/>
     <defs>
      <path id="m8842704a83" d="M 0 4 
C 1.060812 4 2.078319 3.578535 2.828427 2.828427 
C 3.578535 2.078319 4 1.060812 4 0 
C 4 -1.060812 3.578535 -2.078319 2.828427 -2.828427 
C 2.078319 -3.578535 1.060812 -4 0 -4 
C -1.060812 -4 -2.078319 -3.578535 -2.828427 -2.828427 
C -3.578535 -2.078319 -4 -1.060812 -4 0 
C -4 1.060812 -3.578535 2.078319 -2.828427 2.828427 
C -2.078319 3.578535 -1.060812 4 0 4 
z
" style="stroke: #2f4f4f"/>
     </defs>
     <g>
      <use xlink:href="#m8842704a83" x="432.516398" y="100.63675" style="fill: #cc7af4; stroke: #2f4f4f"/>
     </g>
    </g>
    <g id="text_22">
     <!-- Baselines -->
     <g style="fill: #262626" transform="translate(454.116398 104.83675) scale(0.12 -0.12)">
      <defs>
       <path id="ArialMT-42" d="M 469 0 
L 469 4581 
L 2188 4581 
Q 2713 4581 3030 4442 
Q 3347 4303 3526 4014 
Q 3706 3725 3706 3409 
Q 3706 3116 3547 2856 
Q 3388 2597 3066 2438 
Q 3481 2316 3704 2022 
Q 3928 1728 3928 1328 
Q 3928 1006 3792 729 
Q 3656 453 3456 303 
Q 3256 153 2954 76 
Q 2653 0 2216 0 
L 469 0 
z
M 1075 2656 
L 2066 2656 
Q 2469 2656 2644 2709 
Q 2875 2778 2992 2937 
Q 3109 3097 3109 3338 
Q 3109 3566 3000 3739 
Q 2891 3913 2687 3977 
Q 2484 4041 1991 4041 
L 1075 4041 
L 1075 2656 
z
M 1075 541 
L 2216 541 
Q 2509 541 2628 563 
Q 2838 600 2978 687 
Q 3119 775 3209 942 
Q 3300 1109 3300 1328 
Q 3300 1584 3169 1773 
Q 3038 1963 2805 2039 
Q 2572 2116 2134 2116 
L 1075 2116 
L 1075 541 
z
" transform="scale(0.015625)"/>
      </defs>
      <use xlink:href="#ArialMT-42"/>
      <use xlink:href="#ArialMT-61" transform="translate(66.699219 0)"/>
      <use xlink:href="#ArialMT-73" transform="translate(122.314453 0)"/>
      <use xlink:href="#ArialMT-65" transform="translate(172.314453 0)"/>
      <use xlink:href="#ArialMT-6c" transform="translate(227.929688 0)"/>
      <use xlink:href="#ArialMT-69" transform="translate(250.146484 0)"/>
      <use xlink:href="#ArialMT-6e" transform="translate(272.363281 0)"/>
      <use xlink:href="#ArialMT-65" transform="translate(327.978516 0)"/>
      <use xlink:href="#ArialMT-73" transform="translate(383.59375 0)"/>
     </g>
    </g>
   </g>
   <g id="legend_2">
    <g id="text_23">
     <!-- Macro F1 -->
     <g style="fill: #262626" transform="translate(420.516398 145.631406) scale(0.14 -0.14)">
      <defs>
       <path id="ArialMT-46" d="M 525 0 
L 525 4581 
L 3616 4581 
L 3616 4041 
L 1131 4041 
L 1131 2622 
L 3281 2622 
L 3281 2081 
L 1131 2081 
L 1131 0 
L 525 0 
z
" transform="scale(0.015625)"/>
      </defs>
      <use xlink:href="#ArialMT-4d"/>
      <use xlink:href="#ArialMT-61" transform="translate(83.300781 0)"/>
      <use xlink:href="#ArialMT-63" transform="translate(138.916016 0)"/>
      <use xlink:href="#ArialMT-72" transform="translate(188.916016 0)"/>
      <use xlink:href="#ArialMT-6f" transform="translate(222.216797 0)"/>
      <use xlink:href="#ArialMT-20" transform="translate(277.832031 0)"/>
      <use xlink:href="#ArialMT-46" transform="translate(305.615234 0)"/>
      <use xlink:href="#ArialMT-31" transform="translate(366.699219 0)"/>
     </g>
    </g>
    <g id="line2d_20">
     <path d="M 424.936085 158.803281 
L 436.936085 158.803281 
L 448.936085 158.803281 
" style="fill: none; stroke: #ffffff; stroke-width: 1.5; stroke-linecap: round"/>
     <defs>
      <path id="m7db0ecdb4e" d="M 0 2 
C 0.530406 2 1.03916 1.789267 1.414214 1.414214 
C 1.789267 1.03916 2 0.530406 2 0 
C 2 -0.530406 1.789267 -1.03916 1.414214 -1.414214 
C 1.03916 -1.789267 0.530406 -2 0 -2 
C -0.530406 -2 -1.03916 -1.789267 -1.414214 -1.414214 
C -1.789267 -1.03916 -2 -0.530406 -2 0 
C -2 0.530406 -1.789267 1.03916 -1.414214 1.414214 
C -1.03916 1.789267 -0.530406 2 0 2 
z
" style="stroke: #2f4f4f"/>
     </defs>
     <g>
      <use xlink:href="#m7db0ecdb4e" x="436.936085" y="158.803281" style="fill: #d3d3d3; stroke: #2f4f4f"/>
     </g>
    </g>
    <g id="text_24">
     <!-- 0.0 -->
     <g style="fill: #262626" transform="translate(458.536085 163.003281) scale(0.12 -0.12)">
      <use xlink:href="#ArialMT-30"/>
      <use xlink:href="#ArialMT-2e" transform="translate(55.615234 0)"/>
      <use xlink:href="#ArialMT-30" transform="translate(83.398438 0)"/>
     </g>
    </g>
    <g id="line2d_21">
     <path d="M 424.936085 175.777656 
L 436.936085 175.777656 
L 448.936085 175.777656 
" style="fill: none; stroke: #ffffff; stroke-width: 1.5; stroke-linecap: round"/>
     <defs>
      <path id="mcc0addf56c" d="M 0 6.123724 
C 1.624031 6.123724 3.181764 5.47849 4.330127 4.330127 
C 5.47849 3.181764 6.123724 1.624031 6.123724 0 
C 6.123724 -1.624031 5.47849 -3.181764 4.330127 -4.330127 
C 3.181764 -5.47849 1.624031 -6.123724 0 -6.123724 
C -1.624031 -6.123724 -3.181764 -5.47849 -4.330127 -4.330127 
C -5.47849 -3.181764 -6.123724 -1.624031 -6.123724 0 
C -6.123724 1.624031 -5.47849 3.181764 -4.330127 4.330127 
C -3.181764 5.47849 -1.624031 6.123724 0 6.123724 
z
" style="stroke: #2f4f4f"/>
     </defs>
     <g>
      <use xlink:href="#mcc0addf56c" x="436.936085" y="175.777656" style="fill: #d3d3d3; stroke: #2f4f4f"/>
     </g>
    </g>
    <g id="text_25">
     <!-- 0.5 -->
     <g style="fill: #262626" transform="translate(458.536085 179.977656) scale(0.12 -0.12)">
      <use xlink:href="#ArialMT-30"/>
      <use xlink:href="#ArialMT-2e" transform="translate(55.615234 0)"/>
      <use xlink:href="#ArialMT-35" transform="translate(83.398438 0)"/>
     </g>
    </g>
    <g id="line2d_22">
     <path d="M 424.936085 192.752031 
L 436.936085 192.752031 
L 448.936085 192.752031 
" style="fill: none; stroke: #ffffff; stroke-width: 1.5; stroke-linecap: round"/>
     <defs>
      <path id="mcf4e90541b" d="M 0 8.660254 
C 2.296726 8.660254 4.499694 7.747755 6.123724 6.123724 
C 7.747755 4.499694 8.660254 2.296726 8.660254 0 
C 8.660254 -2.296726 7.747755 -4.499694 6.123724 -6.123724 
C 4.499694 -7.747755 2.296726 -8.660254 0 -8.660254 
C -2.296726 -8.660254 -4.499694 -7.747755 -6.123724 -6.123724 
C -7.747755 -4.499694 -8.660254 -2.296726 -8.660254 0 
C -8.660254 2.296726 -7.747755 4.499694 -6.123724 6.123724 
C -4.499694 7.747755 -2.296726 8.660254 0 8.660254 
z
" style="stroke: #2f4f4f"/>
     </defs>
     <g>
      <use xlink:href="#mcf4e90541b" x="436.936085" y="192.752031" style="fill: #d3d3d3; stroke: #2f4f4f"/>
     </g>
    </g>
    <g id="text_26">
     <!-- 1.0 -->
     <g style="fill: #262626" transform="translate(458.536085 196.952031) scale(0.12 -0.12)">
      <use xlink:href="#ArialMT-31"/>
      <use xlink:href="#ArialMT-2e" transform="translate(55.615234 0)"/>
      <use xlink:href="#ArialMT-30" transform="translate(83.398438 0)"/>
     </g>
    </g>
   </g>
  </g>
 </g>
 <defs>
  <clipPath id="p5e3ca57a40">
   <rect x="44.183438" y="24.8575" width="364.248" height="285.2325"/>
  </clipPath>
 </defs>
</svg>
