<?xml version="1.0" encoding="utf-8" standalone="no"?>
<!DOCTYPE svg PUBLIC "-//W3C//DTD SVG 1.1//EN"
  "http://www.w3.org/Graphics/SVG/1.1/DTD/svg11.dtd">
<svg xmlns:xlink="http://www.w3.org/1999/xlink" width="563.937453pt" height="420.9025pt" viewBox="0 0 563.937453 420.9025" xmlns="http://www.w3.org/2000/svg" version="1.1">
 <metadata>
  <rdf:RDF xmlns:dc="http://purl.org/dc/elements/1.1/" xmlns:cc="http://creativecommons.org/ns#" xmlns:rdf="http://www.w3.org/1999/02/22-rdf-syntax-ns#">
   <cc:Work>
    <dc:type rdf:resource="http://purl.org/dc/dcmitype/StillImage"/>
    <dc:date>2025-08-21T16:13:20.106254</dc:date>
    <dc:format>image/svg+xml</dc:format>
    <dc:creator>
     <cc:Agent>
      <dc:title>Matplotlib v3.10.5, https://matplotlib.org/</dc:title>
     </cc:Agent>
    </dc:creator>
   </cc:Work>
  </rdf:RDF>
 </metadata>
 <defs>
  <style type="text/css">*{stroke-linejoin: round; stroke-linecap: butt}</style>
 </defs>
 <g id="figure_1">
  <g id="patch_1">
   <path d="M 0 420.9025 
L 563.937453 420.9025 
L 563.937453 0 
L 0 0 
z
" style="fill: #ffffff"/>
  </g>
  <g id="axes_1">
   <g id="patch_2">
    <path d="M 44.183438 382.09 
L 479.315438 382.09 
L 479.315438 24.8575 
L 44.183438 24.8575 
z
" style="fill: #ffffff"/>
   </g>
   <g id="matplotlib.axis_1">
    <g id="xtick_1">
     <g id="line2d_1"/>
     <g id="text_1">
      <!-- 0.60 -->
      <g style="fill: #262626" transform="translate(32.506875 394.179375) scale(0.12 -0.12)">
       <defs>
        <path id="ArialMT-30" d="M 266 2259 
Q 266 3072 433 3567 
Q 600 4063 929 4331 
Q 1259 4600 1759 4600 
Q 2128 4600 2406 4451 
Q 2684 4303 2865 4023 
Q 3047 3744 3150 3342 
Q 3253 2941 3253 2259 
Q 3253 1453 3087 958 
Q 2922 463 2592 192 
Q 2263 -78 1759 -78 
Q 1097 -78 719 397 
Q 266 969 266 2259 
z
M 844 2259 
Q 844 1131 1108 757 
Q 1372 384 1759 384 
Q 2147 384 2411 759 
Q 2675 1134 2675 2259 
Q 2675 3391 2411 3762 
Q 2147 4134 1753 4134 
Q 1366 4134 1134 3806 
Q 844 3388 844 2259 
z
" transform="scale(0.015625)"/>
        <path id="ArialMT-2e" d="M 581 0 
L 581 641 
L 1222 641 
L 1222 0 
L 581 0 
z
" transform="scale(0.015625)"/>
        <path id="ArialMT-36" d="M 3184 3459 
L 2625 3416 
Q 2550 3747 2413 3897 
Q 2184 4138 1850 4138 
Q 1581 4138 1378 3988 
Q 1113 3794 959 3422 
Q 806 3050 800 2363 
Q 1003 2672 1297 2822 
Q 1591 2972 1913 2972 
Q 2475 2972 2870 2558 
Q 3266 2144 3266 1488 
Q 3266 1056 3080 686 
Q 2894 316 2569 119 
Q 2244 -78 1831 -78 
Q 1128 -78 684 439 
Q 241 956 241 2144 
Q 241 3472 731 4075 
Q 1159 4600 1884 4600 
Q 2425 4600 2770 4297 
Q 3116 3994 3184 3459 
z
M 888 1484 
Q 888 1194 1011 928 
Q 1134 663 1356 523 
Q 1578 384 1822 384 
Q 2178 384 2434 671 
Q 2691 959 2691 1453 
Q 2691 1928 2437 2201 
Q 2184 2475 1800 2475 
Q 1419 2475 1153 2201 
Q 888 1928 888 1484 
z
" transform="scale(0.015625)"/>
       </defs>
       <use xlink:href="#ArialMT-30"/>
       <use xlink:href="#ArialMT-2e" transform="translate(55.615234 0)"/>
       <use xlink:href="#ArialMT-36" transform="translate(83.398438 0)"/>
       <use xlink:href="#ArialMT-30" transform="translate(139.013672 0)"/>
      </g>
     </g>
    </g>
    <g id="xtick_2">
     <g id="line2d_2"/>
     <g id="text_2">
      <!-- 0.65 -->
      <g style="fill: #262626" transform="translate(86.898375 394.179375) scale(0.12 -0.12)">
       <defs>
        <path id="ArialMT-35" d="M 266 1200 
L 856 1250 
Q 922 819 1161 601 
Q 1400 384 1738 384 
Q 2144 384 2425 690 
Q 2706 997 2706 1503 
Q 2706 1984 2436 2262 
Q 2166 2541 1728 2541 
Q 1456 2541 1237 2417 
Q 1019 2294 894 2097 
L 366 2166 
L 809 4519 
L 3088 4519 
L 3088 3981 
L 1259 3981 
L 1013 2750 
Q 1425 3038 1878 3038 
Q 2478 3038 2890 2622 
Q 3303 2206 3303 1553 
Q 3303 931 2941 478 
Q 2500 -78 1738 -78 
Q 1113 -78 717 272 
Q 322 622 266 1200 
z
" transform="scale(0.015625)"/>
       </defs>
       <use xlink:href="#ArialMT-30"/>
       <use xlink:href="#ArialMT-2e" transform="translate(55.615234 0)"/>
       <use xlink:href="#ArialMT-36" transform="translate(83.398438 0)"/>
       <use xlink:href="#ArialMT-35" transform="translate(139.013672 0)"/>
      </g>
     </g>
    </g>
    <g id="xtick_3">
     <g id="line2d_3"/>
     <g id="text_3">
      <!-- 0.70 -->
      <g style="fill: #262626" transform="translate(141.289875 394.179375) scale(0.12 -0.12)">
       <defs>
        <path id="ArialMT-37" d="M 303 3981 
L 303 4522 
L 3269 4522 
L 3269 4084 
Q 2831 3619 2401 2847 
Q 1972 2075 1738 1259 
Q 1569 684 1522 0 
L 944 0 
Q 953 541 1156 1306 
Q 1359 2072 1739 2783 
Q 2119 3494 2547 3981 
L 303 3981 
z
" transform="scale(0.015625)"/>
       </defs>
       <use xlink:href="#ArialMT-30"/>
       <use xlink:href="#ArialMT-2e" transform="translate(55.615234 0)"/>
       <use xlink:href="#ArialMT-37" transform="translate(83.398438 0)"/>
       <use xlink:href="#ArialMT-30" transform="translate(139.013672 0)"/>
      </g>
     </g>
    </g>
    <g id="xtick_4">
     <g id="line2d_4"/>
     <g id="text_4">
      <!-- 0.75 -->
      <g style="fill: #262626" transform="translate(195.681375 394.179375) scale(0.12 -0.12)">
       <use xlink:href="#ArialMT-30"/>
       <use xlink:href="#ArialMT-2e" transform="translate(55.615234 0)"/>
       <use xlink:href="#ArialMT-37" transform="translate(83.398438 0)"/>
       <use xlink:href="#ArialMT-35" transform="translate(139.013672 0)"/>
      </g>
     </g>
    </g>
    <g id="xtick_5">
     <g id="line2d_5"/>
     <g id="text_5">
      <!-- 0.80 -->
      <g style="fill: #262626" transform="translate(250.072875 394.179375) scale(0.12 -0.12)">
       <defs>
        <path id="ArialMT-38" d="M 1131 2484 
Q 781 2613 612 2850 
Q 444 3088 444 3419 
Q 444 3919 803 4259 
Q 1163 4600 1759 4600 
Q 2359 4600 2725 4251 
Q 3091 3903 3091 3403 
Q 3091 3084 2923 2848 
Q 2756 2613 2416 2484 
Q 2838 2347 3058 2040 
Q 3278 1734 3278 1309 
Q 3278 722 2862 322 
Q 2447 -78 1769 -78 
Q 1091 -78 675 323 
Q 259 725 259 1325 
Q 259 1772 486 2073 
Q 713 2375 1131 2484 
z
M 1019 3438 
Q 1019 3113 1228 2906 
Q 1438 2700 1772 2700 
Q 2097 2700 2305 2904 
Q 2513 3109 2513 3406 
Q 2513 3716 2298 3927 
Q 2084 4138 1766 4138 
Q 1444 4138 1231 3931 
Q 1019 3725 1019 3438 
z
M 838 1322 
Q 838 1081 952 856 
Q 1066 631 1291 507 
Q 1516 384 1775 384 
Q 2178 384 2440 643 
Q 2703 903 2703 1303 
Q 2703 1709 2433 1975 
Q 2163 2241 1756 2241 
Q 1359 2241 1098 1978 
Q 838 1716 838 1322 
z
" transform="scale(0.015625)"/>
       </defs>
       <use xlink:href="#ArialMT-30"/>
       <use xlink:href="#ArialMT-2e" transform="translate(55.615234 0)"/>
       <use xlink:href="#ArialMT-38" transform="translate(83.398438 0)"/>
       <use xlink:href="#ArialMT-30" transform="translate(139.013672 0)"/>
      </g>
     </g>
    </g>
    <g id="xtick_6">
     <g id="line2d_6"/>
     <g id="text_6">
      <!-- 0.85 -->
      <g style="fill: #262626" transform="translate(304.464375 394.179375) scale(0.12 -0.12)">
       <use xlink:href="#ArialMT-30"/>
       <use xlink:href="#ArialMT-2e" transform="translate(55.615234 0)"/>
       <use xlink:href="#ArialMT-38" transform="translate(83.398438 0)"/>
       <use xlink:href="#ArialMT-35" transform="translate(139.013672 0)"/>
      </g>
     </g>
    </g>
    <g id="xtick_7">
     <g id="line2d_7"/>
     <g id="text_7">
      <!-- 0.90 -->
      <g style="fill: #262626" transform="translate(358.855875 394.179375) scale(0.12 -0.12)">
       <defs>
        <path id="ArialMT-39" d="M 350 1059 
L 891 1109 
Q 959 728 1153 556 
Q 1347 384 1650 384 
Q 1909 384 2104 503 
Q 2300 622 2425 820 
Q 2550 1019 2634 1356 
Q 2719 1694 2719 2044 
Q 2719 2081 2716 2156 
Q 2547 1888 2255 1720 
Q 1963 1553 1622 1553 
Q 1053 1553 659 1965 
Q 266 2378 266 3053 
Q 266 3750 677 4175 
Q 1088 4600 1706 4600 
Q 2153 4600 2523 4359 
Q 2894 4119 3086 3673 
Q 3278 3228 3278 2384 
Q 3278 1506 3087 986 
Q 2897 466 2520 194 
Q 2144 -78 1638 -78 
Q 1100 -78 759 220 
Q 419 519 350 1059 
z
M 2653 3081 
Q 2653 3566 2395 3850 
Q 2138 4134 1775 4134 
Q 1400 4134 1122 3828 
Q 844 3522 844 3034 
Q 844 2597 1108 2323 
Q 1372 2050 1759 2050 
Q 2150 2050 2401 2323 
Q 2653 2597 2653 3081 
z
" transform="scale(0.015625)"/>
       </defs>
       <use xlink:href="#ArialMT-30"/>
       <use xlink:href="#ArialMT-2e" transform="translate(55.615234 0)"/>
       <use xlink:href="#ArialMT-39" transform="translate(83.398438 0)"/>
       <use xlink:href="#ArialMT-30" transform="translate(139.013672 0)"/>
      </g>
     </g>
    </g>
    <g id="xtick_8">
     <g id="line2d_8"/>
     <g id="text_8">
      <!-- 0.95 -->
      <g style="fill: #262626" transform="translate(413.247375 394.179375) scale(0.12 -0.12)">
       <use xlink:href="#ArialMT-30"/>
       <use xlink:href="#ArialMT-2e" transform="translate(55.615234 0)"/>
       <use xlink:href="#ArialMT-39" transform="translate(83.398438 0)"/>
       <use xlink:href="#ArialMT-35" transform="translate(139.013672 0)"/>
      </g>
     </g>
    </g>
    <g id="xtick_9">
     <g id="line2d_9"/>
     <g id="text_9">
      <!-- 1.00 -->
      <g style="fill: #262626" transform="translate(467.638875 394.179375) scale(0.12 -0.12)">
       <defs>
        <path id="ArialMT-31" d="M 2384 0 
L 1822 0 
L 1822 3584 
Q 1619 3391 1289 3197 
Q 959 3003 697 2906 
L 697 3450 
Q 1169 3672 1522 3987 
Q 1875 4303 2022 4600 
L 2384 4600 
L 2384 0 
z
" transform="scale(0.015625)"/>
       </defs>
       <use xlink:href="#ArialMT-31"/>
       <use xlink:href="#ArialMT-2e" transform="translate(55.615234 0)"/>
       <use xlink:href="#ArialMT-30" transform="translate(83.398438 0)"/>
       <use xlink:href="#ArialMT-30" transform="translate(139.013672 0)"/>
      </g>
     </g>
    </g>
    <g id="text_10">
     <!-- Scalability/Stability -->
     <g style="fill: #262626" transform="translate(203.781781 410.755937) scale(0.14 -0.14)">
      <defs>
       <path id="ArialMT-53" d="M 288 1472 
L 859 1522 
Q 900 1178 1048 958 
Q 1197 738 1509 602 
Q 1822 466 2213 466 
Q 2559 466 2825 569 
Q 3091 672 3220 851 
Q 3350 1031 3350 1244 
Q 3350 1459 3225 1620 
Q 3100 1781 2813 1891 
Q 2628 1963 1997 2114 
Q 1366 2266 1113 2400 
Q 784 2572 623 2826 
Q 463 3081 463 3397 
Q 463 3744 659 4045 
Q 856 4347 1234 4503 
Q 1613 4659 2075 4659 
Q 2584 4659 2973 4495 
Q 3363 4331 3572 4012 
Q 3781 3694 3797 3291 
L 3216 3247 
Q 3169 3681 2898 3903 
Q 2628 4125 2100 4125 
Q 1550 4125 1298 3923 
Q 1047 3722 1047 3438 
Q 1047 3191 1225 3031 
Q 1400 2872 2139 2705 
Q 2878 2538 3153 2413 
Q 3553 2228 3743 1945 
Q 3934 1663 3934 1294 
Q 3934 928 3725 604 
Q 3516 281 3123 101 
Q 2731 -78 2241 -78 
Q 1619 -78 1198 103 
Q 778 284 539 648 
Q 300 1013 288 1472 
z
" transform="scale(0.015625)"/>
       <path id="ArialMT-63" d="M 2588 1216 
L 3141 1144 
Q 3050 572 2676 248 
Q 2303 -75 1759 -75 
Q 1078 -75 664 370 
Q 250 816 250 1647 
Q 250 2184 428 2587 
Q 606 2991 970 3192 
Q 1334 3394 1763 3394 
Q 2303 3394 2647 3120 
Q 2991 2847 3088 2344 
L 2541 2259 
Q 2463 2594 2264 2762 
Q 2066 2931 1784 2931 
Q 1359 2931 1093 2626 
Q 828 2322 828 1663 
Q 828 994 1084 691 
Q 1341 388 1753 388 
Q 2084 388 2306 591 
Q 2528 794 2588 1216 
z
" transform="scale(0.015625)"/>
       <path id="ArialMT-61" d="M 2588 409 
Q 2275 144 1986 34 
Q 1697 -75 1366 -75 
Q 819 -75 525 192 
Q 231 459 231 875 
Q 231 1119 342 1320 
Q 453 1522 633 1644 
Q 813 1766 1038 1828 
Q 1203 1872 1538 1913 
Q 2219 1994 2541 2106 
Q 2544 2222 2544 2253 
Q 2544 2597 2384 2738 
Q 2169 2928 1744 2928 
Q 1347 2928 1158 2789 
Q 969 2650 878 2297 
L 328 2372 
Q 403 2725 575 2942 
Q 747 3159 1072 3276 
Q 1397 3394 1825 3394 
Q 2250 3394 2515 3294 
Q 2781 3194 2906 3042 
Q 3031 2891 3081 2659 
Q 3109 2516 3109 2141 
L 3109 1391 
Q 3109 606 3145 398 
Q 3181 191 3288 0 
L 2700 0 
Q 2613 175 2588 409 
z
M 2541 1666 
Q 2234 1541 1622 1453 
Q 1275 1403 1131 1340 
Q 988 1278 909 1158 
Q 831 1038 831 891 
Q 831 666 1001 516 
Q 1172 366 1500 366 
Q 1825 366 2078 508 
Q 2331 650 2450 897 
Q 2541 1088 2541 1459 
L 2541 1666 
z
" transform="scale(0.015625)"/>
       <path id="ArialMT-6c" d="M 409 0 
L 409 4581 
L 972 4581 
L 972 0 
L 409 0 
z
" transform="scale(0.015625)"/>
       <path id="ArialMT-62" d="M 941 0 
L 419 0 
L 419 4581 
L 981 4581 
L 981 2947 
Q 1338 3394 1891 3394 
Q 2197 3394 2470 3270 
Q 2744 3147 2920 2923 
Q 3097 2700 3197 2384 
Q 3297 2069 3297 1709 
Q 3297 856 2875 390 
Q 2453 -75 1863 -75 
Q 1275 -75 941 416 
L 941 0 
z
M 934 1684 
Q 934 1088 1097 822 
Q 1363 388 1816 388 
Q 2184 388 2453 708 
Q 2722 1028 2722 1663 
Q 2722 2313 2464 2622 
Q 2206 2931 1841 2931 
Q 1472 2931 1203 2611 
Q 934 2291 934 1684 
z
" transform="scale(0.015625)"/>
       <path id="ArialMT-69" d="M 425 3934 
L 425 4581 
L 988 4581 
L 988 3934 
L 425 3934 
z
M 425 0 
L 425 3319 
L 988 3319 
L 988 0 
L 425 0 
z
" transform="scale(0.015625)"/>
       <path id="ArialMT-74" d="M 1650 503 
L 1731 6 
Q 1494 -44 1306 -44 
Q 1000 -44 831 53 
Q 663 150 594 308 
Q 525 466 525 972 
L 525 2881 
L 113 2881 
L 113 3319 
L 525 3319 
L 525 4141 
L 1084 4478 
L 1084 3319 
L 1650 3319 
L 1650 2881 
L 1084 2881 
L 1084 941 
Q 1084 700 1114 631 
Q 1144 563 1211 522 
Q 1278 481 1403 481 
Q 1497 481 1650 503 
z
" transform="scale(0.015625)"/>
       <path id="ArialMT-79" d="M 397 -1278 
L 334 -750 
Q 519 -800 656 -800 
Q 844 -800 956 -737 
Q 1069 -675 1141 -563 
Q 1194 -478 1313 -144 
Q 1328 -97 1363 -6 
L 103 3319 
L 709 3319 
L 1400 1397 
Q 1534 1031 1641 628 
Q 1738 1016 1872 1384 
L 2581 3319 
L 3144 3319 
L 1881 -56 
Q 1678 -603 1566 -809 
Q 1416 -1088 1222 -1217 
Q 1028 -1347 759 -1347 
Q 597 -1347 397 -1278 
z
" transform="scale(0.015625)"/>
       <path id="ArialMT-2f" d="M 0 -78 
L 1328 4659 
L 1778 4659 
L 453 -78 
L 0 -78 
z
" transform="scale(0.015625)"/>
      </defs>
      <use xlink:href="#ArialMT-53"/>
      <use xlink:href="#ArialMT-63" transform="translate(66.699219 0)"/>
      <use xlink:href="#ArialMT-61" transform="translate(116.699219 0)"/>
      <use xlink:href="#ArialMT-6c" transform="translate(172.314453 0)"/>
      <use xlink:href="#ArialMT-61" transform="translate(194.53125 0)"/>
      <use xlink:href="#ArialMT-62" transform="translate(250.146484 0)"/>
      <use xlink:href="#ArialMT-69" transform="translate(305.761719 0)"/>
      <use xlink:href="#ArialMT-6c" transform="translate(327.978516 0)"/>
      <use xlink:href="#ArialMT-69" transform="translate(350.195312 0)"/>
      <use xlink:href="#ArialMT-74" transform="translate(372.412109 0)"/>
      <use xlink:href="#ArialMT-79" transform="translate(400.195312 0)"/>
      <use xlink:href="#ArialMT-2f" transform="translate(450.195312 0)"/>
      <use xlink:href="#ArialMT-53" transform="translate(477.978516 0)"/>
      <use xlink:href="#ArialMT-74" transform="translate(544.677734 0)"/>
      <use xlink:href="#ArialMT-61" transform="translate(572.460938 0)"/>
      <use xlink:href="#ArialMT-62" transform="translate(628.076172 0)"/>
      <use xlink:href="#ArialMT-69" transform="translate(683.691406 0)"/>
      <use xlink:href="#ArialMT-6c" transform="translate(705.908203 0)"/>
      <use xlink:href="#ArialMT-69" transform="translate(728.125 0)"/>
      <use xlink:href="#ArialMT-74" transform="translate(750.341797 0)"/>
      <use xlink:href="#ArialMT-79" transform="translate(778.125 0)"/>
     </g>
    </g>
   </g>
   <g id="matplotlib.axis_2">
    <g id="ytick_1">
     <g id="line2d_10"/>
     <g id="text_11">
      <!-- 0.2 -->
      <g style="fill: #262626" transform="translate(24.003438 351.273228) scale(0.12 -0.12)">
       <defs>
        <path id="ArialMT-32" d="M 3222 541 
L 3222 0 
L 194 0 
Q 188 203 259 391 
Q 375 700 629 1000 
Q 884 1300 1366 1694 
Q 2113 2306 2375 2664 
Q 2638 3022 2638 3341 
Q 2638 3675 2398 3904 
Q 2159 4134 1775 4134 
Q 1369 4134 1125 3890 
Q 881 3647 878 3216 
L 300 3275 
Q 359 3922 746 4261 
Q 1134 4600 1788 4600 
Q 2447 4600 2831 4234 
Q 3216 3869 3216 3328 
Q 3216 3053 3103 2787 
Q 2991 2522 2730 2228 
Q 2469 1934 1863 1422 
Q 1356 997 1212 845 
Q 1069 694 975 541 
L 3222 541 
z
" transform="scale(0.015625)"/>
       </defs>
       <use xlink:href="#ArialMT-30"/>
       <use xlink:href="#ArialMT-2e" transform="translate(55.615234 0)"/>
       <use xlink:href="#ArialMT-32" transform="translate(83.398438 0)"/>
      </g>
     </g>
    </g>
    <g id="ytick_2">
     <g id="line2d_11"/>
     <g id="text_12">
      <!-- 0.3 -->
      <g style="fill: #262626" transform="translate(24.003438 304.245184) scale(0.12 -0.12)">
       <defs>
        <path id="ArialMT-33" d="M 269 1209 
L 831 1284 
Q 928 806 1161 595 
Q 1394 384 1728 384 
Q 2125 384 2398 659 
Q 2672 934 2672 1341 
Q 2672 1728 2419 1979 
Q 2166 2231 1775 2231 
Q 1616 2231 1378 2169 
L 1441 2663 
Q 1497 2656 1531 2656 
Q 1891 2656 2178 2843 
Q 2466 3031 2466 3422 
Q 2466 3731 2256 3934 
Q 2047 4138 1716 4138 
Q 1388 4138 1169 3931 
Q 950 3725 888 3313 
L 325 3413 
Q 428 3978 793 4289 
Q 1159 4600 1703 4600 
Q 2078 4600 2393 4439 
Q 2709 4278 2876 4000 
Q 3044 3722 3044 3409 
Q 3044 3113 2884 2869 
Q 2725 2625 2413 2481 
Q 2819 2388 3044 2092 
Q 3269 1797 3269 1353 
Q 3269 753 2831 336 
Q 2394 -81 1725 -81 
Q 1122 -81 723 278 
Q 325 638 269 1209 
z
" transform="scale(0.015625)"/>
       </defs>
       <use xlink:href="#ArialMT-30"/>
       <use xlink:href="#ArialMT-2e" transform="translate(55.615234 0)"/>
       <use xlink:href="#ArialMT-33" transform="translate(83.398438 0)"/>
      </g>
     </g>
    </g>
    <g id="ytick_3">
     <g id="line2d_12"/>
     <g id="text_13">
      <!-- 0.4 -->
      <g style="fill: #262626" transform="translate(24.003438 257.21714) scale(0.12 -0.12)">
       <defs>
        <path id="ArialMT-34" d="M 2069 0 
L 2069 1097 
L 81 1097 
L 81 1613 
L 2172 4581 
L 2631 4581 
L 2631 1613 
L 3250 1613 
L 3250 1097 
L 2631 1097 
L 2631 0 
L 2069 0 
z
M 2069 1613 
L 2069 3678 
L 634 1613 
L 2069 1613 
z
" transform="scale(0.015625)"/>
       </defs>
       <use xlink:href="#ArialMT-30"/>
       <use xlink:href="#ArialMT-2e" transform="translate(55.615234 0)"/>
       <use xlink:href="#ArialMT-34" transform="translate(83.398438 0)"/>
      </g>
     </g>
    </g>
    <g id="ytick_4">
     <g id="line2d_13"/>
     <g id="text_14">
      <!-- 0.5 -->
      <g style="fill: #262626" transform="translate(24.003438 210.189096) scale(0.12 -0.12)">
       <use xlink:href="#ArialMT-30"/>
       <use xlink:href="#ArialMT-2e" transform="translate(55.615234 0)"/>
       <use xlink:href="#ArialMT-35" transform="translate(83.398438 0)"/>
      </g>
     </g>
    </g>
    <g id="ytick_5">
     <g id="line2d_14"/>
     <g id="text_15">
      <!-- 0.6 -->
      <g style="fill: #262626" transform="translate(24.003438 163.161052) scale(0.12 -0.12)">
       <use xlink:href="#ArialMT-30"/>
       <use xlink:href="#ArialMT-2e" transform="translate(55.615234 0)"/>
       <use xlink:href="#ArialMT-36" transform="translate(83.398438 0)"/>
      </g>
     </g>
    </g>
    <g id="ytick_6">
     <g id="line2d_15"/>
     <g id="text_16">
      <!-- 0.7 -->
      <g style="fill: #262626" transform="translate(24.003438 116.133008) scale(0.12 -0.12)">
       <use xlink:href="#ArialMT-30"/>
       <use xlink:href="#ArialMT-2e" transform="translate(55.615234 0)"/>
       <use xlink:href="#ArialMT-37" transform="translate(83.398438 0)"/>
      </g>
     </g>
    </g>
    <g id="ytick_7">
     <g id="line2d_16"/>
     <g id="text_17">
      <!-- 0.8 -->
      <g style="fill: #262626" transform="translate(24.003438 69.104964) scale(0.12 -0.12)">
       <use xlink:href="#ArialMT-30"/>
       <use xlink:href="#ArialMT-2e" transform="translate(55.615234 0)"/>
       <use xlink:href="#ArialMT-38" transform="translate(83.398438 0)"/>
      </g>
     </g>
    </g>
    <g id="text_18">
     <!-- Overall Performance -->
     <g style="fill: #262626" transform="translate(17.220937 267.659375) rotate(-90) scale(0.14 -0.14)">
      <defs>
       <path id="ArialMT-4f" d="M 309 2231 
Q 309 3372 921 4017 
Q 1534 4663 2503 4663 
Q 3138 4663 3647 4359 
Q 4156 4056 4423 3514 
Q 4691 2972 4691 2284 
Q 4691 1588 4409 1038 
Q 4128 488 3612 205 
Q 3097 -78 2500 -78 
Q 1853 -78 1343 234 
Q 834 547 571 1087 
Q 309 1628 309 2231 
z
M 934 2222 
Q 934 1394 1379 917 
Q 1825 441 2497 441 
Q 3181 441 3623 922 
Q 4066 1403 4066 2288 
Q 4066 2847 3877 3264 
Q 3688 3681 3323 3911 
Q 2959 4141 2506 4141 
Q 1863 4141 1398 3698 
Q 934 3256 934 2222 
z
" transform="scale(0.015625)"/>
       <path id="ArialMT-76" d="M 1344 0 
L 81 3319 
L 675 3319 
L 1388 1331 
Q 1503 1009 1600 663 
Q 1675 925 1809 1294 
L 2547 3319 
L 3125 3319 
L 1869 0 
L 1344 0 
z
" transform="scale(0.015625)"/>
       <path id="ArialMT-65" d="M 2694 1069 
L 3275 997 
Q 3138 488 2766 206 
Q 2394 -75 1816 -75 
Q 1088 -75 661 373 
Q 234 822 234 1631 
Q 234 2469 665 2931 
Q 1097 3394 1784 3394 
Q 2450 3394 2872 2941 
Q 3294 2488 3294 1666 
Q 3294 1616 3291 1516 
L 816 1516 
Q 847 969 1125 678 
Q 1403 388 1819 388 
Q 2128 388 2347 550 
Q 2566 713 2694 1069 
z
M 847 1978 
L 2700 1978 
Q 2663 2397 2488 2606 
Q 2219 2931 1791 2931 
Q 1403 2931 1139 2672 
Q 875 2413 847 1978 
z
" transform="scale(0.015625)"/>
       <path id="ArialMT-72" d="M 416 0 
L 416 3319 
L 922 3319 
L 922 2816 
Q 1116 3169 1280 3281 
Q 1444 3394 1641 3394 
Q 1925 3394 2219 3213 
L 2025 2691 
Q 1819 2813 1613 2813 
Q 1428 2813 1281 2702 
Q 1134 2591 1072 2394 
Q 978 2094 978 1738 
L 978 0 
L 416 0 
z
" transform="scale(0.015625)"/>
       <path id="ArialMT-20" transform="scale(0.015625)"/>
       <path id="ArialMT-50" d="M 494 0 
L 494 4581 
L 2222 4581 
Q 2678 4581 2919 4538 
Q 3256 4481 3484 4323 
Q 3713 4166 3852 3881 
Q 3991 3597 3991 3256 
Q 3991 2672 3619 2267 
Q 3247 1863 2275 1863 
L 1100 1863 
L 1100 0 
L 494 0 
z
M 1100 2403 
L 2284 2403 
Q 2872 2403 3119 2622 
Q 3366 2841 3366 3238 
Q 3366 3525 3220 3729 
Q 3075 3934 2838 4000 
Q 2684 4041 2272 4041 
L 1100 4041 
L 1100 2403 
z
" transform="scale(0.015625)"/>
       <path id="ArialMT-66" d="M 556 0 
L 556 2881 
L 59 2881 
L 59 3319 
L 556 3319 
L 556 3672 
Q 556 4006 616 4169 
Q 697 4388 901 4523 
Q 1106 4659 1475 4659 
Q 1713 4659 2000 4603 
L 1916 4113 
Q 1741 4144 1584 4144 
Q 1328 4144 1222 4034 
Q 1116 3925 1116 3625 
L 1116 3319 
L 1763 3319 
L 1763 2881 
L 1116 2881 
L 1116 0 
L 556 0 
z
" transform="scale(0.015625)"/>
       <path id="ArialMT-6f" d="M 213 1659 
Q 213 2581 725 3025 
Q 1153 3394 1769 3394 
Q 2453 3394 2887 2945 
Q 3322 2497 3322 1706 
Q 3322 1066 3130 698 
Q 2938 331 2570 128 
Q 2203 -75 1769 -75 
Q 1072 -75 642 372 
Q 213 819 213 1659 
z
M 791 1659 
Q 791 1022 1069 705 
Q 1347 388 1769 388 
Q 2188 388 2466 706 
Q 2744 1025 2744 1678 
Q 2744 2294 2464 2611 
Q 2184 2928 1769 2928 
Q 1347 2928 1069 2612 
Q 791 2297 791 1659 
z
" transform="scale(0.015625)"/>
       <path id="ArialMT-6d" d="M 422 0 
L 422 3319 
L 925 3319 
L 925 2853 
Q 1081 3097 1340 3245 
Q 1600 3394 1931 3394 
Q 2300 3394 2536 3241 
Q 2772 3088 2869 2813 
Q 3263 3394 3894 3394 
Q 4388 3394 4653 3120 
Q 4919 2847 4919 2278 
L 4919 0 
L 4359 0 
L 4359 2091 
Q 4359 2428 4304 2576 
Q 4250 2725 4106 2815 
Q 3963 2906 3769 2906 
Q 3419 2906 3187 2673 
Q 2956 2441 2956 1928 
L 2956 0 
L 2394 0 
L 2394 2156 
Q 2394 2531 2256 2718 
Q 2119 2906 1806 2906 
Q 1569 2906 1367 2781 
Q 1166 2656 1075 2415 
Q 984 2175 984 1722 
L 984 0 
L 422 0 
z
" transform="scale(0.015625)"/>
       <path id="ArialMT-6e" d="M 422 0 
L 422 3319 
L 928 3319 
L 928 2847 
Q 1294 3394 1984 3394 
Q 2284 3394 2536 3286 
Q 2788 3178 2913 3003 
Q 3038 2828 3088 2588 
Q 3119 2431 3119 2041 
L 3119 0 
L 2556 0 
L 2556 2019 
Q 2556 2363 2490 2533 
Q 2425 2703 2258 2804 
Q 2091 2906 1866 2906 
Q 1506 2906 1245 2678 
Q 984 2450 984 1813 
L 984 0 
L 422 0 
z
" transform="scale(0.015625)"/>
      </defs>
      <use xlink:href="#ArialMT-4f"/>
      <use xlink:href="#ArialMT-76" transform="translate(77.783203 0)"/>
      <use xlink:href="#ArialMT-65" transform="translate(127.783203 0)"/>
      <use xlink:href="#ArialMT-72" transform="translate(183.398438 0)"/>
      <use xlink:href="#ArialMT-61" transform="translate(216.699219 0)"/>
      <use xlink:href="#ArialMT-6c" transform="translate(272.314453 0)"/>
      <use xlink:href="#ArialMT-6c" transform="translate(294.53125 0)"/>
      <use xlink:href="#ArialMT-20" transform="translate(316.748047 0)"/>
      <use xlink:href="#ArialMT-50" transform="translate(344.53125 0)"/>
      <use xlink:href="#ArialMT-65" transform="translate(411.230469 0)"/>
      <use xlink:href="#ArialMT-72" transform="translate(466.845703 0)"/>
      <use xlink:href="#ArialMT-66" transform="translate(500.146484 0)"/>
      <use xlink:href="#ArialMT-6f" transform="translate(527.929688 0)"/>
      <use xlink:href="#ArialMT-72" transform="translate(583.544922 0)"/>
      <use xlink:href="#ArialMT-6d" transform="translate(616.845703 0)"/>
      <use xlink:href="#ArialMT-61" transform="translate(700.146484 0)"/>
      <use xlink:href="#ArialMT-6e" transform="translate(755.761719 0)"/>
      <use xlink:href="#ArialMT-63" transform="translate(811.376953 0)"/>
      <use xlink:href="#ArialMT-65" transform="translate(861.376953 0)"/>
     </g>
    </g>
   </g>
   <g id="PathCollection_1">
    <path d="M 189.055849 48.985999 
C 191.148476 48.985999 193.155676 48.154589 194.635387 46.674879 
C 196.115098 45.195168 196.946507 43.187968 196.946507 41.095341 
C 196.946507 39.002714 196.115098 36.995514 194.635387 35.515803 
C 193.155676 34.036092 191.148476 33.204683 189.055849 33.204683 
C 186.963222 33.204683 184.956022 34.036092 183.476311 35.515803 
C 181.996601 36.995514 181.165191 39.002714 181.165191 41.095341 
C 181.165191 43.187968 181.996601 45.195168 183.476311 46.674879 
C 184.956022 48.154589 186.963222 48.985999 189.055849 48.985999 
z
" clip-path="url(#pa85c13b868)" style="fill: #f77189; fill-opacity: 0.8; stroke: #2f4f4f; stroke-opacity: 0.8"/>
    <path d="M 134.055503 66.642775 
C 136.086202 66.642775 138.034004 65.835969 139.469925 64.400048 
C 140.905847 62.964126 141.712653 61.016325 141.712653 58.985625 
C 141.712653 56.954925 140.905847 55.007124 139.469925 53.571202 
C 138.034004 52.13528 136.086202 51.328475 134.055503 51.328475 
C 132.024803 51.328475 130.077001 52.13528 128.64108 53.571202 
C 127.205158 55.007124 126.398352 56.954925 126.398352 58.985625 
C 126.398352 61.016325 127.205158 62.964126 128.64108 64.400048 
C 130.077001 65.835969 132.024803 66.642775 134.055503 66.642775 
z
" clip-path="url(#pa85c13b868)" style="fill: #f77189; fill-opacity: 0.8; stroke: #2f4f4f; stroke-opacity: 0.8"/>
    <path d="M 121.642868 71.251293 
C 123.660651 71.251293 125.596063 70.449619 127.022851 69.022831 
C 128.449639 67.596043 129.251312 65.660632 129.251312 63.642849 
C 129.251312 61.625065 128.449639 59.689654 127.022851 58.262866 
C 125.596063 56.836078 123.660651 56.034404 121.642868 56.034404 
C 119.625085 56.034404 117.689673 56.836078 116.262885 58.262866 
C 114.836097 59.689654 114.034423 61.625065 114.034423 63.642849 
C 114.034423 65.660632 114.836097 67.596043 116.262885 69.022831 
C 117.689673 70.449619 119.625085 71.251293 121.642868 71.251293 
z
" clip-path="url(#pa85c13b868)" style="fill: #f77189; fill-opacity: 0.8; stroke: #2f4f4f; stroke-opacity: 0.8"/>
    <path d="M 140.220682 107.315103 
C 142.110081 107.315103 143.922351 106.564436 145.258358 105.228429 
C 146.594365 103.892422 147.345032 102.080152 147.345032 100.190753 
C 147.345032 98.301353 146.594365 96.489084 145.258358 95.153077 
C 143.922351 93.817069 142.110081 93.066403 140.220682 93.066403 
C 138.331282 93.066403 136.519013 93.817069 135.183006 95.153077 
C 133.846998 96.489084 133.096332 98.301353 133.096332 100.190753 
C 133.096332 102.080152 133.846998 103.892422 135.183006 105.228429 
C 136.519013 106.564436 138.331282 107.315103 140.220682 107.315103 
z
" clip-path="url(#pa85c13b868)" style="fill: #f77189; fill-opacity: 0.8; stroke: #2f4f4f; stroke-opacity: 0.8"/>
   </g>
   <g id="PathCollection_2">
    <path d="M 256.476587 157.502061 
C 258.050235 157.502061 259.559643 156.876844 260.67238 155.764107 
C 261.785117 154.651369 262.410334 153.141962 262.410334 151.568314 
C 262.410334 149.994666 261.785117 148.485259 260.67238 147.372522 
C 259.559643 146.259785 258.050235 145.634568 256.476587 145.634568 
C 254.902939 145.634568 253.393532 146.259785 252.280795 147.372522 
C 251.168058 148.485259 250.542841 149.994666 250.542841 151.568314 
C 250.542841 153.141962 251.168058 154.651369 252.280795 155.764107 
C 253.393532 156.876844 254.902939 157.502061 256.476587 157.502061 
z
" clip-path="url(#pa85c13b868)" style="fill: #ae9d31; fill-opacity: 0.8; stroke: #2f4f4f; stroke-opacity: 0.8"/>
    <path d="M 241.279959 163.761995 
C 242.86344 163.761995 244.382278 163.132871 245.501968 162.013182 
C 246.621658 160.893492 247.250781 159.374653 247.250781 157.791173 
C 247.250781 156.207692 246.621658 154.688854 245.501968 153.569164 
C 244.382278 152.449474 242.86344 151.820351 241.279959 151.820351 
C 239.696479 151.820351 238.17764 152.449474 237.057951 153.569164 
C 235.938261 154.688854 235.309137 156.207692 235.309137 157.791173 
C 235.309137 159.374653 235.938261 160.893492 237.057951 162.013182 
C 238.17764 163.132871 239.696479 163.761995 241.279959 163.761995 
z
" clip-path="url(#pa85c13b868)" style="fill: #ae9d31; fill-opacity: 0.8; stroke: #2f4f4f; stroke-opacity: 0.8"/>
    <path d="M 202.540125 164.209321 
C 204.160138 164.209321 205.714018 163.565683 206.85954 162.420161 
C 208.005062 161.274639 208.6487 159.720759 208.6487 158.100746 
C 208.6487 156.480733 208.005062 154.926854 206.85954 153.781332 
C 205.714018 152.63581 204.160138 151.992172 202.540125 151.992172 
C 200.920112 151.992172 199.366233 152.63581 198.220711 153.781332 
C 197.075189 154.926854 196.431551 156.480733 196.431551 158.100746 
C 196.431551 159.720759 197.075189 161.274639 198.220711 162.420161 
C 199.366233 163.565683 200.920112 164.209321 202.540125 164.209321 
z
" clip-path="url(#pa85c13b868)" style="fill: #ae9d31; fill-opacity: 0.8; stroke: #2f4f4f; stroke-opacity: 0.8"/>
    <path d="M 218.313877 179.369098 
C 219.80993 179.369098 221.244909 178.77471 222.302778 177.716841 
C 223.360647 176.658972 223.955035 175.223993 223.955035 173.72794 
C 223.955035 172.231888 223.360647 170.796908 222.302778 169.739039 
C 221.244909 168.68117 219.80993 168.086782 218.313877 168.086782 
C 216.817824 168.086782 215.382845 168.68117 214.324976 169.739039 
C 213.267107 170.796908 212.672719 172.231888 212.672719 173.72794 
C 212.672719 175.223993 213.267107 176.658972 214.324976 177.716841 
C 215.382845 178.77471 216.817824 179.369098 218.313877 179.369098 
z
" clip-path="url(#pa85c13b868)" style="fill: #ae9d31; fill-opacity: 0.8; stroke: #2f4f4f; stroke-opacity: 0.8"/>
    <path d="M 272.925959 200.185772 
C 274.254646 200.185772 275.529093 199.657879 276.468617 198.718355 
C 277.408141 197.778831 277.936034 196.504385 277.936034 195.175697 
C 277.936034 193.84701 277.408141 192.572564 276.468617 191.63304 
C 275.529093 190.693516 274.254646 190.165623 272.925959 190.165623 
C 271.597272 190.165623 270.322825 190.693516 269.383301 191.63304 
C 268.443777 192.572564 267.915884 193.84701 267.915884 195.175697 
C 267.915884 196.504385 268.443777 197.778831 269.383301 198.718355 
C 270.322825 199.657879 271.597272 200.185772 272.925959 200.185772 
z
" clip-path="url(#pa85c13b868)" style="fill: #ae9d31; fill-opacity: 0.8; stroke: #2f4f4f; stroke-opacity: 0.8"/>
    <path d="M 247.176522 290.683837 
C 248.002994 290.683837 248.795728 290.355476 249.380132 289.771072 
C 249.964536 289.186667 250.292897 288.393934 250.292897 287.567461 
C 250.292897 286.740989 249.964536 285.948255 249.380132 285.363851 
C 248.795728 284.779447 248.002994 284.451086 247.176522 284.451086 
C 246.350049 284.451086 245.557316 284.779447 244.972911 285.363851 
C 244.388507 285.948255 244.060146 286.740989 244.060146 287.567461 
C 244.060146 288.393934 244.388507 289.186667 244.972911 289.771072 
C 245.557316 290.355476 246.350049 290.683837 247.176522 290.683837 
z
" clip-path="url(#pa85c13b868)" style="fill: #ae9d31; fill-opacity: 0.8; stroke: #2f4f4f; stroke-opacity: 0.8"/>
   </g>
   <g id="PathCollection_3">
    <path d="M 346.609045 159.39323 
C 348.263558 159.39323 349.850529 158.735885 351.020446 157.565968 
C 352.190363 156.396051 352.847708 154.80908 352.847708 153.154567 
C 352.847708 151.500055 352.190363 149.913084 351.020446 148.743167 
C 349.850529 147.573249 348.263558 146.915905 346.609045 146.915905 
C 344.954532 146.915905 343.367562 147.573249 342.197644 148.743167 
C 341.027727 149.913084 340.370382 151.500055 340.370382 153.154567 
C 340.370382 154.80908 341.027727 156.396051 342.197644 157.565968 
C 343.367562 158.735885 344.954532 159.39323 346.609045 159.39323 
z
" clip-path="url(#pa85c13b868)" style="fill: #33b07a; fill-opacity: 0.8; stroke: #2f4f4f; stroke-opacity: 0.8"/>
    <path d="M 398.559471 186.40919 
C 400.139191 186.40919 401.654422 185.781561 402.771452 184.66453 
C 403.888483 183.5475 404.516112 182.032269 404.516112 180.452549 
C 404.516112 178.872829 403.888483 177.357598 402.771452 176.240567 
C 401.654422 175.123537 400.139191 174.495907 398.559471 174.495907 
C 396.979751 174.495907 395.46452 175.123537 394.347489 176.240567 
C 393.230459 177.357598 392.602829 178.872829 392.602829 180.452549 
C 392.602829 182.032269 393.230459 183.5475 394.347489 184.66453 
C 395.46452 185.781561 396.979751 186.40919 398.559471 186.40919 
z
" clip-path="url(#pa85c13b868)" style="fill: #33b07a; fill-opacity: 0.8; stroke: #2f4f4f; stroke-opacity: 0.8"/>
    <path d="M 227.620431 214.195273 
C 229.087072 214.195273 230.493841 213.61257 231.530912 212.575499 
C 232.567984 211.538427 233.150686 210.131658 233.150686 208.665018 
C 233.150686 207.198377 232.567984 205.791608 231.530912 204.754537 
C 230.493841 203.717465 229.087072 203.134762 227.620431 203.134762 
C 226.15379 203.134762 224.747022 203.717465 223.70995 204.754537 
C 222.672879 205.791608 222.090176 207.198377 222.090176 208.665018 
C 222.090176 210.131658 222.672879 211.538427 223.70995 212.575499 
C 224.747022 213.61257 226.15379 214.195273 227.620431 214.195273 
z
" clip-path="url(#pa85c13b868)" style="fill: #33b07a; fill-opacity: 0.8; stroke: #2f4f4f; stroke-opacity: 0.8"/>
    <path d="M 337.504219 232.111436 
C 339.009641 232.111436 340.453606 231.513325 341.5181 230.448832 
C 342.582594 229.384338 343.180704 227.940373 343.180704 226.434951 
C 343.180704 224.92953 342.582594 223.485564 341.5181 222.421071 
C 340.453606 221.356577 339.009641 220.758467 337.504219 220.758467 
C 335.998798 220.758467 334.554832 221.356577 333.490339 222.421071 
C 332.425845 223.485564 331.827735 224.92953 331.827735 226.434951 
C 331.827735 227.940373 332.425845 229.384338 333.490339 230.448832 
C 334.554832 231.513325 335.998798 232.111436 337.504219 232.111436 
z
" clip-path="url(#pa85c13b868)" style="fill: #33b07a; fill-opacity: 0.8; stroke: #2f4f4f; stroke-opacity: 0.8"/>
   </g>
   <g id="PathCollection_4">
    <path d="M 348.200589 295.091295 
C 349.268003 295.091295 350.291843 294.667207 351.046619 293.912431 
C 351.801395 293.157655 352.225483 292.133816 352.225483 291.066401 
C 352.225483 289.998987 351.801395 288.975147 351.046619 288.220371 
C 350.291843 287.465595 349.268003 287.041507 348.200589 287.041507 
C 347.133174 287.041507 346.109335 287.465595 345.354559 288.220371 
C 344.599783 288.975147 344.175695 289.998987 344.175695 291.066401 
C 344.175695 292.133816 344.599783 293.157655 345.354559 293.912431 
C 346.109335 294.667207 347.133174 295.091295 348.200589 295.091295 
z
" clip-path="url(#pa85c13b868)" style="fill: #38a9c5; fill-opacity: 0.8; stroke: #2f4f4f; stroke-opacity: 0.8"/>
    <path d="M 360.204474 355.954069 
C 360.571633 355.954069 360.923804 355.808195 361.183425 355.548574 
C 361.443046 355.288953 361.58892 354.936782 361.58892 354.569622 
C 361.58892 354.202463 361.443046 353.850292 361.183425 353.590671 
C 360.923804 353.33105 360.571633 353.185176 360.204474 353.185176 
C 359.837314 353.185176 359.485143 353.33105 359.225522 353.590671 
C 358.965901 353.850292 358.820027 354.202463 358.820027 354.569622 
C 358.820027 354.936782 358.965901 355.288953 359.225522 355.548574 
C 359.485143 355.808195 359.837314 355.954069 360.204474 355.954069 
z
" clip-path="url(#pa85c13b868)" style="fill: #38a9c5; fill-opacity: 0.8; stroke: #2f4f4f; stroke-opacity: 0.8"/>
   </g>
   <g id="PathCollection_5">
    <path d="M 191.623629 338.568241 
C 192.225369 338.568241 192.802545 338.329167 193.22804 337.903672 
C 193.653535 337.478178 193.892609 336.901002 193.892609 336.299261 
C 193.892609 335.697521 193.653535 335.120345 193.22804 334.694851 
C 192.802545 334.269356 192.225369 334.030282 191.623629 334.030282 
C 191.021888 334.030282 190.444713 334.269356 190.019218 334.694851 
C 189.593723 335.120345 189.354649 335.697521 189.354649 336.299261 
C 189.354649 336.901002 189.593723 337.478178 190.019218 337.903672 
C 190.444713 338.329167 191.021888 338.568241 191.623629 338.568241 
z
" clip-path="url(#pa85c13b868)" style="fill: #cc7af4; fill-opacity: 0.8; stroke: #2f4f4f; stroke-opacity: 0.8"/>
    <path d="M 143.552521 367.44714 
C 143.975515 367.44714 144.381241 367.279082 144.680342 366.979981 
C 144.979444 366.680879 145.147501 366.275153 145.147501 365.852159 
C 145.147501 365.429165 144.979444 365.023439 144.680342 364.724338 
C 144.381241 364.425236 143.975515 364.257179 143.552521 364.257179 
C 143.129527 364.257179 142.723801 364.425236 142.424699 364.724338 
C 142.125598 365.023439 141.95754 365.429165 141.95754 365.852159 
C 141.95754 366.275153 142.125598 366.680879 142.424699 366.979981 
C 142.723801 367.279082 143.129527 367.44714 143.552521 367.44714 
z
" clip-path="url(#pa85c13b868)" style="fill: #cc7af4; fill-opacity: 0.8; stroke: #2f4f4f; stroke-opacity: 0.8"/>
   </g>
   <g id="patch_3">
    <path d="M 44.183438 382.09 
L 44.183438 24.8575 
" style="fill: none; stroke: #cccccc; stroke-linejoin: miter; stroke-linecap: square"/>
   </g>
   <g id="patch_4">
    <path d="M 479.315438 382.09 
L 479.315438 24.8575 
" style="fill: none; stroke: #cccccc; stroke-linejoin: miter; stroke-linecap: square"/>
   </g>
   <g id="patch_5">
    <path d="M 44.183437 382.09 
L 479.315437 382.09 
" style="fill: none; stroke: #cccccc; stroke-linejoin: miter; stroke-linecap: square"/>
   </g>
   <g id="patch_6">
    <path d="M 44.183437 24.8575 
L 479.315437 24.8575 
" style="fill: none; stroke: #cccccc; stroke-linejoin: miter; stroke-linecap: square"/>
   </g>
   <g id="text_19">
    <!-- Overall Performance vs Scalability/Stability -->
    <g style="fill: #262626" transform="translate(109.700687 18.8575) scale(0.16 -0.16)">
     <defs>
      <path id="ArialMT-73" d="M 197 991 
L 753 1078 
Q 800 744 1014 566 
Q 1228 388 1613 388 
Q 2000 388 2187 545 
Q 2375 703 2375 916 
Q 2375 1106 2209 1216 
Q 2094 1291 1634 1406 
Q 1016 1563 777 1677 
Q 538 1791 414 1992 
Q 291 2194 291 2438 
Q 291 2659 392 2848 
Q 494 3038 669 3163 
Q 800 3259 1026 3326 
Q 1253 3394 1513 3394 
Q 1903 3394 2198 3281 
Q 2494 3169 2634 2976 
Q 2775 2784 2828 2463 
L 2278 2388 
Q 2241 2644 2061 2787 
Q 1881 2931 1553 2931 
Q 1166 2931 1000 2803 
Q 834 2675 834 2503 
Q 834 2394 903 2306 
Q 972 2216 1119 2156 
Q 1203 2125 1616 2013 
Q 2213 1853 2448 1751 
Q 2684 1650 2818 1456 
Q 2953 1263 2953 975 
Q 2953 694 2789 445 
Q 2625 197 2315 61 
Q 2006 -75 1616 -75 
Q 969 -75 630 194 
Q 291 463 197 991 
z
" transform="scale(0.015625)"/>
     </defs>
     <use xlink:href="#ArialMT-4f"/>
     <use xlink:href="#ArialMT-76" transform="translate(77.783203 0)"/>
     <use xlink:href="#ArialMT-65" transform="translate(127.783203 0)"/>
     <use xlink:href="#ArialMT-72" transform="translate(183.398438 0)"/>
     <use xlink:href="#ArialMT-61" transform="translate(216.699219 0)"/>
     <use xlink:href="#ArialMT-6c" transform="translate(272.314453 0)"/>
     <use xlink:href="#ArialMT-6c" transform="translate(294.53125 0)"/>
     <use xlink:href="#ArialMT-20" transform="translate(316.748047 0)"/>
     <use xlink:href="#ArialMT-50" transform="translate(344.53125 0)"/>
     <use xlink:href="#ArialMT-65" transform="translate(411.230469 0)"/>
     <use xlink:href="#ArialMT-72" transform="translate(466.845703 0)"/>
     <use xlink:href="#ArialMT-66" transform="translate(500.146484 0)"/>
     <use xlink:href="#ArialMT-6f" transform="translate(527.929688 0)"/>
     <use xlink:href="#ArialMT-72" transform="translate(583.544922 0)"/>
     <use xlink:href="#ArialMT-6d" transform="translate(616.845703 0)"/>
     <use xlink:href="#ArialMT-61" transform="translate(700.146484 0)"/>
     <use xlink:href="#ArialMT-6e" transform="translate(755.761719 0)"/>
     <use xlink:href="#ArialMT-63" transform="translate(811.376953 0)"/>
     <use xlink:href="#ArialMT-65" transform="translate(861.376953 0)"/>
     <use xlink:href="#ArialMT-20" transform="translate(916.992188 0)"/>
     <use xlink:href="#ArialMT-76" transform="translate(944.775391 0)"/>
     <use xlink:href="#ArialMT-73" transform="translate(994.775391 0)"/>
     <use xlink:href="#ArialMT-20" transform="translate(1044.775391 0)"/>
     <use xlink:href="#ArialMT-53" transform="translate(1072.558594 0)"/>
     <use xlink:href="#ArialMT-63" transform="translate(1139.257812 0)"/>
     <use xlink:href="#ArialMT-61" transform="translate(1189.257812 0)"/>
     <use xlink:href="#ArialMT-6c" transform="translate(1244.873047 0)"/>
     <use xlink:href="#ArialMT-61" transform="translate(1267.089844 0)"/>
     <use xlink:href="#ArialMT-62" transform="translate(1322.705078 0)"/>
     <use xlink:href="#ArialMT-69" transform="translate(1378.320312 0)"/>
     <use xlink:href="#ArialMT-6c" transform="translate(1400.537109 0)"/>
     <use xlink:href="#ArialMT-69" transform="translate(1422.753906 0)"/>
     <use xlink:href="#ArialMT-74" transform="translate(1444.970703 0)"/>
     <use xlink:href="#ArialMT-79" transform="translate(1472.753906 0)"/>
     <use xlink:href="#ArialMT-2f" transform="translate(1522.753906 0)"/>
     <use xlink:href="#ArialMT-53" transform="translate(1550.537109 0)"/>
     <use xlink:href="#ArialMT-74" transform="translate(1617.236328 0)"/>
     <use xlink:href="#ArialMT-61" transform="translate(1645.019531 0)"/>
     <use xlink:href="#ArialMT-62" transform="translate(1700.634766 0)"/>
     <use xlink:href="#ArialMT-69" transform="translate(1756.25 0)"/>
     <use xlink:href="#ArialMT-6c" transform="translate(1778.466797 0)"/>
     <use xlink:href="#ArialMT-69" transform="translate(1800.683594 0)"/>
     <use xlink:href="#ArialMT-74" transform="translate(1822.900391 0)"/>
     <use xlink:href="#ArialMT-79" transform="translate(1850.683594 0)"/>
    </g>
   </g>
   <g id="legend_1">
    <g id="line2d_17">
     <path d="M 492.818078 43.398625 
L 504.818078 43.398625 
L 516.818078 43.398625 
" style="fill: none; stroke: #ffffff; stroke-width: 1.5; stroke-linecap: round"/>
     <defs>
      <path id="m67d973c365" d="M 0 4 
C 1.060812 4 2.078319 3.578535 2.828427 2.828427 
C 3.578535 2.078319 4 1.060812 4 0 
C 4 -1.060812 3.578535 -2.078319 2.828427 -2.828427 
C 2.078319 -3.578535 1.060812 -4 0 -4 
C -1.060812 -4 -2.078319 -3.578535 -2.828427 -2.828427 
C -3.578535 -2.078319 -4 -1.060812 -4 0 
C -4 1.060812 -3.578535 2.078319 -2.828427 2.828427 
C -2.078319 3.578535 -1.060812 4 0 4 
z
" style="stroke: #2f4f4f"/>
     </defs>
     <g>
      <use xlink:href="#m67d973c365" x="504.818078" y="43.398625" style="fill: #f77189; stroke: #2f4f4f"/>
     </g>
    </g>
    <g id="text_20">
     <!-- Supervised -->
     <g style="fill: #262626" transform="translate(526.418078 47.598625) scale(0.12 -0.12)">
      <defs>
       <path id="ArialMT-75" d="M 2597 0 
L 2597 488 
Q 2209 -75 1544 -75 
Q 1250 -75 995 37 
Q 741 150 617 320 
Q 494 491 444 738 
Q 409 903 409 1263 
L 409 3319 
L 972 3319 
L 972 1478 
Q 972 1038 1006 884 
Q 1059 663 1231 536 
Q 1403 409 1656 409 
Q 1909 409 2131 539 
Q 2353 669 2445 892 
Q 2538 1116 2538 1541 
L 2538 3319 
L 3100 3319 
L 3100 0 
L 2597 0 
z
" transform="scale(0.015625)"/>
       <path id="ArialMT-70" d="M 422 -1272 
L 422 3319 
L 934 3319 
L 934 2888 
Q 1116 3141 1344 3267 
Q 1572 3394 1897 3394 
Q 2322 3394 2647 3175 
Q 2972 2956 3137 2557 
Q 3303 2159 3303 1684 
Q 3303 1175 3120 767 
Q 2938 359 2589 142 
Q 2241 -75 1856 -75 
Q 1575 -75 1351 44 
Q 1128 163 984 344 
L 984 -1272 
L 422 -1272 
z
M 931 1641 
Q 931 1000 1190 694 
Q 1450 388 1819 388 
Q 2194 388 2461 705 
Q 2728 1022 2728 1688 
Q 2728 2322 2467 2637 
Q 2206 2953 1844 2953 
Q 1484 2953 1207 2617 
Q 931 2281 931 1641 
z
" transform="scale(0.015625)"/>
       <path id="ArialMT-64" d="M 2575 0 
L 2575 419 
Q 2259 -75 1647 -75 
Q 1250 -75 917 144 
Q 584 363 401 755 
Q 219 1147 219 1656 
Q 219 2153 384 2558 
Q 550 2963 881 3178 
Q 1213 3394 1622 3394 
Q 1922 3394 2156 3267 
Q 2391 3141 2538 2938 
L 2538 4581 
L 3097 4581 
L 3097 0 
L 2575 0 
z
M 797 1656 
Q 797 1019 1065 703 
Q 1334 388 1700 388 
Q 2069 388 2326 689 
Q 2584 991 2584 1609 
Q 2584 2291 2321 2609 
Q 2059 2928 1675 2928 
Q 1300 2928 1048 2622 
Q 797 2316 797 1656 
z
" transform="scale(0.015625)"/>
      </defs>
      <use xlink:href="#ArialMT-53"/>
      <use xlink:href="#ArialMT-75" transform="translate(66.699219 0)"/>
      <use xlink:href="#ArialMT-70" transform="translate(122.314453 0)"/>
      <use xlink:href="#ArialMT-65" transform="translate(177.929688 0)"/>
      <use xlink:href="#ArialMT-72" transform="translate(233.544922 0)"/>
      <use xlink:href="#ArialMT-76" transform="translate(266.845703 0)"/>
      <use xlink:href="#ArialMT-69" transform="translate(316.845703 0)"/>
      <use xlink:href="#ArialMT-73" transform="translate(339.0625 0)"/>
      <use xlink:href="#ArialMT-65" transform="translate(389.0625 0)"/>
      <use xlink:href="#ArialMT-64" transform="translate(444.677734 0)"/>
     </g>
    </g>
    <g id="line2d_18">
     <path d="M 492.818078 60.373 
L 504.818078 60.373 
L 516.818078 60.373 
" style="fill: none; stroke: #ffffff; stroke-width: 1.5; stroke-linecap: round"/>
     <defs>
      <path id="mae4c985506" d="M 0 4 
C 1.060812 4 2.078319 3.578535 2.828427 2.828427 
C 3.578535 2.078319 4 1.060812 4 0 
C 4 -1.060812 3.578535 -2.078319 2.828427 -2.828427 
C 2.078319 -3.578535 1.060812 -4 0 -4 
C -1.060812 -4 -2.078319 -3.578535 -2.828427 -2.828427 
C -3.578535 -2.078319 -4 -1.060812 -4 0 
C -4 1.060812 -3.578535 2.078319 -2.828427 2.828427 
C -2.078319 3.578535 -1.060812 4 0 4 
z
" style="stroke: #2f4f4f"/>
     </defs>
     <g>
      <use xlink:href="#mae4c985506" x="504.818078" y="60.373" style="fill: #ae9d31; stroke: #2f4f4f"/>
     </g>
    </g>
    <g id="text_21">
     <!-- Unsupervised -->
     <g style="fill: #262626" transform="translate(526.418078 64.573) scale(0.12 -0.12)">
      <defs>
       <path id="ArialMT-55" d="M 3500 4581 
L 4106 4581 
L 4106 1934 
Q 4106 1244 3950 837 
Q 3794 431 3386 176 
Q 2978 -78 2316 -78 
Q 1672 -78 1262 144 
Q 853 366 678 786 
Q 503 1206 503 1934 
L 503 4581 
L 1109 4581 
L 1109 1938 
Q 1109 1341 1220 1058 
Q 1331 775 1601 622 
Q 1872 469 2263 469 
Q 2931 469 3215 772 
Q 3500 1075 3500 1938 
L 3500 4581 
z
" transform="scale(0.015625)"/>
      </defs>
      <use xlink:href="#ArialMT-55"/>
      <use xlink:href="#ArialMT-6e" transform="translate(72.216797 0)"/>
      <use xlink:href="#ArialMT-73" transform="translate(127.832031 0)"/>
      <use xlink:href="#ArialMT-75" transform="translate(177.832031 0)"/>
      <use xlink:href="#ArialMT-70" transform="translate(233.447266 0)"/>
      <use xlink:href="#ArialMT-65" transform="translate(289.0625 0)"/>
      <use xlink:href="#ArialMT-72" transform="translate(344.677734 0)"/>
      <use xlink:href="#ArialMT-76" transform="translate(377.978516 0)"/>
      <use xlink:href="#ArialMT-69" transform="translate(427.978516 0)"/>
      <use xlink:href="#ArialMT-73" transform="translate(450.195312 0)"/>
      <use xlink:href="#ArialMT-65" transform="translate(500.195312 0)"/>
      <use xlink:href="#ArialMT-64" transform="translate(555.810547 0)"/>
     </g>
    </g>
    <g id="line2d_19">
     <path d="M 492.818078 77.347375 
L 504.818078 77.347375 
L 516.818078 77.347375 
" style="fill: none; stroke: #ffffff; stroke-width: 1.5; stroke-linecap: round"/>
     <defs>
      <path id="ma9c2e7817c" d="M 0 4 
C 1.060812 4 2.078319 3.578535 2.828427 2.828427 
C 3.578535 2.078319 4 1.060812 4 0 
C 4 -1.060812 3.578535 -2.078319 2.828427 -2.828427 
C 2.078319 -3.578535 1.060812 -4 0 -4 
C -1.060812 -4 -2.078319 -3.578535 -2.828427 -2.828427 
C -3.578535 -2.078319 -4 -1.060812 -4 0 
C -4 1.060812 -3.578535 2.078319 -2.828427 2.828427 
C -2.078319 3.578535 -1.060812 4 0 4 
z
" style="stroke: #2f4f4f"/>
     </defs>
     <g>
      <use xlink:href="#ma9c2e7817c" x="504.818078" y="77.347375" style="fill: #33b07a; stroke: #2f4f4f"/>
     </g>
    </g>
    <g id="text_22">
     <!-- Prior-Knowledge-driven -->
     <g style="fill: #262626" transform="translate(526.418078 81.547375) scale(0.12 -0.12)">
      <defs>
       <path id="ArialMT-2d" d="M 203 1375 
L 203 1941 
L 1931 1941 
L 1931 1375 
L 203 1375 
z
" transform="scale(0.015625)"/>
       <path id="ArialMT-4b" d="M 469 0 
L 469 4581 
L 1075 4581 
L 1075 2309 
L 3350 4581 
L 4172 4581 
L 2250 2725 
L 4256 0 
L 3456 0 
L 1825 2319 
L 1075 1588 
L 1075 0 
L 469 0 
z
" transform="scale(0.015625)"/>
       <path id="ArialMT-77" d="M 1034 0 
L 19 3319 
L 600 3319 
L 1128 1403 
L 1325 691 
Q 1338 744 1497 1375 
L 2025 3319 
L 2603 3319 
L 3100 1394 
L 3266 759 
L 3456 1400 
L 4025 3319 
L 4572 3319 
L 3534 0 
L 2950 0 
L 2422 1988 
L 2294 2553 
L 1622 0 
L 1034 0 
z
" transform="scale(0.015625)"/>
       <path id="ArialMT-67" d="M 319 -275 
L 866 -356 
Q 900 -609 1056 -725 
Q 1266 -881 1628 -881 
Q 2019 -881 2231 -725 
Q 2444 -569 2519 -288 
Q 2563 -116 2559 434 
Q 2191 0 1641 0 
Q 956 0 581 494 
Q 206 988 206 1678 
Q 206 2153 378 2554 
Q 550 2956 876 3175 
Q 1203 3394 1644 3394 
Q 2231 3394 2613 2919 
L 2613 3319 
L 3131 3319 
L 3131 450 
Q 3131 -325 2973 -648 
Q 2816 -972 2473 -1159 
Q 2131 -1347 1631 -1347 
Q 1038 -1347 672 -1080 
Q 306 -813 319 -275 
z
M 784 1719 
Q 784 1066 1043 766 
Q 1303 466 1694 466 
Q 2081 466 2343 764 
Q 2606 1063 2606 1700 
Q 2606 2309 2336 2618 
Q 2066 2928 1684 2928 
Q 1309 2928 1046 2623 
Q 784 2319 784 1719 
z
" transform="scale(0.015625)"/>
      </defs>
      <use xlink:href="#ArialMT-50"/>
      <use xlink:href="#ArialMT-72" transform="translate(66.699219 0)"/>
      <use xlink:href="#ArialMT-69" transform="translate(100 0)"/>
      <use xlink:href="#ArialMT-6f" transform="translate(122.216797 0)"/>
      <use xlink:href="#ArialMT-72" transform="translate(177.832031 0)"/>
      <use xlink:href="#ArialMT-2d" transform="translate(211.132812 0)"/>
      <use xlink:href="#ArialMT-4b" transform="translate(244.433594 0)"/>
      <use xlink:href="#ArialMT-6e" transform="translate(311.132812 0)"/>
      <use xlink:href="#ArialMT-6f" transform="translate(366.748047 0)"/>
      <use xlink:href="#ArialMT-77" transform="translate(422.363281 0)"/>
      <use xlink:href="#ArialMT-6c" transform="translate(494.580078 0)"/>
      <use xlink:href="#ArialMT-65" transform="translate(516.796875 0)"/>
      <use xlink:href="#ArialMT-64" transform="translate(572.412109 0)"/>
      <use xlink:href="#ArialMT-67" transform="translate(628.027344 0)"/>
      <use xlink:href="#ArialMT-65" transform="translate(683.642578 0)"/>
      <use xlink:href="#ArialMT-2d" transform="translate(739.257812 0)"/>
      <use xlink:href="#ArialMT-64" transform="translate(772.558594 0)"/>
      <use xlink:href="#ArialMT-72" transform="translate(828.173828 0)"/>
      <use xlink:href="#ArialMT-69" transform="translate(861.474609 0)"/>
      <use xlink:href="#ArialMT-76" transform="translate(883.691406 0)"/>
      <use xlink:href="#ArialMT-65" transform="translate(933.691406 0)"/>
      <use xlink:href="#ArialMT-6e" transform="translate(989.306641 0)"/>
     </g>
    </g>
    <g id="line2d_20">
     <path d="M 492.818078 94.462375 
L 504.818078 94.462375 
L 516.818078 94.462375 
" style="fill: none; stroke: #ffffff; stroke-width: 1.5; stroke-linecap: round"/>
     <defs>
      <path id="m011d75fc85" d="M 0 4 
C 1.060812 4 2.078319 3.578535 2.828427 2.828427 
C 3.578535 2.078319 4 1.060812 4 0 
C 4 -1.060812 3.578535 -2.078319 2.828427 -2.828427 
C 2.078319 -3.578535 1.060812 -4 0 -4 
C -1.060812 -4 -2.078319 -3.578535 -2.828427 -2.828427 
C -3.578535 -2.078319 -4 -1.060812 -4 0 
C -4 1.060812 -3.578535 2.078319 -2.828427 2.828427 
C -2.078319 3.578535 -1.060812 4 0 4 
z
" style="stroke: #2f4f4f"/>
     </defs>
     <g>
      <use xlink:href="#m011d75fc85" x="504.818078" y="94.462375" style="fill: #38a9c5; stroke: #2f4f4f"/>
     </g>
    </g>
    <g id="text_23">
     <!-- Pre-trained Models -->
     <g style="fill: #262626" transform="translate(526.418078 98.662375) scale(0.12 -0.12)">
      <defs>
       <path id="ArialMT-4d" d="M 475 0 
L 475 4581 
L 1388 4581 
L 2472 1338 
Q 2622 884 2691 659 
Q 2769 909 2934 1394 
L 4031 4581 
L 4847 4581 
L 4847 0 
L 4263 0 
L 4263 3834 
L 2931 0 
L 2384 0 
L 1059 3900 
L 1059 0 
L 475 0 
z
" transform="scale(0.015625)"/>
      </defs>
      <use xlink:href="#ArialMT-50"/>
      <use xlink:href="#ArialMT-72" transform="translate(66.699219 0)"/>
      <use xlink:href="#ArialMT-65" transform="translate(100 0)"/>
      <use xlink:href="#ArialMT-2d" transform="translate(155.615234 0)"/>
      <use xlink:href="#ArialMT-74" transform="translate(188.916016 0)"/>
      <use xlink:href="#ArialMT-72" transform="translate(216.699219 0)"/>
      <use xlink:href="#ArialMT-61" transform="translate(250 0)"/>
      <use xlink:href="#ArialMT-69" transform="translate(305.615234 0)"/>
      <use xlink:href="#ArialMT-6e" transform="translate(327.832031 0)"/>
      <use xlink:href="#ArialMT-65" transform="translate(383.447266 0)"/>
      <use xlink:href="#ArialMT-64" transform="translate(439.0625 0)"/>
      <use xlink:href="#ArialMT-20" transform="translate(494.677734 0)"/>
      <use xlink:href="#ArialMT-4d" transform="translate(522.460938 0)"/>
      <use xlink:href="#ArialMT-6f" transform="translate(605.761719 0)"/>
      <use xlink:href="#ArialMT-64" transform="translate(661.376953 0)"/>
      <use xlink:href="#ArialMT-65" transform="translate(716.992188 0)"/>
      <use xlink:href="#ArialMT-6c" transform="translate(772.607422 0)"/>
      <use xlink:href="#ArialMT-73" transform="translate(794.824219 0)"/>
     </g>
    </g>
    <g id="line2d_21">
     <path d="M 492.818078 111.43675 
L 504.818078 111.43675 
L 516.818078 111.43675 
" style="fill: none; stroke: #ffffff; stroke-width: 1.5; stroke-linecap: round"/>
     <defs>
      <path id="mf5c3d3addb" d="M 0 4 
C 1.060812 4 2.078319 3.578535 2.828427 2.828427 
C 3.578535 2.078319 4 1.060812 4 0 
C 4 -1.060812 3.578535 -2.078319 2.828427 -2.828427 
C 2.078319 -3.578535 1.060812 -4 0 -4 
C -1.060812 -4 -2.078319 -3.578535 -2.828427 -2.828427 
C -3.578535 -2.078319 -4 -1.060812 -4 0 
C -4 1.060812 -3.578535 2.078319 -2.828427 2.828427 
C -2.078319 3.578535 -1.060812 4 0 4 
z
" style="stroke: #2f4f4f"/>
     </defs>
     <g>
      <use xlink:href="#mf5c3d3addb" x="504.818078" y="111.43675" style="fill: #cc7af4; stroke: #2f4f4f"/>
     </g>
    </g>
    <g id="text_24">
     <!-- Baselines -->
     <g style="fill: #262626" transform="translate(526.418078 115.63675) scale(0.12 -0.12)">
      <defs>
       <path id="ArialMT-42" d="M 469 0 
L 469 4581 
L 2188 4581 
Q 2713 4581 3030 4442 
Q 3347 4303 3526 4014 
Q 3706 3725 3706 3409 
Q 3706 3116 3547 2856 
Q 3388 2597 3066 2438 
Q 3481 2316 3704 2022 
Q 3928 1728 3928 1328 
Q 3928 1006 3792 729 
Q 3656 453 3456 303 
Q 3256 153 2954 76 
Q 2653 0 2216 0 
L 469 0 
z
M 1075 2656 
L 2066 2656 
Q 2469 2656 2644 2709 
Q 2875 2778 2992 2937 
Q 3109 3097 3109 3338 
Q 3109 3566 3000 3739 
Q 2891 3913 2687 3977 
Q 2484 4041 1991 4041 
L 1075 4041 
L 1075 2656 
z
M 1075 541 
L 2216 541 
Q 2509 541 2628 563 
Q 2838 600 2978 687 
Q 3119 775 3209 942 
Q 3300 1109 3300 1328 
Q 3300 1584 3169 1773 
Q 3038 1963 2805 2039 
Q 2572 2116 2134 2116 
L 1075 2116 
L 1075 541 
z
" transform="scale(0.015625)"/>
      </defs>
      <use xlink:href="#ArialMT-42"/>
      <use xlink:href="#ArialMT-61" transform="translate(66.699219 0)"/>
      <use xlink:href="#ArialMT-73" transform="translate(122.314453 0)"/>
      <use xlink:href="#ArialMT-65" transform="translate(172.314453 0)"/>
      <use xlink:href="#ArialMT-6c" transform="translate(227.929688 0)"/>
      <use xlink:href="#ArialMT-69" transform="translate(250.146484 0)"/>
      <use xlink:href="#ArialMT-6e" transform="translate(272.363281 0)"/>
      <use xlink:href="#ArialMT-65" transform="translate(327.978516 0)"/>
      <use xlink:href="#ArialMT-73" transform="translate(383.59375 0)"/>
     </g>
    </g>
   </g>
   <g id="legend_2">
    <g id="text_25">
     <!-- Macro F1 -->
     <g style="fill: #262626" transform="translate(492.818078 145.908156) scale(0.14 -0.14)">
      <defs>
       <path id="ArialMT-46" d="M 525 0 
L 525 4581 
L 3616 4581 
L 3616 4041 
L 1131 4041 
L 1131 2622 
L 3281 2622 
L 3281 2081 
L 1131 2081 
L 1131 0 
L 525 0 
z
" transform="scale(0.015625)"/>
      </defs>
      <use xlink:href="#ArialMT-4d"/>
      <use xlink:href="#ArialMT-61" transform="translate(83.300781 0)"/>
      <use xlink:href="#ArialMT-63" transform="translate(138.916016 0)"/>
      <use xlink:href="#ArialMT-72" transform="translate(188.916016 0)"/>
      <use xlink:href="#ArialMT-6f" transform="translate(222.216797 0)"/>
      <use xlink:href="#ArialMT-20" transform="translate(277.832031 0)"/>
      <use xlink:href="#ArialMT-46" transform="translate(305.615234 0)"/>
      <use xlink:href="#ArialMT-31" transform="translate(366.699219 0)"/>
     </g>
    </g>
    <g id="line2d_22">
     <path d="M 497.237765 159.080031 
L 509.237765 159.080031 
L 521.237765 159.080031 
" style="fill: none; stroke: #ffffff; stroke-width: 1.5; stroke-linecap: round"/>
     <defs>
      <path id="mbd9833ee95" d="M 0 2 
C 0.530406 2 1.03916 1.789267 1.414214 1.414214 
C 1.789267 1.03916 2 0.530406 2 0 
C 2 -0.530406 1.789267 -1.03916 1.414214 -1.414214 
C 1.03916 -1.789267 0.530406 -2 0 -2 
C -0.530406 -2 -1.03916 -1.789267 -1.414214 -1.414214 
C -1.789267 -1.03916 -2 -0.530406 -2 0 
C -2 0.530406 -1.789267 1.03916 -1.414214 1.414214 
C -1.03916 1.789267 -0.530406 2 0 2 
z
" style="stroke: #2f4f4f"/>
     </defs>
     <g>
      <use xlink:href="#mbd9833ee95" x="509.237765" y="159.080031" style="fill: #d3d3d3; stroke: #2f4f4f"/>
     </g>
    </g>
    <g id="text_26">
     <!-- 0.0 -->
     <g style="fill: #262626" transform="translate(530.837765 163.280031) scale(0.12 -0.12)">
      <use xlink:href="#ArialMT-30"/>
      <use xlink:href="#ArialMT-2e" transform="translate(55.615234 0)"/>
      <use xlink:href="#ArialMT-30" transform="translate(83.398438 0)"/>
     </g>
    </g>
    <g id="line2d_23">
     <path d="M 497.237765 176.054406 
L 509.237765 176.054406 
L 521.237765 176.054406 
" style="fill: none; stroke: #ffffff; stroke-width: 1.5; stroke-linecap: round"/>
     <defs>
      <path id="mf1051c81f9" d="M 0 6.123724 
C 1.624031 6.123724 3.181764 5.47849 4.330127 4.330127 
C 5.47849 3.181764 6.123724 1.624031 6.123724 0 
C 6.123724 -1.624031 5.47849 -3.181764 4.330127 -4.330127 
C 3.181764 -5.47849 1.624031 -6.123724 0 -6.123724 
C -1.624031 -6.123724 -3.181764 -5.47849 -4.330127 -4.330127 
C -5.47849 -3.181764 -6.123724 -1.624031 -6.123724 0 
C -6.123724 1.624031 -5.47849 3.181764 -4.330127 4.330127 
C -3.181764 5.47849 -1.624031 6.123724 0 6.123724 
z
" style="stroke: #2f4f4f"/>
     </defs>
     <g>
      <use xlink:href="#mf1051c81f9" x="509.237765" y="176.054406" style="fill: #d3d3d3; stroke: #2f4f4f"/>
     </g>
    </g>
    <g id="text_27">
     <!-- 0.5 -->
     <g style="fill: #262626" transform="translate(530.837765 180.254406) scale(0.12 -0.12)">
      <use xlink:href="#ArialMT-30"/>
      <use xlink:href="#ArialMT-2e" transform="translate(55.615234 0)"/>
      <use xlink:href="#ArialMT-35" transform="translate(83.398438 0)"/>
     </g>
    </g>
    <g id="line2d_24">
     <path d="M 497.237765 193.028781 
L 509.237765 193.028781 
L 521.237765 193.028781 
" style="fill: none; stroke: #ffffff; stroke-width: 1.5; stroke-linecap: round"/>
     <defs>
      <path id="mfaefa60360" d="M 0 8.660254 
C 2.296726 8.660254 4.499694 7.747755 6.123724 6.123724 
C 7.747755 4.499694 8.660254 2.296726 8.660254 0 
C 8.660254 -2.296726 7.747755 -4.499694 6.123724 -6.123724 
C 4.499694 -7.747755 2.296726 -8.660254 0 -8.660254 
C -2.296726 -8.660254 -4.499694 -7.747755 -6.123724 -6.123724 
C -7.747755 -4.499694 -8.660254 -2.296726 -8.660254 0 
C -8.660254 2.296726 -7.747755 4.499694 -6.123724 6.123724 
C -4.499694 7.747755 -2.296726 8.660254 0 8.660254 
z
" style="stroke: #2f4f4f"/>
     </defs>
     <g>
      <use xlink:href="#mfaefa60360" x="509.237765" y="193.028781" style="fill: #d3d3d3; stroke: #2f4f4f"/>
     </g>
    </g>
    <g id="text_28">
     <!-- 1.0 -->
     <g style="fill: #262626" transform="translate(530.837765 197.228781) scale(0.12 -0.12)">
      <use xlink:href="#ArialMT-31"/>
      <use xlink:href="#ArialMT-2e" transform="translate(55.615234 0)"/>
      <use xlink:href="#ArialMT-30" transform="translate(83.398438 0)"/>
     </g>
    </g>
   </g>
  </g>
 </g>
 <defs>
  <clipPath id="pa85c13b868">
   <rect x="44.183438" y="24.8575" width="435.132" height="357.2325"/>
  </clipPath>
 </defs>
</svg>
